<svg width="411" height="144" viewBox="0 0 411 144" fill="none" xmlns="http://www.w3.org/2000/svg">
<g filter="url(#filter0_d_51_409)">
<path fill-rule="evenodd" clip-rule="evenodd" d="M37 119.044C30.3726 119.044 25 113.672 25 107.044V42.9922C25 36.3648 30.3726 30.9922 37 30.9922H358.883L361.939 26.6855C363.533 24.4382 366.869 24.4382 368.464 26.6855L371.519 30.9922H374C380.627 30.9922 386 36.3648 386 42.9922V107.044C386 113.672 380.627 119.044 374 119.044H37Z" fill="white"/>
<path d="M358.883 30.9922L359.291 31.2815C359.197 31.4137 359.045 31.4922 358.883 31.4922V30.9922ZM361.939 26.6855L361.531 26.3962L361.531 26.3962L361.939 26.6855ZM368.464 26.6855L368.871 26.3962L368.871 26.3962L368.464 26.6855ZM371.519 30.9922V31.4922C371.357 31.4922 371.205 31.4137 371.111 31.2815L371.519 30.9922ZM25.5 107.044C25.5 113.396 30.6487 118.544 37 118.544V119.544C30.0964 119.544 24.5 113.948 24.5 107.044H25.5ZM25.5 42.9922V107.044H24.5V42.9922H25.5ZM37 31.4922C30.6487 31.4922 25.5 36.6409 25.5 42.9922H24.5C24.5 36.0886 30.0964 30.4922 37 30.4922V31.4922ZM358.883 31.4922H37V30.4922H358.883V31.4922ZM358.476 30.7029L361.531 26.3962L362.347 26.9748L359.291 31.2815L358.476 30.7029ZM361.531 26.3962C363.325 23.868 367.078 23.868 368.871 26.3962L368.056 26.9748C366.661 25.0085 363.742 25.0085 362.347 26.9748L361.531 26.3962ZM368.871 26.3962L371.927 30.7029L371.111 31.2815L368.056 26.9748L368.871 26.3962ZM374 31.4922H371.519V30.4922H374V31.4922ZM385.5 42.9922C385.5 36.6409 380.351 31.4922 374 31.4922V30.4922C380.904 30.4922 386.5 36.0886 386.5 42.9922H385.5ZM385.5 107.044V42.9922H386.5V107.044H385.5ZM374 118.544C380.351 118.544 385.5 113.396 385.5 107.044H386.5C386.5 113.948 380.904 119.544 374 119.544V118.544ZM37 118.544H374V119.544H37V118.544Z" fill="black" fill-opacity="0.3"/>
<rect x="33" y="38.9692" width="28" height="28" rx="6.22222" fill="#261C41"/>
<path d="M47.4579 56.1647L46.3695 58.2355C46.0662 58.5388 45.5208 58.2595 45.171 57.9799C45.0765 57.9044 43.5549 56.5478 43.4693 56.4623C42.6682 55.6534 41.9449 54.8056 41.2993 53.9189C40.6615 53.0323 40.1482 52.1456 39.7749 51.2667C39.4093 50.38 39.2227 49.5323 39.2227 48.7234C39.2227 48.1945 39.316 47.6889 39.5027 47.2223C39.6893 46.7478 39.9849 46.3123 40.3971 45.9234C40.8949 45.4334 41.4393 45.1923 42.0149 45.1923C42.2327 45.1923 42.4504 45.2389 42.6449 45.3323C42.8471 45.4256 43.026 45.5656 43.166 45.7678L44.9704 48.3111C45.1104 48.5056 45.2115 48.6845 45.2815 48.8556C45.3515 49.0189 45.3904 49.1823 45.3904 49.33C45.3904 49.5167 45.336 49.7034 45.2271 49.8823C45.126 50.0611 44.9782 50.2478 44.7915 50.4345L44.2004 51.0489C44.1149 51.1345 44.076 51.2356 44.076 51.36C44.076 51.4223 44.0838 51.4767 44.0993 51.5389C44.1227 51.6011 44.146 51.6478 44.1615 51.6945C44.3015 51.9511 44.5427 52.2856 44.8849 52.69C45.2349 53.0945 45.6082 53.5067 46.0127 53.9189C46.0904 53.9967 47.6184 55.3646 47.7083 55.4279C48.0577 55.674 47.769 55.8536 47.4579 56.1647Z" fill="white"/>
<path d="M54.7549 57.8934C54.7549 58.1112 54.716 58.3368 54.6382 58.5545C54.6149 58.6168 54.5916 58.679 54.5605 58.7412C54.4282 59.0212 54.2571 59.2857 54.0316 59.5345C53.6505 59.9545 53.2305 60.2579 52.756 60.4523C52.7482 60.4523 52.7405 60.4601 52.7327 60.4601C52.2738 60.6468 51.776 60.7479 51.2393 60.7479C50.446 60.7479 49.5982 60.5612 48.7038 60.1801C47.8093 59.799 46.9149 59.2857 46.0282 58.6401C45.7249 58.4145 45.4216 58.189 45.1338 57.9479L47.6771 55.4045C47.8949 55.5679 48.0893 55.6923 48.2527 55.7779C48.2916 55.7934 48.3382 55.8168 48.3927 55.8401C48.4549 55.8634 48.5171 55.8712 48.5871 55.8712C48.7193 55.8712 48.8205 55.8245 48.906 55.739L49.4971 55.1557C49.6916 54.9612 49.8782 54.8134 50.0571 54.7201C50.236 54.6112 50.4149 54.5568 50.6093 54.5568C50.7571 54.5568 50.9127 54.5879 51.0838 54.6579C51.2549 54.7279 51.4338 54.829 51.6282 54.9612L54.2027 56.789C54.4049 56.929 54.5449 57.0923 54.6305 57.2868C54.7082 57.4812 54.7549 57.6757 54.7549 57.8934Z" fill="white"/>
<path d="M79.604 48.2547C79.5947 48.4601 79.5153 48.6327 79.366 48.7727C79.226 48.9034 79.058 48.9688 78.862 48.9688C78.6473 48.9688 78.47 48.9034 78.33 48.7727C78.1993 48.6327 78.134 48.4601 78.134 48.2547V39.8827C78.134 39.6774 78.204 39.5094 78.344 39.3787C78.484 39.2387 78.666 39.1687 78.89 39.1687C79.0767 39.1687 79.24 39.2387 79.38 39.3787C79.5293 39.5094 79.604 39.6774 79.604 39.8827V48.2547ZM85.5064 41.4367C86.1691 41.4367 86.6824 41.5767 87.0464 41.8567C87.4104 42.1274 87.6624 42.4961 87.8024 42.9627C87.9518 43.4201 88.0264 43.9334 88.0264 44.5027V48.2547C88.0264 48.4601 87.9564 48.6327 87.8164 48.7727C87.6858 48.9034 87.5224 48.9688 87.3264 48.9688C87.1211 48.9688 86.9531 48.9034 86.8224 48.7727C86.6918 48.6327 86.6264 48.4601 86.6264 48.2547V44.5167C86.6264 44.1807 86.5798 43.8821 86.4864 43.6207C86.3931 43.3501 86.2298 43.1354 85.9964 42.9767C85.7724 42.8087 85.4551 42.7247 85.0444 42.7247C84.6618 42.7247 84.3258 42.8087 84.0364 42.9767C83.7471 43.1354 83.5184 43.3501 83.3504 43.6207C83.1918 43.8821 83.1124 44.1807 83.1124 44.5167V48.2547C83.1124 48.4601 83.0424 48.6327 82.9024 48.7727C82.7718 48.9034 82.6084 48.9688 82.4124 48.9688C82.2071 48.9688 82.0391 48.9034 81.9084 48.7727C81.7778 48.6327 81.7124 48.4601 81.7124 48.2547V42.3187C81.7124 42.1134 81.7778 41.9454 81.9084 41.8147C82.0391 41.6747 82.2071 41.6047 82.4124 41.6047C82.6084 41.6047 82.7718 41.6747 82.9024 41.8147C83.0424 41.9454 83.1124 42.1134 83.1124 42.3187V43.1027L82.8604 43.2427C82.9258 43.0374 83.0378 42.8321 83.1964 42.6267C83.3644 42.4121 83.5651 42.2161 83.7984 42.0387C84.0318 41.8521 84.2931 41.7074 84.5824 41.6047C84.8718 41.4927 85.1798 41.4367 85.5064 41.4367ZM93.2322 41.4367C93.7362 41.4367 94.1842 41.4927 94.5762 41.6047C94.9682 41.7074 95.2716 41.8567 95.4862 42.0527C95.7102 42.2394 95.8222 42.4587 95.8222 42.7107C95.8222 42.8694 95.7756 43.0187 95.6822 43.1587C95.5889 43.2894 95.4489 43.3547 95.2622 43.3547C95.1316 43.3547 95.0196 43.3314 94.9262 43.2847C94.8422 43.2381 94.7629 43.1821 94.6882 43.1167C94.6136 43.0514 94.5202 42.9861 94.4082 42.9207C94.3056 42.8647 94.1516 42.8181 93.9462 42.7807C93.7502 42.7434 93.5729 42.7247 93.4142 42.7247C92.9196 42.7247 92.4902 42.8367 92.1262 43.0607C91.7716 43.2847 91.4916 43.5881 91.2862 43.9707C91.0902 44.3534 90.9922 44.7874 90.9922 45.2728C90.9922 45.7581 91.0902 46.1921 91.2862 46.5747C91.4916 46.9574 91.7669 47.2607 92.1122 47.4847C92.4669 47.7087 92.8776 47.8207 93.3442 47.8207C93.6242 47.8207 93.8529 47.8021 94.0302 47.7647C94.2076 47.7181 94.3616 47.6621 94.4922 47.5967C94.6322 47.5127 94.7489 47.4287 94.8422 47.3447C94.9449 47.2514 95.0849 47.2047 95.2622 47.2047C95.4676 47.2047 95.6216 47.2701 95.7242 47.4007C95.8362 47.5221 95.8922 47.6761 95.8922 47.8627C95.8922 48.0681 95.7662 48.2687 95.5142 48.4647C95.2716 48.6514 94.9449 48.8054 94.5342 48.9267C94.1236 49.0481 93.6709 49.1088 93.1762 49.1088C92.4482 49.1088 91.8136 48.9408 91.2722 48.6047C90.7402 48.2687 90.3249 47.8114 90.0262 47.2327C89.7369 46.6541 89.5922 46.0007 89.5922 45.2728C89.5922 44.5354 89.7462 43.8821 90.0542 43.3127C90.3622 42.7341 90.7916 42.2767 91.3422 41.9407C91.8929 41.6047 92.5229 41.4367 93.2322 41.4367ZM104.286 45.2867C104.286 46.0334 104.123 46.6961 103.796 47.2747C103.469 47.8441 103.026 48.2921 102.466 48.6187C101.906 48.9454 101.276 49.1088 100.576 49.1088C99.876 49.1088 99.246 48.9454 98.686 48.6187C98.126 48.2921 97.678 47.8441 97.342 47.2747C97.0153 46.6961 96.852 46.0334 96.852 45.2867C96.852 44.5307 97.0153 43.8681 97.342 43.2987C97.678 42.7201 98.126 42.2674 98.686 41.9407C99.246 41.6047 99.876 41.4367 100.576 41.4367C101.276 41.4367 101.906 41.6047 102.466 41.9407C103.026 42.2674 103.469 42.7201 103.796 43.2987C104.123 43.8681 104.286 44.5307 104.286 45.2867ZM102.886 45.2867C102.886 44.7734 102.783 44.3301 102.578 43.9567C102.373 43.5741 102.093 43.2754 101.738 43.0607C101.393 42.8367 101.005 42.7247 100.576 42.7247C100.147 42.7247 99.7547 42.8367 99.4 43.0607C99.0453 43.2754 98.7653 43.5741 98.56 43.9567C98.3547 44.3301 98.252 44.7734 98.252 45.2867C98.252 45.7814 98.3547 46.2201 98.56 46.6027C98.7653 46.9854 99.0453 47.2841 99.4 47.4987C99.7547 47.7134 100.147 47.8207 100.576 47.8207C101.005 47.8207 101.393 47.7134 101.738 47.4987C102.093 47.2841 102.373 46.9854 102.578 46.6027C102.783 46.2201 102.886 45.7814 102.886 45.2867ZM109.567 41.4787C110.257 41.4787 110.789 41.6514 111.163 41.9967C111.536 42.3327 111.783 42.7901 111.905 43.3687L111.681 43.2987L111.779 43.0747C111.9 42.8321 112.082 42.5894 112.325 42.3467C112.577 42.0947 112.875 41.8894 113.221 41.7307C113.566 41.5627 113.935 41.4787 114.327 41.4787C114.971 41.4787 115.47 41.6187 115.825 41.8988C116.179 42.1694 116.427 42.5381 116.567 43.0047C116.707 43.4621 116.777 43.9754 116.777 44.5447V48.2547C116.777 48.4601 116.711 48.6327 116.581 48.7727C116.45 48.9034 116.282 48.9688 116.077 48.9688C115.881 48.9688 115.713 48.9034 115.573 48.7727C115.442 48.6327 115.377 48.4601 115.377 48.2547V44.5587C115.377 44.2321 115.33 43.9334 115.237 43.6627C115.153 43.3921 114.999 43.1774 114.775 43.0187C114.56 42.8507 114.261 42.7667 113.879 42.7667C113.515 42.7667 113.188 42.8507 112.899 43.0187C112.619 43.1774 112.399 43.3921 112.241 43.6627C112.082 43.9334 112.003 44.2321 112.003 44.5587V48.2547C112.003 48.4601 111.937 48.6327 111.807 48.7727C111.676 48.9034 111.508 48.9688 111.303 48.9688C111.097 48.9688 110.929 48.9034 110.799 48.7727C110.668 48.6327 110.603 48.4601 110.603 48.2547V44.5447C110.603 44.2181 110.556 43.9194 110.463 43.6487C110.379 43.3781 110.229 43.1634 110.015 43.0047C109.8 42.8461 109.501 42.7667 109.119 42.7667C108.755 42.7667 108.433 42.8461 108.153 43.0047C107.873 43.1634 107.653 43.3781 107.495 43.6487C107.345 43.9194 107.271 44.2181 107.271 44.5447V48.2547C107.271 48.4601 107.201 48.6327 107.061 48.7727C106.93 48.9034 106.767 48.9688 106.571 48.9688C106.365 48.9688 106.197 48.9034 106.067 48.7727C105.936 48.6327 105.871 48.4601 105.871 48.2547V42.3187C105.871 42.1134 105.936 41.9454 106.067 41.8147C106.197 41.6747 106.365 41.6047 106.571 41.6047C106.767 41.6047 106.93 41.6747 107.061 41.8147C107.201 41.9454 107.271 42.1134 107.271 42.3187V43.1447L107.005 43.2987C107.07 43.0934 107.177 42.8834 107.327 42.6687C107.476 42.4541 107.663 42.2581 107.887 42.0807C108.12 41.9034 108.377 41.7587 108.657 41.6467C108.937 41.5347 109.24 41.4787 109.567 41.4787ZM120.052 48.2547C120.052 48.4601 119.987 48.6327 119.856 48.7727C119.725 48.9034 119.557 48.9688 119.352 48.9688C119.156 48.9688 118.988 48.9034 118.848 48.7727C118.717 48.6327 118.652 48.4601 118.652 48.2547V42.2627C118.652 42.0574 118.717 41.8894 118.848 41.7587C118.988 41.6187 119.156 41.5487 119.352 41.5487C119.557 41.5487 119.725 41.6187 119.856 41.7587C119.987 41.8894 120.052 42.0574 120.052 42.2627V48.2547ZM119.338 40.6247C119.067 40.6247 118.871 40.5781 118.75 40.4847C118.629 40.3821 118.568 40.2141 118.568 39.9807V39.7567C118.568 39.5234 118.633 39.3601 118.764 39.2667C118.895 39.1734 119.091 39.1267 119.352 39.1267C119.632 39.1267 119.833 39.1781 119.954 39.2807C120.075 39.3741 120.136 39.5327 120.136 39.7567V39.9807C120.136 40.2234 120.071 40.3914 119.94 40.4847C119.819 40.5781 119.618 40.6247 119.338 40.6247ZM125.729 41.4367C126.392 41.4367 126.905 41.5767 127.269 41.8567C127.633 42.1274 127.885 42.4961 128.025 42.9627C128.174 43.4201 128.249 43.9334 128.249 44.5027V48.2547C128.249 48.4601 128.179 48.6327 128.039 48.7727C127.908 48.9034 127.745 48.9688 127.549 48.9688C127.344 48.9688 127.176 48.9034 127.045 48.7727C126.914 48.6327 126.849 48.4601 126.849 48.2547V44.5167C126.849 44.1807 126.802 43.8821 126.709 43.6207C126.616 43.3501 126.452 43.1354 126.219 42.9767C125.995 42.8087 125.678 42.7247 125.267 42.7247C124.884 42.7247 124.548 42.8087 124.259 42.9767C123.97 43.1354 123.741 43.3501 123.573 43.6207C123.414 43.8821 123.335 44.1807 123.335 44.5167V48.2547C123.335 48.4601 123.265 48.6327 123.125 48.7727C122.994 48.9034 122.831 48.9688 122.635 48.9688C122.43 48.9688 122.262 48.9034 122.131 48.7727C122 48.6327 121.935 48.4601 121.935 48.2547V42.3187C121.935 42.1134 122 41.9454 122.131 41.8147C122.262 41.6747 122.43 41.6047 122.635 41.6047C122.831 41.6047 122.994 41.6747 123.125 41.8147C123.265 41.9454 123.335 42.1134 123.335 42.3187V43.1027L123.083 43.2427C123.148 43.0374 123.26 42.8321 123.419 42.6267C123.587 42.4121 123.788 42.2161 124.021 42.0387C124.254 41.8521 124.516 41.7074 124.805 41.6047C125.094 41.4927 125.402 41.4367 125.729 41.4367ZM133.259 41.4367C133.66 41.4367 134.029 41.5021 134.365 41.6327C134.701 41.7634 134.99 41.9314 135.233 42.1367C135.485 42.3327 135.681 42.5381 135.821 42.7527C135.961 42.9674 136.031 43.1541 136.031 43.3127L135.709 43.3267V42.2067C135.709 42.0107 135.774 41.8427 135.905 41.7027C136.036 41.5627 136.204 41.4927 136.409 41.4927C136.614 41.4927 136.782 41.5627 136.913 41.7027C137.044 41.8334 137.109 42.0014 137.109 42.2067V48.3807C137.109 49.1741 136.941 49.8181 136.605 50.3128C136.269 50.8168 135.821 51.1854 135.261 51.4188C134.71 51.6521 134.104 51.7688 133.441 51.7688C133.208 51.7688 132.932 51.7361 132.615 51.6708C132.298 51.6148 132.004 51.5448 131.733 51.4608C131.472 51.3768 131.29 51.2928 131.187 51.2088C130.972 51.0968 130.828 50.9661 130.753 50.8167C130.688 50.6674 130.688 50.5181 130.753 50.3688C130.846 50.1634 130.972 50.0374 131.131 49.9908C131.29 49.9441 131.472 49.9581 131.677 50.0328C131.77 50.0608 131.915 50.1121 132.111 50.1868C132.307 50.2614 132.526 50.3268 132.769 50.3828C133.012 50.4481 133.24 50.4808 133.455 50.4808C134.202 50.4808 134.762 50.3081 135.135 49.9628C135.518 49.6174 135.709 49.1461 135.709 48.5487V47.2887L135.863 47.3867C135.835 47.5827 135.746 47.7834 135.597 47.9887C135.457 48.1847 135.27 48.3667 135.037 48.5347C134.804 48.7027 134.533 48.8427 134.225 48.9547C133.926 49.0574 133.618 49.1088 133.301 49.1088C132.638 49.1088 132.046 48.9454 131.523 48.6187C131 48.2827 130.585 47.8301 130.277 47.2607C129.969 46.6821 129.815 46.0194 129.815 45.2728C129.815 44.5261 129.969 43.8681 130.277 43.2987C130.585 42.7201 130.996 42.2674 131.509 41.9407C132.032 41.6047 132.615 41.4367 133.259 41.4367ZM133.469 42.7247C133.012 42.7247 132.61 42.8367 132.265 43.0607C131.92 43.2847 131.649 43.5881 131.453 43.9707C131.257 44.3534 131.159 44.7874 131.159 45.2728C131.159 45.7581 131.257 46.1921 131.453 46.5747C131.649 46.9574 131.92 47.2607 132.265 47.4847C132.61 47.7087 133.012 47.8207 133.469 47.8207C133.926 47.8207 134.328 47.7134 134.673 47.4987C135.018 47.2747 135.289 46.9714 135.485 46.5887C135.681 46.1967 135.779 45.7581 135.779 45.2728C135.779 44.7874 135.681 44.3534 135.485 43.9707C135.289 43.5787 135.018 43.2754 134.673 43.0607C134.328 42.8367 133.926 42.7247 133.469 42.7247ZM150.061 39.7287C150.266 39.8314 150.383 39.9901 150.411 40.2047C150.448 40.4194 150.397 40.6154 150.257 40.7927C150.154 40.9327 150.019 41.0121 149.851 41.0307C149.692 41.0494 149.533 41.0168 149.375 40.9327C149.104 40.7927 148.819 40.6807 148.521 40.5967C148.222 40.5127 147.905 40.4707 147.569 40.4707C147.037 40.4707 146.556 40.5594 146.127 40.7368C145.707 40.9047 145.343 41.1521 145.035 41.4787C144.727 41.7961 144.489 42.1741 144.321 42.6127C144.162 43.0514 144.083 43.5367 144.083 44.0687C144.083 44.6567 144.171 45.1794 144.349 45.6367C144.526 46.0847 144.769 46.4674 145.077 46.7847C145.394 47.0927 145.763 47.3261 146.183 47.4847C146.612 47.6341 147.074 47.7087 147.569 47.7087C147.886 47.7087 148.194 47.6714 148.493 47.5967C148.801 47.5221 149.09 47.4101 149.361 47.2607C149.529 47.1767 149.692 47.1487 149.851 47.1767C150.019 47.1954 150.154 47.2747 150.257 47.4147C150.415 47.6107 150.471 47.8114 150.425 48.0167C150.387 48.2127 150.271 48.3621 150.075 48.4647C149.841 48.5954 149.585 48.7074 149.305 48.8007C149.025 48.8941 148.74 48.9688 148.451 49.0248C148.161 49.0808 147.867 49.1088 147.569 49.1088C146.897 49.1088 146.262 48.9968 145.665 48.7727C145.067 48.5487 144.535 48.2221 144.069 47.7927C143.602 47.3634 143.233 46.8361 142.963 46.2107C142.701 45.5854 142.571 44.8714 142.571 44.0687C142.571 43.3501 142.692 42.6874 142.935 42.0807C143.187 41.4647 143.537 40.9374 143.985 40.4987C144.442 40.0507 144.974 39.7054 145.581 39.4627C146.187 39.2107 146.85 39.0847 147.569 39.0847C148.017 39.0847 148.451 39.1407 148.871 39.2527C149.3 39.3647 149.697 39.5234 150.061 39.7287ZM157.883 41.4927C158.088 41.4927 158.256 41.5627 158.387 41.7027C158.518 41.8334 158.583 42.0014 158.583 42.2067V48.2547C158.583 48.4601 158.518 48.6327 158.387 48.7727C158.256 48.9034 158.088 48.9688 157.883 48.9688C157.687 48.9688 157.519 48.9034 157.379 48.7727C157.248 48.6327 157.183 48.4601 157.183 48.2547V47.2467L157.477 47.2887C157.477 47.4567 157.407 47.6434 157.267 47.8487C157.136 48.0541 156.954 48.2547 156.721 48.4507C156.488 48.6374 156.212 48.7961 155.895 48.9267C155.578 49.0481 155.237 49.1088 154.873 49.1088C154.229 49.1088 153.65 48.9454 153.137 48.6187C152.624 48.2827 152.218 47.8254 151.919 47.2467C151.62 46.6681 151.471 46.0101 151.471 45.2728C151.471 44.5167 151.62 43.8541 151.919 43.2847C152.218 42.7061 152.619 42.2534 153.123 41.9267C153.636 41.6001 154.206 41.4367 154.831 41.4367C155.232 41.4367 155.601 41.5021 155.937 41.6327C156.282 41.7634 156.581 41.9314 156.833 42.1367C157.085 42.3421 157.276 42.5614 157.407 42.7947C157.547 43.0187 157.617 43.2334 157.617 43.4387L157.183 43.4807V42.2067C157.183 42.0107 157.248 41.8427 157.379 41.7027C157.519 41.5627 157.687 41.4927 157.883 41.4927ZM155.027 47.8207C155.466 47.8207 155.853 47.7087 156.189 47.4847C156.525 47.2607 156.786 46.9574 156.973 46.5747C157.16 46.1827 157.253 45.7487 157.253 45.2728C157.253 44.7874 157.16 44.3534 156.973 43.9707C156.786 43.5881 156.525 43.2847 156.189 43.0607C155.853 42.8367 155.466 42.7247 155.027 42.7247C154.598 42.7247 154.215 42.8367 153.879 43.0607C153.552 43.2847 153.291 43.5881 153.095 43.9707C152.908 44.3534 152.815 44.7874 152.815 45.2728C152.815 45.7487 152.908 46.1827 153.095 46.5747C153.291 46.9574 153.552 47.2607 153.879 47.4847C154.215 47.7087 154.598 47.8207 155.027 47.8207ZM162.056 48.2547C162.056 48.4601 161.986 48.6327 161.846 48.7727C161.716 48.9034 161.552 48.9688 161.356 48.9688C161.16 48.9688 160.992 48.9034 160.852 48.7727C160.722 48.6327 160.656 48.4601 160.656 48.2547V39.3227C160.656 39.1174 160.726 38.9494 160.866 38.8187C161.006 38.6787 161.174 38.6087 161.37 38.6087C161.576 38.6087 161.739 38.6787 161.86 38.8187C161.991 38.9494 162.056 39.1174 162.056 39.3227V48.2547ZM165.652 48.2547C165.652 48.4601 165.582 48.6327 165.442 48.7727C165.311 48.9034 165.148 48.9688 164.952 48.9688C164.756 48.9688 164.588 48.9034 164.448 48.7727C164.317 48.6327 164.252 48.4601 164.252 48.2547V39.3227C164.252 39.1174 164.322 38.9494 164.462 38.8187C164.602 38.6787 164.77 38.6087 164.966 38.6087C165.171 38.6087 165.335 38.6787 165.456 38.8187C165.587 38.9494 165.652 39.1174 165.652 39.3227V48.2547ZM168.394 43.3687C168.161 43.3687 167.979 43.3081 167.848 43.1867C167.727 43.0561 167.666 42.8741 167.666 42.6407V42.3747C167.666 42.1414 167.727 41.9594 167.848 41.8287C167.979 41.6981 168.161 41.6327 168.394 41.6327H168.548C168.781 41.6327 168.959 41.6981 169.08 41.8287C169.201 41.9594 169.262 42.1414 169.262 42.3747V42.6407C169.262 42.8741 169.201 43.0561 169.08 43.1867C168.959 43.3081 168.781 43.3687 168.548 43.3687H168.394ZM168.394 48.9688C168.161 48.9688 167.979 48.9034 167.848 48.7727C167.727 48.6421 167.666 48.4601 167.666 48.2267V47.9747C167.666 47.7321 167.727 47.5501 167.848 47.4287C167.979 47.2981 168.161 47.2327 168.394 47.2327H168.548C168.781 47.2327 168.959 47.2981 169.08 47.4287C169.201 47.5501 169.262 47.7321 169.262 47.9747V48.2267C169.262 48.4601 169.201 48.6421 169.08 48.7727C168.959 48.9034 168.781 48.9688 168.548 48.9688H168.394ZM175.33 44.9787C175.144 44.9787 174.985 44.9181 174.854 44.7967C174.733 44.6661 174.672 44.5027 174.672 44.3067C174.672 44.1201 174.733 43.9707 174.854 43.8587C174.985 43.7374 175.144 43.6767 175.33 43.6767H181.056C181.243 43.6767 181.397 43.7374 181.518 43.8587C181.649 43.9801 181.714 44.1387 181.714 44.3347C181.714 44.5121 181.649 44.6661 181.518 44.7967C181.397 44.9181 181.243 44.9787 181.056 44.9787H175.33ZM178.172 47.8067C177.958 47.8067 177.776 47.7367 177.626 47.5967C177.486 47.4567 177.416 47.2747 177.416 47.0507V41.4367C177.416 41.2221 177.491 41.0447 177.64 40.9047C177.79 40.7647 177.972 40.6947 178.186 40.6947C178.41 40.6947 178.588 40.7647 178.718 40.9047C178.858 41.0447 178.928 41.2221 178.928 41.4367V47.0507C178.928 47.2747 178.858 47.4567 178.718 47.5967C178.578 47.7367 178.396 47.8067 178.172 47.8067ZM186.03 39.0007C186.552 39.0007 187.014 39.1034 187.416 39.3087C187.826 39.5141 188.167 39.7941 188.438 40.1487C188.718 40.4941 188.928 40.8907 189.068 41.3387C189.217 41.7774 189.292 42.2347 189.292 42.7107C189.292 43.0747 189.25 43.4947 189.166 43.9707C189.082 44.4374 188.942 44.9274 188.746 45.4407C188.55 45.9541 188.288 46.4487 187.962 46.9247C187.644 47.4007 187.243 47.8301 186.758 48.2127C186.282 48.5861 185.712 48.8754 185.05 49.0808C184.956 49.0994 184.868 49.1088 184.784 49.1088C184.597 49.1088 184.429 49.0574 184.28 48.9547C184.14 48.8521 184.07 48.6841 184.07 48.4507C184.07 48.2734 184.126 48.1241 184.238 48.0027C184.35 47.8814 184.499 47.7927 184.686 47.7367C185.143 47.5687 185.591 47.3121 186.03 46.9667C186.468 46.6121 186.846 46.1967 187.164 45.7207C187.481 45.2354 187.696 44.7174 187.808 44.1667L188.158 44.1107C188.018 44.3067 187.84 44.5074 187.626 44.7127C187.411 44.9181 187.154 45.0907 186.856 45.2307C186.557 45.3614 186.212 45.4267 185.82 45.4267C185.213 45.4267 184.686 45.2914 184.238 45.0207C183.79 44.7407 183.444 44.3581 183.202 43.8727C182.959 43.3874 182.838 42.8321 182.838 42.2067C182.838 41.6281 182.978 41.0961 183.258 40.6107C183.547 40.1254 183.93 39.7381 184.406 39.4487C184.891 39.1501 185.432 39.0007 186.03 39.0007ZM186.044 40.2887C185.698 40.2887 185.39 40.3727 185.12 40.5407C184.849 40.7087 184.634 40.9374 184.476 41.2267C184.317 41.5161 184.238 41.8427 184.238 42.2067C184.238 42.5707 184.308 42.9021 184.448 43.2007C184.588 43.4901 184.793 43.7187 185.064 43.8867C185.334 44.0547 185.652 44.1387 186.016 44.1387C186.38 44.1387 186.702 44.0547 186.982 43.8867C187.262 43.7094 187.481 43.4714 187.64 43.1727C187.798 42.8741 187.878 42.5474 187.878 42.1927C187.878 41.8381 187.798 41.5207 187.64 41.2407C187.481 40.9514 187.266 40.7227 186.996 40.5547C186.725 40.3774 186.408 40.2887 186.044 40.2887ZM193.315 48.9688C193.1 48.9688 192.923 48.9034 192.783 48.7727C192.643 48.6327 192.573 48.4601 192.573 48.2547V40.7507L192.755 41.0027L191.453 41.9127C191.341 42.0061 191.206 42.0527 191.047 42.0527C190.86 42.0527 190.692 41.9827 190.543 41.8427C190.403 41.6934 190.333 41.5207 190.333 41.3247C190.333 41.0821 190.454 40.8814 190.697 40.7227L192.825 39.3087C192.909 39.2527 192.998 39.2154 193.091 39.1967C193.194 39.1781 193.287 39.1687 193.371 39.1687C193.586 39.1687 193.758 39.2387 193.889 39.3787C194.02 39.5094 194.085 39.6774 194.085 39.8827V48.2547C194.085 48.4601 194.01 48.6327 193.861 48.7727C193.721 48.9034 193.539 48.9688 193.315 48.9688ZM204.643 48.9688C204.447 48.9688 204.284 48.9034 204.153 48.7727C204.022 48.6327 203.957 48.4601 203.957 48.2547V41.1287L204.209 41.2127L201.185 45.0767L201.115 44.8947H206.211C206.398 44.8947 206.552 44.9601 206.673 45.0907C206.804 45.2121 206.869 45.3661 206.869 45.5527C206.869 45.7301 206.804 45.8794 206.673 46.0007C206.552 46.1221 206.398 46.1827 206.211 46.1827H200.149C199.981 46.1827 199.822 46.1174 199.673 45.9867C199.524 45.8467 199.449 45.6834 199.449 45.4967C199.449 45.3194 199.51 45.1607 199.631 45.0207L204.083 39.4487C204.148 39.3554 204.232 39.2854 204.335 39.2387C204.438 39.1921 204.545 39.1687 204.657 39.1687C204.862 39.1687 205.03 39.2387 205.161 39.3787C205.292 39.5094 205.357 39.6774 205.357 39.8827V48.2547C205.357 48.4601 205.287 48.6327 205.147 48.7727C205.007 48.9034 204.839 48.9688 204.643 48.9688ZM211.508 49.1088C210.724 49.1088 210.061 48.8941 209.52 48.4647C208.979 48.0261 208.568 47.4287 208.288 46.6727C208.017 45.9074 207.882 45.0394 207.882 44.0687C207.882 43.0887 208.017 42.2207 208.288 41.4647C208.568 40.6994 208.979 40.1021 209.52 39.6727C210.061 39.2434 210.724 39.0287 211.508 39.0287C212.292 39.0287 212.95 39.2434 213.482 39.6727C214.023 40.1021 214.434 40.6994 214.714 41.4647C214.994 42.2207 215.134 43.0887 215.134 44.0687C215.134 45.0394 214.994 45.9074 214.714 46.6727C214.434 47.4287 214.023 48.0261 213.482 48.4647C212.95 48.8941 212.292 49.1088 211.508 49.1088ZM211.508 47.6947C211.947 47.6947 212.32 47.5547 212.628 47.2747C212.945 46.9947 213.188 46.5841 213.356 46.0427C213.533 45.5014 213.622 44.8434 213.622 44.0687C213.622 43.2847 213.533 42.6221 213.356 42.0807C213.188 41.5394 212.945 41.1287 212.628 40.8487C212.32 40.5687 211.947 40.4287 211.508 40.4287C211.069 40.4287 210.691 40.5687 210.374 40.8487C210.057 41.1287 209.814 41.5394 209.646 42.0807C209.478 42.6221 209.394 43.2847 209.394 44.0687C209.394 44.8434 209.478 45.5014 209.646 46.0427C209.814 46.5841 210.057 46.9947 210.374 47.2747C210.691 47.5547 211.069 47.6947 211.508 47.6947ZM221.118 48.9688C220.922 48.9688 220.758 48.9034 220.628 48.7727C220.497 48.6327 220.432 48.4601 220.432 48.2547V41.1287L220.684 41.2127L217.66 45.0767L217.59 44.8947H222.686C222.872 44.8947 223.026 44.9601 223.148 45.0907C223.278 45.2121 223.344 45.3661 223.344 45.5527C223.344 45.7301 223.278 45.8794 223.148 46.0007C223.026 46.1221 222.872 46.1827 222.686 46.1827H216.624C216.456 46.1827 216.297 46.1174 216.148 45.9867C215.998 45.8467 215.924 45.6834 215.924 45.4967C215.924 45.3194 215.984 45.1607 216.106 45.0207L220.558 39.4487C220.623 39.3554 220.707 39.2854 220.81 39.2387C220.912 39.1921 221.02 39.1687 221.132 39.1687C221.337 39.1687 221.505 39.2387 221.636 39.3787C221.766 39.5094 221.832 39.6774 221.832 39.8827V48.2547C221.832 48.4601 221.762 48.6327 221.622 48.7727C221.482 48.9034 221.314 48.9688 221.118 48.9688ZM227.983 49.1088C227.199 49.1088 226.536 48.8941 225.995 48.4647C225.453 48.0261 225.043 47.4287 224.763 46.6727C224.492 45.9074 224.357 45.0394 224.357 44.0687C224.357 43.0887 224.492 42.2207 224.763 41.4647C225.043 40.6994 225.453 40.1021 225.995 39.6727C226.536 39.2434 227.199 39.0287 227.983 39.0287C228.767 39.0287 229.425 39.2434 229.957 39.6727C230.498 40.1021 230.909 40.6994 231.189 41.4647C231.469 42.2207 231.609 43.0887 231.609 44.0687C231.609 45.0394 231.469 45.9074 231.189 46.6727C230.909 47.4287 230.498 48.0261 229.957 48.4647C229.425 48.8941 228.767 49.1088 227.983 49.1088ZM227.983 47.6947C228.421 47.6947 228.795 47.5547 229.103 47.2747C229.42 46.9947 229.663 46.5841 229.831 46.0427C230.008 45.5014 230.097 44.8434 230.097 44.0687C230.097 43.2847 230.008 42.6221 229.831 42.0807C229.663 41.5394 229.42 41.1287 229.103 40.8487C228.795 40.5687 228.421 40.4287 227.983 40.4287C227.544 40.4287 227.166 40.5687 226.849 40.8487C226.531 41.1287 226.289 41.5394 226.121 42.0807C225.953 42.6221 225.869 43.2847 225.869 44.0687C225.869 44.8434 225.953 45.5014 226.121 46.0427C226.289 46.5841 226.531 46.9947 226.849 47.2747C227.166 47.5547 227.544 47.6947 227.983 47.6947ZM237.592 48.9688C237.396 48.9688 237.233 48.9034 237.102 48.7727C236.971 48.6327 236.906 48.4601 236.906 48.2547V41.1287L237.158 41.2127L234.134 45.0767L234.064 44.8947H239.16C239.347 44.8947 239.501 44.9601 239.622 45.0907C239.753 45.2121 239.818 45.3661 239.818 45.5527C239.818 45.7301 239.753 45.8794 239.622 46.0007C239.501 46.1221 239.347 46.1827 239.16 46.1827H233.098C232.93 46.1827 232.771 46.1174 232.622 45.9867C232.473 45.8467 232.398 45.6834 232.398 45.4967C232.398 45.3194 232.459 45.1607 232.58 45.0207L237.032 39.4487C237.097 39.3554 237.181 39.2854 237.284 39.2387C237.387 39.1921 237.494 39.1687 237.606 39.1687C237.811 39.1687 237.979 39.2387 238.11 39.3787C238.241 39.5094 238.306 39.6774 238.306 39.8827V48.2547C238.306 48.4601 238.236 48.6327 238.096 48.7727C237.956 48.9034 237.788 48.9688 237.592 48.9688ZM248.354 49.1088C247.57 49.1088 246.907 48.8941 246.366 48.4647C245.824 48.0261 245.414 47.4287 245.134 46.6727C244.863 45.9074 244.728 45.0394 244.728 44.0687C244.728 43.0887 244.863 42.2207 245.134 41.4647C245.414 40.6994 245.824 40.1021 246.366 39.6727C246.907 39.2434 247.57 39.0287 248.354 39.0287C249.138 39.0287 249.796 39.2434 250.328 39.6727C250.869 40.1021 251.28 40.6994 251.56 41.4647C251.84 42.2207 251.98 43.0887 251.98 44.0687C251.98 45.0394 251.84 45.9074 251.56 46.6727C251.28 47.4287 250.869 48.0261 250.328 48.4647C249.796 48.8941 249.138 49.1088 248.354 49.1088ZM248.354 47.6947C248.792 47.6947 249.166 47.5547 249.474 47.2747C249.791 46.9947 250.034 46.5841 250.202 46.0427C250.379 45.5014 250.468 44.8434 250.468 44.0687C250.468 43.2847 250.379 42.6221 250.202 42.0807C250.034 41.5394 249.791 41.1287 249.474 40.8487C249.166 40.5687 248.792 40.4287 248.354 40.4287C247.915 40.4287 247.537 40.5687 247.22 40.8487C246.902 41.1287 246.66 41.5394 246.492 42.0807C246.324 42.6221 246.24 43.2847 246.24 44.0687C246.24 44.8434 246.324 45.5014 246.492 46.0427C246.66 46.5841 246.902 46.9947 247.22 47.2747C247.537 47.5547 247.915 47.6947 248.354 47.6947ZM254.071 47.1767C254.146 47.1767 254.225 47.1907 254.309 47.2188C254.393 47.2374 254.487 47.2841 254.589 47.3587C254.757 47.5081 254.958 47.6341 255.191 47.7367C255.434 47.8301 255.709 47.8767 256.017 47.8767C256.363 47.8767 256.685 47.7974 256.983 47.6387C257.282 47.4707 257.525 47.2374 257.711 46.9387C257.898 46.6401 257.991 46.2854 257.991 45.8747C257.991 45.4547 257.903 45.1141 257.725 44.8528C257.548 44.5821 257.319 44.3814 257.039 44.2507C256.759 44.1107 256.465 44.0407 256.157 44.0407C255.98 44.0407 255.831 44.0594 255.709 44.0967C255.588 44.1247 255.471 44.1574 255.359 44.1947C255.247 44.2227 255.126 44.2367 254.995 44.2367C254.818 44.2367 254.678 44.1761 254.575 44.0547C254.473 43.9241 254.421 43.7701 254.421 43.5927C254.421 43.4807 254.445 43.3827 254.491 43.2987C254.538 43.2147 254.603 43.1214 254.687 43.0187L257.277 40.2467L257.585 40.5267H253.875C253.689 40.5267 253.53 40.4661 253.399 40.3447C253.278 40.2141 253.217 40.0554 253.217 39.8687C253.217 39.6914 253.278 39.5421 253.399 39.4207C253.53 39.2994 253.689 39.2387 253.875 39.2387H258.299C258.542 39.2387 258.719 39.3087 258.831 39.4487C258.953 39.5887 259.013 39.7521 259.013 39.9387C259.013 40.0414 258.985 40.1394 258.929 40.2327C258.883 40.3261 258.822 40.4147 258.747 40.4987L256.143 43.2987L255.793 42.9207C255.868 42.8834 255.994 42.8461 256.171 42.8087C256.349 42.7714 256.493 42.7527 256.605 42.7527C257.137 42.7527 257.613 42.8881 258.033 43.1587C258.463 43.4294 258.794 43.7934 259.027 44.2507C259.27 44.6987 259.391 45.2074 259.391 45.7767C259.391 46.4581 259.237 47.0507 258.929 47.5547C258.621 48.0494 258.192 48.4321 257.641 48.7027C257.1 48.9734 256.475 49.1088 255.765 49.1088C255.411 49.1088 255.056 49.0621 254.701 48.9688C254.356 48.8661 254.057 48.7214 253.805 48.5347C253.647 48.4414 253.539 48.3434 253.483 48.2407C253.427 48.1287 253.399 48.0214 253.399 47.9187C253.399 47.7414 253.46 47.5734 253.581 47.4147C253.712 47.2561 253.875 47.1767 254.071 47.1767ZM261.536 47.1767C261.611 47.1767 261.69 47.1907 261.774 47.2188C261.858 47.2374 261.951 47.2841 262.054 47.3587C262.222 47.5081 262.423 47.6341 262.656 47.7367C262.899 47.8301 263.174 47.8767 263.482 47.8767C263.827 47.8767 264.149 47.7974 264.448 47.6387C264.747 47.4707 264.989 47.2374 265.176 46.9387C265.363 46.6401 265.456 46.2854 265.456 45.8747C265.456 45.4547 265.367 45.1141 265.19 44.8528C265.013 44.5821 264.784 44.3814 264.504 44.2507C264.224 44.1107 263.93 44.0407 263.622 44.0407C263.445 44.0407 263.295 44.0594 263.174 44.0967C263.053 44.1247 262.936 44.1574 262.824 44.1947C262.712 44.2227 262.591 44.2367 262.46 44.2367C262.283 44.2367 262.143 44.1761 262.04 44.0547C261.937 43.9241 261.886 43.7701 261.886 43.5927C261.886 43.4807 261.909 43.3827 261.956 43.2987C262.003 43.2147 262.068 43.1214 262.152 43.0187L264.742 40.2467L265.05 40.5267H261.34C261.153 40.5267 260.995 40.4661 260.864 40.3447C260.743 40.2141 260.682 40.0554 260.682 39.8687C260.682 39.6914 260.743 39.5421 260.864 39.4207C260.995 39.2994 261.153 39.2387 261.34 39.2387H265.764C266.007 39.2387 266.184 39.3087 266.296 39.4487C266.417 39.5887 266.478 39.7521 266.478 39.9387C266.478 40.0414 266.45 40.1394 266.394 40.2327C266.347 40.3261 266.287 40.4147 266.212 40.4987L263.608 43.2987L263.258 42.9207C263.333 42.8834 263.459 42.8461 263.636 42.8087C263.813 42.7714 263.958 42.7527 264.07 42.7527C264.602 42.7527 265.078 42.8881 265.498 43.1587C265.927 43.4294 266.259 43.7934 266.492 44.2507C266.735 44.6987 266.856 45.2074 266.856 45.7767C266.856 46.4581 266.702 47.0507 266.394 47.5547C266.086 48.0494 265.657 48.4321 265.106 48.7027C264.565 48.9734 263.939 49.1088 263.23 49.1088C262.875 49.1088 262.521 49.0621 262.166 48.9688C261.821 48.8661 261.522 48.7214 261.27 48.5347C261.111 48.4414 261.004 48.3434 260.948 48.2407C260.892 48.1287 260.864 48.0214 260.864 47.9187C260.864 47.7414 260.925 47.5734 261.046 47.4147C261.177 47.2561 261.34 47.1767 261.536 47.1767ZM271.479 39.0007C272.002 39.0007 272.464 39.1034 272.865 39.3087C273.276 39.5141 273.616 39.7941 273.887 40.1487C274.167 40.4941 274.377 40.8907 274.517 41.3387C274.666 41.7774 274.741 42.2347 274.741 42.7107C274.741 43.0747 274.699 43.4947 274.615 43.9707C274.531 44.4374 274.391 44.9274 274.195 45.4407C273.999 45.9541 273.738 46.4487 273.411 46.9247C273.094 47.4007 272.692 47.8301 272.207 48.2127C271.731 48.5861 271.162 48.8754 270.499 49.0808C270.406 49.0994 270.317 49.1088 270.233 49.1088C270.046 49.1088 269.878 49.0574 269.729 48.9547C269.589 48.8521 269.519 48.6841 269.519 48.4507C269.519 48.2734 269.575 48.1241 269.687 48.0027C269.799 47.8814 269.948 47.7927 270.135 47.7367C270.592 47.5687 271.04 47.3121 271.479 46.9667C271.918 46.6121 272.296 46.1967 272.613 45.7207C272.93 45.2354 273.145 44.7174 273.257 44.1667L273.607 44.1107C273.467 44.3067 273.29 44.5074 273.075 44.7127C272.86 44.9181 272.604 45.0907 272.305 45.2307C272.006 45.3614 271.661 45.4267 271.269 45.4267C270.662 45.4267 270.135 45.2914 269.687 45.0207C269.239 44.7407 268.894 44.3581 268.651 43.8727C268.408 43.3874 268.287 42.8321 268.287 42.2067C268.287 41.6281 268.427 41.0961 268.707 40.6107C268.996 40.1254 269.379 39.7381 269.855 39.4487C270.34 39.1501 270.882 39.0007 271.479 39.0007ZM271.493 40.2887C271.148 40.2887 270.84 40.3727 270.569 40.5407C270.298 40.7087 270.084 40.9374 269.925 41.2267C269.766 41.5161 269.687 41.8427 269.687 42.2067C269.687 42.5707 269.757 42.9021 269.897 43.2007C270.037 43.4901 270.242 43.7187 270.513 43.8867C270.784 44.0547 271.101 44.1387 271.465 44.1387C271.829 44.1387 272.151 44.0547 272.431 43.8867C272.711 43.7094 272.93 43.4714 273.089 43.1727C273.248 42.8741 273.327 42.5474 273.327 42.1927C273.327 41.8381 273.248 41.5207 273.089 41.2407C272.93 40.9514 272.716 40.7227 272.445 40.5547C272.174 40.3774 271.857 40.2887 271.493 40.2887ZM280.767 44.0127L280.725 43.7607C281.07 43.9007 281.374 44.0967 281.635 44.3487C281.896 44.5914 282.097 44.8667 282.237 45.1747C282.386 45.4827 282.461 45.8047 282.461 46.1407C282.461 46.6634 282.316 47.1441 282.027 47.5827C281.747 48.0121 281.364 48.3574 280.879 48.6187C280.403 48.8707 279.871 48.9968 279.283 48.9968C278.686 48.9968 278.144 48.8707 277.659 48.6187C277.183 48.3574 276.8 48.0121 276.511 47.5827C276.231 47.1441 276.091 46.6634 276.091 46.1407C276.091 45.7207 276.18 45.3521 276.357 45.0347C276.534 44.7174 276.758 44.4514 277.029 44.2367C277.3 44.0221 277.575 43.8447 277.855 43.7047L277.757 44.0127C277.524 43.9101 277.295 43.7701 277.071 43.5927C276.856 43.4061 276.679 43.1727 276.539 42.8927C276.399 42.6127 276.329 42.2907 276.329 41.9267C276.329 41.4134 276.46 40.9514 276.721 40.5407C276.982 40.1207 277.337 39.7894 277.785 39.5467C278.233 39.2947 278.732 39.1687 279.283 39.1687C279.834 39.1687 280.328 39.2947 280.767 39.5467C281.206 39.7894 281.556 40.1207 281.817 40.5407C282.078 40.9514 282.209 41.4134 282.209 41.9267C282.209 42.3187 282.134 42.6547 281.985 42.9347C281.836 43.2054 281.649 43.4294 281.425 43.6067C281.201 43.7841 280.982 43.9194 280.767 44.0127ZM277.729 41.9547C277.729 42.2441 277.799 42.5007 277.939 42.7247C278.079 42.9487 278.266 43.1261 278.499 43.2567C278.732 43.3874 278.994 43.4527 279.283 43.4527C279.563 43.4527 279.82 43.3874 280.053 43.2567C280.286 43.1261 280.468 42.9487 280.599 42.7247C280.739 42.5007 280.809 42.2441 280.809 41.9547C280.809 41.5161 280.664 41.1567 280.375 40.8767C280.086 40.5967 279.722 40.4567 279.283 40.4567C278.826 40.4567 278.452 40.5967 278.163 40.8767C277.874 41.1567 277.729 41.5161 277.729 41.9547ZM279.283 47.7087C279.787 47.7087 280.207 47.5594 280.543 47.2607C280.888 46.9527 281.061 46.5747 281.061 46.1267C281.061 45.8187 280.982 45.5434 280.823 45.3007C280.664 45.0581 280.45 44.8667 280.179 44.7267C279.908 44.5867 279.61 44.5167 279.283 44.5167C278.956 44.5167 278.658 44.5867 278.387 44.7267C278.116 44.8667 277.902 45.0581 277.743 45.3007C277.584 45.5434 277.505 45.8187 277.505 46.1267C277.505 46.5747 277.673 46.9527 278.009 47.2607C278.345 47.5594 278.77 47.7087 279.283 47.7087ZM78.862 57.1547C78.974 57.1547 79.0907 57.1827 79.212 57.2387C79.3333 57.2947 79.4267 57.3741 79.492 57.4767L83.048 62.8947L82.446 62.8667L86.072 57.4767C86.2213 57.2621 86.4127 57.1547 86.646 57.1547C86.8327 57.1547 86.996 57.2247 87.136 57.3647C87.2853 57.4954 87.36 57.6634 87.36 57.8687V66.2547C87.36 66.4601 87.2947 66.6327 87.164 66.7727C87.0333 66.9034 86.8607 66.9688 86.646 66.9688C86.422 66.9688 86.24 66.9034 86.1 66.7727C85.9693 66.6327 85.904 66.4601 85.904 66.2547V59.1567L86.352 59.2548L83.272 63.9447C83.2067 64.0287 83.1227 64.1034 83.02 64.1687C82.9173 64.2247 82.81 64.2481 82.698 64.2387C82.5953 64.2481 82.488 64.2247 82.376 64.1687C82.2733 64.1034 82.1893 64.0287 82.124 63.9447L79.156 59.3247L79.492 58.7647V66.2547C79.492 66.4601 79.4267 66.6327 79.296 66.7727C79.1747 66.9034 79.0113 66.9688 78.806 66.9688C78.61 66.9688 78.4467 66.9034 78.316 66.7727C78.1947 66.6327 78.134 66.4601 78.134 66.2547V57.8687C78.134 57.6727 78.204 57.5047 78.344 57.3647C78.4933 57.2247 78.666 57.1547 78.862 57.1547ZM93.7757 57.1687C94.4571 57.1687 95.0591 57.2994 95.5817 57.5607C96.1044 57.8127 96.5384 58.1674 96.8837 58.6247C97.2384 59.0727 97.5044 59.5954 97.6817 60.1927C97.8591 60.7807 97.9477 61.4061 97.9477 62.0687C97.9477 62.9741 97.7891 63.8001 97.4717 64.5467C97.1544 65.2841 96.6877 65.8721 96.0717 66.3107C95.4557 66.7494 94.6904 66.9688 93.7757 66.9688H90.3597C90.1637 66.9688 89.9957 66.9034 89.8557 66.7727C89.7157 66.6327 89.6457 66.4601 89.6457 66.2547V57.8827C89.6457 57.6774 89.7157 57.5094 89.8557 57.3787C89.9957 57.2387 90.1637 57.1687 90.3597 57.1687H93.7757ZM93.6357 65.6247C94.2984 65.6247 94.8351 65.4614 95.2457 65.1347C95.6564 64.8081 95.9551 64.3787 96.1417 63.8467C96.3377 63.3054 96.4357 62.7127 96.4357 62.0687C96.4357 61.5927 96.3797 61.1447 96.2677 60.7247C96.1651 60.2954 95.9971 59.9174 95.7637 59.5907C95.5397 59.2547 95.2504 58.9934 94.8957 58.8067C94.5504 58.6107 94.1304 58.5127 93.6357 58.5127H90.9897L91.1157 58.3867V65.7647L91.0317 65.6247H93.6357ZM100.409 66.9688C100.185 66.9688 100.003 66.9034 99.8632 66.7727C99.7325 66.6327 99.6672 66.4601 99.6672 66.2547V57.8827C99.6672 57.6774 99.7372 57.5094 99.8772 57.3787C100.017 57.2387 100.185 57.1687 100.381 57.1687H105.113C105.319 57.1687 105.487 57.2341 105.617 57.3647C105.757 57.4954 105.827 57.6587 105.827 57.8547C105.827 58.0321 105.757 58.1861 105.617 58.3167C105.487 58.4474 105.319 58.5127 105.113 58.5127H101.025L101.123 58.3727V61.4947L101.039 61.3267H104.483C104.689 61.3267 104.857 61.3921 104.987 61.5227C105.127 61.6534 105.197 61.8167 105.197 62.0127C105.197 62.1901 105.127 62.3441 104.987 62.4747C104.857 62.6054 104.689 62.6707 104.483 62.6707H101.011L101.123 62.5587V66.2547C101.123 66.4601 101.053 66.6327 100.913 66.7727C100.773 66.9034 100.605 66.9688 100.409 66.9688ZM114.391 57.7287C114.596 57.8314 114.713 57.9901 114.741 58.2047C114.778 58.4194 114.727 58.6154 114.587 58.7927C114.484 58.9327 114.349 59.0121 114.181 59.0307C114.022 59.0494 113.863 59.0168 113.705 58.9327C113.434 58.7927 113.149 58.6807 112.851 58.5967C112.552 58.5127 112.235 58.4707 111.899 58.4707C111.367 58.4707 110.886 58.5594 110.457 58.7368C110.037 58.9047 109.673 59.1521 109.365 59.4787C109.057 59.7961 108.819 60.1741 108.651 60.6127C108.492 61.0514 108.413 61.5367 108.413 62.0687C108.413 62.6567 108.501 63.1794 108.679 63.6367C108.856 64.0847 109.099 64.4674 109.407 64.7847C109.724 65.0927 110.093 65.3261 110.513 65.4847C110.942 65.6341 111.404 65.7087 111.899 65.7087C112.216 65.7087 112.524 65.6714 112.823 65.5967C113.131 65.5221 113.42 65.4101 113.691 65.2607C113.859 65.1767 114.022 65.1487 114.181 65.1767C114.349 65.1954 114.484 65.2747 114.587 65.4147C114.745 65.6107 114.801 65.8114 114.755 66.0167C114.717 66.2127 114.601 66.3621 114.405 66.4647C114.171 66.5954 113.915 66.7074 113.635 66.8007C113.355 66.8941 113.07 66.9688 112.781 67.0248C112.491 67.0808 112.197 67.1088 111.899 67.1088C111.227 67.1088 110.592 66.9968 109.995 66.7727C109.397 66.5487 108.865 66.2221 108.399 65.7927C107.932 65.3634 107.563 64.8361 107.293 64.2107C107.031 63.5854 106.901 62.8714 106.901 62.0687C106.901 61.3501 107.022 60.6874 107.265 60.0807C107.517 59.4647 107.867 58.9374 108.315 58.4987C108.772 58.0507 109.304 57.7054 109.911 57.4627C110.517 57.2107 111.18 57.0847 111.899 57.0847C112.347 57.0847 112.781 57.1407 113.201 57.2527C113.63 57.3647 114.027 57.5234 114.391 57.7287ZM123.24 67.1088C122.568 67.1088 121.97 67.0154 121.448 66.8287C120.925 66.6421 120.426 66.3341 119.95 65.9047C119.847 65.8301 119.768 65.7414 119.712 65.6387C119.665 65.5267 119.642 65.4147 119.642 65.3027C119.642 65.1254 119.707 64.9667 119.838 64.8267C119.968 64.6867 120.132 64.6167 120.328 64.6167C120.477 64.6167 120.617 64.6681 120.748 64.7707C121.102 65.0974 121.471 65.3447 121.854 65.5127C122.246 65.6807 122.703 65.7647 123.226 65.7647C123.599 65.7647 123.94 65.7041 124.248 65.5827C124.565 65.4614 124.817 65.2981 125.004 65.0927C125.19 64.8874 125.284 64.6494 125.284 64.3787C125.284 64.0427 125.186 63.7674 124.99 63.5527C124.803 63.3287 124.528 63.1467 124.164 63.0067C123.809 62.8574 123.38 62.7314 122.876 62.6287C122.409 62.5447 121.989 62.4281 121.616 62.2787C121.252 62.1294 120.939 61.9427 120.678 61.7187C120.416 61.4854 120.216 61.2101 120.076 60.8927C119.936 60.5754 119.866 60.2067 119.866 59.7867C119.866 59.2174 120.015 58.7274 120.314 58.3167C120.612 57.9061 121.018 57.5887 121.532 57.3647C122.045 57.1407 122.624 57.0287 123.268 57.0287C123.856 57.0287 124.406 57.1221 124.92 57.3087C125.433 57.4861 125.848 57.7287 126.166 58.0367C126.39 58.2327 126.502 58.4427 126.502 58.6667C126.502 58.8347 126.432 58.9934 126.292 59.1427C126.161 59.2827 126.007 59.3527 125.83 59.3527C125.699 59.3527 125.587 59.3154 125.494 59.2407C125.344 59.0821 125.144 58.9421 124.892 58.8207C124.64 58.6901 124.369 58.5827 124.08 58.4987C123.8 58.4147 123.529 58.3727 123.268 58.3727C122.848 58.3727 122.488 58.4334 122.19 58.5547C121.891 58.6667 121.662 58.8254 121.504 59.0307C121.345 59.2267 121.266 59.4601 121.266 59.7307C121.266 60.0481 121.354 60.3094 121.532 60.5147C121.718 60.7201 121.975 60.8881 122.302 61.0187C122.628 61.1401 123.002 61.2521 123.422 61.3547C123.935 61.4667 124.392 61.5927 124.794 61.7327C125.204 61.8727 125.55 62.0547 125.83 62.2787C126.11 62.4934 126.324 62.7641 126.474 63.0907C126.623 63.4174 126.698 63.8234 126.698 64.3087C126.698 64.8687 126.539 65.3587 126.222 65.7787C125.904 66.1987 125.484 66.5254 124.962 66.7587C124.448 66.9921 123.874 67.1088 123.24 67.1088ZM131.695 67.1088C130.92 67.1088 130.248 66.9501 129.679 66.6327C129.11 66.3061 128.666 65.8627 128.349 65.3027C128.041 64.7334 127.887 64.0847 127.887 63.3567C127.887 62.5354 128.05 61.8354 128.377 61.2567C128.713 60.6687 129.147 60.2207 129.679 59.9127C130.211 59.5954 130.776 59.4367 131.373 59.4367C131.83 59.4367 132.264 59.5301 132.675 59.7167C133.086 59.8941 133.45 60.1461 133.767 60.4727C134.094 60.7901 134.35 61.1681 134.537 61.6067C134.724 62.0361 134.822 62.5074 134.831 63.0207C134.822 63.2074 134.747 63.3614 134.607 63.4827C134.467 63.6041 134.304 63.6647 134.117 63.6647H128.671L128.335 62.4747H133.599L133.333 62.7267V62.3767C133.314 62.0501 133.207 61.7654 133.011 61.5227C132.815 61.2707 132.572 61.0794 132.283 60.9487C131.994 60.8087 131.69 60.7387 131.373 60.7387C131.093 60.7387 130.822 60.7854 130.561 60.8787C130.309 60.9627 130.08 61.1027 129.875 61.2987C129.679 61.4947 129.52 61.7561 129.399 62.0827C129.287 62.4001 129.231 62.7967 129.231 63.2728C129.231 63.7861 129.338 64.2341 129.553 64.6167C129.768 64.9994 130.057 65.2981 130.421 65.5127C130.785 65.7181 131.186 65.8207 131.625 65.8207C131.97 65.8207 132.255 65.7881 132.479 65.7227C132.703 65.6481 132.89 65.5594 133.039 65.4567C133.188 65.3541 133.319 65.2561 133.431 65.1627C133.571 65.0787 133.711 65.0367 133.851 65.0367C134.019 65.0367 134.159 65.0974 134.271 65.2188C134.383 65.3307 134.439 65.4661 134.439 65.6247C134.439 65.8301 134.336 66.0167 134.131 66.1847C133.879 66.4274 133.529 66.6421 133.081 66.8287C132.642 67.0154 132.18 67.1088 131.695 67.1088ZM137.114 66.9688C136.908 66.9688 136.74 66.9034 136.61 66.7727C136.479 66.6327 136.414 66.4601 136.414 66.2547V60.3187C136.414 60.1134 136.479 59.9454 136.61 59.8147C136.74 59.6747 136.908 59.6047 137.114 59.6047C137.31 59.6047 137.473 59.6747 137.604 59.8147C137.744 59.9454 137.814 60.1134 137.814 60.3187V61.8867L137.674 61.2847C137.748 61.0234 137.86 60.7807 138.01 60.5567C138.168 60.3327 138.355 60.1367 138.57 59.9688C138.784 59.8007 139.022 59.6701 139.284 59.5768C139.554 59.4834 139.834 59.4367 140.124 59.4367C140.366 59.4367 140.576 59.5021 140.754 59.6327C140.931 59.7634 141.02 59.9267 141.02 60.1227C141.02 60.3747 140.954 60.5614 140.824 60.6827C140.693 60.7947 140.548 60.8507 140.39 60.8507C140.25 60.8507 140.114 60.8227 139.984 60.7667C139.853 60.7014 139.699 60.6687 139.522 60.6687C139.326 60.6687 139.125 60.7201 138.92 60.8227C138.714 60.9254 138.528 61.0794 138.36 61.2847C138.192 61.4807 138.056 61.7141 137.954 61.9847C137.86 62.2554 137.814 62.5587 137.814 62.8947V66.2547C137.814 66.4601 137.744 66.6327 137.604 66.7727C137.473 66.9034 137.31 66.9688 137.114 66.9688ZM143.13 59.5347C143.27 59.5347 143.401 59.5721 143.522 59.6467C143.653 59.7214 143.746 59.8334 143.802 59.9827L146 65.0647L145.734 65.1907L147.96 59.9967C148.091 59.6887 148.301 59.5394 148.59 59.5487C148.777 59.5487 148.931 59.6094 149.052 59.7307C149.183 59.8427 149.248 59.9921 149.248 60.1787C149.248 60.2347 149.239 60.2954 149.22 60.3607C149.202 60.4167 149.178 60.4727 149.15 60.5287L146.49 66.5207C146.369 66.8007 146.168 66.9501 145.888 66.9688C145.748 66.9874 145.608 66.9594 145.468 66.8847C145.338 66.8007 145.235 66.6794 145.16 66.5207L142.514 60.5287C142.496 60.4914 142.477 60.4447 142.458 60.3887C142.44 60.3234 142.43 60.2487 142.43 60.1647C142.43 60.0247 142.491 59.8847 142.612 59.7447C142.743 59.6047 142.916 59.5347 143.13 59.5347ZM151.989 66.2547C151.989 66.4601 151.924 66.6327 151.793 66.7727C151.663 66.9034 151.495 66.9688 151.289 66.9688C151.093 66.9688 150.925 66.9034 150.785 66.7727C150.655 66.6327 150.589 66.4601 150.589 66.2547V60.2627C150.589 60.0574 150.655 59.8894 150.785 59.7587C150.925 59.6187 151.093 59.5487 151.289 59.5487C151.495 59.5487 151.663 59.6187 151.793 59.7587C151.924 59.8894 151.989 60.0574 151.989 60.2627V66.2547ZM151.275 58.6247C151.005 58.6247 150.809 58.5781 150.687 58.4847C150.566 58.3821 150.505 58.2141 150.505 57.9807V57.7567C150.505 57.5234 150.571 57.3601 150.701 57.2667C150.832 57.1734 151.028 57.1267 151.289 57.1267C151.569 57.1267 151.77 57.1781 151.891 57.2807C152.013 57.3741 152.073 57.5327 152.073 57.7567V57.9807C152.073 58.2234 152.008 58.3914 151.877 58.4847C151.756 58.5781 151.555 58.6247 151.275 58.6247ZM157.135 59.4367C157.639 59.4367 158.087 59.4927 158.479 59.6047C158.871 59.7074 159.174 59.8567 159.389 60.0527C159.613 60.2394 159.725 60.4587 159.725 60.7107C159.725 60.8694 159.678 61.0187 159.585 61.1587C159.491 61.2894 159.351 61.3547 159.165 61.3547C159.034 61.3547 158.922 61.3314 158.829 61.2847C158.745 61.2381 158.665 61.1821 158.591 61.1167C158.516 61.0514 158.423 60.9861 158.311 60.9207C158.208 60.8647 158.054 60.8181 157.849 60.7807C157.653 60.7434 157.475 60.7247 157.317 60.7247C156.822 60.7247 156.393 60.8367 156.029 61.0607C155.674 61.2847 155.394 61.5881 155.189 61.9707C154.993 62.3534 154.895 62.7874 154.895 63.2728C154.895 63.7581 154.993 64.1921 155.189 64.5747C155.394 64.9574 155.669 65.2607 156.015 65.4847C156.369 65.7087 156.78 65.8207 157.247 65.8207C157.527 65.8207 157.755 65.8021 157.933 65.7647C158.11 65.7181 158.264 65.6621 158.395 65.5967C158.535 65.5127 158.651 65.4287 158.745 65.3447C158.847 65.2514 158.987 65.2047 159.165 65.2047C159.37 65.2047 159.524 65.2701 159.627 65.4007C159.739 65.5221 159.795 65.6761 159.795 65.8627C159.795 66.0681 159.669 66.2687 159.417 66.4647C159.174 66.6514 158.847 66.8054 158.437 66.9267C158.026 67.0481 157.573 67.1088 157.079 67.1088C156.351 67.1088 155.716 66.9408 155.175 66.6047C154.643 66.2687 154.227 65.8114 153.929 65.2327C153.639 64.6541 153.495 64.0007 153.495 63.2728C153.495 62.5354 153.649 61.8821 153.957 61.3127C154.265 60.7341 154.694 60.2767 155.245 59.9407C155.795 59.6047 156.425 59.4367 157.135 59.4367ZM164.562 67.1088C163.788 67.1088 163.116 66.9501 162.546 66.6327C161.977 66.3061 161.534 65.8627 161.216 65.3027C160.908 64.7334 160.754 64.0847 160.754 63.3567C160.754 62.5354 160.918 61.8354 161.244 61.2567C161.58 60.6687 162.014 60.2207 162.546 59.9127C163.078 59.5954 163.643 59.4367 164.24 59.4367C164.698 59.4367 165.132 59.5301 165.542 59.7167C165.953 59.8941 166.317 60.1461 166.634 60.4727C166.961 60.7901 167.218 61.1681 167.404 61.6067C167.591 62.0361 167.689 62.5074 167.698 63.0207C167.689 63.2074 167.614 63.3614 167.474 63.4827C167.334 63.6041 167.171 63.6647 166.984 63.6647H161.538L161.202 62.4747H166.466L166.2 62.7267V62.3767C166.182 62.0501 166.074 61.7654 165.878 61.5227C165.682 61.2707 165.44 61.0794 165.15 60.9487C164.861 60.8087 164.558 60.7387 164.24 60.7387C163.96 60.7387 163.69 60.7854 163.428 60.8787C163.176 60.9627 162.948 61.1027 162.742 61.2987C162.546 61.4947 162.388 61.7561 162.266 62.0827C162.154 62.4001 162.098 62.7967 162.098 63.2728C162.098 63.7861 162.206 64.2341 162.42 64.6167C162.635 64.9994 162.924 65.2981 163.288 65.5127C163.652 65.7181 164.054 65.8207 164.492 65.8207C164.838 65.8207 165.122 65.7881 165.346 65.7227C165.57 65.6481 165.757 65.5594 165.906 65.4567C166.056 65.3541 166.186 65.2561 166.298 65.1627C166.438 65.0787 166.578 65.0367 166.718 65.0367C166.886 65.0367 167.026 65.0974 167.138 65.2188C167.25 65.3307 167.306 65.4661 167.306 65.6247C167.306 65.8301 167.204 66.0167 166.998 66.1847C166.746 66.4274 166.396 66.6421 165.948 66.8287C165.51 67.0154 165.048 67.1088 164.562 67.1088ZM177.279 57.1687C177.774 57.1687 178.231 57.3041 178.651 57.5747C179.071 57.8361 179.407 58.1954 179.659 58.6527C179.911 59.1101 180.037 59.6234 180.037 60.1927C180.037 60.7621 179.911 61.2801 179.659 61.7467C179.407 62.2041 179.071 62.5727 178.651 62.8528C178.231 63.1234 177.774 63.2587 177.279 63.2587H174.577L174.689 63.0347V66.2547C174.689 66.4601 174.624 66.6327 174.493 66.7727C174.372 66.9034 174.209 66.9688 174.003 66.9688C173.807 66.9688 173.644 66.9034 173.513 66.7727C173.392 66.6327 173.331 66.4601 173.331 66.2547V57.8827C173.331 57.6774 173.401 57.5094 173.541 57.3787C173.681 57.2387 173.849 57.1687 174.045 57.1687H177.279ZM177.279 61.9147C177.522 61.9147 177.741 61.8354 177.937 61.6767C178.143 61.5181 178.306 61.3081 178.427 61.0467C178.558 60.7854 178.623 60.5007 178.623 60.1927C178.623 59.8847 178.558 59.6047 178.427 59.3527C178.306 59.1007 178.143 58.9001 177.937 58.7507C177.741 58.5921 177.522 58.5127 177.279 58.5127H174.549L174.689 58.3027V62.0967L174.563 61.9147H177.279ZM188.505 63.2867C188.505 64.0334 188.341 64.6961 188.015 65.2747C187.688 65.8441 187.245 66.2921 186.685 66.6187C186.125 66.9454 185.495 67.1088 184.795 67.1088C184.095 67.1088 183.465 66.9454 182.905 66.6187C182.345 66.2921 181.897 65.8441 181.561 65.2747C181.234 64.6961 181.071 64.0334 181.071 63.2867C181.071 62.5307 181.234 61.8681 181.561 61.2987C181.897 60.7201 182.345 60.2674 182.905 59.9407C183.465 59.6047 184.095 59.4367 184.795 59.4367C185.495 59.4367 186.125 59.6047 186.685 59.9407C187.245 60.2674 187.688 60.7201 188.015 61.2987C188.341 61.8681 188.505 62.5307 188.505 63.2867ZM187.105 63.2867C187.105 62.7734 187.002 62.3301 186.797 61.9567C186.591 61.5741 186.311 61.2754 185.957 61.0607C185.611 60.8367 185.224 60.7247 184.795 60.7247C184.365 60.7247 183.973 60.8367 183.619 61.0607C183.264 61.2754 182.984 61.5741 182.779 61.9567C182.573 62.3301 182.471 62.7734 182.471 63.2867C182.471 63.7814 182.573 64.2201 182.779 64.6027C182.984 64.9854 183.264 65.2841 183.619 65.4987C183.973 65.7134 184.365 65.8207 184.795 65.8207C185.224 65.8207 185.611 65.7134 185.957 65.4987C186.311 65.2841 186.591 64.9854 186.797 64.6027C187.002 64.2201 187.105 63.7814 187.105 63.2867ZM190.789 66.9688C190.584 66.9688 190.416 66.9034 190.285 66.7727C190.155 66.6327 190.089 66.4601 190.089 66.2547V60.3187C190.089 60.1134 190.155 59.9454 190.285 59.8147C190.416 59.6747 190.584 59.6047 190.789 59.6047C190.985 59.6047 191.149 59.6747 191.279 59.8147C191.419 59.9454 191.489 60.1134 191.489 60.3187V61.8867L191.349 61.2847C191.424 61.0234 191.536 60.7807 191.685 60.5567C191.844 60.3327 192.031 60.1367 192.245 59.9688C192.46 59.8007 192.698 59.6701 192.959 59.5768C193.23 59.4834 193.51 59.4367 193.799 59.4367C194.042 59.4367 194.252 59.5021 194.429 59.6327C194.607 59.7634 194.695 59.9267 194.695 60.1227C194.695 60.3747 194.63 60.5614 194.499 60.6827C194.369 60.7947 194.224 60.8507 194.065 60.8507C193.925 60.8507 193.79 60.8227 193.659 60.7667C193.529 60.7014 193.375 60.6687 193.197 60.6687C193.001 60.6687 192.801 60.7201 192.595 60.8227C192.39 60.9254 192.203 61.0794 192.035 61.2847C191.867 61.4807 191.732 61.7141 191.629 61.9847C191.536 62.2554 191.489 62.5587 191.489 62.8947V66.2547C191.489 66.4601 191.419 66.6327 191.279 66.7727C191.149 66.9034 190.985 66.9688 190.789 66.9688ZM195.843 59.6887H199.133C199.32 59.6887 199.474 59.7541 199.595 59.8847C199.726 60.0061 199.791 60.1601 199.791 60.3467C199.791 60.5241 199.726 60.6734 199.595 60.7947C199.474 60.9161 199.32 60.9767 199.133 60.9767H195.843C195.656 60.9767 195.498 60.9161 195.367 60.7947C195.246 60.6641 195.185 60.5101 195.185 60.3327C195.185 60.1461 195.246 59.9921 195.367 59.8707C195.498 59.7494 195.656 59.6887 195.843 59.6887ZM197.313 57.8687C197.518 57.8687 197.686 57.9387 197.817 58.0787C197.948 58.2094 198.013 58.3774 198.013 58.5827V65.0787C198.013 65.2467 198.041 65.3821 198.097 65.4847C198.153 65.5874 198.228 65.6574 198.321 65.6947C198.424 65.7321 198.526 65.7507 198.629 65.7507C198.732 65.7507 198.82 65.7321 198.895 65.6947C198.979 65.6574 199.077 65.6387 199.189 65.6387C199.301 65.6387 199.404 65.6901 199.497 65.7927C199.59 65.8954 199.637 66.0354 199.637 66.2127C199.637 66.4367 199.516 66.6187 199.273 66.7587C199.03 66.8987 198.769 66.9688 198.489 66.9688C198.33 66.9688 198.144 66.9547 197.929 66.9267C197.714 66.8987 197.504 66.8287 197.299 66.7167C197.103 66.6047 196.94 66.4274 196.809 66.1847C196.678 65.9327 196.613 65.5827 196.613 65.1347V58.5827C196.613 58.3774 196.678 58.2094 196.809 58.0787C196.949 57.9387 197.117 57.8687 197.313 57.8687ZM207.375 59.4927C207.581 59.4927 207.749 59.5627 207.879 59.7027C208.01 59.8334 208.075 60.0014 208.075 60.2067V66.2547C208.075 66.4601 208.01 66.6327 207.879 66.7727C207.749 66.9034 207.581 66.9688 207.375 66.9688C207.179 66.9688 207.011 66.9034 206.871 66.7727C206.741 66.6327 206.675 66.4601 206.675 66.2547V65.2467L206.969 65.2887C206.969 65.4567 206.899 65.6434 206.759 65.8487C206.629 66.0541 206.447 66.2547 206.213 66.4507C205.98 66.6374 205.705 66.7961 205.387 66.9267C205.07 67.0481 204.729 67.1088 204.365 67.1088C203.721 67.1088 203.143 66.9454 202.629 66.6187C202.116 66.2827 201.71 65.8254 201.411 65.2467C201.113 64.6681 200.963 64.0101 200.963 63.2728C200.963 62.5167 201.113 61.8541 201.411 61.2847C201.71 60.7061 202.111 60.2534 202.615 59.9267C203.129 59.6001 203.698 59.4367 204.323 59.4367C204.725 59.4367 205.093 59.5021 205.429 59.6327C205.775 59.7634 206.073 59.9314 206.325 60.1367C206.577 60.3421 206.769 60.5614 206.899 60.7947C207.039 61.0187 207.109 61.2334 207.109 61.4387L206.675 61.4807V60.2067C206.675 60.0107 206.741 59.8427 206.871 59.7027C207.011 59.5627 207.179 59.4927 207.375 59.4927ZM204.519 65.8207C204.958 65.8207 205.345 65.7087 205.681 65.4847C206.017 65.2607 206.279 64.9574 206.465 64.5747C206.652 64.1827 206.745 63.7487 206.745 63.2728C206.745 62.7874 206.652 62.3534 206.465 61.9707C206.279 61.5881 206.017 61.2847 205.681 61.0607C205.345 60.8367 204.958 60.7247 204.519 60.7247C204.09 60.7247 203.707 60.8367 203.371 61.0607C203.045 61.2847 202.783 61.5881 202.587 61.9707C202.401 62.3534 202.307 62.7874 202.307 63.2728C202.307 63.7487 202.401 64.1827 202.587 64.5747C202.783 64.9574 203.045 65.2607 203.371 65.4847C203.707 65.7087 204.09 65.8207 204.519 65.8207ZM211.549 66.2547C211.549 66.4601 211.479 66.6327 211.339 66.7727C211.208 66.9034 211.045 66.9688 210.849 66.9688C210.653 66.9688 210.485 66.9034 210.345 66.7727C210.214 66.6327 210.149 66.4601 210.149 66.2547V57.3227C210.149 57.1174 210.219 56.9494 210.359 56.8187C210.499 56.6787 210.667 56.6087 210.863 56.6087C211.068 56.6087 211.231 56.6787 211.353 56.8187C211.483 56.9494 211.549 57.1174 211.549 57.3227V66.2547Z" fill="#4A4A4A"/>
<rect x="33" y="86.02" width="104" height="25" rx="4" fill="#389B5A"/>
<path d="M63.8287 95.918L60.8047 103.03C60.7393 103.207 60.6367 103.347 60.4967 103.45C60.366 103.543 60.2213 103.59 60.0627 103.59C59.8107 103.59 59.624 103.52 59.5027 103.38C59.3813 103.24 59.3207 103.067 59.3207 102.862C59.3207 102.778 59.3347 102.689 59.3627 102.596L62.8487 94.224C62.9233 94.0374 63.0353 93.8927 63.1847 93.79C63.3433 93.6874 63.5113 93.6454 63.6887 93.664C63.8567 93.664 64.0107 93.7154 64.1507 93.818C64.3 93.9114 64.4073 94.0467 64.4727 94.224L67.9167 102.428C67.9633 102.549 67.9867 102.661 67.9867 102.764C67.9867 103.016 67.9027 103.217 67.7347 103.366C67.576 103.515 67.3987 103.59 67.2027 103.59C67.0347 103.59 66.8807 103.539 66.7407 103.436C66.61 103.333 66.5073 103.193 66.4327 103.016L63.4227 96.002L63.8287 95.918ZM61.2387 101.322L62.0087 99.712H65.7887L66.0547 101.322H61.2387ZM75.9637 94.196C76.2064 94.3174 76.3464 94.5087 76.3837 94.77C76.4304 95.0314 76.365 95.2694 76.1877 95.484C76.0664 95.652 75.9077 95.7454 75.7117 95.764C75.525 95.7827 75.3337 95.7454 75.1377 95.652C74.9137 95.5494 74.6757 95.47 74.4237 95.414C74.181 95.358 73.9244 95.33 73.6537 95.33C73.1497 95.33 72.697 95.4094 72.2957 95.568C71.9037 95.7267 71.5677 95.9554 71.2877 96.254C71.0077 96.5434 70.793 96.8887 70.6437 97.29C70.5037 97.6914 70.4337 98.1347 70.4337 98.62C70.4337 99.1894 70.513 99.684 70.6717 100.104C70.8397 100.524 71.0684 100.874 71.3577 101.154C71.647 101.434 71.9877 101.644 72.3797 101.784C72.7717 101.915 73.1964 101.98 73.6537 101.98C73.9057 101.98 74.1577 101.957 74.4097 101.91C74.6617 101.863 74.9044 101.779 75.1377 101.658C75.3337 101.565 75.525 101.532 75.7117 101.56C75.9077 101.588 76.071 101.686 76.2017 101.854C76.3884 102.087 76.4537 102.33 76.3977 102.582C76.351 102.825 76.211 103.002 75.9777 103.114C75.735 103.235 75.483 103.338 75.2217 103.422C74.9697 103.497 74.713 103.553 74.4517 103.59C74.1904 103.637 73.9244 103.66 73.6537 103.66C72.9817 103.66 72.3424 103.553 71.7357 103.338C71.1384 103.123 70.6017 102.806 70.1257 102.386C69.659 101.966 69.2904 101.443 69.0197 100.818C68.749 100.183 68.6137 99.4507 68.6137 98.62C68.6137 97.9014 68.735 97.2387 68.9777 96.632C69.2297 96.0254 69.5797 95.5027 70.0277 95.064C70.485 94.616 71.0217 94.2707 71.6377 94.028C72.2537 93.776 72.9257 93.65 73.6537 93.65C74.0644 93.65 74.4657 93.6967 74.8577 93.79C75.2497 93.8834 75.6184 94.0187 75.9637 94.196ZM84.7411 94.196C84.9837 94.3174 85.1237 94.5087 85.1611 94.77C85.2077 95.0314 85.1424 95.2694 84.9651 95.484C84.8437 95.652 84.6851 95.7454 84.4891 95.764C84.3024 95.7827 84.1111 95.7454 83.9151 95.652C83.6911 95.5494 83.4531 95.47 83.2011 95.414C82.9584 95.358 82.7017 95.33 82.4311 95.33C81.9271 95.33 81.4744 95.4094 81.0731 95.568C80.6811 95.7267 80.3451 95.9554 80.0651 96.254C79.7851 96.5434 79.5704 96.8887 79.4211 97.29C79.2811 97.6914 79.2111 98.1347 79.2111 98.62C79.2111 99.1894 79.2904 99.684 79.4491 100.104C79.6171 100.524 79.8457 100.874 80.1351 101.154C80.4244 101.434 80.7651 101.644 81.1571 101.784C81.5491 101.915 81.9737 101.98 82.4311 101.98C82.6831 101.98 82.9351 101.957 83.1871 101.91C83.4391 101.863 83.6817 101.779 83.9151 101.658C84.1111 101.565 84.3024 101.532 84.4891 101.56C84.6851 101.588 84.8484 101.686 84.9791 101.854C85.1657 102.087 85.2311 102.33 85.1751 102.582C85.1284 102.825 84.9884 103.002 84.7551 103.114C84.5124 103.235 84.2604 103.338 83.9991 103.422C83.7471 103.497 83.4904 103.553 83.2291 103.59C82.9677 103.637 82.7017 103.66 82.4311 103.66C81.7591 103.66 81.1197 103.553 80.5131 103.338C79.9157 103.123 79.3791 102.806 78.9031 102.386C78.4364 101.966 78.0677 101.443 77.7971 100.818C77.5264 100.183 77.3911 99.4507 77.3911 98.62C77.3911 97.9014 77.5124 97.2387 77.7551 96.632C78.0071 96.0254 78.3571 95.5027 78.8051 95.064C79.2624 94.616 79.7991 94.2707 80.4151 94.028C81.0311 93.776 81.7031 93.65 82.4311 93.65C82.8417 93.65 83.2431 93.6967 83.6351 93.79C84.0271 93.8834 84.3957 94.0187 84.7411 94.196ZM87.5124 93.72H92.2024C92.4451 93.72 92.6457 93.7994 92.8044 93.958C92.9724 94.1074 93.0564 94.3034 93.0564 94.546C93.0564 94.7794 92.9724 94.9707 92.8044 95.12C92.6457 95.26 92.4451 95.33 92.2024 95.33H88.2824L88.4084 95.092V97.822L88.2964 97.71H91.5724C91.8151 97.71 92.0157 97.7894 92.1744 97.948C92.3424 98.0974 92.4264 98.2934 92.4264 98.536C92.4264 98.7694 92.3424 98.9607 92.1744 99.11C92.0157 99.25 91.8151 99.32 91.5724 99.32H88.3384L88.4084 99.208V102.036L88.2964 101.91H92.2024C92.4451 101.91 92.6457 101.994 92.8044 102.162C92.9724 102.321 93.0564 102.507 93.0564 102.722C93.0564 102.955 92.9724 103.147 92.8044 103.296C92.6457 103.445 92.4451 103.52 92.2024 103.52H87.5124C87.2697 103.52 87.0644 103.441 86.8964 103.282C86.7377 103.114 86.6584 102.909 86.6584 102.666V94.574C86.6584 94.3314 86.7377 94.1307 86.8964 93.972C87.0644 93.804 87.2697 93.72 87.5124 93.72ZM98.7161 93.72C99.2015 93.72 99.6541 93.86 100.074 94.14C100.503 94.42 100.849 94.798 101.11 95.274C101.371 95.75 101.502 96.282 101.502 96.87C101.502 97.4487 101.371 97.976 101.11 98.452C100.849 98.928 100.503 99.3107 100.074 99.6C99.6541 99.88 99.2015 100.02 98.7161 100.02H96.1401L96.2801 99.768V102.666C96.2801 102.909 96.2055 103.114 96.0561 103.282C95.9068 103.441 95.7108 103.52 95.4681 103.52C95.2348 103.52 95.0435 103.441 94.8941 103.282C94.7448 103.114 94.6701 102.909 94.6701 102.666V94.574C94.6701 94.3314 94.7495 94.1307 94.9081 93.972C95.0761 93.804 95.2815 93.72 95.5241 93.72H98.7161ZM98.7161 98.424C98.8935 98.424 99.0661 98.3494 99.2341 98.2C99.4021 98.0507 99.5421 97.8594 99.6541 97.626C99.7661 97.3834 99.8221 97.1314 99.8221 96.87C99.8221 96.5994 99.7661 96.3474 99.6541 96.114C99.5421 95.8807 99.4021 95.694 99.2341 95.554C99.0661 95.4047 98.8935 95.33 98.7161 95.33H96.1121L96.2801 95.078V98.648L96.1261 98.424H98.7161ZM106.424 103.52C106.162 103.52 105.948 103.441 105.78 103.282C105.612 103.114 105.528 102.909 105.528 102.666V94.546H107.348V102.666C107.348 102.909 107.259 103.114 107.082 103.282C106.914 103.441 106.694 103.52 106.424 103.52ZM103.33 95.33C103.087 95.33 102.882 95.2554 102.714 95.106C102.555 94.9567 102.476 94.7607 102.476 94.518C102.476 94.2754 102.555 94.084 102.714 93.944C102.882 93.7947 103.087 93.72 103.33 93.72H109.546C109.788 93.72 109.989 93.7947 110.148 93.944C110.316 94.0934 110.4 94.2894 110.4 94.532C110.4 94.7747 110.316 94.9707 110.148 95.12C109.989 95.26 109.788 95.33 109.546 95.33H103.33Z" fill="white"/>
<rect x="154" y="86.02" width="104" height="25" rx="4" fill="#FF0000"/>
<path d="M182.84 93.72C183.512 93.72 184.109 93.846 184.632 94.098C185.155 94.35 185.593 94.7047 185.948 95.162C186.312 95.61 186.583 96.1327 186.76 96.73C186.947 97.318 187.04 97.948 187.04 98.62C187.04 99.5254 186.877 100.351 186.55 101.098C186.223 101.835 185.747 102.423 185.122 102.862C184.506 103.301 183.745 103.52 182.84 103.52H179.494C179.251 103.52 179.046 103.441 178.878 103.282C178.719 103.114 178.64 102.909 178.64 102.666V94.574C178.64 94.3314 178.719 94.1307 178.878 93.972C179.046 93.804 179.251 93.72 179.494 93.72H182.84ZM182.7 101.91C183.288 101.91 183.769 101.761 184.142 101.462C184.515 101.154 184.786 100.753 184.954 100.258C185.131 99.754 185.22 99.208 185.22 98.62C185.22 98.1814 185.169 97.766 185.066 97.374C184.973 96.9727 184.823 96.6227 184.618 96.324C184.413 96.016 184.151 95.7734 183.834 95.596C183.517 95.4187 183.139 95.33 182.7 95.33H180.25L180.39 95.204V102.064L180.306 101.91H182.7ZM189.502 93.72H194.192C194.434 93.72 194.635 93.7994 194.794 93.958C194.962 94.1074 195.046 94.3034 195.046 94.546C195.046 94.7794 194.962 94.9707 194.794 95.12C194.635 95.26 194.434 95.33 194.192 95.33H190.272L190.398 95.092V97.822L190.286 97.71H193.562C193.804 97.71 194.005 97.7894 194.164 97.948C194.332 98.0974 194.416 98.2934 194.416 98.536C194.416 98.7694 194.332 98.9607 194.164 99.11C194.005 99.25 193.804 99.32 193.562 99.32H190.328L190.398 99.208V102.036L190.286 101.91H194.192C194.434 101.91 194.635 101.994 194.794 102.162C194.962 102.321 195.046 102.507 195.046 102.722C195.046 102.955 194.962 103.147 194.794 103.296C194.635 103.445 194.434 103.52 194.192 103.52H189.502C189.259 103.52 189.054 103.441 188.886 103.282C188.727 103.114 188.648 102.909 188.648 102.666V94.574C188.648 94.3314 188.727 94.1307 188.886 93.972C189.054 93.804 189.259 93.72 189.502 93.72ZM203.519 94.196C203.762 94.3174 203.902 94.5087 203.939 94.77C203.986 95.0314 203.921 95.2694 203.743 95.484C203.622 95.652 203.463 95.7454 203.267 95.764C203.081 95.7827 202.889 95.7454 202.693 95.652C202.469 95.5494 202.231 95.47 201.979 95.414C201.737 95.358 201.48 95.33 201.209 95.33C200.705 95.33 200.253 95.4094 199.851 95.568C199.459 95.7267 199.123 95.9554 198.843 96.254C198.563 96.5434 198.349 96.8887 198.199 97.29C198.059 97.6914 197.989 98.1347 197.989 98.62C197.989 99.1894 198.069 99.684 198.227 100.104C198.395 100.524 198.624 100.874 198.913 101.154C199.203 101.434 199.543 101.644 199.935 101.784C200.327 101.915 200.752 101.98 201.209 101.98C201.461 101.98 201.713 101.957 201.965 101.91C202.217 101.863 202.46 101.779 202.693 101.658C202.889 101.565 203.081 101.532 203.267 101.56C203.463 101.588 203.627 101.686 203.757 101.854C203.944 102.087 204.009 102.33 203.953 102.582C203.907 102.825 203.767 103.002 203.533 103.114C203.291 103.235 203.039 103.338 202.777 103.422C202.525 103.497 202.269 103.553 202.007 103.59C201.746 103.637 201.48 103.66 201.209 103.66C200.537 103.66 199.898 103.553 199.291 103.338C198.694 103.123 198.157 102.806 197.681 102.386C197.215 101.966 196.846 101.443 196.575 100.818C196.305 100.183 196.169 99.4507 196.169 98.62C196.169 97.9014 196.291 97.2387 196.533 96.632C196.785 96.0254 197.135 95.5027 197.583 95.064C198.041 94.616 198.577 94.2707 199.193 94.028C199.809 93.776 200.481 93.65 201.209 93.65C201.62 93.65 202.021 93.6967 202.413 93.79C202.805 93.8834 203.174 94.0187 203.519 94.196ZM210.841 101.882C211.083 101.882 211.284 101.961 211.443 102.12C211.611 102.269 211.695 102.465 211.695 102.708C211.695 102.941 211.611 103.137 211.443 103.296C211.284 103.445 211.083 103.52 210.841 103.52H206.291C206.048 103.52 205.843 103.441 205.675 103.282C205.516 103.114 205.437 102.909 205.437 102.666V94.574C205.437 94.3314 205.521 94.1307 205.689 93.972C205.857 93.804 206.071 93.72 206.333 93.72C206.557 93.72 206.753 93.804 206.921 93.972C207.098 94.1307 207.187 94.3314 207.187 94.574V102.12L206.879 101.882H210.841ZM215.048 102.666C215.048 102.909 214.959 103.114 214.782 103.282C214.605 103.441 214.399 103.52 214.166 103.52C213.905 103.52 213.695 103.441 213.536 103.282C213.377 103.114 213.298 102.909 213.298 102.666V94.574C213.298 94.3314 213.382 94.1307 213.55 93.972C213.718 93.804 213.933 93.72 214.194 93.72C214.418 93.72 214.614 93.804 214.782 93.972C214.959 94.1307 215.048 94.3314 215.048 94.574V102.666ZM224.588 93.72C224.812 93.72 224.994 93.7947 225.134 93.944C225.274 94.0934 225.344 94.28 225.344 94.504V102.666C225.344 102.909 225.26 103.114 225.092 103.282C224.933 103.441 224.732 103.52 224.49 103.52C224.368 103.52 224.242 103.501 224.112 103.464C223.99 103.417 223.897 103.357 223.832 103.282L218.33 96.296L218.694 96.072V102.736C218.694 102.96 218.619 103.147 218.47 103.296C218.33 103.445 218.143 103.52 217.91 103.52C217.686 103.52 217.504 103.445 217.364 103.296C217.224 103.147 217.154 102.96 217.154 102.736V94.574C217.154 94.3314 217.233 94.1307 217.392 93.972C217.56 93.804 217.765 93.72 218.008 93.72C218.138 93.72 218.274 93.748 218.414 93.804C218.554 93.8507 218.656 93.9254 218.722 94.028L224.056 100.832L223.818 101V94.504C223.818 94.28 223.888 94.0934 224.028 93.944C224.168 93.7947 224.354 93.72 224.588 93.72ZM228.302 93.72H232.992C233.235 93.72 233.436 93.7994 233.594 93.958C233.762 94.1074 233.846 94.3034 233.846 94.546C233.846 94.7794 233.762 94.9707 233.594 95.12C233.436 95.26 233.235 95.33 232.992 95.33H229.072L229.198 95.092V97.822L229.086 97.71H232.362C232.605 97.71 232.806 97.7894 232.964 97.948C233.132 98.0974 233.216 98.2934 233.216 98.536C233.216 98.7694 233.132 98.9607 232.964 99.11C232.806 99.25 232.605 99.32 232.362 99.32H229.128L229.198 99.208V102.036L229.086 101.91H232.992C233.235 101.91 233.436 101.994 233.594 102.162C233.762 102.321 233.846 102.507 233.846 102.722C233.846 102.955 233.762 103.147 233.594 103.296C233.436 103.445 233.235 103.52 232.992 103.52H228.302C228.06 103.52 227.854 103.441 227.686 103.282C227.528 103.114 227.448 102.909 227.448 102.666V94.574C227.448 94.3314 227.528 94.1307 227.686 93.972C227.854 93.804 228.06 93.72 228.302 93.72Z" fill="white"/>
<rect x="275" y="86.02" width="103" height="25" rx="4" fill="#FFC222"/>
<path d="M303.117 103.66C302.464 103.66 301.876 103.581 301.353 103.422C300.83 103.254 300.331 102.965 299.855 102.554C299.734 102.451 299.64 102.335 299.575 102.204C299.51 102.073 299.477 101.943 299.477 101.812C299.477 101.597 299.552 101.411 299.701 101.252C299.86 101.084 300.056 101 300.289 101C300.466 101 300.625 101.056 300.765 101.168C301.12 101.457 301.47 101.677 301.815 101.826C302.17 101.975 302.604 102.05 303.117 102.05C303.462 102.05 303.78 101.999 304.069 101.896C304.358 101.784 304.592 101.639 304.769 101.462C304.946 101.275 305.035 101.065 305.035 100.832C305.035 100.552 304.951 100.314 304.783 100.118C304.615 99.922 304.358 99.7587 304.013 99.628C303.668 99.488 303.229 99.3807 302.697 99.306C302.193 99.2314 301.75 99.1194 301.367 98.97C300.984 98.8114 300.662 98.6154 300.401 98.382C300.149 98.1394 299.958 97.8594 299.827 97.542C299.696 97.2154 299.631 96.8514 299.631 96.45C299.631 95.8434 299.785 95.3254 300.093 94.896C300.41 94.4667 300.835 94.14 301.367 93.916C301.899 93.692 302.487 93.58 303.131 93.58C303.738 93.58 304.298 93.6734 304.811 93.86C305.334 94.0374 305.758 94.266 306.085 94.546C306.356 94.7607 306.491 95.008 306.491 95.288C306.491 95.4934 306.412 95.68 306.253 95.848C306.094 96.016 305.908 96.1 305.693 96.1C305.553 96.1 305.427 96.058 305.315 95.974C305.166 95.8434 304.965 95.722 304.713 95.61C304.461 95.4887 304.195 95.3907 303.915 95.316C303.635 95.232 303.374 95.19 303.131 95.19C302.73 95.19 302.389 95.2414 302.109 95.344C301.838 95.4467 301.633 95.5867 301.493 95.764C301.353 95.9414 301.283 96.1467 301.283 96.38C301.283 96.66 301.362 96.8934 301.521 97.08C301.689 97.2574 301.927 97.402 302.235 97.514C302.543 97.6167 302.912 97.71 303.341 97.794C303.901 97.8967 304.391 98.018 304.811 98.158C305.24 98.298 305.595 98.48 305.875 98.704C306.155 98.9187 306.365 99.194 306.505 99.53C306.645 99.8567 306.715 100.258 306.715 100.734C306.715 101.341 306.547 101.863 306.211 102.302C305.875 102.741 305.432 103.077 304.881 103.31C304.34 103.543 303.752 103.66 303.117 103.66ZM310.071 102.666C310.071 102.909 309.982 103.114 309.805 103.282C309.627 103.441 309.422 103.52 309.189 103.52C308.927 103.52 308.717 103.441 308.559 103.282C308.4 103.114 308.321 102.909 308.321 102.666V94.574C308.321 94.3314 308.405 94.1307 308.573 93.972C308.741 93.804 308.955 93.72 309.217 93.72C309.441 93.72 309.637 93.804 309.805 93.972C309.982 94.1307 310.071 94.3314 310.071 94.574V102.666ZM317.58 101.882C317.823 101.882 318.023 101.961 318.182 102.12C318.35 102.269 318.434 102.465 318.434 102.708C318.434 102.941 318.35 103.137 318.182 103.296C318.023 103.445 317.823 103.52 317.58 103.52H313.03C312.787 103.52 312.582 103.441 312.414 103.282C312.255 103.114 312.176 102.909 312.176 102.666V94.574C312.176 94.3314 312.26 94.1307 312.428 93.972C312.596 93.804 312.811 93.72 313.072 93.72C313.296 93.72 313.492 93.804 313.66 93.972C313.837 94.1307 313.926 94.3314 313.926 94.574V102.12L313.618 101.882H317.58ZM320.891 93.72H325.581C325.824 93.72 326.025 93.7994 326.183 93.958C326.351 94.1074 326.435 94.3034 326.435 94.546C326.435 94.7794 326.351 94.9707 326.183 95.12C326.025 95.26 325.824 95.33 325.581 95.33H321.661L321.787 95.092V97.822L321.675 97.71H324.951C325.194 97.71 325.395 97.7894 325.553 97.948C325.721 98.0974 325.805 98.2934 325.805 98.536C325.805 98.7694 325.721 98.9607 325.553 99.11C325.395 99.25 325.194 99.32 324.951 99.32H321.717L321.787 99.208V102.036L321.675 101.91H325.581C325.824 101.91 326.025 101.994 326.183 102.162C326.351 102.321 326.435 102.507 326.435 102.722C326.435 102.955 326.351 103.147 326.183 103.296C326.025 103.445 325.824 103.52 325.581 103.52H320.891C320.649 103.52 320.443 103.441 320.275 103.282C320.117 103.114 320.037 102.909 320.037 102.666V94.574C320.037 94.3314 320.117 94.1307 320.275 93.972C320.443 93.804 320.649 93.72 320.891 93.72ZM335.483 93.72C335.707 93.72 335.889 93.7947 336.029 93.944C336.169 94.0934 336.239 94.28 336.239 94.504V102.666C336.239 102.909 336.155 103.114 335.987 103.282C335.828 103.441 335.628 103.52 335.385 103.52C335.264 103.52 335.138 103.501 335.007 103.464C334.886 103.417 334.792 103.357 334.727 103.282L329.225 96.296L329.589 96.072V102.736C329.589 102.96 329.514 103.147 329.365 103.296C329.225 103.445 329.038 103.52 328.805 103.52C328.581 103.52 328.399 103.445 328.259 103.296C328.119 103.147 328.049 102.96 328.049 102.736V94.574C328.049 94.3314 328.128 94.1307 328.287 93.972C328.455 93.804 328.66 93.72 328.903 93.72C329.034 93.72 329.169 93.748 329.309 93.804C329.449 93.8507 329.552 93.9254 329.617 94.028L334.951 100.832L334.713 101V94.504C334.713 94.28 334.783 94.0934 334.923 93.944C335.063 93.7947 335.25 93.72 335.483 93.72ZM345.204 94.196C345.447 94.3174 345.587 94.5087 345.624 94.77C345.671 95.0314 345.605 95.2694 345.428 95.484C345.307 95.652 345.148 95.7454 344.952 95.764C344.765 95.7827 344.574 95.7454 344.378 95.652C344.154 95.5494 343.916 95.47 343.664 95.414C343.421 95.358 343.165 95.33 342.894 95.33C342.39 95.33 341.937 95.4094 341.536 95.568C341.144 95.7267 340.808 95.9554 340.528 96.254C340.248 96.5434 340.033 96.8887 339.884 97.29C339.744 97.6914 339.674 98.1347 339.674 98.62C339.674 99.1894 339.753 99.684 339.912 100.104C340.08 100.524 340.309 100.874 340.598 101.154C340.887 101.434 341.228 101.644 341.62 101.784C342.012 101.915 342.437 101.98 342.894 101.98C343.146 101.98 343.398 101.957 343.65 101.91C343.902 101.863 344.145 101.779 344.378 101.658C344.574 101.565 344.765 101.532 344.952 101.56C345.148 101.588 345.311 101.686 345.442 101.854C345.629 102.087 345.694 102.33 345.638 102.582C345.591 102.825 345.451 103.002 345.218 103.114C344.975 103.235 344.723 103.338 344.462 103.422C344.21 103.497 343.953 103.553 343.692 103.59C343.431 103.637 343.165 103.66 342.894 103.66C342.222 103.66 341.583 103.553 340.976 103.338C340.379 103.123 339.842 102.806 339.366 102.386C338.899 101.966 338.531 101.443 338.26 100.818C337.989 100.183 337.854 99.4507 337.854 98.62C337.854 97.9014 337.975 97.2387 338.218 96.632C338.47 96.0254 338.82 95.5027 339.268 95.064C339.725 94.616 340.262 94.2707 340.878 94.028C341.494 93.776 342.166 93.65 342.894 93.65C343.305 93.65 343.706 93.6967 344.098 93.79C344.49 93.8834 344.859 94.0187 345.204 94.196ZM347.975 93.72H352.665C352.908 93.72 353.109 93.7994 353.267 93.958C353.435 94.1074 353.519 94.3034 353.519 94.546C353.519 94.7794 353.435 94.9707 353.267 95.12C353.109 95.26 352.908 95.33 352.665 95.33H348.745L348.871 95.092V97.822L348.759 97.71H352.035C352.278 97.71 352.479 97.7894 352.637 97.948C352.805 98.0974 352.889 98.2934 352.889 98.536C352.889 98.7694 352.805 98.9607 352.637 99.11C352.479 99.25 352.278 99.32 352.035 99.32H348.801L348.871 99.208V102.036L348.759 101.91H352.665C352.908 101.91 353.109 101.994 353.267 102.162C353.435 102.321 353.519 102.507 353.519 102.722C353.519 102.955 353.435 103.147 353.267 103.296C353.109 103.445 352.908 103.52 352.665 103.52H347.975C347.733 103.52 347.527 103.441 347.359 103.282C347.201 103.114 347.121 102.909 347.121 102.666V94.574C347.121 94.3314 347.201 94.1307 347.359 93.972C347.527 93.804 347.733 93.72 347.975 93.72Z" fill="black"/>
</g>
<defs>
<filter id="filter0_d_51_409" x="0.5" y="0.5" width="410" height="143.044" filterUnits="userSpaceOnUse" color-interpolation-filters="sRGB">
<feFlood flood-opacity="0" result="BackgroundImageFix"/>
<feColorMatrix in="SourceAlpha" type="matrix" values="0 0 0 0 0 0 0 0 0 0 0 0 0 0 0 0 0 0 127 0" result="hardAlpha"/>
<feOffset/>
<feGaussianBlur stdDeviation="12"/>
<feComposite in2="hardAlpha" operator="out"/>
<feColorMatrix type="matrix" values="0 0 0 0 0 0 0 0 0 0 0 0 0 0 0 0 0 0 0.5 0"/>
<feBlend mode="normal" in2="BackgroundImageFix" result="effect1_dropShadow_51_409"/>
<feBlend mode="normal" in="SourceGraphic" in2="effect1_dropShadow_51_409" result="shape"/>
</filter>
</defs>
</svg>
