<svg width="371" height="104" viewBox="0 0 371 104" fill="none" xmlns="http://www.w3.org/2000/svg">
<g filter="url(#filter0_d_1652_2480)">
<path fill-rule="evenodd" clip-rule="evenodd" d="M17 95.0449C10.3726 95.0449 5 89.6723 5 83.0449V18.9927C5 12.3653 10.3726 6.99268 17 6.99268H338.883L341.939 2.68597C343.533 0.438721 346.869 0.438721 348.464 2.68597L351.519 6.99268H354C360.627 6.99268 366 12.3653 366 18.9927V83.0449C366 89.6723 360.627 95.0449 354 95.0449H17Z" fill="white"/>
<path d="M338.883 6.99268L339.291 7.282C339.197 7.41415 339.045 7.49268 338.883 7.49268V6.99268ZM341.939 2.68597L341.531 2.39664L341.939 2.68597ZM348.464 2.68597L348.871 2.39664L348.464 2.68597ZM351.519 6.99268V7.49268C351.357 7.49268 351.205 7.41415 351.111 7.282L351.519 6.99268ZM5.5 83.0449C5.5 89.3962 10.6487 94.5449 17 94.5449V95.5449C10.0964 95.5449 4.5 89.9485 4.5 83.0449H5.5ZM5.5 18.9927V83.0449H4.5V18.9927H5.5ZM17 7.49268C10.6487 7.49268 5.5 12.6414 5.5 18.9927H4.5C4.5 12.0891 10.0964 6.49268 17 6.49268V7.49268ZM338.883 7.49268H17V6.49268H338.883V7.49268ZM338.476 6.70335L341.531 2.39664L342.347 2.97529L339.291 7.282L338.476 6.70335ZM341.531 2.39664C343.325 -0.131508 347.078 -0.131508 348.871 2.39664L348.056 2.97529C346.661 1.00895 343.742 1.00895 342.347 2.97529L341.531 2.39664ZM348.871 2.39664L351.927 6.70335L351.111 7.282L348.056 2.97529L348.871 2.39664ZM354 7.49268H351.519V6.49268H354V7.49268ZM365.5 18.9927C365.5 12.6414 360.351 7.49268 354 7.49268V6.49268C360.904 6.49268 366.5 12.0891 366.5 18.9927H365.5ZM365.5 83.0449V18.9927H366.5V83.0449H365.5ZM354 94.5449C360.351 94.5449 365.5 89.3962 365.5 83.0449H366.5C366.5 89.9485 360.904 95.5449 354 95.5449V94.5449ZM17 94.5449H354V95.5449H17V94.5449Z" fill="black" fill-opacity="0.3"/>
<rect x="13" y="14.9688" width="28" height="28" rx="6.22222" fill="#261C41"/>
<path d="M27.4579 32.1639L26.3695 34.2347C26.0662 34.538 25.5208 34.2587 25.171 33.979C25.0765 33.9035 23.5549 32.547 23.4693 32.4614C22.6682 31.6525 21.9449 30.8047 21.2993 29.9181C20.6615 29.0314 20.1482 28.1447 19.7749 27.2659C19.4093 26.3792 19.2227 25.5314 19.2227 24.7225C19.2227 24.1936 19.316 23.6881 19.5027 23.2214C19.6893 22.747 19.9849 22.3114 20.3971 21.9225C20.8949 21.4325 21.4393 21.1914 22.0149 21.1914C22.2327 21.1914 22.4504 21.2381 22.6449 21.3314C22.8471 21.4247 23.026 21.5647 23.166 21.767L24.9704 24.3103C25.1104 24.5047 25.2115 24.6836 25.2815 24.8547C25.3515 25.0181 25.3904 25.1814 25.3904 25.3292C25.3904 25.5159 25.336 25.7025 25.2271 25.8814C25.126 26.0603 24.9782 26.247 24.7915 26.4336L24.2004 27.0481C24.1149 27.1336 24.076 27.2347 24.076 27.3592C24.076 27.4214 24.0838 27.4759 24.0993 27.5381C24.1227 27.6003 24.146 27.647 24.1615 27.6936C24.3015 27.9503 24.5427 28.2847 24.8849 28.6892C25.2349 29.0936 25.6082 29.5059 26.0127 29.9181C26.0904 29.9959 27.6184 31.3637 27.7083 31.4271C28.0577 31.6732 27.769 31.8527 27.4579 32.1639Z" fill="white"/>
<path d="M34.7549 33.8933C34.7549 34.1111 34.716 34.3366 34.6382 34.5544C34.6149 34.6166 34.5916 34.6789 34.5605 34.7411C34.4282 35.0211 34.2571 35.2855 34.0316 35.5344C33.6505 35.9544 33.2305 36.2578 32.756 36.4522C32.7482 36.4522 32.7405 36.46 32.7327 36.46C32.2738 36.6466 31.776 36.7478 31.2393 36.7478C30.446 36.7478 29.5982 36.5611 28.7038 36.18C27.8093 35.7989 26.9149 35.2855 26.0282 34.64C25.7249 34.4144 25.4216 34.1889 25.1338 33.9478L27.6771 31.4044C27.8949 31.5678 28.0893 31.6922 28.2527 31.7778C28.2916 31.7933 28.3382 31.8166 28.3927 31.84C28.4549 31.8633 28.5171 31.8711 28.5871 31.8711C28.7193 31.8711 28.8205 31.8244 28.906 31.7389L29.4971 31.1555C29.6916 30.9611 29.8782 30.8133 30.0571 30.72C30.236 30.6111 30.4149 30.5566 30.6093 30.5566C30.7571 30.5566 30.9127 30.5878 31.0838 30.6578C31.2549 30.7278 31.4338 30.8289 31.6282 30.9611L34.2027 32.7889C34.4049 32.9289 34.5449 33.0922 34.6305 33.2866C34.7082 33.4811 34.7549 33.6755 34.7549 33.8933Z" fill="white"/>
<path d="M59.604 24.2547C59.5947 24.4601 59.5153 24.6327 59.366 24.7727C59.226 24.9034 59.058 24.9688 58.862 24.9688C58.6473 24.9688 58.47 24.9034 58.33 24.7727C58.1993 24.6327 58.134 24.4601 58.134 24.2547V15.8827C58.134 15.6774 58.204 15.5094 58.344 15.3787C58.484 15.2387 58.666 15.1687 58.89 15.1687C59.0767 15.1687 59.24 15.2387 59.38 15.3787C59.5293 15.5094 59.604 15.6774 59.604 15.8827V24.2547ZM65.5064 17.4367C66.1691 17.4367 66.6824 17.5767 67.0464 17.8567C67.4104 18.1274 67.6624 18.4961 67.8024 18.9627C67.9518 19.4201 68.0264 19.9334 68.0264 20.5027V24.2547C68.0264 24.4601 67.9564 24.6327 67.8164 24.7727C67.6858 24.9034 67.5224 24.9688 67.3264 24.9688C67.1211 24.9688 66.9531 24.9034 66.8224 24.7727C66.6918 24.6327 66.6264 24.4601 66.6264 24.2547V20.5167C66.6264 20.1807 66.5798 19.8821 66.4864 19.6207C66.3931 19.3501 66.2298 19.1354 65.9964 18.9767C65.7724 18.8087 65.4551 18.7247 65.0444 18.7247C64.6618 18.7247 64.3258 18.8087 64.0364 18.9767C63.7471 19.1354 63.5184 19.3501 63.3504 19.6207C63.1918 19.8821 63.1124 20.1807 63.1124 20.5167V24.2547C63.1124 24.4601 63.0424 24.6327 62.9024 24.7727C62.7718 24.9034 62.6084 24.9688 62.4124 24.9688C62.2071 24.9688 62.0391 24.9034 61.9084 24.7727C61.7778 24.6327 61.7124 24.4601 61.7124 24.2547V18.3187C61.7124 18.1134 61.7778 17.9454 61.9084 17.8147C62.0391 17.6747 62.2071 17.6047 62.4124 17.6047C62.6084 17.6047 62.7718 17.6747 62.9024 17.8147C63.0424 17.9454 63.1124 18.1134 63.1124 18.3187V19.1027L62.8604 19.2427C62.9258 19.0374 63.0378 18.8321 63.1964 18.6267C63.3644 18.4121 63.5651 18.2161 63.7984 18.0387C64.0318 17.8521 64.2931 17.7074 64.5824 17.6047C64.8718 17.4927 65.1798 17.4367 65.5064 17.4367ZM73.2322 17.4367C73.7362 17.4367 74.1842 17.4927 74.5762 17.6047C74.9682 17.7074 75.2716 17.8567 75.4862 18.0527C75.7102 18.2394 75.8222 18.4587 75.8222 18.7107C75.8222 18.8694 75.7756 19.0187 75.6822 19.1587C75.5889 19.2894 75.4489 19.3547 75.2622 19.3547C75.1316 19.3547 75.0196 19.3314 74.9262 19.2847C74.8422 19.2381 74.7629 19.1821 74.6882 19.1167C74.6136 19.0514 74.5202 18.9861 74.4082 18.9207C74.3056 18.8647 74.1516 18.8181 73.9462 18.7807C73.7502 18.7434 73.5729 18.7247 73.4142 18.7247C72.9196 18.7247 72.4902 18.8367 72.1262 19.0607C71.7716 19.2847 71.4916 19.5881 71.2862 19.9707C71.0902 20.3534 70.9922 20.7874 70.9922 21.2728C70.9922 21.7581 71.0902 22.1921 71.2862 22.5747C71.4916 22.9574 71.7669 23.2607 72.1122 23.4847C72.4669 23.7087 72.8776 23.8207 73.3442 23.8207C73.6242 23.8207 73.8529 23.8021 74.0302 23.7647C74.2076 23.7181 74.3616 23.6621 74.4922 23.5967C74.6322 23.5127 74.7489 23.4287 74.8422 23.3447C74.9449 23.2514 75.0849 23.2047 75.2622 23.2047C75.4676 23.2047 75.6216 23.2701 75.7242 23.4007C75.8362 23.5221 75.8922 23.6761 75.8922 23.8627C75.8922 24.0681 75.7662 24.2687 75.5142 24.4647C75.2716 24.6514 74.9449 24.8054 74.5342 24.9267C74.1236 25.0481 73.6709 25.1088 73.1762 25.1088C72.4482 25.1088 71.8136 24.9408 71.2722 24.6047C70.7402 24.2687 70.3249 23.8114 70.0262 23.2327C69.7369 22.6541 69.5922 22.0007 69.5922 21.2728C69.5922 20.5354 69.7462 19.8821 70.0542 19.3127C70.3622 18.7341 70.7916 18.2767 71.3422 17.9407C71.8929 17.6047 72.5229 17.4367 73.2322 17.4367ZM84.286 21.2867C84.286 22.0334 84.1227 22.6961 83.796 23.2747C83.4693 23.8441 83.026 24.2921 82.466 24.6187C81.906 24.9454 81.276 25.1088 80.576 25.1088C79.876 25.1088 79.246 24.9454 78.686 24.6187C78.126 24.2921 77.678 23.8441 77.342 23.2747C77.0153 22.6961 76.852 22.0334 76.852 21.2867C76.852 20.5307 77.0153 19.8681 77.342 19.2987C77.678 18.7201 78.126 18.2674 78.686 17.9407C79.246 17.6047 79.876 17.4367 80.576 17.4367C81.276 17.4367 81.906 17.6047 82.466 17.9407C83.026 18.2674 83.4693 18.7201 83.796 19.2987C84.1227 19.8681 84.286 20.5307 84.286 21.2867ZM82.886 21.2867C82.886 20.7734 82.7833 20.3301 82.578 19.9567C82.3727 19.5741 82.0927 19.2754 81.738 19.0607C81.3927 18.8367 81.0053 18.7247 80.576 18.7247C80.1467 18.7247 79.7547 18.8367 79.4 19.0607C79.0453 19.2754 78.7653 19.5741 78.56 19.9567C78.3547 20.3301 78.252 20.7734 78.252 21.2867C78.252 21.7814 78.3547 22.2201 78.56 22.6027C78.7653 22.9854 79.0453 23.2841 79.4 23.4987C79.7547 23.7134 80.1467 23.8207 80.576 23.8207C81.0053 23.8207 81.3927 23.7134 81.738 23.4987C82.0927 23.2841 82.3727 22.9854 82.578 22.6027C82.7833 22.2201 82.886 21.7814 82.886 21.2867ZM89.5666 17.4787C90.2573 17.4787 90.7893 17.6514 91.1626 17.9967C91.536 18.3327 91.7833 18.7901 91.9046 19.3687L91.6806 19.2987L91.7786 19.0747C91.9 18.8321 92.082 18.5894 92.3246 18.3467C92.5766 18.0947 92.8753 17.8894 93.2206 17.7307C93.566 17.5627 93.9346 17.4787 94.3266 17.4787C94.9706 17.4787 95.47 17.6187 95.8246 17.8988C96.1793 18.1694 96.4266 18.5381 96.5666 19.0047C96.7066 19.4621 96.7766 19.9754 96.7766 20.5447V24.2547C96.7766 24.4601 96.7113 24.6327 96.5806 24.7727C96.45 24.9034 96.282 24.9688 96.0766 24.9688C95.8806 24.9688 95.7126 24.9034 95.5726 24.7727C95.442 24.6327 95.3766 24.4601 95.3766 24.2547V20.5587C95.3766 20.2321 95.33 19.9334 95.2366 19.6627C95.1526 19.3921 94.9986 19.1774 94.7746 19.0187C94.56 18.8507 94.2613 18.7667 93.8786 18.7667C93.5146 18.7667 93.188 18.8507 92.8986 19.0187C92.6186 19.1774 92.3993 19.3921 92.2406 19.6627C92.082 19.9334 92.0026 20.2321 92.0026 20.5587V24.2547C92.0026 24.4601 91.9373 24.6327 91.8066 24.7727C91.676 24.9034 91.508 24.9688 91.3026 24.9688C91.0973 24.9688 90.9293 24.9034 90.7986 24.7727C90.668 24.6327 90.6026 24.4601 90.6026 24.2547V20.5447C90.6026 20.2181 90.556 19.9194 90.4626 19.6487C90.3786 19.3781 90.2293 19.1634 90.0146 19.0047C89.8 18.8461 89.5013 18.7667 89.1186 18.7667C88.7546 18.7667 88.4326 18.8461 88.1526 19.0047C87.8726 19.1634 87.6533 19.3781 87.4946 19.6487C87.3453 19.9194 87.2706 20.2181 87.2706 20.5447V24.2547C87.2706 24.4601 87.2006 24.6327 87.0606 24.7727C86.93 24.9034 86.7666 24.9688 86.5706 24.9688C86.3653 24.9688 86.1973 24.9034 86.0666 24.7727C85.936 24.6327 85.8706 24.4601 85.8706 24.2547V18.3187C85.8706 18.1134 85.936 17.9454 86.0666 17.8147C86.1973 17.6747 86.3653 17.6047 86.5706 17.6047C86.7666 17.6047 86.93 17.6747 87.0606 17.8147C87.2006 17.9454 87.2706 18.1134 87.2706 18.3187V19.1447L87.0046 19.2987C87.07 19.0934 87.1773 18.8834 87.3266 18.6687C87.476 18.4541 87.6626 18.2581 87.8866 18.0807C88.12 17.9034 88.3766 17.7587 88.6566 17.6467C88.9366 17.5347 89.24 17.4787 89.5666 17.4787ZM100.052 24.2547C100.052 24.4601 99.9865 24.6327 99.8559 24.7727C99.7252 24.9034 99.5572 24.9688 99.3519 24.9688C99.1559 24.9688 98.9879 24.9034 98.8479 24.7727C98.7172 24.6327 98.6519 24.4601 98.6519 24.2547V18.2627C98.6519 18.0574 98.7172 17.8894 98.8479 17.7587C98.9879 17.6187 99.1559 17.5487 99.3519 17.5487C99.5572 17.5487 99.7252 17.6187 99.8559 17.7587C99.9865 17.8894 100.052 18.0574 100.052 18.2627V24.2547ZM99.3379 16.6247C99.0672 16.6247 98.8712 16.5781 98.7499 16.4847C98.6285 16.3821 98.5679 16.2141 98.5679 15.9807V15.7567C98.5679 15.5234 98.6332 15.3601 98.7639 15.2667C98.8945 15.1734 99.0905 15.1267 99.3519 15.1267C99.6319 15.1267 99.8325 15.1781 99.9539 15.2807C100.075 15.3741 100.136 15.5327 100.136 15.7567V15.9807C100.136 16.2234 100.071 16.3914 99.9399 16.4847C99.8185 16.5781 99.6179 16.6247 99.3379 16.6247ZM105.729 17.4367C106.392 17.4367 106.905 17.5767 107.269 17.8567C107.633 18.1274 107.885 18.4961 108.025 18.9627C108.174 19.4201 108.249 19.9334 108.249 20.5027V24.2547C108.249 24.4601 108.179 24.6327 108.039 24.7727C107.908 24.9034 107.745 24.9688 107.549 24.9688C107.344 24.9688 107.176 24.9034 107.045 24.7727C106.914 24.6327 106.849 24.4601 106.849 24.2547V20.5167C106.849 20.1807 106.802 19.8821 106.709 19.6207C106.616 19.3501 106.452 19.1354 106.219 18.9767C105.995 18.8087 105.678 18.7247 105.267 18.7247C104.884 18.7247 104.548 18.8087 104.259 18.9767C103.97 19.1354 103.741 19.3501 103.573 19.6207C103.414 19.8821 103.335 20.1807 103.335 20.5167V24.2547C103.335 24.4601 103.265 24.6327 103.125 24.7727C102.994 24.9034 102.831 24.9688 102.635 24.9688C102.43 24.9688 102.262 24.9034 102.131 24.7727C102 24.6327 101.935 24.4601 101.935 24.2547V18.3187C101.935 18.1134 102 17.9454 102.131 17.8147C102.262 17.6747 102.43 17.6047 102.635 17.6047C102.831 17.6047 102.994 17.6747 103.125 17.8147C103.265 17.9454 103.335 18.1134 103.335 18.3187V19.1027L103.083 19.2427C103.148 19.0374 103.26 18.8321 103.419 18.6267C103.587 18.4121 103.788 18.2161 104.021 18.0387C104.254 17.8521 104.516 17.7074 104.805 17.6047C105.094 17.4927 105.402 17.4367 105.729 17.4367ZM113.259 17.4367C113.66 17.4367 114.029 17.5021 114.365 17.6327C114.701 17.7634 114.99 17.9314 115.233 18.1367C115.485 18.3327 115.681 18.5381 115.821 18.7527C115.961 18.9674 116.031 19.1541 116.031 19.3127L115.709 19.3267V18.2067C115.709 18.0107 115.774 17.8427 115.905 17.7027C116.036 17.5627 116.204 17.4927 116.409 17.4927C116.614 17.4927 116.782 17.5627 116.913 17.7027C117.044 17.8334 117.109 18.0014 117.109 18.2067V24.3807C117.109 25.1741 116.941 25.8181 116.605 26.3128C116.269 26.8168 115.821 27.1854 115.261 27.4188C114.71 27.6521 114.104 27.7688 113.441 27.7688C113.208 27.7688 112.932 27.7361 112.615 27.6708C112.298 27.6148 112.004 27.5448 111.733 27.4608C111.472 27.3768 111.29 27.2928 111.187 27.2088C110.972 27.0968 110.828 26.9661 110.753 26.8167C110.688 26.6674 110.688 26.5181 110.753 26.3688C110.846 26.1634 110.972 26.0374 111.131 25.9908C111.29 25.9441 111.472 25.9581 111.677 26.0328C111.77 26.0608 111.915 26.1121 112.111 26.1868C112.307 26.2614 112.526 26.3268 112.769 26.3828C113.012 26.4481 113.24 26.4808 113.455 26.4808C114.202 26.4808 114.762 26.3081 115.135 25.9628C115.518 25.6174 115.709 25.1461 115.709 24.5487V23.2887L115.863 23.3867C115.835 23.5827 115.746 23.7834 115.597 23.9887C115.457 24.1847 115.27 24.3667 115.037 24.5347C114.804 24.7027 114.533 24.8427 114.225 24.9547C113.926 25.0574 113.618 25.1088 113.301 25.1088C112.638 25.1088 112.046 24.9454 111.523 24.6187C111 24.2827 110.585 23.8301 110.277 23.2607C109.969 22.6821 109.815 22.0194 109.815 21.2728C109.815 20.5261 109.969 19.8681 110.277 19.2987C110.585 18.7201 110.996 18.2674 111.509 17.9407C112.032 17.6047 112.615 17.4367 113.259 17.4367ZM113.469 18.7247C113.012 18.7247 112.61 18.8367 112.265 19.0607C111.92 19.2847 111.649 19.5881 111.453 19.9707C111.257 20.3534 111.159 20.7874 111.159 21.2728C111.159 21.7581 111.257 22.1921 111.453 22.5747C111.649 22.9574 111.92 23.2607 112.265 23.4847C112.61 23.7087 113.012 23.8207 113.469 23.8207C113.926 23.8207 114.328 23.7134 114.673 23.4987C115.018 23.2747 115.289 22.9714 115.485 22.5887C115.681 22.1967 115.779 21.7581 115.779 21.2728C115.779 20.7874 115.681 20.3534 115.485 19.9707C115.289 19.5787 115.018 19.2754 114.673 19.0607C114.328 18.8367 113.926 18.7247 113.469 18.7247ZM130.061 15.7287C130.266 15.8314 130.383 15.9901 130.411 16.2047C130.448 16.4194 130.397 16.6154 130.257 16.7927C130.154 16.9327 130.019 17.0121 129.851 17.0307C129.692 17.0494 129.533 17.0168 129.375 16.9327C129.104 16.7927 128.819 16.6807 128.521 16.5967C128.222 16.5127 127.905 16.4707 127.569 16.4707C127.037 16.4707 126.556 16.5594 126.127 16.7368C125.707 16.9047 125.343 17.1521 125.035 17.4787C124.727 17.7961 124.489 18.1741 124.321 18.6127C124.162 19.0514 124.083 19.5367 124.083 20.0687C124.083 20.6567 124.171 21.1794 124.349 21.6367C124.526 22.0847 124.769 22.4674 125.077 22.7847C125.394 23.0927 125.763 23.3261 126.183 23.4847C126.612 23.6341 127.074 23.7087 127.569 23.7087C127.886 23.7087 128.194 23.6714 128.493 23.5967C128.801 23.5221 129.09 23.4101 129.361 23.2607C129.529 23.1767 129.692 23.1487 129.851 23.1767C130.019 23.1954 130.154 23.2747 130.257 23.4147C130.415 23.6107 130.471 23.8114 130.425 24.0167C130.387 24.2127 130.271 24.3621 130.075 24.4647C129.841 24.5954 129.585 24.7074 129.305 24.8007C129.025 24.8941 128.74 24.9688 128.451 25.0248C128.161 25.0808 127.867 25.1088 127.569 25.1088C126.897 25.1088 126.262 24.9968 125.665 24.7727C125.067 24.5487 124.535 24.2221 124.069 23.7927C123.602 23.3634 123.233 22.8361 122.963 22.2107C122.701 21.5854 122.571 20.8714 122.571 20.0687C122.571 19.3501 122.692 18.6874 122.935 18.0807C123.187 17.4647 123.537 16.9374 123.985 16.4987C124.442 16.0507 124.974 15.7054 125.581 15.4627C126.187 15.2107 126.85 15.0847 127.569 15.0847C128.017 15.0847 128.451 15.1407 128.871 15.2527C129.3 15.3647 129.697 15.5234 130.061 15.7287ZM137.883 17.4927C138.088 17.4927 138.256 17.5627 138.387 17.7027C138.518 17.8334 138.583 18.0014 138.583 18.2067V24.2547C138.583 24.4601 138.518 24.6327 138.387 24.7727C138.256 24.9034 138.088 24.9688 137.883 24.9688C137.687 24.9688 137.519 24.9034 137.379 24.7727C137.248 24.6327 137.183 24.4601 137.183 24.2547V23.2467L137.477 23.2887C137.477 23.4567 137.407 23.6434 137.267 23.8487C137.136 24.0541 136.954 24.2547 136.721 24.4507C136.488 24.6374 136.212 24.7961 135.895 24.9267C135.578 25.0481 135.237 25.1088 134.873 25.1088C134.229 25.1088 133.65 24.9454 133.137 24.6187C132.624 24.2827 132.218 23.8254 131.919 23.2467C131.62 22.6681 131.471 22.0101 131.471 21.2728C131.471 20.5167 131.62 19.8541 131.919 19.2847C132.218 18.7061 132.619 18.2534 133.123 17.9267C133.636 17.6001 134.206 17.4367 134.831 17.4367C135.232 17.4367 135.601 17.5021 135.937 17.6327C136.282 17.7634 136.581 17.9314 136.833 18.1367C137.085 18.3421 137.276 18.5614 137.407 18.7947C137.547 19.0187 137.617 19.2334 137.617 19.4387L137.183 19.4807V18.2067C137.183 18.0107 137.248 17.8427 137.379 17.7027C137.519 17.5627 137.687 17.4927 137.883 17.4927ZM135.027 23.8207C135.466 23.8207 135.853 23.7087 136.189 23.4847C136.525 23.2607 136.786 22.9574 136.973 22.5747C137.16 22.1827 137.253 21.7487 137.253 21.2728C137.253 20.7874 137.16 20.3534 136.973 19.9707C136.786 19.5881 136.525 19.2847 136.189 19.0607C135.853 18.8367 135.466 18.7247 135.027 18.7247C134.598 18.7247 134.215 18.8367 133.879 19.0607C133.552 19.2847 133.291 19.5881 133.095 19.9707C132.908 20.3534 132.815 20.7874 132.815 21.2728C132.815 21.7487 132.908 22.1827 133.095 22.5747C133.291 22.9574 133.552 23.2607 133.879 23.4847C134.215 23.7087 134.598 23.8207 135.027 23.8207ZM142.056 24.2547C142.056 24.4601 141.986 24.6327 141.846 24.7727C141.716 24.9034 141.552 24.9688 141.356 24.9688C141.16 24.9688 140.992 24.9034 140.852 24.7727C140.722 24.6327 140.656 24.4601 140.656 24.2547V15.3227C140.656 15.1174 140.726 14.9494 140.866 14.8187C141.006 14.6787 141.174 14.6087 141.37 14.6087C141.576 14.6087 141.739 14.6787 141.86 14.8187C141.991 14.9494 142.056 15.1174 142.056 15.3227V24.2547ZM145.652 24.2547C145.652 24.4601 145.582 24.6327 145.442 24.7727C145.311 24.9034 145.148 24.9688 144.952 24.9688C144.756 24.9688 144.588 24.9034 144.448 24.7727C144.317 24.6327 144.252 24.4601 144.252 24.2547V15.3227C144.252 15.1174 144.322 14.9494 144.462 14.8187C144.602 14.6787 144.77 14.6087 144.966 14.6087C145.171 14.6087 145.335 14.6787 145.456 14.8187C145.587 14.9494 145.652 15.1174 145.652 15.3227V24.2547ZM148.394 19.3687C148.161 19.3687 147.979 19.3081 147.848 19.1867C147.727 19.0561 147.666 18.8741 147.666 18.6407V18.3747C147.666 18.1414 147.727 17.9594 147.848 17.8287C147.979 17.6981 148.161 17.6327 148.394 17.6327H148.548C148.781 17.6327 148.959 17.6981 149.08 17.8287C149.201 17.9594 149.262 18.1414 149.262 18.3747V18.6407C149.262 18.8741 149.201 19.0561 149.08 19.1867C148.959 19.3081 148.781 19.3687 148.548 19.3687H148.394ZM148.394 24.9688C148.161 24.9688 147.979 24.9034 147.848 24.7727C147.727 24.6421 147.666 24.4601 147.666 24.2267V23.9747C147.666 23.7321 147.727 23.5501 147.848 23.4287C147.979 23.2981 148.161 23.2327 148.394 23.2327H148.548C148.781 23.2327 148.959 23.2981 149.08 23.4287C149.201 23.5501 149.262 23.7321 149.262 23.9747V24.2267C149.262 24.4601 149.201 24.6421 149.08 24.7727C148.959 24.9034 148.781 24.9688 148.548 24.9688H148.394ZM155.33 20.9787C155.144 20.9787 154.985 20.9181 154.854 20.7967C154.733 20.6661 154.672 20.5027 154.672 20.3067C154.672 20.1201 154.733 19.9707 154.854 19.8587C154.985 19.7374 155.144 19.6767 155.33 19.6767H161.056C161.243 19.6767 161.397 19.7374 161.518 19.8587C161.649 19.9801 161.714 20.1387 161.714 20.3347C161.714 20.5121 161.649 20.6661 161.518 20.7967C161.397 20.9181 161.243 20.9787 161.056 20.9787H155.33ZM158.172 23.8067C157.958 23.8067 157.776 23.7367 157.626 23.5967C157.486 23.4567 157.416 23.2747 157.416 23.0507V17.4367C157.416 17.2221 157.491 17.0447 157.64 16.9047C157.79 16.7647 157.972 16.6947 158.186 16.6947C158.41 16.6947 158.588 16.7647 158.718 16.9047C158.858 17.0447 158.928 17.2221 158.928 17.4367V23.0507C158.928 23.2747 158.858 23.4567 158.718 23.5967C158.578 23.7367 158.396 23.8067 158.172 23.8067ZM166.03 15.0007C166.552 15.0007 167.014 15.1034 167.416 15.3087C167.826 15.5141 168.167 15.7941 168.438 16.1487C168.718 16.4941 168.928 16.8907 169.068 17.3387C169.217 17.7774 169.292 18.2347 169.292 18.7107C169.292 19.0747 169.25 19.4947 169.166 19.9707C169.082 20.4374 168.942 20.9274 168.746 21.4407C168.55 21.9541 168.288 22.4487 167.962 22.9247C167.644 23.4007 167.243 23.8301 166.758 24.2127C166.282 24.5861 165.712 24.8754 165.05 25.0808C164.956 25.0994 164.868 25.1088 164.784 25.1088C164.597 25.1088 164.429 25.0574 164.28 24.9547C164.14 24.8521 164.07 24.6841 164.07 24.4507C164.07 24.2734 164.126 24.1241 164.238 24.0027C164.35 23.8814 164.499 23.7927 164.686 23.7367C165.143 23.5687 165.591 23.3121 166.03 22.9667C166.468 22.6121 166.846 22.1967 167.164 21.7207C167.481 21.2354 167.696 20.7174 167.808 20.1667L168.158 20.1107C168.018 20.3067 167.84 20.5074 167.626 20.7127C167.411 20.9181 167.154 21.0907 166.856 21.2307C166.557 21.3614 166.212 21.4267 165.82 21.4267C165.213 21.4267 164.686 21.2914 164.238 21.0207C163.79 20.7407 163.444 20.3581 163.202 19.8727C162.959 19.3874 162.838 18.8321 162.838 18.2067C162.838 17.6281 162.978 17.0961 163.258 16.6107C163.547 16.1254 163.93 15.7381 164.406 15.4487C164.891 15.1501 165.432 15.0007 166.03 15.0007ZM166.044 16.2887C165.698 16.2887 165.39 16.3727 165.12 16.5407C164.849 16.7087 164.634 16.9374 164.476 17.2267C164.317 17.5161 164.238 17.8427 164.238 18.2067C164.238 18.5707 164.308 18.9021 164.448 19.2007C164.588 19.4901 164.793 19.7187 165.064 19.8867C165.334 20.0547 165.652 20.1387 166.016 20.1387C166.38 20.1387 166.702 20.0547 166.982 19.8867C167.262 19.7094 167.481 19.4714 167.64 19.1727C167.798 18.8741 167.878 18.5474 167.878 18.1927C167.878 17.8381 167.798 17.5207 167.64 17.2407C167.481 16.9514 167.266 16.7227 166.996 16.5547C166.725 16.3774 166.408 16.2887 166.044 16.2887ZM173.315 24.9688C173.1 24.9688 172.923 24.9034 172.783 24.7727C172.643 24.6327 172.573 24.4601 172.573 24.2547V16.7507L172.755 17.0027L171.453 17.9127C171.341 18.0061 171.206 18.0527 171.047 18.0527C170.86 18.0527 170.692 17.9827 170.543 17.8427C170.403 17.6934 170.333 17.5207 170.333 17.3247C170.333 17.0821 170.454 16.8814 170.697 16.7227L172.825 15.3087C172.909 15.2527 172.998 15.2154 173.091 15.1967C173.194 15.1781 173.287 15.1687 173.371 15.1687C173.586 15.1687 173.758 15.2387 173.889 15.3787C174.02 15.5094 174.085 15.6774 174.085 15.8827V24.2547C174.085 24.4601 174.01 24.6327 173.861 24.7727C173.721 24.9034 173.539 24.9688 173.315 24.9688ZM184.601 20.0127L184.559 19.7607C184.904 19.9007 185.208 20.0967 185.469 20.3487C185.73 20.5914 185.931 20.8667 186.071 21.1747C186.22 21.4827 186.295 21.8047 186.295 22.1407C186.295 22.6634 186.15 23.1441 185.861 23.5827C185.581 24.0121 185.198 24.3574 184.713 24.6187C184.237 24.8707 183.705 24.9968 183.117 24.9968C182.52 24.9968 181.978 24.8707 181.493 24.6187C181.017 24.3574 180.634 24.0121 180.345 23.5827C180.065 23.1441 179.925 22.6634 179.925 22.1407C179.925 21.7207 180.014 21.3521 180.191 21.0347C180.368 20.7174 180.592 20.4514 180.863 20.2367C181.134 20.0221 181.409 19.8447 181.689 19.7047L181.591 20.0127C181.358 19.9101 181.129 19.7701 180.905 19.5927C180.69 19.4061 180.513 19.1727 180.373 18.8927C180.233 18.6127 180.163 18.2907 180.163 17.9267C180.163 17.4134 180.294 16.9514 180.555 16.5407C180.816 16.1207 181.171 15.7894 181.619 15.5467C182.067 15.2947 182.566 15.1687 183.117 15.1687C183.668 15.1687 184.162 15.2947 184.601 15.5467C185.04 15.7894 185.39 16.1207 185.651 16.5407C185.912 16.9514 186.043 17.4134 186.043 17.9267C186.043 18.3187 185.968 18.6547 185.819 18.9347C185.67 19.2054 185.483 19.4294 185.259 19.6067C185.035 19.7841 184.816 19.9194 184.601 20.0127ZM181.563 17.9547C181.563 18.2441 181.633 18.5007 181.773 18.7247C181.913 18.9487 182.1 19.1261 182.333 19.2567C182.566 19.3874 182.828 19.4527 183.117 19.4527C183.397 19.4527 183.654 19.3874 183.887 19.2567C184.12 19.1261 184.302 18.9487 184.433 18.7247C184.573 18.5007 184.643 18.2441 184.643 17.9547C184.643 17.5161 184.498 17.1567 184.209 16.8767C183.92 16.5967 183.556 16.4567 183.117 16.4567C182.66 16.4567 182.286 16.5967 181.997 16.8767C181.708 17.1567 181.563 17.5161 181.563 17.9547ZM183.117 23.7087C183.621 23.7087 184.041 23.5594 184.377 23.2607C184.722 22.9527 184.895 22.5747 184.895 22.1267C184.895 21.8187 184.816 21.5434 184.657 21.3007C184.498 21.0581 184.284 20.8667 184.013 20.7267C183.742 20.5867 183.444 20.5167 183.117 20.5167C182.79 20.5167 182.492 20.5867 182.221 20.7267C181.95 20.8667 181.736 21.0581 181.577 21.3007C181.418 21.5434 181.339 21.8187 181.339 22.1267C181.339 22.5747 181.507 22.9527 181.843 23.2607C182.179 23.5594 182.604 23.7087 183.117 23.7087ZM191.18 25.1088C190.396 25.1088 189.733 24.8941 189.192 24.4647C188.65 24.0261 188.24 23.4287 187.96 22.6727C187.689 21.9074 187.554 21.0394 187.554 20.0687C187.554 19.0887 187.689 18.2207 187.96 17.4647C188.24 16.6994 188.65 16.1021 189.192 15.6727C189.733 15.2434 190.396 15.0287 191.18 15.0287C191.964 15.0287 192.622 15.2434 193.154 15.6727C193.695 16.1021 194.106 16.6994 194.386 17.4647C194.666 18.2207 194.806 19.0887 194.806 20.0687C194.806 21.0394 194.666 21.9074 194.386 22.6727C194.106 23.4287 193.695 24.0261 193.154 24.4647C192.622 24.8941 191.964 25.1088 191.18 25.1088ZM191.18 23.6947C191.618 23.6947 191.992 23.5547 192.3 23.2747C192.617 22.9947 192.86 22.5841 193.028 22.0427C193.205 21.5014 193.294 20.8434 193.294 20.0687C193.294 19.2847 193.205 18.6221 193.028 18.0807C192.86 17.5394 192.617 17.1287 192.3 16.8487C191.992 16.5687 191.618 16.4287 191.18 16.4287C190.741 16.4287 190.363 16.5687 190.046 16.8487C189.728 17.1287 189.486 17.5394 189.318 18.0807C189.15 18.6221 189.066 19.2847 189.066 20.0687C189.066 20.8434 189.15 21.5014 189.318 22.0427C189.486 22.5841 189.728 22.9947 190.046 23.2747C190.363 23.5547 190.741 23.6947 191.18 23.6947ZM200.747 20.0127L200.705 19.7607C201.051 19.9007 201.354 20.0967 201.615 20.3487C201.877 20.5914 202.077 20.8667 202.217 21.1747C202.367 21.4827 202.441 21.8047 202.441 22.1407C202.441 22.6634 202.297 23.1441 202.007 23.5827C201.727 24.0121 201.345 24.3574 200.859 24.6187C200.383 24.8707 199.851 24.9968 199.263 24.9968C198.666 24.9968 198.125 24.8707 197.639 24.6187C197.163 24.3574 196.781 24.0121 196.491 23.5827C196.211 23.1441 196.071 22.6634 196.071 22.1407C196.071 21.7207 196.16 21.3521 196.337 21.0347C196.515 20.7174 196.739 20.4514 197.009 20.2367C197.28 20.0221 197.555 19.8447 197.835 19.7047L197.737 20.0127C197.504 19.9101 197.275 19.7701 197.051 19.5927C196.837 19.4061 196.659 19.1727 196.519 18.8927C196.379 18.6127 196.309 18.2907 196.309 17.9267C196.309 17.4134 196.44 16.9514 196.701 16.5407C196.963 16.1207 197.317 15.7894 197.765 15.5467C198.213 15.2947 198.713 15.1687 199.263 15.1687C199.814 15.1687 200.309 15.2947 200.747 15.5467C201.186 15.7894 201.536 16.1207 201.797 16.5407C202.059 16.9514 202.189 17.4134 202.189 17.9267C202.189 18.3187 202.115 18.6547 201.965 18.9347C201.816 19.2054 201.629 19.4294 201.405 19.6067C201.181 19.7841 200.962 19.9194 200.747 20.0127ZM197.709 17.9547C197.709 18.2441 197.779 18.5007 197.919 18.7247C198.059 18.9487 198.246 19.1261 198.479 19.2567C198.713 19.3874 198.974 19.4527 199.263 19.4527C199.543 19.4527 199.8 19.3874 200.033 19.2567C200.267 19.1261 200.449 18.9487 200.579 18.7247C200.719 18.5007 200.789 18.2441 200.789 17.9547C200.789 17.5161 200.645 17.1567 200.355 16.8767C200.066 16.5967 199.702 16.4567 199.263 16.4567C198.806 16.4567 198.433 16.5967 198.143 16.8767C197.854 17.1567 197.709 17.5161 197.709 17.9547ZM199.263 23.7087C199.767 23.7087 200.187 23.5594 200.523 23.2607C200.869 22.9527 201.041 22.5747 201.041 22.1267C201.041 21.8187 200.962 21.5434 200.803 21.3007C200.645 21.0581 200.43 20.8667 200.159 20.7267C199.889 20.5867 199.59 20.5167 199.263 20.5167C198.937 20.5167 198.638 20.5867 198.367 20.7267C198.097 20.8667 197.882 21.0581 197.723 21.3007C197.565 21.5434 197.485 21.8187 197.485 22.1267C197.485 22.5747 197.653 22.9527 197.989 23.2607C198.325 23.5594 198.75 23.7087 199.263 23.7087ZM207.326 25.1088C206.542 25.1088 205.88 24.8941 205.338 24.4647C204.797 24.0261 204.386 23.4287 204.106 22.6727C203.836 21.9074 203.7 21.0394 203.7 20.0687C203.7 19.0887 203.836 18.2207 204.106 17.4647C204.386 16.6994 204.797 16.1021 205.338 15.6727C205.88 15.2434 206.542 15.0287 207.326 15.0287C208.11 15.0287 208.768 15.2434 209.3 15.6727C209.842 16.1021 210.252 16.6994 210.532 17.4647C210.812 18.2207 210.952 19.0887 210.952 20.0687C210.952 21.0394 210.812 21.9074 210.532 22.6727C210.252 23.4287 209.842 24.0261 209.3 24.4647C208.768 24.8941 208.11 25.1088 207.326 25.1088ZM207.326 23.6947C207.765 23.6947 208.138 23.5547 208.446 23.2747C208.764 22.9947 209.006 22.5841 209.174 22.0427C209.352 21.5014 209.44 20.8434 209.44 20.0687C209.44 19.2847 209.352 18.6221 209.174 18.0807C209.006 17.5394 208.764 17.1287 208.446 16.8487C208.138 16.5687 207.765 16.4287 207.326 16.4287C206.888 16.4287 206.51 16.5687 206.192 16.8487C205.875 17.1287 205.632 17.5394 205.464 18.0807C205.296 18.6221 205.212 19.2847 205.212 20.0687C205.212 20.8434 205.296 21.5014 205.464 22.0427C205.632 22.5841 205.875 22.9947 206.192 23.2747C206.51 23.5547 206.888 23.6947 207.326 23.6947ZM213.03 21.3427C212.834 21.3427 212.666 21.2774 212.526 21.1467C212.395 21.0067 212.33 20.8387 212.33 20.6427C212.33 20.4374 212.395 20.2741 212.526 20.1527C212.666 20.0221 212.834 19.9567 213.03 19.9567H215.662C215.858 19.9567 216.026 20.0267 216.166 20.1667C216.306 20.2974 216.376 20.4654 216.376 20.6707C216.376 20.8574 216.306 21.0161 216.166 21.1467C216.026 21.2774 215.858 21.3427 215.662 21.3427H213.03ZM220.444 25.0668C220.08 25.0668 219.702 25.0108 219.31 24.8987C218.927 24.7867 218.6 24.6187 218.33 24.3947C218.227 24.3107 218.148 24.2034 218.092 24.0727C218.036 23.9421 218.008 23.8161 218.008 23.6947C218.008 23.5641 218.064 23.4381 218.176 23.3167C218.297 23.1861 218.46 23.1208 218.666 23.1208C218.815 23.1208 218.988 23.1954 219.184 23.3447C219.37 23.4661 219.566 23.5687 219.772 23.6527C219.986 23.7367 220.206 23.7787 220.43 23.7787C220.915 23.7787 221.335 23.6901 221.69 23.5127C222.044 23.3354 222.315 23.0881 222.502 22.7707C222.698 22.4441 222.796 22.0661 222.796 21.6367C222.796 21.2354 222.707 20.8947 222.53 20.6147C222.352 20.3254 222.11 20.1014 221.802 19.9427C221.503 19.7841 221.167 19.7047 220.794 19.7047C220.486 19.7047 220.215 19.7561 219.982 19.8587C219.748 19.9521 219.538 20.0501 219.352 20.1527C219.165 20.2461 218.992 20.2927 218.834 20.2927C218.591 20.2927 218.409 20.2414 218.288 20.1387C218.166 20.0267 218.087 19.8961 218.05 19.7467C218.022 19.5881 218.017 19.4434 218.036 19.3127L218.526 15.7987C218.554 15.6401 218.628 15.5094 218.75 15.4067C218.88 15.2947 219.039 15.2387 219.226 15.2387H223.328C223.514 15.2387 223.668 15.3041 223.79 15.4347C223.92 15.5561 223.986 15.7101 223.986 15.8967C223.986 16.0834 223.92 16.2374 223.79 16.3587C223.668 16.4801 223.514 16.5407 223.328 16.5407H219.576L219.73 16.4147L219.282 19.4247L219.072 19.0047C219.156 18.9114 219.296 18.8227 219.492 18.7387C219.697 18.6454 219.926 18.5707 220.178 18.5147C220.439 18.4494 220.7 18.4167 220.962 18.4167C221.578 18.4167 222.128 18.5567 222.614 18.8367C223.108 19.1074 223.496 19.4854 223.776 19.9707C224.056 20.4561 224.196 21.0067 224.196 21.6227C224.196 22.3134 224.042 22.9201 223.734 23.4427C223.426 23.9561 222.992 24.3574 222.432 24.6467C221.872 24.9267 221.209 25.0668 220.444 25.0668ZM229.031 25.1088C228.509 25.1088 228.042 25.0061 227.631 24.8007C227.23 24.5954 226.889 24.3154 226.609 23.9607C226.339 23.6061 226.129 23.2094 225.979 22.7707C225.839 22.3227 225.769 21.8654 225.769 21.3987C225.769 21.0347 225.811 20.6194 225.895 20.1527C225.979 19.6767 226.119 19.1867 226.315 18.6827C226.511 18.1694 226.768 17.6794 227.085 17.2127C227.412 16.7461 227.813 16.3261 228.289 15.9527C228.775 15.5701 229.349 15.2807 230.011 15.0847C230.105 15.0567 230.193 15.0427 230.277 15.0427C230.464 15.0427 230.627 15.0941 230.767 15.1967C230.917 15.2901 230.991 15.4627 230.991 15.7147C230.991 15.8827 230.935 16.0321 230.823 16.1627C230.711 16.2841 230.562 16.3727 230.375 16.4287C230.039 16.5407 229.703 16.7087 229.367 16.9327C229.031 17.1567 228.719 17.4227 228.429 17.7307C228.14 18.0387 227.893 18.3841 227.687 18.7667C227.491 19.1401 227.347 19.5321 227.253 19.9427L226.903 19.9987C227.043 19.7841 227.221 19.5787 227.435 19.3827C227.659 19.1774 227.921 19.0094 228.219 18.8787C228.518 18.7387 228.859 18.6687 229.241 18.6687C229.624 18.6687 229.993 18.7527 230.347 18.9207C230.702 19.0887 231.019 19.3221 231.299 19.6207C231.589 19.9194 231.813 20.2647 231.971 20.6567C232.139 21.0487 232.223 21.4641 232.223 21.9027C232.223 22.4814 232.079 23.0181 231.789 23.5127C231.509 23.9981 231.127 24.3854 230.641 24.6747C230.165 24.9641 229.629 25.1088 229.031 25.1088ZM229.017 23.8067C229.363 23.8067 229.671 23.7274 229.941 23.5687C230.212 23.4007 230.427 23.1721 230.585 22.8827C230.744 22.5934 230.823 22.2667 230.823 21.9027C230.823 21.5387 230.749 21.2121 230.599 20.9227C230.45 20.6334 230.24 20.4001 229.969 20.2227C229.708 20.0454 229.4 19.9567 229.045 19.9567C228.681 19.9567 228.359 20.0454 228.079 20.2227C227.799 20.4001 227.58 20.6381 227.421 20.9367C227.263 21.2261 227.183 21.5527 227.183 21.9167C227.183 22.2527 227.263 22.5701 227.421 22.8687C227.58 23.1581 227.795 23.3867 228.065 23.5547C228.345 23.7227 228.663 23.8067 229.017 23.8067ZM235.399 25.0248C235.203 25.0248 235.031 24.9641 234.881 24.8427C234.741 24.7121 234.671 24.5487 234.671 24.3527C234.671 24.2501 234.695 24.1427 234.741 24.0307L238.269 16.2327L238.423 16.5407H234.139C233.953 16.5407 233.794 16.4801 233.663 16.3587C233.542 16.2281 233.481 16.0694 233.481 15.8827C233.481 15.7054 233.542 15.5561 233.663 15.4347C233.794 15.3134 233.953 15.2527 234.139 15.2527H239.109C239.315 15.2527 239.487 15.3181 239.627 15.4487C239.777 15.5701 239.851 15.7287 239.851 15.9247C239.851 16.0367 239.828 16.1441 239.781 16.2467L236.043 24.5767C235.987 24.7167 235.899 24.8287 235.777 24.9127C235.656 24.9874 235.53 25.0248 235.399 25.0248ZM241.659 21.3427C241.463 21.3427 241.295 21.2774 241.155 21.1467C241.024 21.0067 240.959 20.8387 240.959 20.6427C240.959 20.4374 241.024 20.2741 241.155 20.1527C241.295 20.0221 241.463 19.9567 241.659 19.9567H244.291C244.487 19.9567 244.655 20.0267 244.795 20.1667C244.935 20.2974 245.005 20.4654 245.005 20.6707C245.005 20.8574 244.935 21.0161 244.795 21.1467C244.655 21.2774 244.487 21.3427 244.291 21.3427H241.659ZM249.983 25.1088C249.199 25.1088 248.536 24.8941 247.995 24.4647C247.453 24.0261 247.043 23.4287 246.763 22.6727C246.492 21.9074 246.357 21.0394 246.357 20.0687C246.357 19.0887 246.492 18.2207 246.763 17.4647C247.043 16.6994 247.453 16.1021 247.995 15.6727C248.536 15.2434 249.199 15.0287 249.983 15.0287C250.767 15.0287 251.425 15.2434 251.957 15.6727C252.498 16.1021 252.909 16.6994 253.189 17.4647C253.469 18.2207 253.609 19.0887 253.609 20.0687C253.609 21.0394 253.469 21.9074 253.189 22.6727C252.909 23.4287 252.498 24.0261 251.957 24.4647C251.425 24.8941 250.767 25.1088 249.983 25.1088ZM249.983 23.6947C250.421 23.6947 250.795 23.5547 251.103 23.2747C251.42 22.9947 251.663 22.5841 251.831 22.0427C252.008 21.5014 252.097 20.8434 252.097 20.0687C252.097 19.2847 252.008 18.6221 251.831 18.0807C251.663 17.5394 251.42 17.1287 251.103 16.8487C250.795 16.5687 250.421 16.4287 249.983 16.4287C249.544 16.4287 249.166 16.5687 248.849 16.8487C248.531 17.1287 248.289 17.5394 248.121 18.0807C247.953 18.6221 247.869 19.2847 247.869 20.0687C247.869 20.8434 247.953 21.5014 248.121 22.0427C248.289 22.5841 248.531 22.9947 248.849 23.2747C249.166 23.5547 249.544 23.6947 249.983 23.6947ZM255.7 23.1767C255.775 23.1767 255.854 23.1907 255.938 23.2188C256.022 23.2374 256.115 23.2841 256.218 23.3587C256.386 23.5081 256.587 23.6341 256.82 23.7367C257.063 23.8301 257.338 23.8767 257.646 23.8767C257.991 23.8767 258.313 23.7974 258.612 23.6387C258.911 23.4707 259.153 23.2374 259.34 22.9387C259.527 22.6401 259.62 22.2854 259.62 21.8747C259.62 21.4547 259.531 21.1141 259.354 20.8528C259.177 20.5821 258.948 20.3814 258.668 20.2507C258.388 20.1107 258.094 20.0407 257.786 20.0407C257.609 20.0407 257.459 20.0594 257.338 20.0967C257.217 20.1247 257.1 20.1574 256.988 20.1947C256.876 20.2227 256.755 20.2367 256.624 20.2367C256.447 20.2367 256.307 20.1761 256.204 20.0547C256.101 19.9241 256.05 19.7701 256.05 19.5927C256.05 19.4807 256.073 19.3827 256.12 19.2987C256.167 19.2147 256.232 19.1214 256.316 19.0187L258.906 16.2467L259.214 16.5267H255.504C255.317 16.5267 255.159 16.4661 255.028 16.3447C254.907 16.2141 254.846 16.0554 254.846 15.8687C254.846 15.6914 254.907 15.5421 255.028 15.4207C255.159 15.2994 255.317 15.2387 255.504 15.2387H259.928C260.171 15.2387 260.348 15.3087 260.46 15.4487C260.581 15.5887 260.642 15.7521 260.642 15.9387C260.642 16.0414 260.614 16.1394 260.558 16.2327C260.511 16.3261 260.451 16.4147 260.376 16.4987L257.772 19.2987L257.422 18.9207C257.497 18.8834 257.623 18.8461 257.8 18.8087C257.977 18.7714 258.122 18.7527 258.234 18.7527C258.766 18.7527 259.242 18.8881 259.662 19.1587C260.091 19.4294 260.423 19.7934 260.656 20.2507C260.899 20.6987 261.02 21.2074 261.02 21.7767C261.02 22.4581 260.866 23.0507 260.558 23.5547C260.25 24.0494 259.821 24.4321 259.27 24.7027C258.729 24.9734 258.103 25.1088 257.394 25.1088C257.039 25.1088 256.685 25.0621 256.33 24.9688C255.985 24.8661 255.686 24.7214 255.434 24.5347C255.275 24.4414 255.168 24.3434 255.112 24.2407C255.056 24.1287 255.028 24.0214 255.028 23.9187C255.028 23.7414 255.089 23.5734 255.21 23.4147C255.341 23.2561 255.504 23.1767 255.7 23.1767ZM263.165 23.1767C263.24 23.1767 263.319 23.1907 263.403 23.2188C263.487 23.2374 263.58 23.2841 263.683 23.3587C263.851 23.5081 264.052 23.6341 264.285 23.7367C264.528 23.8301 264.803 23.8767 265.111 23.8767C265.456 23.8767 265.778 23.7974 266.077 23.6387C266.376 23.4707 266.618 23.2374 266.805 22.9387C266.992 22.6401 267.085 22.2854 267.085 21.8747C267.085 21.4547 266.996 21.1141 266.819 20.8528C266.642 20.5821 266.413 20.3814 266.133 20.2507C265.853 20.1107 265.559 20.0407 265.251 20.0407C265.074 20.0407 264.924 20.0594 264.803 20.0967C264.682 20.1247 264.565 20.1574 264.453 20.1947C264.341 20.2227 264.22 20.2367 264.089 20.2367C263.912 20.2367 263.772 20.1761 263.669 20.0547C263.566 19.9241 263.515 19.7701 263.515 19.5927C263.515 19.4807 263.538 19.3827 263.585 19.2987C263.632 19.2147 263.697 19.1214 263.781 19.0187L266.371 16.2467L266.679 16.5267H262.969C262.782 16.5267 262.624 16.4661 262.493 16.3447C262.372 16.2141 262.311 16.0554 262.311 15.8687C262.311 15.6914 262.372 15.5421 262.493 15.4207C262.624 15.2994 262.782 15.2387 262.969 15.2387H267.393C267.636 15.2387 267.813 15.3087 267.925 15.4487C268.046 15.5887 268.107 15.7521 268.107 15.9387C268.107 16.0414 268.079 16.1394 268.023 16.2327C267.976 16.3261 267.916 16.4147 267.841 16.4987L265.237 19.2987L264.887 18.9207C264.962 18.8834 265.088 18.8461 265.265 18.8087C265.442 18.7714 265.587 18.7527 265.699 18.7527C266.231 18.7527 266.707 18.8881 267.127 19.1587C267.556 19.4294 267.888 19.7934 268.121 20.2507C268.364 20.6987 268.485 21.2074 268.485 21.7767C268.485 22.4581 268.331 23.0507 268.023 23.5547C267.715 24.0494 267.286 24.4321 266.735 24.7027C266.194 24.9734 265.568 25.1088 264.859 25.1088C264.504 25.1088 264.15 25.0621 263.795 24.9688C263.45 24.8661 263.151 24.7214 262.899 24.5347C262.74 24.4414 262.633 24.3434 262.577 24.2407C262.521 24.1287 262.493 24.0214 262.493 23.9187C262.493 23.7414 262.554 23.5734 262.675 23.4147C262.806 23.2561 262.969 23.1767 263.165 23.1767ZM273.108 15.0007C273.63 15.0007 274.092 15.1034 274.494 15.3087C274.904 15.5141 275.245 15.7941 275.516 16.1487C275.796 16.4941 276.006 16.8907 276.146 17.3387C276.295 17.7774 276.37 18.2347 276.37 18.7107C276.37 19.0747 276.328 19.4947 276.244 19.9707C276.16 20.4374 276.02 20.9274 275.824 21.4407C275.628 21.9541 275.366 22.4487 275.04 22.9247C274.722 23.4007 274.321 23.8301 273.836 24.2127C273.36 24.5861 272.79 24.8754 272.128 25.0808C272.034 25.0994 271.946 25.1088 271.862 25.1088C271.675 25.1088 271.507 25.0574 271.358 24.9547C271.218 24.8521 271.148 24.6841 271.148 24.4507C271.148 24.2734 271.204 24.1241 271.316 24.0027C271.428 23.8814 271.577 23.7927 271.764 23.7367C272.221 23.5687 272.669 23.3121 273.108 22.9667C273.546 22.6121 273.924 22.1967 274.242 21.7207C274.559 21.2354 274.774 20.7174 274.886 20.1667L275.236 20.1107C275.096 20.3067 274.918 20.5074 274.704 20.7127C274.489 20.9181 274.232 21.0907 273.934 21.2307C273.635 21.3614 273.29 21.4267 272.898 21.4267C272.291 21.4267 271.764 21.2914 271.316 21.0207C270.868 20.7407 270.522 20.3581 270.28 19.8727C270.037 19.3874 269.916 18.8321 269.916 18.2067C269.916 17.6281 270.056 17.0961 270.336 16.6107C270.625 16.1254 271.008 15.7381 271.484 15.4487C271.969 15.1501 272.51 15.0007 273.108 15.0007ZM273.122 16.2887C272.776 16.2887 272.468 16.3727 272.198 16.5407C271.927 16.7087 271.712 16.9374 271.554 17.2267C271.395 17.5161 271.316 17.8427 271.316 18.2067C271.316 18.5707 271.386 18.9021 271.526 19.2007C271.666 19.4901 271.871 19.7187 272.142 19.8867C272.412 20.0547 272.73 20.1387 273.094 20.1387C273.458 20.1387 273.78 20.0547 274.06 19.8867C274.34 19.7094 274.559 19.4714 274.718 19.1727C274.876 18.8741 274.956 18.5474 274.956 18.1927C274.956 17.8381 274.876 17.5207 274.718 17.2407C274.559 16.9514 274.344 16.7227 274.074 16.5547C273.803 16.3774 273.486 16.2887 273.122 16.2887ZM282.396 20.0127L282.354 19.7607C282.699 19.9007 283.003 20.0967 283.264 20.3487C283.525 20.5914 283.726 20.8667 283.866 21.1747C284.015 21.4827 284.09 21.8047 284.09 22.1407C284.09 22.6634 283.945 23.1441 283.656 23.5827C283.376 24.0121 282.993 24.3574 282.508 24.6187C282.032 24.8707 281.5 24.9968 280.912 24.9968C280.315 24.9968 279.773 24.8707 279.288 24.6187C278.812 24.3574 278.429 24.0121 278.14 23.5827C277.86 23.1441 277.72 22.6634 277.72 22.1407C277.72 21.7207 277.809 21.3521 277.986 21.0347C278.163 20.7174 278.387 20.4514 278.658 20.2367C278.929 20.0221 279.204 19.8447 279.484 19.7047L279.386 20.0127C279.153 19.9101 278.924 19.7701 278.7 19.5927C278.485 19.4061 278.308 19.1727 278.168 18.8927C278.028 18.6127 277.958 18.2907 277.958 17.9267C277.958 17.4134 278.089 16.9514 278.35 16.5407C278.611 16.1207 278.966 15.7894 279.414 15.5467C279.862 15.2947 280.361 15.1687 280.912 15.1687C281.463 15.1687 281.957 15.2947 282.396 15.5467C282.835 15.7894 283.185 16.1207 283.446 16.5407C283.707 16.9514 283.838 17.4134 283.838 17.9267C283.838 18.3187 283.763 18.6547 283.614 18.9347C283.465 19.2054 283.278 19.4294 283.054 19.6067C282.83 19.7841 282.611 19.9194 282.396 20.0127ZM279.358 17.9547C279.358 18.2441 279.428 18.5007 279.568 18.7247C279.708 18.9487 279.895 19.1261 280.128 19.2567C280.361 19.3874 280.623 19.4527 280.912 19.4527C281.192 19.4527 281.449 19.3874 281.682 19.2567C281.915 19.1261 282.097 18.9487 282.228 18.7247C282.368 18.5007 282.438 18.2441 282.438 17.9547C282.438 17.5161 282.293 17.1567 282.004 16.8767C281.715 16.5967 281.351 16.4567 280.912 16.4567C280.455 16.4567 280.081 16.5967 279.792 16.8767C279.503 17.1567 279.358 17.5161 279.358 17.9547ZM280.912 23.7087C281.416 23.7087 281.836 23.5594 282.172 23.2607C282.517 22.9527 282.69 22.5747 282.69 22.1267C282.69 21.8187 282.611 21.5434 282.452 21.3007C282.293 21.0581 282.079 20.8667 281.808 20.7267C281.537 20.5867 281.239 20.5167 280.912 20.5167C280.585 20.5167 280.287 20.5867 280.016 20.7267C279.745 20.8667 279.531 21.0581 279.372 21.3007C279.213 21.5434 279.134 21.8187 279.134 22.1267C279.134 22.5747 279.302 22.9527 279.638 23.2607C279.974 23.5594 280.399 23.7087 280.912 23.7087ZM58.862 33.1547C58.974 33.1547 59.0907 33.1827 59.212 33.2387C59.3333 33.2947 59.4267 33.3741 59.492 33.4767L63.048 38.8947L62.446 38.8667L66.072 33.4767C66.2213 33.2621 66.4127 33.1547 66.646 33.1547C66.8327 33.1547 66.996 33.2247 67.136 33.3647C67.2853 33.4954 67.36 33.6634 67.36 33.8687V42.2547C67.36 42.4601 67.2947 42.6327 67.164 42.7727C67.0333 42.9034 66.8607 42.9688 66.646 42.9688C66.422 42.9688 66.24 42.9034 66.1 42.7727C65.9693 42.6327 65.904 42.4601 65.904 42.2547V35.1567L66.352 35.2548L63.272 39.9447C63.2067 40.0287 63.1227 40.1034 63.02 40.1687C62.9173 40.2247 62.81 40.2481 62.698 40.2387C62.5953 40.2481 62.488 40.2247 62.376 40.1687C62.2733 40.1034 62.1893 40.0287 62.124 39.9447L59.156 35.3247L59.492 34.7647V42.2547C59.492 42.4601 59.4267 42.6327 59.296 42.7727C59.1747 42.9034 59.0113 42.9688 58.806 42.9688C58.61 42.9688 58.4467 42.9034 58.316 42.7727C58.1947 42.6327 58.134 42.4601 58.134 42.2547V33.8687C58.134 33.6727 58.204 33.5047 58.344 33.3647C58.4933 33.2247 58.666 33.1547 58.862 33.1547ZM73.7757 33.1687C74.4571 33.1687 75.0591 33.2994 75.5817 33.5607C76.1044 33.8127 76.5384 34.1674 76.8837 34.6247C77.2384 35.0727 77.5044 35.5954 77.6817 36.1927C77.8591 36.7807 77.9477 37.4061 77.9477 38.0687C77.9477 38.9741 77.7891 39.8001 77.4717 40.5467C77.1544 41.2841 76.6877 41.8721 76.0717 42.3107C75.4557 42.7494 74.6904 42.9688 73.7757 42.9688H70.3597C70.1637 42.9688 69.9957 42.9034 69.8557 42.7727C69.7157 42.6327 69.6457 42.4601 69.6457 42.2547V33.8827C69.6457 33.6774 69.7157 33.5094 69.8557 33.3787C69.9957 33.2387 70.1637 33.1687 70.3597 33.1687H73.7757ZM73.6357 41.6247C74.2984 41.6247 74.8351 41.4614 75.2457 41.1347C75.6564 40.8081 75.9551 40.3787 76.1417 39.8467C76.3377 39.3054 76.4357 38.7127 76.4357 38.0687C76.4357 37.5927 76.3797 37.1447 76.2677 36.7247C76.1651 36.2954 75.9971 35.9174 75.7637 35.5907C75.5397 35.2547 75.2504 34.9934 74.8957 34.8067C74.5504 34.6107 74.1304 34.5127 73.6357 34.5127H70.9897L71.1157 34.3867V41.7647L71.0317 41.6247H73.6357ZM80.4092 42.9688C80.1852 42.9688 80.0032 42.9034 79.8632 42.7727C79.7325 42.6327 79.6672 42.4601 79.6672 42.2547V33.8827C79.6672 33.6774 79.7372 33.5094 79.8772 33.3787C80.0172 33.2387 80.1852 33.1687 80.3812 33.1687H85.1132C85.3185 33.1687 85.4865 33.2341 85.6172 33.3647C85.7572 33.4954 85.8272 33.6587 85.8272 33.8547C85.8272 34.0321 85.7572 34.1861 85.6172 34.3167C85.4865 34.4474 85.3185 34.5127 85.1132 34.5127H81.0252L81.1232 34.3727V37.4947L81.0392 37.3267H84.4832C84.6885 37.3267 84.8565 37.3921 84.9872 37.5227C85.1272 37.6534 85.1972 37.8167 85.1972 38.0127C85.1972 38.1901 85.1272 38.3441 84.9872 38.4747C84.8565 38.6054 84.6885 38.6707 84.4832 38.6707H81.0112L81.1232 38.5587V42.2547C81.1232 42.4601 81.0532 42.6327 80.9132 42.7727C80.7732 42.9034 80.6052 42.9688 80.4092 42.9688ZM94.3908 33.7287C94.5962 33.8314 94.7128 33.9901 94.7408 34.2047C94.7782 34.4194 94.7268 34.6154 94.5868 34.7927C94.4842 34.9327 94.3488 35.0121 94.1808 35.0307C94.0222 35.0494 93.8635 35.0168 93.7048 34.9327C93.4342 34.7927 93.1495 34.6807 92.8508 34.5967C92.5522 34.5127 92.2348 34.4707 91.8988 34.4707C91.3668 34.4707 90.8862 34.5594 90.4568 34.7368C90.0368 34.9047 89.6728 35.1521 89.3648 35.4787C89.0568 35.7961 88.8188 36.1741 88.6508 36.6127C88.4922 37.0514 88.4128 37.5367 88.4128 38.0687C88.4128 38.6567 88.5015 39.1794 88.6788 39.6367C88.8562 40.0847 89.0988 40.4674 89.4068 40.7847C89.7242 41.0927 90.0928 41.3261 90.5128 41.4847C90.9422 41.6341 91.4042 41.7087 91.8988 41.7087C92.2162 41.7087 92.5242 41.6714 92.8228 41.5967C93.1308 41.5221 93.4202 41.4101 93.6908 41.2607C93.8588 41.1767 94.0222 41.1487 94.1808 41.1767C94.3488 41.1954 94.4842 41.2747 94.5868 41.4147C94.7455 41.6107 94.8015 41.8114 94.7548 42.0167C94.7175 42.2127 94.6008 42.3621 94.4048 42.4647C94.1715 42.5954 93.9148 42.7074 93.6348 42.8007C93.3548 42.8941 93.0702 42.9688 92.7808 43.0248C92.4915 43.0808 92.1975 43.1088 91.8988 43.1088C91.2268 43.1088 90.5922 42.9968 89.9948 42.7727C89.3975 42.5487 88.8655 42.2221 88.3988 41.7927C87.9322 41.3634 87.5635 40.8361 87.2928 40.2107C87.0315 39.5854 86.9008 38.8714 86.9008 38.0687C86.9008 37.3501 87.0222 36.6874 87.2648 36.0807C87.5168 35.4647 87.8668 34.9374 88.3148 34.4987C88.7722 34.0507 89.3042 33.7054 89.9108 33.4627C90.5175 33.2107 91.1802 33.0847 91.8988 33.0847C92.3468 33.0847 92.7808 33.1407 93.2008 33.2527C93.6302 33.3647 94.0268 33.5234 94.3908 33.7287ZM103.24 43.1088C102.568 43.1088 101.97 43.0154 101.448 42.8287C100.925 42.6421 100.426 42.3341 99.9497 41.9047C99.847 41.8301 99.7677 41.7414 99.7117 41.6387C99.665 41.5267 99.6417 41.4147 99.6417 41.3027C99.6417 41.1254 99.707 40.9667 99.8377 40.8267C99.9684 40.6867 100.132 40.6167 100.328 40.6167C100.477 40.6167 100.617 40.6681 100.748 40.7707C101.102 41.0974 101.471 41.3447 101.854 41.5127C102.246 41.6807 102.703 41.7647 103.226 41.7647C103.599 41.7647 103.94 41.7041 104.248 41.5827C104.565 41.4614 104.817 41.2981 105.004 41.0927C105.19 40.8874 105.284 40.6494 105.284 40.3787C105.284 40.0427 105.186 39.7674 104.99 39.5527C104.803 39.3287 104.528 39.1467 104.164 39.0067C103.809 38.8574 103.38 38.7314 102.876 38.6287C102.409 38.5447 101.989 38.4281 101.616 38.2787C101.252 38.1294 100.939 37.9427 100.678 37.7187C100.416 37.4854 100.216 37.2101 100.076 36.8927C99.9357 36.5754 99.8657 36.2067 99.8657 35.7867C99.8657 35.2174 100.015 34.7274 100.314 34.3167C100.612 33.9061 101.018 33.5887 101.532 33.3647C102.045 33.1407 102.624 33.0287 103.268 33.0287C103.856 33.0287 104.406 33.1221 104.92 33.3087C105.433 33.4861 105.848 33.7287 106.166 34.0367C106.39 34.2327 106.502 34.4427 106.502 34.6667C106.502 34.8347 106.432 34.9934 106.292 35.1427C106.161 35.2827 106.007 35.3527 105.83 35.3527C105.699 35.3527 105.587 35.3154 105.494 35.2407C105.344 35.0821 105.144 34.9421 104.892 34.8207C104.64 34.6901 104.369 34.5827 104.08 34.4987C103.8 34.4147 103.529 34.3727 103.268 34.3727C102.848 34.3727 102.488 34.4334 102.19 34.5547C101.891 34.6667 101.662 34.8254 101.504 35.0307C101.345 35.2267 101.266 35.4601 101.266 35.7307C101.266 36.0481 101.354 36.3094 101.532 36.5147C101.718 36.7201 101.975 36.8881 102.302 37.0187C102.628 37.1401 103.002 37.2521 103.422 37.3547C103.935 37.4667 104.392 37.5927 104.794 37.7327C105.204 37.8727 105.55 38.0547 105.83 38.2787C106.11 38.4934 106.324 38.7641 106.474 39.0907C106.623 39.4174 106.698 39.8234 106.698 40.3087C106.698 40.8687 106.539 41.3587 106.222 41.7787C105.904 42.1987 105.484 42.5254 104.962 42.7587C104.448 42.9921 103.874 43.1088 103.24 43.1088ZM111.695 43.1088C110.92 43.1088 110.248 42.9501 109.679 42.6327C109.11 42.3061 108.666 41.8627 108.349 41.3027C108.041 40.7334 107.887 40.0847 107.887 39.3567C107.887 38.5354 108.05 37.8354 108.377 37.2567C108.713 36.6687 109.147 36.2207 109.679 35.9127C110.211 35.5954 110.776 35.4367 111.373 35.4367C111.83 35.4367 112.264 35.5301 112.675 35.7167C113.086 35.8941 113.45 36.1461 113.767 36.4727C114.094 36.7901 114.35 37.1681 114.537 37.6067C114.724 38.0361 114.822 38.5074 114.831 39.0207C114.822 39.2074 114.747 39.3614 114.607 39.4827C114.467 39.6041 114.304 39.6647 114.117 39.6647H108.671L108.335 38.4747H113.599L113.333 38.7267V38.3767C113.314 38.0501 113.207 37.7654 113.011 37.5227C112.815 37.2707 112.572 37.0794 112.283 36.9487C111.994 36.8087 111.69 36.7387 111.373 36.7387C111.093 36.7387 110.822 36.7854 110.561 36.8787C110.309 36.9627 110.08 37.1027 109.875 37.2987C109.679 37.4947 109.52 37.7561 109.399 38.0827C109.287 38.4001 109.231 38.7967 109.231 39.2728C109.231 39.7861 109.338 40.2341 109.553 40.6167C109.768 40.9994 110.057 41.2981 110.421 41.5127C110.785 41.7181 111.186 41.8207 111.625 41.8207C111.97 41.8207 112.255 41.7881 112.479 41.7227C112.703 41.6481 112.89 41.5594 113.039 41.4567C113.188 41.3541 113.319 41.2561 113.431 41.1627C113.571 41.0787 113.711 41.0367 113.851 41.0367C114.019 41.0367 114.159 41.0974 114.271 41.2188C114.383 41.3307 114.439 41.4661 114.439 41.6247C114.439 41.8301 114.336 42.0167 114.131 42.1847C113.879 42.4274 113.529 42.6421 113.081 42.8287C112.642 43.0154 112.18 43.1088 111.695 43.1088ZM117.114 42.9688C116.908 42.9688 116.74 42.9034 116.61 42.7727C116.479 42.6327 116.414 42.4601 116.414 42.2547V36.3187C116.414 36.1134 116.479 35.9454 116.61 35.8147C116.74 35.6747 116.908 35.6047 117.114 35.6047C117.31 35.6047 117.473 35.6747 117.604 35.8147C117.744 35.9454 117.814 36.1134 117.814 36.3187V37.8867L117.674 37.2847C117.748 37.0234 117.86 36.7807 118.01 36.5567C118.168 36.3327 118.355 36.1367 118.57 35.9688C118.784 35.8007 119.022 35.6701 119.284 35.5768C119.554 35.4834 119.834 35.4367 120.124 35.4367C120.366 35.4367 120.576 35.5021 120.754 35.6327C120.931 35.7634 121.02 35.9267 121.02 36.1227C121.02 36.3747 120.954 36.5614 120.824 36.6827C120.693 36.7947 120.548 36.8507 120.39 36.8507C120.25 36.8507 120.114 36.8227 119.984 36.7667C119.853 36.7014 119.699 36.6687 119.522 36.6687C119.326 36.6687 119.125 36.7201 118.92 36.8227C118.714 36.9254 118.528 37.0794 118.36 37.2847C118.192 37.4807 118.056 37.7141 117.954 37.9847C117.86 38.2554 117.814 38.5587 117.814 38.8947V42.2547C117.814 42.4601 117.744 42.6327 117.604 42.7727C117.473 42.9034 117.31 42.9688 117.114 42.9688ZM123.13 35.5347C123.27 35.5347 123.401 35.5721 123.522 35.6467C123.653 35.7214 123.746 35.8334 123.802 35.9827L126 41.0647L125.734 41.1907L127.96 35.9967C128.091 35.6887 128.301 35.5394 128.59 35.5487C128.777 35.5487 128.931 35.6094 129.052 35.7307C129.183 35.8427 129.248 35.9921 129.248 36.1787C129.248 36.2347 129.239 36.2954 129.22 36.3607C129.202 36.4167 129.178 36.4727 129.15 36.5287L126.49 42.5207C126.369 42.8007 126.168 42.9501 125.888 42.9688C125.748 42.9874 125.608 42.9594 125.468 42.8847C125.338 42.8007 125.235 42.6794 125.16 42.5207L122.514 36.5287C122.496 36.4914 122.477 36.4447 122.458 36.3887C122.44 36.3234 122.43 36.2487 122.43 36.1647C122.43 36.0247 122.491 35.8847 122.612 35.7447C122.743 35.6047 122.916 35.5347 123.13 35.5347ZM131.989 42.2547C131.989 42.4601 131.924 42.6327 131.793 42.7727C131.663 42.9034 131.495 42.9688 131.289 42.9688C131.093 42.9688 130.925 42.9034 130.785 42.7727C130.655 42.6327 130.589 42.4601 130.589 42.2547V36.2627C130.589 36.0574 130.655 35.8894 130.785 35.7587C130.925 35.6187 131.093 35.5487 131.289 35.5487C131.495 35.5487 131.663 35.6187 131.793 35.7587C131.924 35.8894 131.989 36.0574 131.989 36.2627V42.2547ZM131.275 34.6247C131.005 34.6247 130.809 34.5781 130.687 34.4847C130.566 34.3821 130.505 34.2141 130.505 33.9807V33.7567C130.505 33.5234 130.571 33.3601 130.701 33.2667C130.832 33.1734 131.028 33.1267 131.289 33.1267C131.569 33.1267 131.77 33.1781 131.891 33.2807C132.013 33.3741 132.073 33.5327 132.073 33.7567V33.9807C132.073 34.2234 132.008 34.3914 131.877 34.4847C131.756 34.5781 131.555 34.6247 131.275 34.6247ZM137.135 35.4367C137.639 35.4367 138.087 35.4927 138.479 35.6047C138.871 35.7074 139.174 35.8567 139.389 36.0527C139.613 36.2394 139.725 36.4587 139.725 36.7107C139.725 36.8694 139.678 37.0187 139.585 37.1587C139.491 37.2894 139.351 37.3547 139.165 37.3547C139.034 37.3547 138.922 37.3314 138.829 37.2847C138.745 37.2381 138.665 37.1821 138.591 37.1167C138.516 37.0514 138.423 36.9861 138.311 36.9207C138.208 36.8647 138.054 36.8181 137.849 36.7807C137.653 36.7434 137.475 36.7247 137.317 36.7247C136.822 36.7247 136.393 36.8367 136.029 37.0607C135.674 37.2847 135.394 37.5881 135.189 37.9707C134.993 38.3534 134.895 38.7874 134.895 39.2728C134.895 39.7581 134.993 40.1921 135.189 40.5747C135.394 40.9574 135.669 41.2607 136.015 41.4847C136.369 41.7087 136.78 41.8207 137.247 41.8207C137.527 41.8207 137.755 41.8021 137.933 41.7647C138.11 41.7181 138.264 41.6621 138.395 41.5967C138.535 41.5127 138.651 41.4287 138.745 41.3447C138.847 41.2514 138.987 41.2047 139.165 41.2047C139.37 41.2047 139.524 41.2701 139.627 41.4007C139.739 41.5221 139.795 41.6761 139.795 41.8627C139.795 42.0681 139.669 42.2687 139.417 42.4647C139.174 42.6514 138.847 42.8054 138.437 42.9267C138.026 43.0481 137.573 43.1088 137.079 43.1088C136.351 43.1088 135.716 42.9408 135.175 42.6047C134.643 42.2687 134.227 41.8114 133.929 41.2327C133.639 40.6541 133.495 40.0007 133.495 39.2728C133.495 38.5354 133.649 37.8821 133.957 37.3127C134.265 36.7341 134.694 36.2767 135.245 35.9407C135.795 35.6047 136.425 35.4367 137.135 35.4367ZM144.562 43.1088C143.788 43.1088 143.116 42.9501 142.546 42.6327C141.977 42.3061 141.534 41.8627 141.216 41.3027C140.908 40.7334 140.754 40.0847 140.754 39.3567C140.754 38.5354 140.918 37.8354 141.244 37.2567C141.58 36.6687 142.014 36.2207 142.546 35.9127C143.078 35.5954 143.643 35.4367 144.24 35.4367C144.698 35.4367 145.132 35.5301 145.542 35.7167C145.953 35.8941 146.317 36.1461 146.634 36.4727C146.961 36.7901 147.218 37.1681 147.404 37.6067C147.591 38.0361 147.689 38.5074 147.698 39.0207C147.689 39.2074 147.614 39.3614 147.474 39.4827C147.334 39.6041 147.171 39.6647 146.984 39.6647H141.538L141.202 38.4747H146.466L146.2 38.7267V38.3767C146.182 38.0501 146.074 37.7654 145.878 37.5227C145.682 37.2707 145.44 37.0794 145.15 36.9487C144.861 36.8087 144.558 36.7387 144.24 36.7387C143.96 36.7387 143.69 36.7854 143.428 36.8787C143.176 36.9627 142.948 37.1027 142.742 37.2987C142.546 37.4947 142.388 37.7561 142.266 38.0827C142.154 38.4001 142.098 38.7967 142.098 39.2728C142.098 39.7861 142.206 40.2341 142.42 40.6167C142.635 40.9994 142.924 41.2981 143.288 41.5127C143.652 41.7181 144.054 41.8207 144.492 41.8207C144.838 41.8207 145.122 41.7881 145.346 41.7227C145.57 41.6481 145.757 41.5594 145.906 41.4567C146.056 41.3541 146.186 41.2561 146.298 41.1627C146.438 41.0787 146.578 41.0367 146.718 41.0367C146.886 41.0367 147.026 41.0974 147.138 41.2188C147.25 41.3307 147.306 41.4661 147.306 41.6247C147.306 41.8301 147.204 42.0167 146.998 42.1847C146.746 42.4274 146.396 42.6421 145.948 42.8287C145.51 43.0154 145.048 43.1088 144.562 43.1088ZM157.279 33.1687C157.774 33.1687 158.231 33.3041 158.651 33.5747C159.071 33.8361 159.407 34.1954 159.659 34.6527C159.911 35.1101 160.037 35.6234 160.037 36.1927C160.037 36.7621 159.911 37.2801 159.659 37.7467C159.407 38.2041 159.071 38.5727 158.651 38.8528C158.231 39.1234 157.774 39.2587 157.279 39.2587H154.577L154.689 39.0347V42.2547C154.689 42.4601 154.624 42.6327 154.493 42.7727C154.372 42.9034 154.209 42.9688 154.003 42.9688C153.807 42.9688 153.644 42.9034 153.513 42.7727C153.392 42.6327 153.331 42.4601 153.331 42.2547V33.8827C153.331 33.6774 153.401 33.5094 153.541 33.3787C153.681 33.2387 153.849 33.1687 154.045 33.1687H157.279ZM157.279 37.9147C157.522 37.9147 157.741 37.8354 157.937 37.6767C158.143 37.5181 158.306 37.3081 158.427 37.0467C158.558 36.7854 158.623 36.5007 158.623 36.1927C158.623 35.8847 158.558 35.6047 158.427 35.3527C158.306 35.1007 158.143 34.9001 157.937 34.7507C157.741 34.5921 157.522 34.5127 157.279 34.5127H154.549L154.689 34.3027V38.0967L154.563 37.9147H157.279ZM168.505 39.2867C168.505 40.0334 168.341 40.6961 168.015 41.2747C167.688 41.8441 167.245 42.2921 166.685 42.6187C166.125 42.9454 165.495 43.1088 164.795 43.1088C164.095 43.1088 163.465 42.9454 162.905 42.6187C162.345 42.2921 161.897 41.8441 161.561 41.2747C161.234 40.6961 161.071 40.0334 161.071 39.2867C161.071 38.5307 161.234 37.8681 161.561 37.2987C161.897 36.7201 162.345 36.2674 162.905 35.9407C163.465 35.6047 164.095 35.4367 164.795 35.4367C165.495 35.4367 166.125 35.6047 166.685 35.9407C167.245 36.2674 167.688 36.7201 168.015 37.2987C168.341 37.8681 168.505 38.5307 168.505 39.2867ZM167.105 39.2867C167.105 38.7734 167.002 38.3301 166.797 37.9567C166.591 37.5741 166.311 37.2754 165.957 37.0607C165.611 36.8367 165.224 36.7247 164.795 36.7247C164.365 36.7247 163.973 36.8367 163.619 37.0607C163.264 37.2754 162.984 37.5741 162.779 37.9567C162.573 38.3301 162.471 38.7734 162.471 39.2867C162.471 39.7814 162.573 40.2201 162.779 40.6027C162.984 40.9854 163.264 41.2841 163.619 41.4987C163.973 41.7134 164.365 41.8207 164.795 41.8207C165.224 41.8207 165.611 41.7134 165.957 41.4987C166.311 41.2841 166.591 40.9854 166.797 40.6027C167.002 40.2201 167.105 39.7814 167.105 39.2867ZM170.789 42.9688C170.584 42.9688 170.416 42.9034 170.285 42.7727C170.155 42.6327 170.089 42.4601 170.089 42.2547V36.3187C170.089 36.1134 170.155 35.9454 170.285 35.8147C170.416 35.6747 170.584 35.6047 170.789 35.6047C170.985 35.6047 171.149 35.6747 171.279 35.8147C171.419 35.9454 171.489 36.1134 171.489 36.3187V37.8867L171.349 37.2847C171.424 37.0234 171.536 36.7807 171.685 36.5567C171.844 36.3327 172.031 36.1367 172.245 35.9688C172.46 35.8007 172.698 35.6701 172.959 35.5768C173.23 35.4834 173.51 35.4367 173.799 35.4367C174.042 35.4367 174.252 35.5021 174.429 35.6327C174.607 35.7634 174.695 35.9267 174.695 36.1227C174.695 36.3747 174.63 36.5614 174.499 36.6827C174.369 36.7947 174.224 36.8507 174.065 36.8507C173.925 36.8507 173.79 36.8227 173.659 36.7667C173.529 36.7014 173.375 36.6687 173.197 36.6687C173.001 36.6687 172.801 36.7201 172.595 36.8227C172.39 36.9254 172.203 37.0794 172.035 37.2847C171.867 37.4807 171.732 37.7141 171.629 37.9847C171.536 38.2554 171.489 38.5587 171.489 38.8947V42.2547C171.489 42.4601 171.419 42.6327 171.279 42.7727C171.149 42.9034 170.985 42.9688 170.789 42.9688ZM175.843 35.6887H179.133C179.32 35.6887 179.474 35.7541 179.595 35.8847C179.726 36.0061 179.791 36.1601 179.791 36.3467C179.791 36.5241 179.726 36.6734 179.595 36.7947C179.474 36.9161 179.32 36.9767 179.133 36.9767H175.843C175.656 36.9767 175.498 36.9161 175.367 36.7947C175.246 36.6641 175.185 36.5101 175.185 36.3327C175.185 36.1461 175.246 35.9921 175.367 35.8707C175.498 35.7494 175.656 35.6887 175.843 35.6887ZM177.313 33.8687C177.518 33.8687 177.686 33.9387 177.817 34.0787C177.948 34.2094 178.013 34.3774 178.013 34.5827V41.0787C178.013 41.2467 178.041 41.3821 178.097 41.4847C178.153 41.5874 178.228 41.6574 178.321 41.6947C178.424 41.7321 178.526 41.7507 178.629 41.7507C178.732 41.7507 178.82 41.7321 178.895 41.6947C178.979 41.6574 179.077 41.6387 179.189 41.6387C179.301 41.6387 179.404 41.6901 179.497 41.7927C179.59 41.8954 179.637 42.0354 179.637 42.2127C179.637 42.4367 179.516 42.6187 179.273 42.7587C179.03 42.8987 178.769 42.9688 178.489 42.9688C178.33 42.9688 178.144 42.9547 177.929 42.9267C177.714 42.8987 177.504 42.8287 177.299 42.7167C177.103 42.6047 176.94 42.4274 176.809 42.1847C176.678 41.9327 176.613 41.5827 176.613 41.1347V34.5827C176.613 34.3774 176.678 34.2094 176.809 34.0787C176.949 33.9387 177.117 33.8687 177.313 33.8687ZM187.375 35.4927C187.581 35.4927 187.749 35.5627 187.879 35.7027C188.01 35.8334 188.075 36.0014 188.075 36.2067V42.2547C188.075 42.4601 188.01 42.6327 187.879 42.7727C187.749 42.9034 187.581 42.9688 187.375 42.9688C187.179 42.9688 187.011 42.9034 186.871 42.7727C186.741 42.6327 186.675 42.4601 186.675 42.2547V41.2467L186.969 41.2887C186.969 41.4567 186.899 41.6434 186.759 41.8487C186.629 42.0541 186.447 42.2547 186.213 42.4507C185.98 42.6374 185.705 42.7961 185.387 42.9267C185.07 43.0481 184.729 43.1088 184.365 43.1088C183.721 43.1088 183.143 42.9454 182.629 42.6187C182.116 42.2827 181.71 41.8254 181.411 41.2467C181.113 40.6681 180.963 40.0101 180.963 39.2728C180.963 38.5167 181.113 37.8541 181.411 37.2847C181.71 36.7061 182.111 36.2534 182.615 35.9267C183.129 35.6001 183.698 35.4367 184.323 35.4367C184.725 35.4367 185.093 35.5021 185.429 35.6327C185.775 35.7634 186.073 35.9314 186.325 36.1367C186.577 36.3421 186.769 36.5614 186.899 36.7947C187.039 37.0187 187.109 37.2334 187.109 37.4387L186.675 37.4807V36.2067C186.675 36.0107 186.741 35.8427 186.871 35.7027C187.011 35.5627 187.179 35.4927 187.375 35.4927ZM184.519 41.8207C184.958 41.8207 185.345 41.7087 185.681 41.4847C186.017 41.2607 186.279 40.9574 186.465 40.5747C186.652 40.1827 186.745 39.7487 186.745 39.2728C186.745 38.7874 186.652 38.3534 186.465 37.9707C186.279 37.5881 186.017 37.2847 185.681 37.0607C185.345 36.8367 184.958 36.7247 184.519 36.7247C184.09 36.7247 183.707 36.8367 183.371 37.0607C183.045 37.2847 182.783 37.5881 182.587 37.9707C182.401 38.3534 182.307 38.7874 182.307 39.2728C182.307 39.7487 182.401 40.1827 182.587 40.5747C182.783 40.9574 183.045 41.2607 183.371 41.4847C183.707 41.7087 184.09 41.8207 184.519 41.8207ZM191.549 42.2547C191.549 42.4601 191.479 42.6327 191.339 42.7727C191.208 42.9034 191.045 42.9688 190.849 42.9688C190.653 42.9688 190.485 42.9034 190.345 42.7727C190.214 42.6327 190.149 42.4601 190.149 42.2547V33.3227C190.149 33.1174 190.219 32.9494 190.359 32.8187C190.499 32.6787 190.667 32.6087 190.863 32.6087C191.068 32.6087 191.231 32.6787 191.353 32.8187C191.483 32.9494 191.549 33.1174 191.549 33.3227V42.2547Z" fill="#4A4A4A"/>
<rect x="13" y="62.0195" width="104" height="25" rx="4" fill="#389B5A"/>
<path d="M43.8287 71.9175L40.8047 79.0295C40.7393 79.2069 40.6367 79.3469 40.4967 79.4495C40.366 79.5429 40.2213 79.5895 40.0627 79.5895C39.8107 79.5895 39.624 79.5195 39.5027 79.3795C39.3813 79.2395 39.3207 79.0669 39.3207 78.8615C39.3207 78.7775 39.3347 78.6889 39.3627 78.5955L42.8487 70.2235C42.9233 70.0369 43.0353 69.8922 43.1847 69.7895C43.3433 69.6869 43.5113 69.6449 43.6887 69.6635C43.8567 69.6635 44.0107 69.7149 44.1507 69.8175C44.3 69.9109 44.4073 70.0462 44.4727 70.2235L47.9167 78.4275C47.9633 78.5489 47.9867 78.6609 47.9867 78.7635C47.9867 79.0155 47.9027 79.2162 47.7347 79.3655C47.576 79.5149 47.3987 79.5895 47.2027 79.5895C47.0347 79.5895 46.8807 79.5382 46.7407 79.4355C46.61 79.3329 46.5073 79.1929 46.4327 79.0155L43.4227 72.0015L43.8287 71.9175ZM41.2387 77.3215L42.0087 75.7115H45.7887L46.0547 77.3215H41.2387ZM55.9637 70.1955C56.2064 70.3169 56.3464 70.5082 56.3837 70.7695C56.4304 71.0309 56.365 71.2689 56.1877 71.4835C56.0664 71.6515 55.9077 71.7449 55.7117 71.7635C55.525 71.7822 55.3337 71.7449 55.1377 71.6515C54.9137 71.5489 54.6757 71.4695 54.4237 71.4135C54.181 71.3575 53.9244 71.3295 53.6537 71.3295C53.1497 71.3295 52.697 71.4089 52.2957 71.5675C51.9037 71.7262 51.5677 71.9549 51.2877 72.2535C51.0077 72.5429 50.793 72.8882 50.6437 73.2895C50.5037 73.6909 50.4337 74.1342 50.4337 74.6195C50.4337 75.1889 50.513 75.6835 50.6717 76.1035C50.8397 76.5235 51.0684 76.8735 51.3577 77.1535C51.647 77.4335 51.9877 77.6435 52.3797 77.7835C52.7717 77.9142 53.1964 77.9795 53.6537 77.9795C53.9057 77.9795 54.1577 77.9562 54.4097 77.9095C54.6617 77.8629 54.9044 77.7789 55.1377 77.6575C55.3337 77.5642 55.525 77.5315 55.7117 77.5595C55.9077 77.5875 56.071 77.6855 56.2017 77.8535C56.3884 78.0869 56.4537 78.3295 56.3977 78.5815C56.351 78.8242 56.211 79.0015 55.9777 79.1135C55.735 79.2349 55.483 79.3375 55.2217 79.4215C54.9697 79.4962 54.713 79.5522 54.4517 79.5895C54.1904 79.6362 53.9244 79.6595 53.6537 79.6595C52.9817 79.6595 52.3424 79.5522 51.7357 79.3375C51.1384 79.1229 50.6017 78.8055 50.1257 78.3855C49.659 77.9655 49.2904 77.4429 49.0197 76.8175C48.749 76.1829 48.6137 75.4502 48.6137 74.6195C48.6137 73.9009 48.735 73.2382 48.9777 72.6315C49.2297 72.0249 49.5797 71.5022 50.0277 71.0635C50.485 70.6155 51.0217 70.2702 51.6377 70.0275C52.2537 69.7755 52.9257 69.6495 53.6537 69.6495C54.0644 69.6495 54.4657 69.6962 54.8577 69.7895C55.2497 69.8829 55.6184 70.0182 55.9637 70.1955ZM64.7411 70.1955C64.9837 70.3169 65.1237 70.5082 65.1611 70.7695C65.2077 71.0309 65.1424 71.2689 64.9651 71.4835C64.8437 71.6515 64.6851 71.7449 64.4891 71.7635C64.3024 71.7822 64.1111 71.7449 63.9151 71.6515C63.6911 71.5489 63.4531 71.4695 63.2011 71.4135C62.9584 71.3575 62.7017 71.3295 62.4311 71.3295C61.9271 71.3295 61.4744 71.4089 61.0731 71.5675C60.6811 71.7262 60.3451 71.9549 60.0651 72.2535C59.7851 72.5429 59.5704 72.8882 59.4211 73.2895C59.2811 73.6909 59.2111 74.1342 59.2111 74.6195C59.2111 75.1889 59.2904 75.6835 59.4491 76.1035C59.6171 76.5235 59.8457 76.8735 60.1351 77.1535C60.4244 77.4335 60.7651 77.6435 61.1571 77.7835C61.5491 77.9142 61.9737 77.9795 62.4311 77.9795C62.6831 77.9795 62.9351 77.9562 63.1871 77.9095C63.4391 77.8629 63.6817 77.7789 63.9151 77.6575C64.1111 77.5642 64.3024 77.5315 64.4891 77.5595C64.6851 77.5875 64.8484 77.6855 64.9791 77.8535C65.1657 78.0869 65.2311 78.3295 65.1751 78.5815C65.1284 78.8242 64.9884 79.0015 64.7551 79.1135C64.5124 79.2349 64.2604 79.3375 63.9991 79.4215C63.7471 79.4962 63.4904 79.5522 63.2291 79.5895C62.9677 79.6362 62.7017 79.6595 62.4311 79.6595C61.7591 79.6595 61.1197 79.5522 60.5131 79.3375C59.9157 79.1229 59.3791 78.8055 58.9031 78.3855C58.4364 77.9655 58.0677 77.4429 57.7971 76.8175C57.5264 76.1829 57.3911 75.4502 57.3911 74.6195C57.3911 73.9009 57.5124 73.2382 57.7551 72.6315C58.0071 72.0249 58.3571 71.5022 58.8051 71.0635C59.2624 70.6155 59.7991 70.2702 60.4151 70.0275C61.0311 69.7755 61.7031 69.6495 62.4311 69.6495C62.8417 69.6495 63.2431 69.6962 63.6351 69.7895C64.0271 69.8829 64.3957 70.0182 64.7411 70.1955ZM67.5124 69.7195H72.2024C72.4451 69.7195 72.6457 69.7989 72.8044 69.9575C72.9724 70.1069 73.0564 70.3029 73.0564 70.5455C73.0564 70.7789 72.9724 70.9702 72.8044 71.1195C72.6457 71.2595 72.4451 71.3295 72.2024 71.3295H68.2824L68.4084 71.0915V73.8215L68.2964 73.7095H71.5724C71.8151 73.7095 72.0157 73.7889 72.1744 73.9475C72.3424 74.0969 72.4264 74.2929 72.4264 74.5355C72.4264 74.7689 72.3424 74.9602 72.1744 75.1095C72.0157 75.2495 71.8151 75.3195 71.5724 75.3195H68.3384L68.4084 75.2075V78.0355L68.2964 77.9095H72.2024C72.4451 77.9095 72.6457 77.9935 72.8044 78.1615C72.9724 78.3202 73.0564 78.5069 73.0564 78.7215C73.0564 78.9549 72.9724 79.1462 72.8044 79.2955C72.6457 79.4449 72.4451 79.5195 72.2024 79.5195H67.5124C67.2697 79.5195 67.0644 79.4402 66.8964 79.2815C66.7377 79.1135 66.6584 78.9082 66.6584 78.6655V70.5735C66.6584 70.3309 66.7377 70.1302 66.8964 69.9715C67.0644 69.8035 67.2697 69.7195 67.5124 69.7195ZM78.7161 69.7195C79.2015 69.7195 79.6541 69.8595 80.0741 70.1395C80.5035 70.4195 80.8488 70.7975 81.1101 71.2735C81.3715 71.7495 81.5021 72.2815 81.5021 72.8695C81.5021 73.4482 81.3715 73.9755 81.1101 74.4515C80.8488 74.9275 80.5035 75.3102 80.0741 75.5995C79.6541 75.8795 79.2015 76.0195 78.7161 76.0195H76.1401L76.2801 75.7675V78.6655C76.2801 78.9082 76.2055 79.1135 76.0561 79.2815C75.9068 79.4402 75.7108 79.5195 75.4681 79.5195C75.2348 79.5195 75.0435 79.4402 74.8941 79.2815C74.7448 79.1135 74.6701 78.9082 74.6701 78.6655V70.5735C74.6701 70.3309 74.7495 70.1302 74.9081 69.9715C75.0761 69.8035 75.2815 69.7195 75.5241 69.7195H78.7161ZM78.7161 74.4235C78.8935 74.4235 79.0661 74.3489 79.2341 74.1995C79.4021 74.0502 79.5421 73.8589 79.6541 73.6255C79.7661 73.3829 79.8221 73.1309 79.8221 72.8695C79.8221 72.5989 79.7661 72.3469 79.6541 72.1135C79.5421 71.8802 79.4021 71.6935 79.2341 71.5535C79.0661 71.4042 78.8935 71.3295 78.7161 71.3295H76.1121L76.2801 71.0775V74.6475L76.1261 74.4235H78.7161ZM86.4237 79.5195C86.1623 79.5195 85.9477 79.4402 85.7797 79.2815C85.6117 79.1135 85.5277 78.9082 85.5277 78.6655V70.5455H87.3477V78.6655C87.3477 78.9082 87.259 79.1135 87.0817 79.2815C86.9137 79.4402 86.6943 79.5195 86.4237 79.5195ZM83.3297 71.3295C83.087 71.3295 82.8817 71.2549 82.7137 71.1055C82.555 70.9562 82.4757 70.7602 82.4757 70.5175C82.4757 70.2749 82.555 70.0835 82.7137 69.9435C82.8817 69.7942 83.087 69.7195 83.3297 69.7195H89.5457C89.7883 69.7195 89.989 69.7942 90.1477 69.9435C90.3157 70.0929 90.3997 70.2889 90.3997 70.5315C90.3997 70.7742 90.3157 70.9702 90.1477 71.1195C89.989 71.2595 89.7883 71.3295 89.5457 71.3295H83.3297Z" fill="white"/>
<rect x="134" y="62.0195" width="104" height="25" rx="4" fill="#FF0000"/>
<path d="M162.84 69.7195C163.512 69.7195 164.109 69.8455 164.632 70.0975C165.155 70.3495 165.593 70.7042 165.948 71.1615C166.312 71.6095 166.583 72.1322 166.76 72.7295C166.947 73.3175 167.04 73.9475 167.04 74.6195C167.04 75.5249 166.877 76.3509 166.55 77.0975C166.223 77.8349 165.747 78.4229 165.122 78.8615C164.506 79.3002 163.745 79.5195 162.84 79.5195H159.494C159.251 79.5195 159.046 79.4402 158.878 79.2815C158.719 79.1135 158.64 78.9082 158.64 78.6655V70.5735C158.64 70.3309 158.719 70.1302 158.878 69.9715C159.046 69.8035 159.251 69.7195 159.494 69.7195H162.84ZM162.7 77.9095C163.288 77.9095 163.769 77.7602 164.142 77.4615C164.515 77.1535 164.786 76.7522 164.954 76.2575C165.131 75.7535 165.22 75.2075 165.22 74.6195C165.22 74.1809 165.169 73.7655 165.066 73.3735C164.973 72.9722 164.823 72.6222 164.618 72.3235C164.413 72.0155 164.151 71.7729 163.834 71.5955C163.517 71.4182 163.139 71.3295 162.7 71.3295H160.25L160.39 71.2035V78.0635L160.306 77.9095H162.7ZM169.502 69.7195H174.192C174.434 69.7195 174.635 69.7989 174.794 69.9575C174.962 70.1069 175.046 70.3029 175.046 70.5455C175.046 70.7789 174.962 70.9702 174.794 71.1195C174.635 71.2595 174.434 71.3295 174.192 71.3295H170.272L170.398 71.0915V73.8215L170.286 73.7095H173.562C173.804 73.7095 174.005 73.7889 174.164 73.9475C174.332 74.0969 174.416 74.2929 174.416 74.5355C174.416 74.7689 174.332 74.9602 174.164 75.1095C174.005 75.2495 173.804 75.3195 173.562 75.3195H170.328L170.398 75.2075V78.0355L170.286 77.9095H174.192C174.434 77.9095 174.635 77.9935 174.794 78.1615C174.962 78.3202 175.046 78.5069 175.046 78.7215C175.046 78.9549 174.962 79.1462 174.794 79.2955C174.635 79.4449 174.434 79.5195 174.192 79.5195H169.502C169.259 79.5195 169.054 79.4402 168.886 79.2815C168.727 79.1135 168.648 78.9082 168.648 78.6655V70.5735C168.648 70.3309 168.727 70.1302 168.886 69.9715C169.054 69.8035 169.259 69.7195 169.502 69.7195ZM183.519 70.1955C183.762 70.3169 183.902 70.5082 183.939 70.7695C183.986 71.0309 183.921 71.2689 183.743 71.4835C183.622 71.6515 183.463 71.7449 183.267 71.7635C183.081 71.7822 182.889 71.7449 182.693 71.6515C182.469 71.5489 182.231 71.4695 181.979 71.4135C181.737 71.3575 181.48 71.3295 181.209 71.3295C180.705 71.3295 180.253 71.4089 179.851 71.5675C179.459 71.7262 179.123 71.9549 178.843 72.2535C178.563 72.5429 178.349 72.8882 178.199 73.2895C178.059 73.6909 177.989 74.1342 177.989 74.6195C177.989 75.1889 178.069 75.6835 178.227 76.1035C178.395 76.5235 178.624 76.8735 178.913 77.1535C179.203 77.4335 179.543 77.6435 179.935 77.7835C180.327 77.9142 180.752 77.9795 181.209 77.9795C181.461 77.9795 181.713 77.9562 181.965 77.9095C182.217 77.8629 182.46 77.7789 182.693 77.6575C182.889 77.5642 183.081 77.5315 183.267 77.5595C183.463 77.5875 183.627 77.6855 183.757 77.8535C183.944 78.0869 184.009 78.3295 183.953 78.5815C183.907 78.8242 183.767 79.0015 183.533 79.1135C183.291 79.2349 183.039 79.3375 182.777 79.4215C182.525 79.4962 182.269 79.5522 182.007 79.5895C181.746 79.6362 181.48 79.6595 181.209 79.6595C180.537 79.6595 179.898 79.5522 179.291 79.3375C178.694 79.1229 178.157 78.8055 177.681 78.3855C177.215 77.9655 176.846 77.4429 176.575 76.8175C176.305 76.1829 176.169 75.4502 176.169 74.6195C176.169 73.9009 176.291 73.2382 176.533 72.6315C176.785 72.0249 177.135 71.5022 177.583 71.0635C178.041 70.6155 178.577 70.2702 179.193 70.0275C179.809 69.7755 180.481 69.6495 181.209 69.6495C181.62 69.6495 182.021 69.6962 182.413 69.7895C182.805 69.8829 183.174 70.0182 183.519 70.1955ZM190.841 77.8815C191.083 77.8815 191.284 77.9609 191.443 78.1195C191.611 78.2689 191.695 78.4649 191.695 78.7075C191.695 78.9409 191.611 79.1369 191.443 79.2955C191.284 79.4449 191.083 79.5195 190.841 79.5195H186.291C186.048 79.5195 185.843 79.4402 185.675 79.2815C185.516 79.1135 185.437 78.9082 185.437 78.6655V70.5735C185.437 70.3309 185.521 70.1302 185.689 69.9715C185.857 69.8035 186.071 69.7195 186.333 69.7195C186.557 69.7195 186.753 69.8035 186.921 69.9715C187.098 70.1302 187.187 70.3309 187.187 70.5735V78.1195L186.879 77.8815H190.841ZM195.048 78.6655C195.048 78.9082 194.959 79.1135 194.782 79.2815C194.605 79.4402 194.399 79.5195 194.166 79.5195C193.905 79.5195 193.695 79.4402 193.536 79.2815C193.377 79.1135 193.298 78.9082 193.298 78.6655V70.5735C193.298 70.3309 193.382 70.1302 193.55 69.9715C193.718 69.8035 193.933 69.7195 194.194 69.7195C194.418 69.7195 194.614 69.8035 194.782 69.9715C194.959 70.1302 195.048 70.3309 195.048 70.5735V78.6655ZM204.588 69.7195C204.812 69.7195 204.994 69.7942 205.134 69.9435C205.274 70.0929 205.344 70.2795 205.344 70.5035V78.6655C205.344 78.9082 205.26 79.1135 205.092 79.2815C204.933 79.4402 204.732 79.5195 204.49 79.5195C204.368 79.5195 204.242 79.5009 204.112 79.4635C203.99 79.4169 203.897 79.3562 203.832 79.2815L198.33 72.2955L198.694 72.0715V78.7355C198.694 78.9595 198.619 79.1462 198.47 79.2955C198.33 79.4449 198.143 79.5195 197.91 79.5195C197.686 79.5195 197.504 79.4449 197.364 79.2955C197.224 79.1462 197.154 78.9595 197.154 78.7355V70.5735C197.154 70.3309 197.233 70.1302 197.392 69.9715C197.56 69.8035 197.765 69.7195 198.008 69.7195C198.138 69.7195 198.274 69.7475 198.414 69.8035C198.554 69.8502 198.656 69.9249 198.722 70.0275L204.056 76.8315L203.818 76.9995V70.5035C203.818 70.2795 203.888 70.0929 204.028 69.9435C204.168 69.7942 204.354 69.7195 204.588 69.7195ZM208.302 69.7195H212.992C213.235 69.7195 213.436 69.7989 213.594 69.9575C213.762 70.1069 213.846 70.3029 213.846 70.5455C213.846 70.7789 213.762 70.9702 213.594 71.1195C213.436 71.2595 213.235 71.3295 212.992 71.3295H209.072L209.198 71.0915V73.8215L209.086 73.7095H212.362C212.605 73.7095 212.806 73.7889 212.964 73.9475C213.132 74.0969 213.216 74.2929 213.216 74.5355C213.216 74.7689 213.132 74.9602 212.964 75.1095C212.806 75.2495 212.605 75.3195 212.362 75.3195H209.128L209.198 75.2075V78.0355L209.086 77.9095H212.992C213.235 77.9095 213.436 77.9935 213.594 78.1615C213.762 78.3202 213.846 78.5069 213.846 78.7215C213.846 78.9549 213.762 79.1462 213.594 79.2955C213.436 79.4449 213.235 79.5195 212.992 79.5195H208.302C208.06 79.5195 207.854 79.4402 207.686 79.2815C207.528 79.1135 207.448 78.9082 207.448 78.6655V70.5735C207.448 70.3309 207.528 70.1302 207.686 69.9715C207.854 69.8035 208.06 69.7195 208.302 69.7195Z" fill="white"/>
<rect x="255" y="62.0195" width="103" height="25" rx="4" fill="#FFC222"/>
<path d="M283.117 79.6595C282.464 79.6595 281.876 79.5802 281.353 79.4215C280.83 79.2535 280.331 78.9642 279.855 78.5535C279.734 78.4509 279.64 78.3342 279.575 78.2035C279.51 78.0729 279.477 77.9422 279.477 77.8115C279.477 77.5969 279.552 77.4102 279.701 77.2515C279.86 77.0835 280.056 76.9995 280.289 76.9995C280.466 76.9995 280.625 77.0555 280.765 77.1675C281.12 77.4569 281.47 77.6762 281.815 77.8255C282.17 77.9749 282.604 78.0495 283.117 78.0495C283.462 78.0495 283.78 77.9982 284.069 77.8955C284.358 77.7835 284.592 77.6389 284.769 77.4615C284.946 77.2749 285.035 77.0649 285.035 76.8315C285.035 76.5515 284.951 76.3135 284.783 76.1175C284.615 75.9215 284.358 75.7582 284.013 75.6275C283.668 75.4875 283.229 75.3802 282.697 75.3055C282.193 75.2309 281.75 75.1189 281.367 74.9695C280.984 74.8109 280.662 74.6149 280.401 74.3815C280.149 74.1389 279.958 73.8589 279.827 73.5415C279.696 73.2149 279.631 72.8509 279.631 72.4495C279.631 71.8429 279.785 71.3249 280.093 70.8955C280.41 70.4662 280.835 70.1395 281.367 69.9155C281.899 69.6915 282.487 69.5795 283.131 69.5795C283.738 69.5795 284.298 69.6729 284.811 69.8595C285.334 70.0369 285.758 70.2655 286.085 70.5455C286.356 70.7602 286.491 71.0075 286.491 71.2875C286.491 71.4929 286.412 71.6795 286.253 71.8475C286.094 72.0155 285.908 72.0995 285.693 72.0995C285.553 72.0995 285.427 72.0575 285.315 71.9735C285.166 71.8429 284.965 71.7215 284.713 71.6095C284.461 71.4882 284.195 71.3902 283.915 71.3155C283.635 71.2315 283.374 71.1895 283.131 71.1895C282.73 71.1895 282.389 71.2409 282.109 71.3435C281.838 71.4462 281.633 71.5862 281.493 71.7635C281.353 71.9409 281.283 72.1462 281.283 72.3795C281.283 72.6595 281.362 72.8929 281.521 73.0795C281.689 73.2569 281.927 73.4015 282.235 73.5135C282.543 73.6162 282.912 73.7095 283.341 73.7935C283.901 73.8962 284.391 74.0175 284.811 74.1575C285.24 74.2975 285.595 74.4795 285.875 74.7035C286.155 74.9182 286.365 75.1935 286.505 75.5295C286.645 75.8562 286.715 76.2575 286.715 76.7335C286.715 77.3402 286.547 77.8629 286.211 78.3015C285.875 78.7402 285.432 79.0762 284.881 79.3095C284.34 79.5429 283.752 79.6595 283.117 79.6595ZM290.071 78.6655C290.071 78.9082 289.982 79.1135 289.805 79.2815C289.627 79.4402 289.422 79.5195 289.189 79.5195C288.927 79.5195 288.717 79.4402 288.559 79.2815C288.4 79.1135 288.321 78.9082 288.321 78.6655V70.5735C288.321 70.3309 288.405 70.1302 288.573 69.9715C288.741 69.8035 288.955 69.7195 289.217 69.7195C289.441 69.7195 289.637 69.8035 289.805 69.9715C289.982 70.1302 290.071 70.3309 290.071 70.5735V78.6655ZM297.58 77.8815C297.823 77.8815 298.023 77.9609 298.182 78.1195C298.35 78.2689 298.434 78.4649 298.434 78.7075C298.434 78.9409 298.35 79.1369 298.182 79.2955C298.023 79.4449 297.823 79.5195 297.58 79.5195H293.03C292.787 79.5195 292.582 79.4402 292.414 79.2815C292.255 79.1135 292.176 78.9082 292.176 78.6655V70.5735C292.176 70.3309 292.26 70.1302 292.428 69.9715C292.596 69.8035 292.811 69.7195 293.072 69.7195C293.296 69.7195 293.492 69.8035 293.66 69.9715C293.837 70.1302 293.926 70.3309 293.926 70.5735V78.1195L293.618 77.8815H297.58ZM300.891 69.7195H305.581C305.824 69.7195 306.025 69.7989 306.183 69.9575C306.351 70.1069 306.435 70.3029 306.435 70.5455C306.435 70.7789 306.351 70.9702 306.183 71.1195C306.025 71.2595 305.824 71.3295 305.581 71.3295H301.661L301.787 71.0915V73.8215L301.675 73.7095H304.951C305.194 73.7095 305.395 73.7889 305.553 73.9475C305.721 74.0969 305.805 74.2929 305.805 74.5355C305.805 74.7689 305.721 74.9602 305.553 75.1095C305.395 75.2495 305.194 75.3195 304.951 75.3195H301.717L301.787 75.2075V78.0355L301.675 77.9095H305.581C305.824 77.9095 306.025 77.9935 306.183 78.1615C306.351 78.3202 306.435 78.5069 306.435 78.7215C306.435 78.9549 306.351 79.1462 306.183 79.2955C306.025 79.4449 305.824 79.5195 305.581 79.5195H300.891C300.649 79.5195 300.443 79.4402 300.275 79.2815C300.117 79.1135 300.037 78.9082 300.037 78.6655V70.5735C300.037 70.3309 300.117 70.1302 300.275 69.9715C300.443 69.8035 300.649 69.7195 300.891 69.7195ZM315.483 69.7195C315.707 69.7195 315.889 69.7942 316.029 69.9435C316.169 70.0929 316.239 70.2795 316.239 70.5035V78.6655C316.239 78.9082 316.155 79.1135 315.987 79.2815C315.828 79.4402 315.628 79.5195 315.385 79.5195C315.264 79.5195 315.138 79.5009 315.007 79.4635C314.886 79.4169 314.792 79.3562 314.727 79.2815L309.225 72.2955L309.589 72.0715V78.7355C309.589 78.9595 309.514 79.1462 309.365 79.2955C309.225 79.4449 309.038 79.5195 308.805 79.5195C308.581 79.5195 308.399 79.4449 308.259 79.2955C308.119 79.1462 308.049 78.9595 308.049 78.7355V70.5735C308.049 70.3309 308.128 70.1302 308.287 69.9715C308.455 69.8035 308.66 69.7195 308.903 69.7195C309.034 69.7195 309.169 69.7475 309.309 69.8035C309.449 69.8502 309.552 69.9249 309.617 70.0275L314.951 76.8315L314.713 76.9995V70.5035C314.713 70.2795 314.783 70.0929 314.923 69.9435C315.063 69.7942 315.25 69.7195 315.483 69.7195ZM325.204 70.1955C325.447 70.3169 325.587 70.5082 325.624 70.7695C325.671 71.0309 325.605 71.2689 325.428 71.4835C325.307 71.6515 325.148 71.7449 324.952 71.7635C324.765 71.7822 324.574 71.7449 324.378 71.6515C324.154 71.5489 323.916 71.4695 323.664 71.4135C323.421 71.3575 323.165 71.3295 322.894 71.3295C322.39 71.3295 321.937 71.4089 321.536 71.5675C321.144 71.7262 320.808 71.9549 320.528 72.2535C320.248 72.5429 320.033 72.8882 319.884 73.2895C319.744 73.6909 319.674 74.1342 319.674 74.6195C319.674 75.1889 319.753 75.6835 319.912 76.1035C320.08 76.5235 320.309 76.8735 320.598 77.1535C320.887 77.4335 321.228 77.6435 321.62 77.7835C322.012 77.9142 322.437 77.9795 322.894 77.9795C323.146 77.9795 323.398 77.9562 323.65 77.9095C323.902 77.8629 324.145 77.7789 324.378 77.6575C324.574 77.5642 324.765 77.5315 324.952 77.5595C325.148 77.5875 325.311 77.6855 325.442 77.8535C325.629 78.0869 325.694 78.3295 325.638 78.5815C325.591 78.8242 325.451 79.0015 325.218 79.1135C324.975 79.2349 324.723 79.3375 324.462 79.4215C324.21 79.4962 323.953 79.5522 323.692 79.5895C323.431 79.6362 323.165 79.6595 322.894 79.6595C322.222 79.6595 321.583 79.5522 320.976 79.3375C320.379 79.1229 319.842 78.8055 319.366 78.3855C318.899 77.9655 318.531 77.4429 318.26 76.8175C317.989 76.1829 317.854 75.4502 317.854 74.6195C317.854 73.9009 317.975 73.2382 318.218 72.6315C318.47 72.0249 318.82 71.5022 319.268 71.0635C319.725 70.6155 320.262 70.2702 320.878 70.0275C321.494 69.7755 322.166 69.6495 322.894 69.6495C323.305 69.6495 323.706 69.6962 324.098 69.7895C324.49 69.8829 324.859 70.0182 325.204 70.1955ZM327.975 69.7195H332.665C332.908 69.7195 333.109 69.7989 333.267 69.9575C333.435 70.1069 333.519 70.3029 333.519 70.5455C333.519 70.7789 333.435 70.9702 333.267 71.1195C333.109 71.2595 332.908 71.3295 332.665 71.3295H328.745L328.871 71.0915V73.8215L328.759 73.7095H332.035C332.278 73.7095 332.479 73.7889 332.637 73.9475C332.805 74.0969 332.889 74.2929 332.889 74.5355C332.889 74.7689 332.805 74.9602 332.637 75.1095C332.479 75.2495 332.278 75.3195 332.035 75.3195H328.801L328.871 75.2075V78.0355L328.759 77.9095H332.665C332.908 77.9095 333.109 77.9935 333.267 78.1615C333.435 78.3202 333.519 78.5069 333.519 78.7215C333.519 78.9549 333.435 79.1462 333.267 79.2955C333.109 79.4449 332.908 79.5195 332.665 79.5195H327.975C327.733 79.5195 327.527 79.4402 327.359 79.2815C327.201 79.1135 327.121 78.9082 327.121 78.6655V70.5735C327.121 70.3309 327.201 70.1302 327.359 69.9715C327.527 69.8035 327.733 69.7195 327.975 69.7195Z" fill="black"/>
</g>
<defs>
<filter id="filter0_d_1652_2480" x="0.5" y="0.5" width="370" height="103.045" filterUnits="userSpaceOnUse" color-interpolation-filters="sRGB">
<feFlood flood-opacity="0" result="BackgroundImageFix"/>
<feColorMatrix in="SourceAlpha" type="matrix" values="0 0 0 0 0 0 0 0 0 0 0 0 0 0 0 0 0 0 127 0" result="hardAlpha"/>
<feOffset dy="4"/>
<feGaussianBlur stdDeviation="2"/>
<feComposite in2="hardAlpha" operator="out"/>
<feColorMatrix type="matrix" values="0 0 0 0 0 0 0 0 0 0 0 0 0 0 0 0 0 0 0.25 0"/>
<feBlend mode="normal" in2="BackgroundImageFix" result="effect1_dropShadow_1652_2480"/>
<feBlend mode="normal" in="SourceGraphic" in2="effect1_dropShadow_1652_2480" result="shape"/>
</filter>
</defs>
</svg>
