<svg width="36" height="36" viewBox="0 0 36 36" fill="none" xmlns="http://www.w3.org/2000/svg">
<rect width="36" height="36" rx="8" fill="#261C41"/>
<path d="M18.2998 23.3208L20.6098 21.3908L18.2998 19.3008V23.3208Z" fill="white"/>
<path d="M18.2998 12.6797V16.6397L20.6098 14.5197L18.2998 12.6797Z" fill="white"/>
<path d="M22.19 8H13.81C10.17 8 8 10.17 8 13.81V22.18C8 25.83 10.17 28 13.81 28H22.18C25.82 28 27.99 25.83 27.99 22.19V13.81C28 10.17 25.83 8 22.19 8ZM11.25 18C11.25 17.24 11.87 16.62 12.63 16.62C13.39 16.62 14 17.24 14 18C14 18.76 13.38 19.38 12.62 19.38C11.86 19.38 11.25 18.76 11.25 18ZM21.57 22.54L19.16 24.55C18.75 24.9 18.37 25 18.08 25C17.85 25 17.67 24.94 17.57 24.89C17.34 24.78 16.8 24.43 16.8 23.45V20.06L13.9 22.71C13.6 22.99 13.12 22.97 12.84 22.66C12.56 22.35 12.58 21.88 12.89 21.6L16.8 18.02V17.94L12.89 14.4C12.58 14.12 12.56 13.65 12.84 13.34C13.12 13.04 13.6 13.01 13.9 13.29L16.8 15.94V12.56C16.8 11.58 17.34 11.22 17.57 11.12C17.8 11.01 18.42 10.83 19.17 11.46L21.58 13.47C21.91 13.74 22.1 14.13 22.11 14.54C22.12 14.95 21.95 15.35 21.64 15.64L19.04 18L21.63 20.37C21.94 20.66 22.12 21.06 22.11 21.47C22.09 21.88 21.9 22.27 21.57 22.54ZM23.38 19.38C22.62 19.38 22 18.76 22 18C22 17.24 22.62 16.62 23.38 16.62C24.14 16.62 24.76 17.24 24.76 18C24.76 18.76 24.13 19.38 23.38 19.38Z" fill="white"/>
</svg>
