<svg width="163" height="52" viewBox="0 0 163 52" fill="none" xmlns="http://www.w3.org/2000/svg">
<rect width="162.992" height="52" rx="12" fill="#E8E8E8"/>
<path d="M14.604 21.286C14.5947 21.4913 14.5153 21.664 14.366 21.804C14.226 21.9347 14.058 22 13.862 22C13.6473 22 13.47 21.9347 13.33 21.804C13.1993 21.664 13.134 21.4913 13.134 21.286V12.914C13.134 12.7087 13.204 12.5407 13.344 12.41C13.484 12.27 13.666 12.2 13.89 12.2C14.0767 12.2 14.24 12.27 14.38 12.41C14.5293 12.5407 14.604 12.7087 14.604 12.914V21.286ZM17.5944 12.186C17.7064 12.186 17.8231 12.214 17.9444 12.27C18.0658 12.326 18.1591 12.4053 18.2244 12.508L21.7804 17.926L21.1784 17.898L24.8044 12.508C24.9538 12.2933 25.1451 12.186 25.3784 12.186C25.5651 12.186 25.7284 12.256 25.8684 12.396C26.0178 12.5267 26.0924 12.6947 26.0924 12.9V21.286C26.0924 21.4913 26.0271 21.664 25.8964 21.804C25.7658 21.9347 25.5931 22 25.3784 22C25.1544 22 24.9724 21.9347 24.8324 21.804C24.7018 21.664 24.6364 21.4913 24.6364 21.286V14.188L25.0844 14.286L22.0044 18.976C21.9391 19.06 21.8551 19.1347 21.7524 19.2C21.6498 19.256 21.5424 19.2793 21.4304 19.27C21.3278 19.2793 21.2204 19.256 21.1084 19.2C21.0058 19.1347 20.9218 19.06 20.8564 18.976L17.8884 14.356L18.2244 13.796V21.286C18.2244 21.4913 18.1591 21.664 18.0284 21.804C17.9071 21.9347 17.7438 22 17.5384 22C17.3424 22 17.1791 21.9347 17.0484 21.804C16.9271 21.664 16.8664 21.4913 16.8664 21.286V12.9C16.8664 12.704 16.9364 12.536 17.0764 12.396C17.2258 12.256 17.3984 12.186 17.5944 12.186ZM29.0921 12.2H33.9361C34.1321 12.2 34.2955 12.2653 34.4261 12.396C34.5661 12.5267 34.6361 12.69 34.6361 12.886C34.6361 13.082 34.5661 13.2407 34.4261 13.362C34.2955 13.4833 34.1321 13.544 33.9361 13.544H29.7081L29.8481 13.306V16.442L29.7221 16.302H33.3061C33.5021 16.302 33.6655 16.3673 33.7961 16.498C33.9361 16.6287 34.0061 16.7967 34.0061 17.002C34.0061 17.198 33.9361 17.3567 33.7961 17.478C33.6655 17.5993 33.5021 17.66 33.3061 17.66H29.7501L29.8481 17.534V20.768L29.7501 20.656H33.9361C34.1321 20.656 34.2955 20.726 34.4261 20.866C34.5661 20.9967 34.6361 21.1507 34.6361 21.328C34.6361 21.524 34.5661 21.6873 34.4261 21.818C34.2955 21.9393 34.1321 22 33.9361 22H29.0921C28.8961 22 28.7281 21.9347 28.5881 21.804C28.4481 21.664 28.3781 21.4913 28.3781 21.286V12.914C28.3781 12.7087 28.4481 12.5407 28.5881 12.41C28.7281 12.27 28.8961 12.2 29.0921 12.2ZM37.8462 21.286C37.8369 21.4913 37.7575 21.664 37.6082 21.804C37.4682 21.9347 37.3002 22 37.1042 22C36.8895 22 36.7122 21.9347 36.5722 21.804C36.4415 21.664 36.3762 21.4913 36.3762 21.286V12.914C36.3762 12.7087 36.4462 12.5407 36.5862 12.41C36.7262 12.27 36.9082 12.2 37.1322 12.2C37.3189 12.2 37.4822 12.27 37.6222 12.41C37.7715 12.5407 37.8462 12.7087 37.8462 12.914V21.286ZM39.9266 23.848C39.7866 23.848 39.6466 23.792 39.5066 23.68C39.3666 23.568 39.2966 23.428 39.2966 23.26C39.2966 23.1573 39.3246 23.0593 39.3806 22.966L45.1906 11.192C45.2559 11.0613 45.3353 10.9633 45.4286 10.898C45.5313 10.8327 45.6433 10.8 45.7646 10.8C45.8953 10.8 46.0259 10.8513 46.1566 10.954C46.2966 11.0567 46.3666 11.2013 46.3666 11.388C46.3666 11.4907 46.3433 11.5933 46.2966 11.696L40.4866 23.47C40.4213 23.5913 40.3419 23.6847 40.2486 23.75C40.1553 23.8153 40.0479 23.848 39.9266 23.848ZM49.3169 21.286C49.3076 21.4913 49.2282 21.664 49.0789 21.804C48.9389 21.9347 48.7709 22 48.5749 22C48.3602 22 48.1829 21.9347 48.0429 21.804C47.9122 21.664 47.8469 21.4913 47.8469 21.286V12.914C47.8469 12.7087 47.9169 12.5407 48.0569 12.41C48.1969 12.27 48.3789 12.2 48.6029 12.2C48.7896 12.2 48.9529 12.27 49.0929 12.41C49.2422 12.5407 49.3169 12.7087 49.3169 12.914V21.286ZM55.7093 12.2C56.3906 12.2 56.9926 12.3307 57.5153 12.592C58.038 12.844 58.472 13.1987 58.8173 13.656C59.172 14.104 59.438 14.6267 59.6153 15.224C59.7926 15.812 59.8813 16.4373 59.8813 17.1C59.8813 18.0053 59.7226 18.8313 59.4053 19.578C59.088 20.3153 58.6213 20.9033 58.0053 21.342C57.3893 21.7807 56.624 22 55.7093 22H52.2933C52.0973 22 51.9293 21.9347 51.7893 21.804C51.6493 21.664 51.5793 21.4913 51.5793 21.286V12.914C51.5793 12.7087 51.6493 12.5407 51.7893 12.41C51.9293 12.27 52.0973 12.2 52.2933 12.2H55.7093ZM55.5693 20.656C56.232 20.656 56.7686 20.4927 57.1793 20.166C57.59 19.8393 57.8886 19.41 58.0753 18.878C58.2713 18.3367 58.3693 17.744 58.3693 17.1C58.3693 16.624 58.3133 16.176 58.2013 15.756C58.0986 15.3267 57.9306 14.9487 57.6973 14.622C57.4733 14.286 57.184 14.0247 56.8293 13.838C56.484 13.642 56.064 13.544 55.5693 13.544H52.9233L53.0493 13.418V20.796L52.9653 20.656H55.5693Z" fill="#4A4A4A"/>
<path d="M17.306 35.044L17.264 34.792C17.6093 34.932 17.9127 35.128 18.174 35.38C18.4353 35.6227 18.636 35.898 18.776 36.206C18.9253 36.514 19 36.836 19 37.172C19 37.6947 18.8553 38.1753 18.566 38.614C18.286 39.0433 17.9033 39.3887 17.418 39.65C16.942 39.902 16.41 40.028 15.822 40.028C15.2247 40.028 14.6833 39.902 14.198 39.65C13.722 39.3887 13.3393 39.0433 13.05 38.614C12.77 38.1753 12.63 37.6947 12.63 37.172C12.63 36.752 12.7187 36.3833 12.896 36.066C13.0733 35.7487 13.2973 35.4827 13.568 35.268C13.8387 35.0533 14.114 34.876 14.394 34.736L14.296 35.044C14.0627 34.9413 13.834 34.8013 13.61 34.624C13.3953 34.4373 13.218 34.204 13.078 33.924C12.938 33.644 12.868 33.322 12.868 32.958C12.868 32.4447 12.9987 31.9827 13.26 31.572C13.5213 31.152 13.876 30.8207 14.324 30.578C14.772 30.326 15.2713 30.2 15.822 30.2C16.3727 30.2 16.8673 30.326 17.306 30.578C17.7447 30.8207 18.0947 31.152 18.356 31.572C18.6173 31.9827 18.748 32.4447 18.748 32.958C18.748 33.35 18.6733 33.686 18.524 33.966C18.3747 34.2367 18.188 34.4607 17.964 34.638C17.74 34.8153 17.5207 34.9507 17.306 35.044ZM14.268 32.986C14.268 33.2753 14.338 33.532 14.478 33.756C14.618 33.98 14.8047 34.1573 15.038 34.288C15.2713 34.4187 15.5327 34.484 15.822 34.484C16.102 34.484 16.3587 34.4187 16.592 34.288C16.8253 34.1573 17.0073 33.98 17.138 33.756C17.278 33.532 17.348 33.2753 17.348 32.986C17.348 32.5473 17.2033 32.188 16.914 31.908C16.6247 31.628 16.2607 31.488 15.822 31.488C15.3647 31.488 14.9913 31.628 14.702 31.908C14.4127 32.188 14.268 32.5473 14.268 32.986ZM15.822 38.74C16.326 38.74 16.746 38.5907 17.082 38.292C17.4273 37.984 17.6 37.606 17.6 37.158C17.6 36.85 17.5207 36.5747 17.362 36.332C17.2033 36.0893 16.9887 35.898 16.718 35.758C16.4473 35.618 16.1487 35.548 15.822 35.548C15.4953 35.548 15.1967 35.618 14.926 35.758C14.6553 35.898 14.4407 36.0893 14.282 36.332C14.1233 36.5747 14.044 36.85 14.044 37.158C14.044 37.606 14.212 37.984 14.548 38.292C14.884 38.5907 15.3087 38.74 15.822 38.74ZM24.9349 35.044L24.8929 34.792C25.2382 34.932 25.5416 35.128 25.8029 35.38C26.0642 35.6227 26.2649 35.898 26.4049 36.206C26.5542 36.514 26.6289 36.836 26.6289 37.172C26.6289 37.6947 26.4842 38.1753 26.1949 38.614C25.9149 39.0433 25.5322 39.3887 25.0469 39.65C24.5709 39.902 24.0389 40.028 23.4509 40.028C22.8536 40.028 22.3122 39.902 21.8269 39.65C21.3509 39.3887 20.9682 39.0433 20.6789 38.614C20.3989 38.1753 20.2589 37.6947 20.2589 37.172C20.2589 36.752 20.3476 36.3833 20.5249 36.066C20.7022 35.7487 20.9262 35.4827 21.1969 35.268C21.4676 35.0533 21.7429 34.876 22.0229 34.736L21.9249 35.044C21.6916 34.9413 21.4629 34.8013 21.2389 34.624C21.0242 34.4373 20.8469 34.204 20.7069 33.924C20.5669 33.644 20.4969 33.322 20.4969 32.958C20.4969 32.4447 20.6276 31.9827 20.8889 31.572C21.1502 31.152 21.5049 30.8207 21.9529 30.578C22.4009 30.326 22.9002 30.2 23.4509 30.2C24.0016 30.2 24.4962 30.326 24.9349 30.578C25.3736 30.8207 25.7236 31.152 25.9849 31.572C26.2462 31.9827 26.3769 32.4447 26.3769 32.958C26.3769 33.35 26.3022 33.686 26.1529 33.966C26.0036 34.2367 25.8169 34.4607 25.5929 34.638C25.3689 34.8153 25.1496 34.9507 24.9349 35.044ZM21.8969 32.986C21.8969 33.2753 21.9669 33.532 22.1069 33.756C22.2469 33.98 22.4336 34.1573 22.6669 34.288C22.9002 34.4187 23.1616 34.484 23.4509 34.484C23.7309 34.484 23.9876 34.4187 24.2209 34.288C24.4542 34.1573 24.6362 33.98 24.7669 33.756C24.9069 33.532 24.9769 33.2753 24.9769 32.986C24.9769 32.5473 24.8322 32.188 24.5429 31.908C24.2536 31.628 23.8896 31.488 23.4509 31.488C22.9936 31.488 22.6202 31.628 22.3309 31.908C22.0416 32.188 21.8969 32.5473 21.8969 32.986ZM23.4509 38.74C23.9549 38.74 24.3749 38.5907 24.7109 38.292C25.0562 37.984 25.2289 37.606 25.2289 37.158C25.2289 36.85 25.1496 36.5747 24.9909 36.332C24.8322 36.0893 24.6176 35.898 24.3469 35.758C24.0762 35.618 23.7776 35.548 23.4509 35.548C23.1242 35.548 22.8256 35.618 22.5549 35.758C22.2842 35.898 22.0696 36.0893 21.9109 36.332C21.7522 36.5747 21.6729 36.85 21.6729 37.158C21.6729 37.606 21.8409 37.984 22.1769 38.292C22.5129 38.5907 22.9376 38.74 23.4509 38.74ZM31.1918 30.032C31.7145 30.032 32.1765 30.1347 32.5778 30.34C32.9885 30.5453 33.3291 30.8253 33.5998 31.18C33.8798 31.5253 34.0898 31.922 34.2298 32.37C34.3791 32.8087 34.4538 33.266 34.4538 33.742C34.4538 34.106 34.4118 34.526 34.3278 35.002C34.2438 35.4687 34.1038 35.9587 33.9078 36.472C33.7118 36.9853 33.4505 37.48 33.1238 37.956C32.8065 38.432 32.4051 38.8613 31.9198 39.244C31.4438 39.6173 30.8745 39.9067 30.2118 40.112C30.1185 40.1307 30.0298 40.14 29.9458 40.14C29.7591 40.14 29.5911 40.0887 29.4418 39.986C29.3018 39.8833 29.2318 39.7153 29.2318 39.482C29.2318 39.3047 29.2878 39.1553 29.3998 39.034C29.5118 38.9127 29.6611 38.824 29.8478 38.768C30.3051 38.6 30.7531 38.3433 31.1918 37.998C31.6305 37.6433 32.0085 37.228 32.3258 36.752C32.6431 36.2667 32.8578 35.7487 32.9698 35.198L33.3198 35.142C33.1798 35.338 33.0025 35.5387 32.7878 35.744C32.5731 35.9493 32.3165 36.122 32.0178 36.262C31.7191 36.3927 31.3738 36.458 30.9818 36.458C30.3751 36.458 29.8478 36.3227 29.3998 36.052C28.9518 35.772 28.6065 35.3893 28.3638 34.904C28.1211 34.4187 27.9998 33.8633 27.9998 33.238C27.9998 32.6593 28.1398 32.1273 28.4198 31.642C28.7091 31.1567 29.0918 30.7693 29.5678 30.48C30.0531 30.1813 30.5945 30.032 31.1918 30.032ZM31.2058 31.32C30.8605 31.32 30.5525 31.404 30.2818 31.572C30.0111 31.74 29.7965 31.9687 29.6378 32.258C29.4791 32.5473 29.3998 32.874 29.3998 33.238C29.3998 33.602 29.4698 33.9333 29.6098 34.232C29.7498 34.5213 29.9551 34.75 30.2258 34.918C30.4965 35.086 30.8138 35.17 31.1778 35.17C31.5418 35.17 31.8638 35.086 32.1438 34.918C32.4238 34.7407 32.6431 34.5027 32.8018 34.204C32.9605 33.9053 33.0398 33.5787 33.0398 33.224C33.0398 32.8693 32.9605 32.552 32.8018 32.272C32.6431 31.9827 32.4285 31.754 32.1578 31.586C31.8871 31.4087 31.5698 31.32 31.2058 31.32ZM38.5198 40.098C38.1558 40.098 37.7778 40.042 37.3858 39.93C37.0032 39.818 36.6765 39.65 36.4058 39.426C36.3032 39.342 36.2238 39.2347 36.1678 39.104C36.1118 38.9733 36.0838 38.8473 36.0838 38.726C36.0838 38.5953 36.1398 38.4693 36.2518 38.348C36.3732 38.2173 36.5365 38.152 36.7418 38.152C36.8912 38.152 37.0638 38.2267 37.2598 38.376C37.4465 38.4973 37.6425 38.6 37.8478 38.684C38.0625 38.768 38.2818 38.81 38.5058 38.81C38.9912 38.81 39.4112 38.7213 39.7658 38.544C40.1205 38.3667 40.3912 38.1193 40.5778 37.802C40.7738 37.4753 40.8718 37.0973 40.8718 36.668C40.8718 36.2667 40.7832 35.926 40.6058 35.646C40.4285 35.3567 40.1858 35.1327 39.8778 34.974C39.5792 34.8153 39.2432 34.736 38.8698 34.736C38.5618 34.736 38.2912 34.7873 38.0578 34.89C37.8245 34.9833 37.6145 35.0813 37.4278 35.184C37.2412 35.2773 37.0685 35.324 36.9098 35.324C36.6672 35.324 36.4852 35.2727 36.3638 35.17C36.2425 35.058 36.1632 34.9273 36.1258 34.778C36.0978 34.6193 36.0932 34.4747 36.1118 34.344L36.6018 30.83C36.6298 30.6713 36.7045 30.5407 36.8258 30.438C36.9565 30.326 37.1152 30.27 37.3018 30.27H41.4038C41.5905 30.27 41.7445 30.3353 41.8658 30.466C41.9965 30.5873 42.0618 30.7413 42.0618 30.928C42.0618 31.1147 41.9965 31.2687 41.8658 31.39C41.7445 31.5113 41.5905 31.572 41.4038 31.572H37.6518L37.8058 31.446L37.3578 34.456L37.1478 34.036C37.2318 33.9427 37.3718 33.854 37.5678 33.77C37.7732 33.6767 38.0018 33.602 38.2538 33.546C38.5152 33.4807 38.7765 33.448 39.0378 33.448C39.6538 33.448 40.2045 33.588 40.6898 33.868C41.1845 34.1387 41.5718 34.5167 41.8518 35.002C42.1318 35.4873 42.2718 36.038 42.2718 36.654C42.2718 37.3447 42.1178 37.9513 41.8098 38.474C41.5018 38.9873 41.0678 39.3887 40.5078 39.678C39.9478 39.958 39.2852 40.098 38.5198 40.098ZM45.8055 40.056C45.6095 40.056 45.4368 39.9953 45.2875 39.874C45.1475 39.7433 45.0775 39.58 45.0775 39.384C45.0775 39.2813 45.1008 39.174 45.1475 39.062L48.6755 31.264L48.8295 31.572H44.5455C44.3588 31.572 44.2002 31.5113 44.0695 31.39C43.9482 31.2593 43.8875 31.1007 43.8875 30.914C43.8875 30.7367 43.9482 30.5873 44.0695 30.466C44.2002 30.3447 44.3588 30.284 44.5455 30.284H49.5155C49.7208 30.284 49.8935 30.3493 50.0335 30.48C50.1828 30.6013 50.2575 30.76 50.2575 30.956C50.2575 31.068 50.2342 31.1753 50.1875 31.278L46.4495 39.608C46.3935 39.748 46.3048 39.86 46.1835 39.944C46.0622 40.0187 45.9362 40.056 45.8055 40.056ZM54.2032 40.14C53.6806 40.14 53.2139 40.0373 52.8032 39.832C52.4019 39.6267 52.0612 39.3467 51.7812 38.992C51.5106 38.6373 51.3006 38.2407 51.1512 37.802C51.0112 37.354 50.9412 36.8967 50.9412 36.43C50.9412 36.066 50.9832 35.6507 51.0672 35.184C51.1512 34.708 51.2912 34.218 51.4872 33.714C51.6832 33.2007 51.9399 32.7107 52.2572 32.244C52.5839 31.7773 52.9852 31.3573 53.4612 30.984C53.9466 30.6013 54.5206 30.312 55.1832 30.116C55.2766 30.088 55.3652 30.074 55.4492 30.074C55.6359 30.074 55.7992 30.1253 55.9392 30.228C56.0886 30.3213 56.1632 30.494 56.1632 30.746C56.1632 30.914 56.1072 31.0633 55.9952 31.194C55.8832 31.3153 55.7339 31.404 55.5472 31.46C55.2112 31.572 54.8752 31.74 54.5392 31.964C54.2032 32.188 53.8906 32.454 53.6012 32.762C53.3119 33.07 53.0646 33.4153 52.8592 33.798C52.6632 34.1713 52.5186 34.5633 52.4252 34.974L52.0752 35.03C52.2152 34.8153 52.3926 34.61 52.6072 34.414C52.8312 34.2087 53.0926 34.0407 53.3912 33.91C53.6899 33.77 54.0306 33.7 54.4132 33.7C54.7959 33.7 55.1646 33.784 55.5192 33.952C55.8739 34.12 56.1912 34.3533 56.4712 34.652C56.7606 34.9507 56.9846 35.296 57.1432 35.688C57.3112 36.08 57.3952 36.4953 57.3952 36.934C57.3952 37.5127 57.2506 38.0493 56.9612 38.544C56.6812 39.0293 56.2986 39.4167 55.8132 39.706C55.3372 39.9953 54.8006 40.14 54.2032 40.14ZM54.1892 38.838C54.5346 38.838 54.8426 38.7587 55.1132 38.6C55.3839 38.432 55.5986 38.2033 55.7572 37.914C55.9159 37.6247 55.9952 37.298 55.9952 36.934C55.9952 36.57 55.9206 36.2433 55.7712 35.954C55.6219 35.6647 55.4119 35.4313 55.1412 35.254C54.8799 35.0767 54.5719 34.988 54.2172 34.988C53.8532 34.988 53.5312 35.0767 53.2512 35.254C52.9712 35.4313 52.7519 35.6693 52.5932 35.968C52.4346 36.2573 52.3552 36.584 52.3552 36.948C52.3552 37.284 52.4346 37.6013 52.5932 37.9C52.7519 38.1893 52.9666 38.418 53.2372 38.586C53.5172 38.754 53.8346 38.838 54.1892 38.838ZM59.3251 38.208C59.3998 38.208 59.4791 38.222 59.5631 38.25C59.6471 38.2687 59.7405 38.3153 59.8431 38.39C60.0111 38.5393 60.2118 38.6653 60.4451 38.768C60.6878 38.8613 60.9631 38.908 61.2711 38.908C61.6165 38.908 61.9385 38.8287 62.2371 38.67C62.5358 38.502 62.7785 38.2687 62.9651 37.97C63.1518 37.6713 63.2451 37.3167 63.2451 36.906C63.2451 36.486 63.1565 36.1453 62.9791 35.884C62.8018 35.6133 62.5731 35.4127 62.2931 35.282C62.0131 35.142 61.7191 35.072 61.4111 35.072C61.2338 35.072 61.0845 35.0907 60.9631 35.128C60.8418 35.156 60.7251 35.1887 60.6131 35.226C60.5011 35.254 60.3798 35.268 60.2491 35.268C60.0718 35.268 59.9318 35.2073 59.8291 35.086C59.7265 34.9553 59.6751 34.8013 59.6751 34.624C59.6751 34.512 59.6985 34.414 59.7451 34.33C59.7918 34.246 59.8571 34.1527 59.9411 34.05L62.5311 31.278L62.8391 31.558H59.1291C58.9425 31.558 58.7838 31.4973 58.6531 31.376C58.5318 31.2453 58.4711 31.0867 58.4711 30.9C58.4711 30.7227 58.5318 30.5733 58.6531 30.452C58.7838 30.3307 58.9425 30.27 59.1291 30.27H63.5531C63.7958 30.27 63.9731 30.34 64.0851 30.48C64.2065 30.62 64.2671 30.7833 64.2671 30.97C64.2671 31.0727 64.2391 31.1707 64.1831 31.264C64.1365 31.3573 64.0758 31.446 64.0011 31.53L61.3971 34.33L61.0471 33.952C61.1218 33.9147 61.2478 33.8773 61.4251 33.84C61.6025 33.8027 61.7471 33.784 61.8591 33.784C62.3911 33.784 62.8671 33.9193 63.2871 34.19C63.7165 34.4607 64.0478 34.8247 64.2811 35.282C64.5238 35.73 64.6451 36.2387 64.6451 36.808C64.6451 37.4893 64.4911 38.082 64.1831 38.586C63.8751 39.0807 63.4458 39.4633 62.8951 39.734C62.3538 40.0047 61.7285 40.14 61.0191 40.14C60.6645 40.14 60.3098 40.0933 59.9551 40C59.6098 39.8973 59.3111 39.7527 59.0591 39.566C58.9005 39.4727 58.7931 39.3747 58.7371 39.272C58.6811 39.16 58.6531 39.0527 58.6531 38.95C58.6531 38.7727 58.7138 38.6047 58.8351 38.446C58.9658 38.2873 59.1291 38.208 59.3251 38.208ZM69.59 40.14C68.806 40.14 68.1433 39.9253 67.602 39.496C67.0607 39.0573 66.65 38.46 66.37 37.704C66.0993 36.9387 65.964 36.0707 65.964 35.1C65.964 34.12 66.0993 33.252 66.37 32.496C66.65 31.7307 67.0607 31.1333 67.602 30.704C68.1433 30.2747 68.806 30.06 69.59 30.06C70.374 30.06 71.032 30.2747 71.564 30.704C72.1053 31.1333 72.516 31.7307 72.796 32.496C73.076 33.252 73.216 34.12 73.216 35.1C73.216 36.0707 73.076 36.9387 72.796 37.704C72.516 38.46 72.1053 39.0573 71.564 39.496C71.032 39.9253 70.374 40.14 69.59 40.14ZM69.59 38.726C70.0287 38.726 70.402 38.586 70.71 38.306C71.0273 38.026 71.27 37.6153 71.438 37.074C71.6153 36.5327 71.704 35.8747 71.704 35.1C71.704 34.316 71.6153 33.6533 71.438 33.112C71.27 32.5707 71.0273 32.16 70.71 31.88C70.402 31.6 70.0287 31.46 69.59 31.46C69.1513 31.46 68.7733 31.6 68.456 31.88C68.1387 32.16 67.896 32.5707 67.728 33.112C67.56 33.6533 67.476 34.316 67.476 35.1C67.476 35.8747 67.56 36.5327 67.728 37.074C67.896 37.6153 68.1387 38.026 68.456 38.306C68.7733 38.586 69.1513 38.726 69.59 38.726ZM77.1276 40C76.9129 40 76.7356 39.9347 76.5956 39.804C76.4556 39.664 76.3856 39.4913 76.3856 39.286V31.782L76.5676 32.034L75.2656 32.944C75.1536 33.0373 75.0182 33.084 74.8596 33.084C74.6729 33.084 74.5049 33.014 74.3556 32.874C74.2156 32.7247 74.1456 32.552 74.1456 32.356C74.1456 32.1133 74.2669 31.9127 74.5096 31.754L76.6376 30.34C76.7216 30.284 76.8102 30.2467 76.9036 30.228C77.0062 30.2093 77.0996 30.2 77.1836 30.2C77.3982 30.2 77.5709 30.27 77.7016 30.41C77.8322 30.5407 77.8976 30.7087 77.8976 30.914V39.286C77.8976 39.4913 77.8229 39.664 77.6736 39.804C77.5336 39.9347 77.3516 40 77.1276 40ZM85.6929 38.698C85.8796 38.698 86.0336 38.7633 86.1549 38.894C86.2856 39.0153 86.3509 39.1693 86.3509 39.356C86.3509 39.5427 86.2856 39.6967 86.1549 39.818C86.0336 39.9393 85.8796 40 85.6929 40H80.7789C80.5736 40 80.4103 39.9393 80.2889 39.818C80.1676 39.6967 80.1069 39.5333 80.1069 39.328C80.1069 39.1413 80.1723 38.9733 80.3029 38.824L83.4249 35.45C83.8263 35.0207 84.1343 34.596 84.3489 34.176C84.5729 33.756 84.6849 33.3873 84.6849 33.07C84.6849 32.5567 84.5309 32.1413 84.2229 31.824C83.9149 31.5067 83.5089 31.348 83.0049 31.348C82.7903 31.348 82.5709 31.3993 82.3469 31.502C82.1323 31.5953 81.9269 31.726 81.7309 31.894C81.5443 32.0527 81.3809 32.2393 81.2409 32.454C81.1476 32.5847 81.0543 32.6687 80.9609 32.706C80.8676 32.7433 80.7789 32.762 80.6949 32.762C80.5176 32.762 80.3543 32.7013 80.2049 32.58C80.0649 32.4493 79.9949 32.3 79.9949 32.132C79.9949 32.0013 80.0369 31.8753 80.1209 31.754C80.2049 31.6327 80.3123 31.5067 80.4429 31.376C80.6483 31.124 80.8956 30.9 81.1849 30.704C81.4836 30.4987 81.7963 30.34 82.1229 30.228C82.4496 30.116 82.7716 30.06 83.0889 30.06C83.7049 30.06 84.2369 30.1813 84.6849 30.424C85.1423 30.6667 85.4923 31.0073 85.7349 31.446C85.9869 31.8847 86.1129 32.4027 86.1129 33C86.1129 33.504 85.9589 34.064 85.6509 34.68C85.3523 35.2867 84.9323 35.884 84.3909 36.472L82.2209 38.838L82.0669 38.698H85.6929ZM89.7196 40.056C89.5236 40.056 89.3509 39.9953 89.2016 39.874C89.0616 39.7433 88.9916 39.58 88.9916 39.384C88.9916 39.2813 89.0149 39.174 89.0616 39.062L92.5896 31.264L92.7436 31.572H88.4596C88.2729 31.572 88.1142 31.5113 87.9836 31.39C87.8622 31.2593 87.8016 31.1007 87.8016 30.914C87.8016 30.7367 87.8622 30.5873 87.9836 30.466C88.1142 30.3447 88.2729 30.284 88.4596 30.284H93.4296C93.6349 30.284 93.8076 30.3493 93.9476 30.48C94.0969 30.6013 94.1716 30.76 94.1716 30.956C94.1716 31.068 94.1482 31.1753 94.1016 31.278L90.3636 39.608C90.3076 39.748 90.2189 39.86 90.0976 39.944C89.9762 40.0187 89.8502 40.056 89.7196 40.056ZM98.1173 40.14C97.5946 40.14 97.1279 40.0373 96.7173 39.832C96.3159 39.6267 95.9753 39.3467 95.6953 38.992C95.4246 38.6373 95.2146 38.2407 95.0653 37.802C94.9253 37.354 94.8553 36.8967 94.8553 36.43C94.8553 36.066 94.8973 35.6507 94.9813 35.184C95.0653 34.708 95.2053 34.218 95.4013 33.714C95.5973 33.2007 95.8539 32.7107 96.1713 32.244C96.4979 31.7773 96.8993 31.3573 97.3753 30.984C97.8606 30.6013 98.4346 30.312 99.0973 30.116C99.1906 30.088 99.2793 30.074 99.3633 30.074C99.5499 30.074 99.7133 30.1253 99.8533 30.228C100.003 30.3213 100.077 30.494 100.077 30.746C100.077 30.914 100.021 31.0633 99.9093 31.194C99.7973 31.3153 99.6479 31.404 99.4613 31.46C99.1253 31.572 98.7893 31.74 98.4533 31.964C98.1173 32.188 97.8046 32.454 97.5153 32.762C97.2259 33.07 96.9786 33.4153 96.7733 33.798C96.5773 34.1713 96.4326 34.5633 96.3393 34.974L95.9893 35.03C96.1293 34.8153 96.3066 34.61 96.5213 34.414C96.7453 34.2087 97.0066 34.0407 97.3053 33.91C97.6039 33.77 97.9446 33.7 98.3273 33.7C98.7099 33.7 99.0786 33.784 99.4333 33.952C99.7879 34.12 100.105 34.3533 100.385 34.652C100.675 34.9507 100.899 35.296 101.057 35.688C101.225 36.08 101.309 36.4953 101.309 36.934C101.309 37.5127 101.165 38.0493 100.875 38.544C100.595 39.0293 100.213 39.4167 99.7273 39.706C99.2513 39.9953 98.7146 40.14 98.1173 40.14ZM98.1033 38.838C98.4486 38.838 98.7566 38.7587 99.0273 38.6C99.2979 38.432 99.5126 38.2033 99.6713 37.914C99.8299 37.6247 99.9093 37.298 99.9093 36.934C99.9093 36.57 99.8346 36.2433 99.6853 35.954C99.5359 35.6647 99.3259 35.4313 99.0553 35.254C98.7939 35.0767 98.4859 34.988 98.1313 34.988C97.7673 34.988 97.4453 35.0767 97.1653 35.254C96.8853 35.4313 96.6659 35.6693 96.5073 35.968C96.3486 36.2573 96.2693 36.584 96.2693 36.948C96.2693 37.284 96.3486 37.6013 96.5073 37.9C96.6659 38.1893 96.8806 38.418 97.1513 38.586C97.4313 38.754 97.7486 38.838 98.1033 38.838Z" fill="#4A4A4A"/>
<rect width="162.992" height="52" rx="12" fill="#E8E8E8"/>
<rect x="8" y="8" width="36" height="36" rx="8" fill="#261C41"/>
<path d="M26.5882 30.1074L25.1888 32.7699C24.7988 33.1599 24.0977 32.8008 23.6479 32.4413C23.5264 32.3441 21.57 30.6 21.46 30.49C20.43 29.45 19.5 28.36 18.67 27.22C17.85 26.08 17.19 24.94 16.71 23.81C16.24 22.67 16 21.58 16 20.54C16 19.86 16.12 19.21 16.36 18.61C16.6 18 16.98 17.44 17.51 16.94C18.15 16.31 18.85 16 19.59 16C19.87 16 20.15 16.06 20.4 16.18C20.66 16.3 20.89 16.48 21.07 16.74L23.39 20.01C23.57 20.26 23.7 20.49 23.79 20.71C23.88 20.92 23.93 21.13 23.93 21.32C23.93 21.56 23.86 21.8 23.72 22.03C23.59 22.26 23.4 22.5 23.16 22.74L22.4 23.53C22.29 23.64 22.24 23.77 22.24 23.93C22.24 24.01 22.25 24.08 22.27 24.16C22.3 24.24 22.33 24.3 22.35 24.36C22.53 24.69 22.84 25.12 23.28 25.64C23.73 26.16 24.21 26.69 24.73 27.22C24.83 27.32 26.7945 29.0787 26.9102 29.1602C27.3594 29.4766 26.9882 29.7074 26.5882 30.1074Z" fill="white"/>
<path d="M35.9701 32.33C35.9701 32.61 35.9201 32.9 35.8201 33.18C35.7901 33.26 35.7601 33.34 35.7201 33.42C35.5501 33.78 35.3301 34.12 35.0401 34.44C34.5501 34.98 34.0101 35.37 33.4001 35.62C33.3901 35.62 33.3801 35.63 33.3701 35.63C32.7801 35.87 32.1401 36 31.4501 36C30.4301 36 29.3401 35.76 28.1901 35.27C27.0401 34.78 25.8901 34.12 24.7501 33.29C24.3601 33 23.9701 32.71 23.6001 32.4L26.8701 29.13C27.1501 29.34 27.4001 29.5 27.6101 29.61C27.6601 29.63 27.7201 29.66 27.7901 29.69C27.8701 29.72 27.9501 29.73 28.0401 29.73C28.2101 29.73 28.3401 29.67 28.4501 29.56L29.2101 28.81C29.4601 28.56 29.7001 28.37 29.9301 28.25C30.1601 28.11 30.3901 28.04 30.6401 28.04C30.8301 28.04 31.0301 28.08 31.2501 28.17C31.4701 28.26 31.7001 28.39 31.9501 28.56L35.2601 30.91C35.5201 31.09 35.7001 31.3 35.8101 31.55C35.9101 31.8 35.9701 32.05 35.9701 32.33Z" fill="white"/>
<path d="M64.4724 20.62C64.7364 20.752 64.8864 20.956 64.9224 21.232C64.9704 21.508 64.9044 21.76 64.7244 21.988C64.5924 22.168 64.4184 22.27 64.2024 22.294C63.9984 22.318 63.7944 22.276 63.5904 22.168C63.2424 21.988 62.8764 21.844 62.4924 21.736C62.1084 21.628 61.7004 21.574 61.2684 21.574C60.5844 21.574 59.9664 21.688 59.4144 21.916C58.8744 22.132 58.4064 22.45 58.0104 22.87C57.6144 23.278 57.3084 23.764 57.0924 24.328C56.8884 24.892 56.7864 25.516 56.7864 26.2C56.7864 26.956 56.9004 27.628 57.1284 28.216C57.3564 28.792 57.6684 29.284 58.0644 29.692C58.4724 30.088 58.9464 30.388 59.4864 30.592C60.0384 30.784 60.6324 30.88 61.2684 30.88C61.6764 30.88 62.0724 30.832 62.4564 30.736C62.8524 30.64 63.2244 30.496 63.5724 30.304C63.7884 30.196 63.9984 30.16 64.2024 30.196C64.4184 30.22 64.5924 30.322 64.7244 30.502C64.9284 30.754 65.0004 31.012 64.9404 31.276C64.8924 31.528 64.7424 31.72 64.4904 31.852C64.1904 32.02 63.8604 32.164 63.5004 32.284C63.1404 32.404 62.7744 32.5 62.4024 32.572C62.0304 32.644 61.6524 32.68 61.2684 32.68C60.4044 32.68 59.5884 32.536 58.8204 32.248C58.0524 31.96 57.3684 31.54 56.7684 30.988C56.1684 30.436 55.6944 29.758 55.3464 28.954C55.0104 28.15 54.8424 27.232 54.8424 26.2C54.8424 25.276 54.9984 24.424 55.3104 23.644C55.6344 22.852 56.0844 22.174 56.6604 21.61C57.2484 21.034 57.9324 20.59 58.7124 20.278C59.4924 19.954 60.3444 19.792 61.2684 19.792C61.8444 19.792 62.4024 19.864 62.9424 20.008C63.4944 20.152 64.0044 20.356 64.4724 20.62ZM74.5297 22.888C74.7937 22.888 75.0097 22.978 75.1777 23.158C75.3457 23.326 75.4297 23.542 75.4297 23.806V31.582C75.4297 31.846 75.3457 32.068 75.1777 32.248C75.0097 32.416 74.7937 32.5 74.5297 32.5C74.2777 32.5 74.0617 32.416 73.8817 32.248C73.7137 32.068 73.6297 31.846 73.6297 31.582V30.286L74.0077 30.34C74.0077 30.556 73.9177 30.796 73.7377 31.06C73.5697 31.324 73.3357 31.582 73.0357 31.834C72.7357 32.074 72.3817 32.278 71.9737 32.446C71.5657 32.602 71.1277 32.68 70.6597 32.68C69.8317 32.68 69.0877 32.47 68.4277 32.05C67.7677 31.618 67.2457 31.03 66.8617 30.286C66.4777 29.542 66.2857 28.696 66.2857 27.748C66.2857 26.776 66.4777 25.924 66.8617 25.192C67.2457 24.448 67.7617 23.866 68.4097 23.446C69.0697 23.026 69.8017 22.816 70.6057 22.816C71.1217 22.816 71.5957 22.9 72.0277 23.068C72.4717 23.236 72.8557 23.452 73.1797 23.716C73.5037 23.98 73.7497 24.262 73.9177 24.562C74.0977 24.85 74.1877 25.126 74.1877 25.39L73.6297 25.444V23.806C73.6297 23.554 73.7137 23.338 73.8817 23.158C74.0617 22.978 74.2777 22.888 74.5297 22.888ZM70.8577 31.024C71.4217 31.024 71.9197 30.88 72.3517 30.592C72.7837 30.304 73.1197 29.914 73.3597 29.422C73.5997 28.918 73.7197 28.36 73.7197 27.748C73.7197 27.124 73.5997 26.566 73.3597 26.074C73.1197 25.582 72.7837 25.192 72.3517 24.904C71.9197 24.616 71.4217 24.472 70.8577 24.472C70.3057 24.472 69.8137 24.616 69.3817 24.904C68.9617 25.192 68.6257 25.582 68.3737 26.074C68.1337 26.566 68.0137 27.124 68.0137 27.748C68.0137 28.36 68.1337 28.918 68.3737 29.422C68.6257 29.914 68.9617 30.304 69.3817 30.592C69.8137 30.88 70.3057 31.024 70.8577 31.024ZM79.8954 31.582C79.8954 31.846 79.8054 32.068 79.6254 32.248C79.4574 32.416 79.2474 32.5 78.9954 32.5C78.7434 32.5 78.5274 32.416 78.3474 32.248C78.1794 32.068 78.0954 31.846 78.0954 31.582V20.098C78.0954 19.834 78.1854 19.618 78.3654 19.45C78.5454 19.27 78.7614 19.18 79.0134 19.18C79.2774 19.18 79.4874 19.27 79.6434 19.45C79.8114 19.618 79.8954 19.834 79.8954 20.098V31.582ZM84.5185 31.582C84.5185 31.846 84.4285 32.068 84.2485 32.248C84.0805 32.416 83.8705 32.5 83.6185 32.5C83.3665 32.5 83.1505 32.416 82.9705 32.248C82.8025 32.068 82.7185 31.846 82.7185 31.582V20.098C82.7185 19.834 82.8085 19.618 82.9885 19.45C83.1685 19.27 83.3845 19.18 83.6365 19.18C83.9005 19.18 84.1105 19.27 84.2665 19.45C84.4345 19.618 84.5185 19.834 84.5185 20.098V31.582ZM88.8895 31.582C88.8895 31.846 88.8055 32.068 88.6375 32.248C88.4695 32.416 88.2535 32.5 87.9895 32.5C87.7375 32.5 87.5215 32.416 87.3415 32.248C87.1735 32.068 87.0895 31.846 87.0895 31.582V23.878C87.0895 23.614 87.1735 23.398 87.3415 23.23C87.5215 23.05 87.7375 22.96 87.9895 22.96C88.2535 22.96 88.4695 23.05 88.6375 23.23C88.8055 23.398 88.8895 23.614 88.8895 23.878V31.582ZM87.9715 21.772C87.6235 21.772 87.3715 21.712 87.2155 21.592C87.0595 21.46 86.9815 21.244 86.9815 20.944V20.656C86.9815 20.356 87.0655 20.146 87.2335 20.026C87.4015 19.906 87.6535 19.846 87.9895 19.846C88.3495 19.846 88.6075 19.912 88.7635 20.044C88.9195 20.164 88.9975 20.368 88.9975 20.656V20.944C88.9975 21.256 88.9135 21.472 88.7455 21.592C88.5895 21.712 88.3315 21.772 87.9715 21.772ZM96.1888 22.816C97.0408 22.816 97.7008 22.996 98.1688 23.356C98.6368 23.704 98.9608 24.178 99.1408 24.778C99.3328 25.366 99.4288 26.026 99.4288 26.758V31.582C99.4288 31.846 99.3388 32.068 99.1588 32.248C98.9908 32.416 98.7808 32.5 98.5288 32.5C98.2648 32.5 98.0488 32.416 97.8808 32.248C97.7128 32.068 97.6288 31.846 97.6288 31.582V26.776C97.6288 26.344 97.5688 25.96 97.4488 25.624C97.3288 25.276 97.1188 25 96.8188 24.796C96.5308 24.58 96.1228 24.472 95.5948 24.472C95.1028 24.472 94.6708 24.58 94.2988 24.796C93.9268 25 93.6328 25.276 93.4168 25.624C93.2128 25.96 93.1108 26.344 93.1108 26.776V31.582C93.1108 31.846 93.0208 32.068 92.8408 32.248C92.6728 32.416 92.4628 32.5 92.2108 32.5C91.9468 32.5 91.7308 32.416 91.5628 32.248C91.3948 32.068 91.3108 31.846 91.3108 31.582V23.95C91.3108 23.686 91.3948 23.47 91.5628 23.302C91.7308 23.122 91.9468 23.032 92.2108 23.032C92.4628 23.032 92.6728 23.122 92.8408 23.302C93.0208 23.47 93.1108 23.686 93.1108 23.95V24.958L92.7868 25.138C92.8708 24.874 93.0148 24.61 93.2188 24.346C93.4348 24.07 93.6928 23.818 93.9928 23.59C94.2928 23.35 94.6288 23.164 95.0008 23.032C95.3728 22.888 95.7688 22.816 96.1888 22.816ZM105.87 22.816C106.386 22.816 106.86 22.9 107.292 23.068C107.724 23.236 108.096 23.452 108.408 23.716C108.732 23.968 108.984 24.232 109.164 24.508C109.344 24.784 109.434 25.024 109.434 25.228L109.02 25.246V23.806C109.02 23.554 109.104 23.338 109.272 23.158C109.44 22.978 109.656 22.888 109.92 22.888C110.184 22.888 110.4 22.978 110.568 23.158C110.736 23.326 110.82 23.542 110.82 23.806V31.744C110.82 32.764 110.604 33.592 110.172 34.228C109.74 34.876 109.164 35.35 108.444 35.65C107.736 35.95 106.956 36.1 106.104 36.1C105.804 36.1 105.45 36.058 105.042 35.974C104.634 35.902 104.256 35.812 103.908 35.704C103.572 35.596 103.338 35.488 103.206 35.38C102.93 35.236 102.744 35.068 102.648 34.876C102.564 34.684 102.564 34.492 102.648 34.3C102.768 34.036 102.93 33.874 103.134 33.814C103.338 33.754 103.572 33.772 103.836 33.868C103.956 33.904 104.142 33.97 104.394 34.066C104.646 34.162 104.928 34.246 105.24 34.318C105.552 34.402 105.846 34.444 106.122 34.444C107.082 34.444 107.802 34.222 108.282 33.778C108.774 33.334 109.02 32.728 109.02 31.96V30.34L109.218 30.466C109.182 30.718 109.068 30.976 108.876 31.24C108.696 31.492 108.456 31.726 108.156 31.942C107.856 32.158 107.508 32.338 107.112 32.482C106.728 32.614 106.332 32.68 105.924 32.68C105.072 32.68 104.31 32.47 103.638 32.05C102.966 31.618 102.432 31.036 102.036 30.304C101.64 29.56 101.442 28.708 101.442 27.748C101.442 26.788 101.64 25.942 102.036 25.21C102.432 24.466 102.96 23.884 103.62 23.464C104.292 23.032 105.042 22.816 105.87 22.816ZM106.14 24.472C105.552 24.472 105.036 24.616 104.592 24.904C104.148 25.192 103.8 25.582 103.548 26.074C103.296 26.566 103.17 27.124 103.17 27.748C103.17 28.372 103.296 28.93 103.548 29.422C103.8 29.914 104.148 30.304 104.592 30.592C105.036 30.88 105.552 31.024 106.14 31.024C106.728 31.024 107.244 30.886 107.688 30.61C108.132 30.322 108.48 29.932 108.732 29.44C108.984 28.936 109.11 28.372 109.11 27.748C109.11 27.124 108.984 26.566 108.732 26.074C108.48 25.57 108.132 25.18 107.688 24.904C107.244 24.616 106.728 24.472 106.14 24.472ZM123.602 19.9C124.238 19.9 124.826 20.074 125.366 20.422C125.906 20.758 126.338 21.22 126.662 21.808C126.986 22.396 127.148 23.056 127.148 23.788C127.148 24.52 126.986 25.186 126.662 25.786C126.338 26.374 125.906 26.848 125.366 27.208C124.826 27.556 124.238 27.73 123.602 27.73H120.128L120.272 27.442V31.582C120.272 31.846 120.188 32.068 120.02 32.248C119.864 32.416 119.654 32.5 119.39 32.5C119.138 32.5 118.928 32.416 118.76 32.248C118.604 32.068 118.526 31.846 118.526 31.582V20.818C118.526 20.554 118.616 20.338 118.796 20.17C118.976 19.99 119.192 19.9 119.444 19.9H123.602ZM123.602 26.002C123.914 26.002 124.196 25.9 124.448 25.696C124.712 25.492 124.922 25.222 125.078 24.886C125.246 24.55 125.33 24.184 125.33 23.788C125.33 23.392 125.246 23.032 125.078 22.708C124.922 22.384 124.712 22.126 124.448 21.934C124.196 21.73 123.914 21.628 123.602 21.628H120.092L120.272 21.358V26.236L120.11 26.002H123.602ZM130.831 31.582C130.831 31.846 130.747 32.068 130.579 32.248C130.411 32.416 130.195 32.5 129.931 32.5C129.679 32.5 129.463 32.416 129.283 32.248C129.115 32.068 129.031 31.846 129.031 31.582V23.878C129.031 23.614 129.115 23.398 129.283 23.23C129.463 23.05 129.679 22.96 129.931 22.96C130.195 22.96 130.411 23.05 130.579 23.23C130.747 23.398 130.831 23.614 130.831 23.878V31.582ZM129.913 21.772C129.565 21.772 129.313 21.712 129.157 21.592C129.001 21.46 128.923 21.244 128.923 20.944V20.656C128.923 20.356 129.007 20.146 129.175 20.026C129.343 19.906 129.595 19.846 129.931 19.846C130.291 19.846 130.549 19.912 130.705 20.044C130.861 20.164 130.939 20.368 130.939 20.656V20.944C130.939 21.256 130.855 21.472 130.687 21.592C130.531 21.712 130.273 21.772 129.913 21.772ZM138.13 22.816C138.982 22.816 139.642 22.996 140.11 23.356C140.578 23.704 140.902 24.178 141.082 24.778C141.274 25.366 141.37 26.026 141.37 26.758V31.582C141.37 31.846 141.28 32.068 141.1 32.248C140.932 32.416 140.722 32.5 140.47 32.5C140.206 32.5 139.99 32.416 139.822 32.248C139.654 32.068 139.57 31.846 139.57 31.582V26.776C139.57 26.344 139.51 25.96 139.39 25.624C139.27 25.276 139.06 25 138.76 24.796C138.472 24.58 138.064 24.472 137.536 24.472C137.044 24.472 136.612 24.58 136.24 24.796C135.868 25 135.574 25.276 135.358 25.624C135.154 25.96 135.052 26.344 135.052 26.776V31.582C135.052 31.846 134.962 32.068 134.782 32.248C134.614 32.416 134.404 32.5 134.152 32.5C133.888 32.5 133.672 32.416 133.504 32.248C133.336 32.068 133.252 31.846 133.252 31.582V23.95C133.252 23.686 133.336 23.47 133.504 23.302C133.672 23.122 133.888 23.032 134.152 23.032C134.404 23.032 134.614 23.122 134.782 23.302C134.962 23.47 135.052 23.686 135.052 23.95V24.958L134.728 25.138C134.812 24.874 134.956 24.61 135.16 24.346C135.376 24.07 135.634 23.818 135.934 23.59C136.234 23.35 136.57 23.164 136.942 23.032C137.314 22.888 137.71 22.816 138.13 22.816ZM147.811 22.816C148.327 22.816 148.801 22.9 149.233 23.068C149.665 23.236 150.037 23.452 150.349 23.716C150.673 23.968 150.925 24.232 151.105 24.508C151.285 24.784 151.375 25.024 151.375 25.228L150.961 25.246V23.806C150.961 23.554 151.045 23.338 151.213 23.158C151.381 22.978 151.597 22.888 151.861 22.888C152.125 22.888 152.341 22.978 152.509 23.158C152.677 23.326 152.761 23.542 152.761 23.806V31.744C152.761 32.764 152.545 33.592 152.113 34.228C151.681 34.876 151.105 35.35 150.385 35.65C149.677 35.95 148.897 36.1 148.045 36.1C147.745 36.1 147.391 36.058 146.983 35.974C146.575 35.902 146.197 35.812 145.849 35.704C145.513 35.596 145.279 35.488 145.147 35.38C144.871 35.236 144.685 35.068 144.589 34.876C144.505 34.684 144.505 34.492 144.589 34.3C144.709 34.036 144.871 33.874 145.075 33.814C145.279 33.754 145.513 33.772 145.777 33.868C145.897 33.904 146.083 33.97 146.335 34.066C146.587 34.162 146.869 34.246 147.181 34.318C147.493 34.402 147.787 34.444 148.063 34.444C149.023 34.444 149.743 34.222 150.223 33.778C150.715 33.334 150.961 32.728 150.961 31.96V30.34L151.159 30.466C151.123 30.718 151.009 30.976 150.817 31.24C150.637 31.492 150.397 31.726 150.097 31.942C149.797 32.158 149.449 32.338 149.053 32.482C148.669 32.614 148.273 32.68 147.865 32.68C147.013 32.68 146.251 32.47 145.579 32.05C144.907 31.618 144.373 31.036 143.977 30.304C143.581 29.56 143.383 28.708 143.383 27.748C143.383 26.788 143.581 25.942 143.977 25.21C144.373 24.466 144.901 23.884 145.561 23.464C146.233 23.032 146.983 22.816 147.811 22.816ZM148.081 24.472C147.493 24.472 146.977 24.616 146.533 24.904C146.089 25.192 145.741 25.582 145.489 26.074C145.237 26.566 145.111 27.124 145.111 27.748C145.111 28.372 145.237 28.93 145.489 29.422C145.741 29.914 146.089 30.304 146.533 30.592C146.977 30.88 147.493 31.024 148.081 31.024C148.669 31.024 149.185 30.886 149.629 30.61C150.073 30.322 150.421 29.932 150.673 29.44C150.925 28.936 151.051 28.372 151.051 27.748C151.051 27.124 150.925 26.566 150.673 26.074C150.421 25.57 150.073 25.18 149.629 24.904C149.185 24.616 148.669 24.472 148.081 24.472Z" fill="black"/>
</svg>
