<svg width="336" height="625" viewBox="0 0 336 625" fill="none" xmlns="http://www.w3.org/2000/svg">
<rect x="3" y="3" width="330" height="619" rx="57" fill="#212121"/>
<rect x="3" y="3" width="330" height="619" rx="57" stroke="black" stroke-width="6"/>
<g clip-path="url(#clip0_51_429)">
<path d="M81.9854 567.504C86.0815 567.504 89.9374 566.72 93.5532 565.152C97.1692 563.584 100.359 561.419 103.122 558.655C105.885 555.892 108.051 552.702 109.619 549.087C111.187 545.471 111.971 541.615 111.971 537.519C111.971 533.423 111.187 529.567 109.619 525.951C108.051 522.335 105.885 519.145 103.122 516.382C100.359 513.619 97.1643 511.453 93.5385 509.885C89.9129 508.317 86.052 507.533 81.956 507.533C77.8599 507.533 74.004 508.317 70.3881 509.885C66.7722 511.453 63.5875 513.619 60.8339 516.382C58.0804 519.145 55.9197 522.335 54.3518 525.951C52.7839 529.567 52 533.423 52 537.519C52 541.615 52.7839 545.471 54.3518 549.087C55.9197 552.702 58.0853 555.892 60.8486 558.655C63.612 561.419 66.8016 563.584 70.4175 565.152C74.0334 566.72 77.8893 567.504 81.9854 567.504Z" fill="#F35242"/>
<path d="M65.3335 540.219V539.953C65.3335 538.294 65.8159 536.849 66.7807 535.617C67.7455 534.385 69.0346 533.367 70.6478 532.562C72.2611 531.757 74.0523 531.157 76.0215 530.762C77.9906 530.368 79.9796 530.171 81.9883 530.171C83.997 530.171 85.9899 530.368 87.967 530.762C89.944 531.157 91.7392 531.757 93.3525 532.562C94.9658 533.367 96.2548 534.385 97.2196 535.617C98.1844 536.849 98.6668 538.294 98.6668 539.953V540.219C98.6668 540.831 98.564 541.386 98.3583 541.886C98.1528 542.385 97.8483 542.779 97.4448 543.069C97.0416 543.359 96.5236 543.504 95.891 543.504C95.2109 543.504 94.428 543.46 93.5422 543.371C92.6565 543.282 91.5256 543.021 90.1495 542.586C89.3587 542.344 88.7853 542.002 88.4295 541.56C88.0737 541.117 87.8878 540.452 87.872 539.567L87.8246 538.021C87.8246 537.747 87.6585 537.546 87.3263 537.417C86.9151 537.288 86.2469 537.155 85.3216 537.018C84.3963 536.881 83.2852 536.813 81.9883 536.813C80.6913 536.813 79.5802 536.881 78.6549 537.018C77.7297 537.155 77.0693 537.288 76.6739 537.417C76.326 537.546 76.152 537.747 76.152 538.021L76.1283 539.567C76.1124 540.452 75.9226 541.117 75.5588 541.56C75.1951 542.002 74.6178 542.344 73.8269 542.586C72.4509 543.021 71.324 543.282 70.4462 543.371C69.5684 543.46 68.7815 543.504 68.0856 543.504C67.4687 543.504 66.9586 543.359 66.5553 543.069C66.152 542.779 65.8475 542.385 65.6419 541.886C65.4363 541.386 65.3335 540.831 65.3335 540.219Z" fill="white"/>
</g>
<g clip-path="url(#clip1_51_429)">
<path d="M254.015 567.504C258.111 567.504 261.967 566.72 265.583 565.152C269.198 563.584 272.388 561.419 275.151 558.655C277.915 555.892 280.08 552.702 281.648 549.087C283.216 545.471 284 541.615 284 537.519C284 533.423 283.216 529.567 281.648 525.951C280.08 522.335 277.915 519.145 275.151 516.382C272.388 513.619 269.194 511.453 265.568 509.885C261.942 508.317 258.081 507.533 253.985 507.533C249.889 507.533 246.033 508.317 242.417 509.885C238.801 511.453 235.617 513.619 232.863 516.382C230.11 519.145 227.949 522.335 226.381 525.951C224.813 529.567 224.029 533.423 224.029 537.519C224.029 541.615 224.813 545.471 226.381 549.087C227.949 552.702 230.115 555.892 232.878 558.655C235.641 561.419 238.831 563.584 242.447 565.152C246.063 566.72 249.919 567.504 254.015 567.504Z" fill="#57D76A"/>
<path d="M247.614 543.893C246.057 542.331 244.676 540.692 243.474 538.975C242.271 537.257 241.363 535.548 240.748 533.848C240.134 532.148 239.913 530.535 240.086 529.008C240.259 527.482 240.934 526.12 242.111 524.923C242.146 524.888 242.193 524.841 242.254 524.78C242.314 524.719 242.388 524.672 242.474 524.637C243.063 524.186 243.634 523.865 244.188 523.674C244.741 523.483 245.256 523.453 245.732 523.583C246.208 523.713 246.636 524.038 247.017 524.559L250.314 529.243C250.867 530.023 251.097 530.695 251.001 531.259C250.906 531.823 250.556 532.426 249.95 533.068L248.912 534.161C248.739 534.351 248.665 534.551 248.691 534.759C248.717 534.967 248.773 535.149 248.86 535.306C249.119 535.757 249.552 536.355 250.158 537.101C250.763 537.847 251.43 538.584 252.156 539.313C252.918 540.076 253.658 540.753 254.376 541.343C255.094 541.932 255.687 542.366 256.154 542.643C256.344 542.748 256.556 542.804 256.79 542.813C257.024 542.821 257.218 542.756 257.374 542.618L258.412 541.551C259.018 540.944 259.606 540.592 260.177 540.497C260.748 540.401 261.432 540.631 262.228 541.186C262.955 541.69 263.595 542.141 264.149 542.54C264.703 542.938 265.209 543.298 265.667 543.619C266.126 543.94 266.563 544.248 266.978 544.543C267.757 545.133 268.103 545.835 268.016 546.651C267.93 547.466 267.584 548.221 266.978 548.915C266.909 549.001 266.84 549.088 266.77 549.175C266.701 549.262 266.623 549.348 266.537 549.435C265.36 550.615 264.01 551.287 262.488 551.452C260.965 551.617 259.355 551.391 257.66 550.775C255.964 550.159 254.259 549.249 252.546 548.043C250.833 546.837 249.189 545.454 247.614 543.893Z" fill="white"/>
</g>
<path d="M84.3862 126.769C84.6 126.769 84.8228 126.822 85.0545 126.929C85.2862 127.036 85.4644 127.188 85.5891 127.384L92.3793 137.729L91.2298 137.676L98.1536 127.384C98.4388 126.974 98.8041 126.769 99.2497 126.769C99.6061 126.769 99.918 126.903 100.185 127.17C100.47 127.419 100.613 127.74 100.613 128.132V144.145C100.613 144.537 100.488 144.867 100.239 145.135C99.9893 145.384 99.6596 145.509 99.2497 145.509C98.822 145.509 98.4744 145.384 98.2071 145.135C97.9576 144.867 97.8328 144.537 97.8328 144.145V130.592L98.6883 130.779L92.807 139.734C92.6823 139.895 92.5219 140.037 92.3258 140.162C92.1298 140.269 91.9248 140.314 91.711 140.296C91.5149 140.314 91.31 140.269 91.0961 140.162C90.9001 140.037 90.7397 139.895 90.6149 139.734L84.9475 130.913L85.5891 129.843V144.145C85.5891 144.537 85.4644 144.867 85.2149 145.135C84.9832 145.384 84.6713 145.509 84.2792 145.509C83.905 145.509 83.5931 145.384 83.3436 145.135C83.1119 144.867 82.996 144.537 82.996 144.145V128.132C82.996 127.758 83.1297 127.437 83.397 127.17C83.6822 126.903 84.0119 126.769 84.3862 126.769ZM112.864 126.796C114.165 126.796 115.314 127.045 116.312 127.544C117.31 128.025 118.139 128.703 118.799 129.576C119.476 130.431 119.984 131.429 120.322 132.57C120.661 133.693 120.83 134.887 120.83 136.152C120.83 137.881 120.527 139.458 119.921 140.884C119.315 142.292 118.424 143.415 117.248 144.252C116.072 145.09 114.61 145.509 112.864 145.509H106.341C105.967 145.509 105.646 145.384 105.379 145.135C105.111 144.867 104.978 144.537 104.978 144.145V128.159C104.978 127.767 105.111 127.446 105.379 127.197C105.646 126.929 105.967 126.796 106.341 126.796H112.864ZM112.597 142.942C113.862 142.942 114.887 142.631 115.671 142.007C116.455 141.383 117.025 140.563 117.382 139.547C117.756 138.514 117.943 137.382 117.943 136.152C117.943 135.243 117.836 134.388 117.622 133.586C117.426 132.766 117.106 132.044 116.66 131.421C116.232 130.779 115.68 130.28 115.003 129.923C114.343 129.549 113.541 129.362 112.597 129.362H107.544L107.785 129.121V143.21L107.624 142.942H112.597ZM125.53 145.509C125.103 145.509 124.755 145.384 124.488 145.135C124.238 144.867 124.114 144.537 124.114 144.145V128.159C124.114 127.767 124.247 127.446 124.515 127.197C124.782 126.929 125.103 126.796 125.477 126.796H134.513C134.905 126.796 135.226 126.92 135.475 127.17C135.742 127.419 135.876 127.731 135.876 128.106C135.876 128.444 135.742 128.738 135.475 128.988C135.226 129.237 134.905 129.362 134.513 129.362H126.707L126.894 129.095V135.056L126.733 134.735H133.31C133.702 134.735 134.023 134.86 134.272 135.11C134.54 135.359 134.673 135.671 134.673 136.045C134.673 136.384 134.54 136.678 134.272 136.928C134.023 137.177 133.702 137.302 133.31 137.302H126.68L126.894 137.088V144.145C126.894 144.537 126.76 144.867 126.493 145.135C126.226 145.384 125.905 145.509 125.53 145.509ZM152.228 127.865C152.62 128.061 152.843 128.364 152.897 128.774C152.968 129.184 152.87 129.558 152.603 129.897C152.407 130.164 152.148 130.316 151.827 130.351C151.524 130.387 151.221 130.324 150.918 130.164C150.402 129.897 149.858 129.683 149.288 129.522C148.717 129.362 148.112 129.282 147.47 129.282C146.454 129.282 145.536 129.451 144.716 129.79C143.914 130.111 143.219 130.583 142.631 131.207C142.043 131.813 141.589 132.534 141.268 133.372C140.965 134.21 140.813 135.136 140.813 136.152C140.813 137.275 140.983 138.273 141.321 139.146C141.66 140.002 142.123 140.732 142.711 141.338C143.317 141.927 144.021 142.372 144.823 142.675C145.643 142.96 146.525 143.103 147.47 143.103C148.076 143.103 148.664 143.032 149.234 142.889C149.822 142.746 150.375 142.533 150.892 142.247C151.213 142.087 151.524 142.034 151.827 142.087C152.148 142.123 152.407 142.274 152.603 142.541C152.906 142.916 153.013 143.299 152.923 143.691C152.852 144.065 152.629 144.35 152.255 144.546C151.81 144.796 151.319 145.01 150.785 145.188C150.25 145.366 149.707 145.509 149.154 145.616C148.602 145.723 148.04 145.776 147.47 145.776C146.187 145.776 144.975 145.562 143.834 145.135C142.694 144.707 141.678 144.083 140.787 143.263C139.896 142.443 139.192 141.436 138.675 140.242C138.176 139.048 137.926 137.685 137.926 136.152C137.926 134.78 138.158 133.515 138.621 132.356C139.102 131.18 139.771 130.173 140.626 129.335C141.5 128.48 142.515 127.82 143.674 127.357C144.832 126.876 146.098 126.635 147.47 126.635C148.325 126.635 149.154 126.742 149.956 126.956C150.776 127.17 151.533 127.473 152.228 127.865ZM169.125 145.776C167.842 145.776 166.702 145.598 165.703 145.241C164.705 144.885 163.752 144.297 162.843 143.477C162.647 143.335 162.496 143.165 162.389 142.969C162.299 142.755 162.255 142.541 162.255 142.328C162.255 141.989 162.38 141.686 162.629 141.419C162.879 141.151 163.191 141.018 163.565 141.018C163.85 141.018 164.117 141.116 164.367 141.312C165.044 141.935 165.748 142.408 166.479 142.729C167.227 143.049 168.101 143.21 169.099 143.21C169.811 143.21 170.462 143.094 171.05 142.862C171.656 142.631 172.137 142.319 172.494 141.927C172.85 141.534 173.028 141.08 173.028 140.563C173.028 139.922 172.841 139.396 172.467 138.986C172.11 138.558 171.585 138.211 170.89 137.943C170.212 137.658 169.393 137.418 168.43 137.222C167.539 137.061 166.737 136.838 166.024 136.553C165.329 136.268 164.732 135.912 164.233 135.484C163.734 135.038 163.351 134.513 163.084 133.907C162.816 133.301 162.683 132.597 162.683 131.795C162.683 130.708 162.968 129.772 163.538 128.988C164.108 128.204 164.884 127.598 165.864 127.17C166.844 126.742 167.949 126.528 169.179 126.528C170.302 126.528 171.353 126.707 172.333 127.063C173.313 127.402 174.107 127.865 174.712 128.453C175.14 128.827 175.354 129.228 175.354 129.656C175.354 129.977 175.22 130.28 174.953 130.565C174.704 130.832 174.41 130.966 174.071 130.966C173.821 130.966 173.608 130.895 173.429 130.752C173.144 130.449 172.761 130.182 172.28 129.95C171.799 129.701 171.282 129.496 170.729 129.335C170.195 129.175 169.678 129.095 169.179 129.095C168.377 129.095 167.691 129.211 167.12 129.442C166.55 129.656 166.113 129.959 165.81 130.351C165.507 130.725 165.356 131.171 165.356 131.688C165.356 132.294 165.525 132.793 165.864 133.185C166.22 133.577 166.71 133.898 167.334 134.147C167.958 134.379 168.671 134.593 169.473 134.789C170.453 135.003 171.326 135.243 172.093 135.511C172.877 135.778 173.536 136.126 174.071 136.553C174.606 136.963 175.015 137.48 175.301 138.104C175.586 138.728 175.728 139.503 175.728 140.43C175.728 141.499 175.425 142.434 174.819 143.236C174.213 144.038 173.411 144.662 172.413 145.108C171.433 145.553 170.337 145.776 169.125 145.776ZM185.271 145.776C183.792 145.776 182.509 145.473 181.421 144.867C180.334 144.243 179.488 143.397 178.882 142.328C178.294 141.24 178 140.002 178 138.612C178 137.043 178.311 135.707 178.935 134.602C179.577 133.479 180.406 132.623 181.421 132.035C182.437 131.429 183.515 131.126 184.656 131.126C185.529 131.126 186.358 131.305 187.142 131.661C187.926 132 188.621 132.481 189.227 133.105C189.851 133.711 190.341 134.432 190.698 135.27C191.054 136.09 191.241 136.99 191.259 137.97C191.241 138.327 191.099 138.621 190.831 138.852C190.564 139.084 190.252 139.2 189.896 139.2H179.497L178.855 136.928H188.907L188.399 137.409V136.74C188.363 136.117 188.158 135.573 187.784 135.11C187.41 134.628 186.946 134.263 186.394 134.014C185.841 133.746 185.262 133.613 184.656 133.613C184.121 133.613 183.605 133.702 183.106 133.88C182.624 134.04 182.188 134.308 181.796 134.682C181.421 135.056 181.118 135.555 180.887 136.179C180.673 136.785 180.566 137.542 180.566 138.451C180.566 139.431 180.771 140.287 181.181 141.018C181.591 141.748 182.143 142.319 182.838 142.729C183.533 143.121 184.3 143.317 185.137 143.317C185.797 143.317 186.34 143.254 186.768 143.13C187.196 142.987 187.552 142.818 187.837 142.622C188.122 142.426 188.372 142.238 188.586 142.06C188.853 141.9 189.121 141.82 189.388 141.82C189.709 141.82 189.976 141.935 190.19 142.167C190.404 142.381 190.511 142.639 190.511 142.942C190.511 143.335 190.315 143.691 189.922 144.012C189.441 144.475 188.773 144.885 187.918 145.241C187.08 145.598 186.198 145.776 185.271 145.776ZM195.617 145.509C195.225 145.509 194.905 145.384 194.655 145.135C194.406 144.867 194.281 144.537 194.281 144.145V132.811C194.281 132.419 194.406 132.098 194.655 131.848C194.905 131.581 195.225 131.447 195.617 131.447C195.992 131.447 196.304 131.581 196.553 131.848C196.82 132.098 196.954 132.419 196.954 132.811V135.805L196.687 134.655C196.829 134.156 197.043 133.693 197.328 133.265C197.631 132.837 197.988 132.463 198.398 132.142C198.808 131.822 199.262 131.572 199.761 131.394C200.278 131.216 200.813 131.126 201.365 131.126C201.828 131.126 202.229 131.251 202.568 131.501C202.907 131.75 203.076 132.062 203.076 132.436C203.076 132.918 202.951 133.274 202.702 133.506C202.452 133.72 202.176 133.826 201.873 133.826C201.606 133.826 201.347 133.773 201.098 133.666C200.848 133.541 200.554 133.479 200.216 133.479C199.841 133.479 199.458 133.577 199.066 133.773C198.674 133.969 198.317 134.263 197.997 134.655C197.676 135.029 197.417 135.475 197.221 135.992C197.043 136.509 196.954 137.088 196.954 137.729V144.145C196.954 144.537 196.82 144.867 196.553 145.135C196.304 145.384 195.992 145.509 195.617 145.509ZM207.107 131.314C207.374 131.314 207.623 131.385 207.855 131.527C208.105 131.67 208.283 131.884 208.39 132.169L212.587 141.873L212.079 142.114L216.329 132.196C216.579 131.608 216.98 131.322 217.532 131.34C217.889 131.34 218.183 131.456 218.415 131.688C218.664 131.902 218.789 132.187 218.789 132.543C218.789 132.65 218.771 132.766 218.735 132.891C218.7 132.998 218.655 133.105 218.602 133.212L213.522 144.653C213.291 145.188 212.908 145.473 212.373 145.509C212.106 145.544 211.838 145.491 211.571 145.348C211.321 145.188 211.125 144.956 210.983 144.653L205.93 133.212C205.895 133.14 205.859 133.051 205.823 132.944C205.788 132.82 205.77 132.677 205.77 132.517C205.77 132.249 205.886 131.982 206.117 131.715C206.367 131.447 206.697 131.314 207.107 131.314ZM224.023 144.145C224.023 144.537 223.898 144.867 223.648 145.135C223.399 145.384 223.078 145.509 222.686 145.509C222.312 145.509 221.991 145.384 221.724 145.135C221.474 144.867 221.349 144.537 221.349 144.145V132.704C221.349 132.312 221.474 131.991 221.724 131.741C221.991 131.474 222.312 131.34 222.686 131.34C223.078 131.34 223.399 131.474 223.648 131.741C223.898 131.991 224.023 132.312 224.023 132.704V144.145ZM222.659 129.576C222.142 129.576 221.768 129.487 221.537 129.309C221.305 129.113 221.189 128.792 221.189 128.346V127.918C221.189 127.473 221.314 127.161 221.563 126.983C221.813 126.805 222.187 126.716 222.686 126.716C223.221 126.716 223.604 126.814 223.836 127.01C224.067 127.188 224.183 127.491 224.183 127.918V128.346C224.183 128.81 224.058 129.13 223.809 129.309C223.577 129.487 223.194 129.576 222.659 129.576ZM233.847 131.126C234.81 131.126 235.665 131.233 236.414 131.447C237.162 131.643 237.742 131.928 238.152 132.303C238.579 132.659 238.793 133.078 238.793 133.559C238.793 133.862 238.704 134.147 238.526 134.415C238.348 134.664 238.08 134.789 237.724 134.789C237.474 134.789 237.26 134.744 237.082 134.655C236.922 134.566 236.77 134.459 236.628 134.334C236.485 134.21 236.307 134.085 236.093 133.96C235.897 133.853 235.603 133.764 235.211 133.693C234.837 133.622 234.498 133.586 234.195 133.586C233.25 133.586 232.431 133.8 231.736 134.227C231.058 134.655 230.524 135.234 230.132 135.965C229.757 136.696 229.57 137.525 229.57 138.451C229.57 139.378 229.757 140.207 230.132 140.937C230.524 141.668 231.049 142.247 231.709 142.675C232.386 143.103 233.17 143.317 234.061 143.317C234.596 143.317 235.033 143.281 235.371 143.21C235.71 143.121 236.004 143.014 236.253 142.889C236.521 142.729 236.744 142.568 236.922 142.408C237.118 142.23 237.385 142.14 237.724 142.14C238.116 142.14 238.41 142.265 238.606 142.515C238.82 142.746 238.927 143.04 238.927 143.397C238.927 143.789 238.686 144.172 238.205 144.546C237.742 144.903 237.118 145.197 236.334 145.429C235.549 145.66 234.685 145.776 233.741 145.776C232.35 145.776 231.139 145.455 230.105 144.814C229.089 144.172 228.296 143.299 227.726 142.194C227.173 141.089 226.897 139.841 226.897 138.451C226.897 137.043 227.191 135.796 227.779 134.709C228.367 133.604 229.187 132.73 230.239 132.089C231.29 131.447 232.493 131.126 233.847 131.126ZM248.031 145.776C246.552 145.776 245.268 145.473 244.181 144.867C243.094 144.243 242.248 143.397 241.642 142.328C241.053 141.24 240.759 140.002 240.759 138.612C240.759 137.043 241.071 135.707 241.695 134.602C242.337 133.479 243.165 132.623 244.181 132.035C245.197 131.429 246.275 131.126 247.416 131.126C248.289 131.126 249.118 131.305 249.902 131.661C250.686 132 251.381 132.481 251.987 133.105C252.611 133.711 253.101 134.432 253.458 135.27C253.814 136.09 254.001 136.99 254.019 137.97C254.001 138.327 253.859 138.621 253.591 138.852C253.324 139.084 253.012 139.2 252.656 139.2H242.256L241.615 136.928H251.666L251.159 137.409V136.74C251.123 136.117 250.918 135.573 250.544 135.11C250.169 134.628 249.706 134.263 249.154 134.014C248.601 133.746 248.022 133.613 247.416 133.613C246.881 133.613 246.364 133.702 245.865 133.88C245.384 134.04 244.948 134.308 244.555 134.682C244.181 135.056 243.878 135.555 243.647 136.179C243.433 136.785 243.326 137.542 243.326 138.451C243.326 139.431 243.531 140.287 243.941 141.018C244.351 141.748 244.903 142.319 245.598 142.729C246.293 143.121 247.059 143.317 247.897 143.317C248.557 143.317 249.1 143.254 249.528 143.13C249.956 142.987 250.312 142.818 250.597 142.622C250.882 142.426 251.132 142.238 251.346 142.06C251.613 141.9 251.88 141.82 252.148 141.82C252.468 141.82 252.736 141.935 252.95 142.167C253.164 142.381 253.27 142.639 253.27 142.942C253.27 143.335 253.074 143.691 252.682 144.012C252.201 144.475 251.533 144.885 250.677 145.241C249.84 145.598 248.958 145.776 248.031 145.776ZM139.08 159.796C140.024 159.796 140.897 160.054 141.699 160.571C142.501 161.07 143.143 161.756 143.624 162.629C144.105 163.503 144.346 164.483 144.346 165.57C144.346 166.657 144.105 167.646 143.624 168.537C143.143 169.411 142.501 170.115 141.699 170.649C140.897 171.166 140.024 171.425 139.08 171.425H133.92L134.134 170.997V177.145C134.134 177.537 134.009 177.867 133.76 178.135C133.528 178.384 133.216 178.509 132.824 178.509C132.45 178.509 132.138 178.384 131.888 178.135C131.657 177.867 131.541 177.537 131.541 177.145V161.159C131.541 160.767 131.675 160.446 131.942 160.197C132.209 159.929 132.53 159.796 132.904 159.796H139.08ZM139.08 168.858C139.543 168.858 139.962 168.707 140.336 168.404C140.728 168.101 141.04 167.7 141.272 167.201C141.521 166.702 141.646 166.158 141.646 165.57C141.646 164.982 141.521 164.447 141.272 163.966C141.04 163.485 140.728 163.102 140.336 162.817C139.962 162.514 139.543 162.362 139.08 162.362H133.867L134.134 161.961V169.206L133.893 168.858H139.08ZM160.515 171.478C160.515 172.904 160.203 174.169 159.579 175.274C158.955 176.361 158.109 177.217 157.039 177.84C155.97 178.464 154.767 178.776 153.43 178.776C152.094 178.776 150.891 178.464 149.821 177.84C148.752 177.217 147.897 176.361 147.255 175.274C146.631 174.169 146.319 172.904 146.319 171.478C146.319 170.034 146.631 168.769 147.255 167.682C147.897 166.577 148.752 165.713 149.821 165.089C150.891 164.447 152.094 164.126 153.43 164.126C154.767 164.126 155.97 164.447 157.039 165.089C158.109 165.713 158.955 166.577 159.579 167.682C160.203 168.769 160.515 170.034 160.515 171.478ZM157.841 171.478C157.841 170.498 157.645 169.651 157.253 168.938C156.861 168.208 156.326 167.637 155.649 167.227C154.99 166.8 154.25 166.586 153.43 166.586C152.611 166.586 151.862 166.8 151.185 167.227C150.508 167.637 149.973 168.208 149.581 168.938C149.189 169.651 148.993 170.498 148.993 171.478C148.993 172.423 149.189 173.26 149.581 173.991C149.973 174.722 150.508 175.292 151.185 175.702C151.862 176.112 152.611 176.317 153.43 176.317C154.25 176.317 154.99 176.112 155.649 175.702C156.326 175.292 156.861 174.722 157.253 173.991C157.645 173.26 157.841 172.423 157.841 171.478ZM164.877 178.509C164.485 178.509 164.164 178.384 163.915 178.135C163.665 177.867 163.54 177.537 163.54 177.145V165.811C163.54 165.419 163.665 165.098 163.915 164.848C164.164 164.581 164.485 164.447 164.877 164.447C165.251 164.447 165.563 164.581 165.813 164.848C166.08 165.098 166.214 165.419 166.214 165.811V168.805L165.946 167.655C166.089 167.156 166.303 166.693 166.588 166.265C166.891 165.837 167.247 165.463 167.657 165.142C168.067 164.822 168.522 164.572 169.021 164.394C169.538 164.216 170.072 164.126 170.625 164.126C171.088 164.126 171.489 164.251 171.828 164.501C172.166 164.75 172.336 165.062 172.336 165.436C172.336 165.918 172.211 166.274 171.961 166.506C171.712 166.72 171.436 166.826 171.133 166.826C170.865 166.826 170.607 166.773 170.357 166.666C170.108 166.541 169.814 166.479 169.475 166.479C169.101 166.479 168.718 166.577 168.326 166.773C167.934 166.969 167.577 167.263 167.256 167.655C166.936 168.029 166.677 168.475 166.481 168.992C166.303 169.509 166.214 170.088 166.214 170.729V177.145C166.214 177.537 166.08 177.867 165.813 178.135C165.563 178.384 165.251 178.509 164.877 178.509ZM174.527 164.608H180.809C181.166 164.608 181.46 164.732 181.691 164.982C181.941 165.214 182.066 165.508 182.066 165.864C182.066 166.203 181.941 166.488 181.691 166.72C181.46 166.951 181.166 167.067 180.809 167.067H174.527C174.17 167.067 173.868 166.951 173.618 166.72C173.386 166.47 173.27 166.176 173.27 165.837C173.27 165.481 173.386 165.187 173.618 164.955C173.868 164.723 174.17 164.608 174.527 164.608ZM177.334 161.132C177.726 161.132 178.047 161.266 178.296 161.533C178.546 161.783 178.671 162.104 178.671 162.496V174.9C178.671 175.221 178.724 175.479 178.831 175.675C178.938 175.871 179.08 176.005 179.259 176.076C179.455 176.147 179.651 176.183 179.847 176.183C180.043 176.183 180.212 176.147 180.355 176.076C180.515 176.005 180.702 175.969 180.916 175.969C181.13 175.969 181.326 176.067 181.504 176.263C181.682 176.459 181.772 176.727 181.772 177.065C181.772 177.493 181.54 177.84 181.076 178.108C180.613 178.375 180.114 178.509 179.579 178.509C179.276 178.509 178.92 178.482 178.51 178.429C178.1 178.375 177.699 178.241 177.307 178.028C176.933 177.814 176.621 177.475 176.371 177.012C176.122 176.531 175.997 175.862 175.997 175.007V162.496C175.997 162.104 176.122 161.783 176.371 161.533C176.639 161.266 176.96 161.132 177.334 161.132ZM196.548 164.233C196.94 164.233 197.261 164.367 197.51 164.634C197.76 164.884 197.885 165.205 197.885 165.597V177.145C197.885 177.537 197.76 177.867 197.51 178.135C197.261 178.384 196.94 178.509 196.548 178.509C196.174 178.509 195.853 178.384 195.586 178.135C195.336 177.867 195.211 177.537 195.211 177.145V175.221L195.773 175.301C195.773 175.622 195.639 175.978 195.372 176.37C195.122 176.762 194.775 177.145 194.329 177.52C193.884 177.876 193.358 178.179 192.752 178.429C192.146 178.66 191.495 178.776 190.8 178.776C189.571 178.776 188.466 178.464 187.486 177.84C186.505 177.199 185.73 176.326 185.16 175.221C184.589 174.116 184.304 172.859 184.304 171.451C184.304 170.008 184.589 168.742 185.16 167.655C185.73 166.55 186.496 165.686 187.459 165.062C188.439 164.438 189.526 164.126 190.72 164.126C191.487 164.126 192.191 164.251 192.832 164.501C193.492 164.75 194.062 165.071 194.543 165.463C195.024 165.855 195.39 166.274 195.639 166.72C195.906 167.147 196.04 167.557 196.04 167.949L195.211 168.029V165.597C195.211 165.223 195.336 164.902 195.586 164.634C195.853 164.367 196.174 164.233 196.548 164.233ZM191.094 176.317C191.932 176.317 192.672 176.103 193.313 175.675C193.955 175.247 194.454 174.668 194.81 173.937C195.167 173.189 195.345 172.36 195.345 171.451C195.345 170.525 195.167 169.696 194.81 168.965C194.454 168.234 193.955 167.655 193.313 167.227C192.672 166.8 191.932 166.586 191.094 166.586C190.275 166.586 189.544 166.8 188.902 167.227C188.279 167.655 187.78 168.234 187.405 168.965C187.049 169.696 186.871 170.525 186.871 171.451C186.871 172.36 187.049 173.189 187.405 173.937C187.78 174.668 188.279 175.247 188.902 175.675C189.544 176.103 190.275 176.317 191.094 176.317ZM204.517 177.145C204.517 177.537 204.383 177.867 204.116 178.135C203.866 178.384 203.555 178.509 203.18 178.509C202.806 178.509 202.485 178.384 202.218 178.135C201.968 177.867 201.844 177.537 201.844 177.145V160.09C201.844 159.698 201.977 159.377 202.245 159.127C202.512 158.86 202.833 158.726 203.207 158.726C203.599 158.726 203.911 158.86 204.143 159.127C204.392 159.377 204.517 159.698 204.517 160.09V177.145Z" fill="white"/>
<path d="M82.5045 217.345C82.2076 217.345 81.9552 217.248 81.7473 217.055C81.5542 216.847 81.4577 216.588 81.4577 216.276C81.4577 215.979 81.5542 215.741 81.7473 215.563C81.9552 215.37 82.2076 215.274 82.5045 215.274H91.6141C91.9111 215.274 92.1561 215.37 92.3491 215.563C92.557 215.756 92.6609 216.009 92.6609 216.32C92.6609 216.602 92.557 216.847 92.3491 217.055C92.1561 217.248 91.9111 217.345 91.6141 217.345H82.5045ZM87.0259 221.844C86.6844 221.844 86.3948 221.733 86.1573 221.51C85.9345 221.287 85.8232 220.998 85.8232 220.641V211.71C85.8232 211.368 85.942 211.086 86.1795 210.864C86.4171 210.641 86.7067 210.529 87.0482 210.529C87.4045 210.529 87.6867 210.641 87.8945 210.864C88.1173 211.086 88.2286 211.368 88.2286 211.71V220.641C88.2286 220.998 88.1173 221.287 87.8945 221.51C87.6718 221.733 87.3823 221.844 87.0259 221.844ZM99.5263 207.834C100.358 207.834 101.093 207.998 101.731 208.324C102.385 208.651 102.927 209.097 103.357 209.661C103.803 210.21 104.137 210.841 104.359 211.554C104.597 212.252 104.716 212.979 104.716 213.737C104.716 214.316 104.649 214.984 104.515 215.741C104.382 216.484 104.159 217.263 103.847 218.08C103.535 218.897 103.12 219.684 102.6 220.441C102.095 221.198 101.457 221.881 100.684 222.49C99.9272 223.084 99.0215 223.544 97.9672 223.871C97.8187 223.901 97.6777 223.915 97.544 223.915C97.2471 223.915 96.9798 223.834 96.7422 223.67C96.5195 223.507 96.4081 223.24 96.4081 222.869C96.4081 222.586 96.4972 222.349 96.6754 222.156C96.8536 221.963 97.0912 221.822 97.3881 221.733C98.1157 221.465 98.8284 221.057 99.5263 220.508C100.224 219.943 100.826 219.283 101.33 218.525C101.835 217.753 102.177 216.929 102.355 216.053L102.912 215.964C102.689 216.276 102.407 216.595 102.065 216.922C101.724 217.248 101.316 217.523 100.84 217.746C100.365 217.954 99.8159 218.058 99.1922 218.058C98.2271 218.058 97.3881 217.842 96.6754 217.412C95.9627 216.966 95.4133 216.357 95.0272 215.585C94.6412 214.813 94.4481 213.93 94.4481 212.935C94.4481 212.014 94.6708 211.168 95.1163 210.396C95.5766 209.624 96.1854 209.007 96.9427 208.547C97.7148 208.072 98.576 207.834 99.5263 207.834ZM99.5486 209.884C98.9992 209.884 98.5092 210.017 98.0786 210.284C97.648 210.552 97.3065 210.916 97.054 211.376C96.8016 211.836 96.6754 212.356 96.6754 212.935C96.6754 213.514 96.7868 214.041 97.0095 214.516C97.2322 214.977 97.5589 215.34 97.9895 215.608C98.4201 215.875 98.9249 216.009 99.504 216.009C100.083 216.009 100.595 215.875 101.041 215.608C101.486 215.326 101.835 214.947 102.088 214.472C102.34 213.997 102.466 213.477 102.466 212.913C102.466 212.348 102.34 211.844 102.088 211.398C101.835 210.938 101.494 210.574 101.063 210.307C100.633 210.025 100.128 209.884 99.5486 209.884ZM111.117 223.693C110.775 223.693 110.493 223.589 110.27 223.381C110.048 223.158 109.936 222.883 109.936 222.557V210.619L110.226 211.019L108.154 212.467C107.976 212.616 107.761 212.69 107.508 212.69C107.211 212.69 106.944 212.579 106.707 212.356C106.484 212.118 106.373 211.844 106.373 211.532C106.373 211.146 106.566 210.826 106.952 210.574L110.337 208.324C110.471 208.235 110.612 208.176 110.76 208.146C110.924 208.117 111.072 208.102 111.206 208.102C111.547 208.102 111.822 208.213 112.03 208.436C112.238 208.644 112.342 208.911 112.342 209.238V222.557C112.342 222.883 112.223 223.158 111.985 223.381C111.763 223.589 111.473 223.693 111.117 223.693ZM129.138 223.693C128.826 223.693 128.567 223.589 128.359 223.381C128.151 223.158 128.047 222.883 128.047 222.557V211.22L128.448 211.354L123.637 217.501L123.526 217.211H131.633C131.93 217.211 132.175 217.315 132.368 217.523C132.576 217.716 132.68 217.961 132.68 218.258C132.68 218.54 132.576 218.778 132.368 218.971C132.175 219.164 131.93 219.26 131.633 219.26H121.989C121.721 219.26 121.469 219.156 121.231 218.949C120.994 218.726 120.875 218.466 120.875 218.169C120.875 217.887 120.972 217.634 121.165 217.412L128.247 208.547C128.351 208.399 128.485 208.287 128.648 208.213C128.812 208.139 128.982 208.102 129.161 208.102C129.487 208.102 129.754 208.213 129.962 208.436C130.17 208.644 130.274 208.911 130.274 209.238V222.557C130.274 222.883 130.163 223.158 129.94 223.381C129.717 223.589 129.45 223.693 129.138 223.693ZM140.06 223.915C138.813 223.915 137.758 223.574 136.897 222.891C136.036 222.193 135.383 221.243 134.937 220.04C134.507 218.822 134.291 217.441 134.291 215.897C134.291 214.338 134.507 212.957 134.937 211.754C135.383 210.537 136.036 209.587 136.897 208.904C137.758 208.221 138.813 207.879 140.06 207.879C141.307 207.879 142.354 208.221 143.2 208.904C144.062 209.587 144.715 210.537 145.16 211.754C145.606 212.957 145.829 214.338 145.829 215.897C145.829 217.441 145.606 218.822 145.16 220.04C144.715 221.243 144.062 222.193 143.2 222.891C142.354 223.574 141.307 223.915 140.06 223.915ZM140.06 221.666C140.758 221.666 141.352 221.443 141.842 220.998C142.347 220.552 142.733 219.899 143 219.038C143.282 218.176 143.423 217.13 143.423 215.897C143.423 214.65 143.282 213.596 143 212.734C142.733 211.873 142.347 211.22 141.842 210.774C141.352 210.329 140.758 210.106 140.06 210.106C139.362 210.106 138.761 210.329 138.256 210.774C137.751 211.22 137.365 211.873 137.098 212.734C136.83 213.596 136.697 214.65 136.697 215.897C136.697 217.13 136.83 218.176 137.098 219.038C137.365 219.899 137.751 220.552 138.256 220.998C138.761 221.443 139.362 221.666 140.06 221.666ZM155.348 223.693C155.036 223.693 154.776 223.589 154.568 223.381C154.36 223.158 154.256 222.883 154.256 222.557V211.22L154.657 211.354L149.846 217.501L149.735 217.211H157.842C158.139 217.211 158.384 217.315 158.577 217.523C158.785 217.716 158.889 217.961 158.889 218.258C158.889 218.54 158.785 218.778 158.577 218.971C158.384 219.164 158.139 219.26 157.842 219.26H148.198C147.931 219.26 147.679 219.156 147.441 218.949C147.203 218.726 147.085 218.466 147.085 218.169C147.085 217.887 147.181 217.634 147.374 217.412L154.457 208.547C154.561 208.399 154.695 208.287 154.858 208.213C155.021 208.139 155.192 208.102 155.37 208.102C155.697 208.102 155.964 208.213 156.172 208.436C156.38 208.644 156.484 208.911 156.484 209.238V222.557C156.484 222.883 156.372 223.158 156.15 223.381C155.927 223.589 155.66 223.693 155.348 223.693ZM166.269 223.915C165.022 223.915 163.968 223.574 163.107 222.891C162.246 222.193 161.592 221.243 161.147 220.04C160.716 218.822 160.501 217.441 160.501 215.897C160.501 214.338 160.716 212.957 161.147 211.754C161.592 210.537 162.246 209.587 163.107 208.904C163.968 208.221 165.022 207.879 166.269 207.879C167.517 207.879 168.564 208.221 169.41 208.904C170.271 209.587 170.924 210.537 171.37 211.754C171.815 212.957 172.038 214.338 172.038 215.897C172.038 217.441 171.815 218.822 171.37 220.04C170.924 221.243 170.271 222.193 169.41 222.891C168.564 223.574 167.517 223.915 166.269 223.915ZM166.269 221.666C166.967 221.666 167.561 221.443 168.051 220.998C168.556 220.552 168.942 219.899 169.209 219.038C169.492 218.176 169.633 217.13 169.633 215.897C169.633 214.65 169.492 213.596 169.209 212.734C168.942 211.873 168.556 211.22 168.051 210.774C167.561 210.329 166.967 210.106 166.269 210.106C165.572 210.106 164.97 210.329 164.465 210.774C163.961 211.22 163.574 211.873 163.307 212.734C163.04 213.596 162.906 214.65 162.906 215.897C162.906 217.13 163.04 218.176 163.307 219.038C163.574 219.899 163.961 220.552 164.465 220.998C164.97 221.443 165.572 221.666 166.269 221.666ZM181.557 223.693C181.246 223.693 180.986 223.589 180.778 223.381C180.57 223.158 180.466 222.883 180.466 222.557V211.22L180.867 211.354L176.056 217.501L175.945 217.211H184.052C184.349 217.211 184.594 217.315 184.787 217.523C184.995 217.716 185.099 217.961 185.099 218.258C185.099 218.54 184.995 218.778 184.787 218.971C184.594 219.164 184.349 219.26 184.052 219.26H174.408C174.141 219.26 173.888 219.156 173.651 218.949C173.413 218.726 173.294 218.466 173.294 218.169C173.294 217.887 173.391 217.634 173.584 217.412L180.667 208.547C180.77 208.399 180.904 208.287 181.067 208.213C181.231 208.139 181.402 208.102 181.58 208.102C181.906 208.102 182.174 208.213 182.382 208.436C182.589 208.644 182.693 208.911 182.693 209.238V222.557C182.693 222.883 182.582 223.158 182.359 223.381C182.137 223.589 181.869 223.693 181.557 223.693ZM198.678 223.915C197.431 223.915 196.377 223.574 195.515 222.891C194.654 222.193 194.001 221.243 193.555 220.04C193.125 218.822 192.909 217.441 192.909 215.897C192.909 214.338 193.125 212.957 193.555 211.754C194.001 210.537 194.654 209.587 195.515 208.904C196.377 208.221 197.431 207.879 198.678 207.879C199.925 207.879 200.972 208.221 201.819 208.904C202.68 209.587 203.333 210.537 203.779 211.754C204.224 212.957 204.447 214.338 204.447 215.897C204.447 217.441 204.224 218.822 203.779 220.04C203.333 221.243 202.68 222.193 201.819 222.891C200.972 223.574 199.925 223.915 198.678 223.915ZM198.678 221.666C199.376 221.666 199.97 221.443 200.46 220.998C200.965 220.552 201.351 219.899 201.618 219.038C201.9 218.176 202.041 217.13 202.041 215.897C202.041 214.65 201.9 213.596 201.618 212.734C201.351 211.873 200.965 211.22 200.46 210.774C199.97 210.329 199.376 210.106 198.678 210.106C197.98 210.106 197.379 210.329 196.874 210.774C196.369 211.22 195.983 211.873 195.716 212.734C195.449 213.596 195.315 214.65 195.315 215.897C195.315 217.13 195.449 218.176 195.716 219.038C195.983 219.899 196.369 220.552 196.874 220.998C197.379 221.443 197.98 221.666 198.678 221.666ZM207.774 220.842C207.893 220.842 208.019 220.864 208.153 220.909C208.286 220.938 208.435 221.012 208.598 221.131C208.866 221.369 209.185 221.569 209.556 221.733C209.942 221.881 210.38 221.955 210.87 221.955C211.419 221.955 211.932 221.829 212.407 221.577C212.882 221.309 213.268 220.938 213.565 220.463C213.862 219.988 214.011 219.424 214.011 218.77C214.011 218.102 213.869 217.56 213.587 217.144C213.305 216.714 212.941 216.395 212.496 216.187C212.051 215.964 211.583 215.853 211.093 215.853C210.811 215.853 210.573 215.882 210.38 215.942C210.187 215.986 210.001 216.038 209.823 216.098C209.645 216.142 209.452 216.164 209.244 216.164C208.962 216.164 208.739 216.068 208.576 215.875C208.413 215.667 208.331 215.422 208.331 215.14C208.331 214.962 208.368 214.806 208.442 214.672C208.517 214.539 208.621 214.39 208.754 214.227L212.875 209.817L213.365 210.262H207.462C207.165 210.262 206.913 210.166 206.705 209.973C206.512 209.765 206.416 209.512 206.416 209.215C206.416 208.933 206.512 208.696 206.705 208.503C206.913 208.31 207.165 208.213 207.462 208.213H214.501C214.887 208.213 215.169 208.324 215.347 208.547C215.54 208.77 215.636 209.03 215.636 209.327C215.636 209.49 215.592 209.646 215.503 209.794C215.429 209.943 215.332 210.084 215.213 210.218L211.071 214.672L210.514 214.071C210.633 214.011 210.833 213.952 211.115 213.893C211.397 213.833 211.627 213.804 211.806 213.804C212.652 213.804 213.409 214.019 214.077 214.449C214.76 214.88 215.288 215.459 215.659 216.187C216.045 216.899 216.238 217.709 216.238 218.614C216.238 219.698 215.993 220.641 215.503 221.443C215.013 222.23 214.33 222.839 213.454 223.269C212.593 223.7 211.598 223.915 210.469 223.915C209.905 223.915 209.341 223.841 208.776 223.693C208.227 223.529 207.752 223.299 207.351 223.002C207.099 222.854 206.928 222.698 206.839 222.534C206.75 222.356 206.705 222.186 206.705 222.022C206.705 221.74 206.802 221.473 206.995 221.22C207.203 220.968 207.462 220.842 207.774 220.842ZM219.65 220.842C219.769 220.842 219.895 220.864 220.029 220.909C220.162 220.938 220.311 221.012 220.474 221.131C220.741 221.369 221.061 221.569 221.432 221.733C221.818 221.881 222.256 221.955 222.746 221.955C223.295 221.955 223.808 221.829 224.283 221.577C224.758 221.309 225.144 220.938 225.441 220.463C225.738 219.988 225.886 219.424 225.886 218.77C225.886 218.102 225.745 217.56 225.463 217.144C225.181 216.714 224.817 216.395 224.372 216.187C223.926 215.964 223.459 215.853 222.969 215.853C222.687 215.853 222.449 215.882 222.256 215.942C222.063 215.986 221.877 216.038 221.699 216.098C221.521 216.142 221.328 216.164 221.12 216.164C220.838 216.164 220.615 216.068 220.452 215.875C220.289 215.667 220.207 215.422 220.207 215.14C220.207 214.962 220.244 214.806 220.318 214.672C220.393 214.539 220.496 214.39 220.63 214.227L224.751 209.817L225.241 210.262H219.338C219.041 210.262 218.789 210.166 218.581 209.973C218.388 209.765 218.291 209.512 218.291 209.215C218.291 208.933 218.388 208.696 218.581 208.503C218.789 208.31 219.041 208.213 219.338 208.213H226.376C226.763 208.213 227.045 208.324 227.223 208.547C227.416 208.77 227.512 209.03 227.512 209.327C227.512 209.49 227.468 209.646 227.379 209.794C227.304 209.943 227.208 210.084 227.089 210.218L222.946 214.672L222.39 214.071C222.508 214.011 222.709 213.952 222.991 213.893C223.273 213.833 223.503 213.804 223.681 213.804C224.528 213.804 225.285 214.019 225.953 214.449C226.636 214.88 227.163 215.459 227.535 216.187C227.921 216.899 228.114 217.709 228.114 218.614C228.114 219.698 227.869 220.641 227.379 221.443C226.889 222.23 226.206 222.839 225.33 223.269C224.468 223.7 223.474 223.915 222.345 223.915C221.781 223.915 221.217 223.841 220.652 223.693C220.103 223.529 219.628 223.299 219.227 223.002C218.974 222.854 218.804 222.698 218.715 222.534C218.626 222.356 218.581 222.186 218.581 222.022C218.581 221.74 218.678 221.473 218.871 221.22C219.078 220.968 219.338 220.842 219.65 220.842ZM235.468 207.834C236.3 207.834 237.035 207.998 237.673 208.324C238.327 208.651 238.869 209.097 239.299 209.661C239.745 210.21 240.079 210.841 240.301 211.554C240.539 212.252 240.658 212.979 240.658 213.737C240.658 214.316 240.591 214.984 240.457 215.741C240.324 216.484 240.101 217.263 239.789 218.08C239.477 218.897 239.062 219.684 238.542 220.441C238.037 221.198 237.399 221.881 236.626 222.49C235.869 223.084 234.963 223.544 233.909 223.871C233.761 223.901 233.62 223.915 233.486 223.915C233.189 223.915 232.922 223.834 232.684 223.67C232.461 223.507 232.35 223.24 232.35 222.869C232.35 222.586 232.439 222.349 232.617 222.156C232.796 221.963 233.033 221.822 233.33 221.733C234.058 221.465 234.77 221.057 235.468 220.508C236.166 219.943 236.767 219.283 237.272 218.525C237.777 217.753 238.119 216.929 238.297 216.053L238.854 215.964C238.631 216.276 238.349 216.595 238.007 216.922C237.666 217.248 237.257 217.523 236.782 217.746C236.307 217.954 235.758 218.058 235.134 218.058C234.169 218.058 233.33 217.842 232.617 217.412C231.905 216.966 231.355 216.357 230.969 215.585C230.583 214.813 230.39 213.93 230.39 212.935C230.39 212.014 230.613 211.168 231.058 210.396C231.519 209.624 232.127 209.007 232.885 208.547C233.657 208.072 234.518 207.834 235.468 207.834ZM235.491 209.884C234.941 209.884 234.451 210.017 234.021 210.284C233.59 210.552 233.248 210.916 232.996 211.376C232.744 211.836 232.617 212.356 232.617 212.935C232.617 213.514 232.729 214.041 232.951 214.516C233.174 214.977 233.501 215.34 233.931 215.608C234.362 215.875 234.867 216.009 235.446 216.009C236.025 216.009 236.537 215.875 236.983 215.608C237.428 215.326 237.777 214.947 238.03 214.472C238.282 213.997 238.408 213.477 238.408 212.913C238.408 212.348 238.282 211.844 238.03 211.398C237.777 210.938 237.436 210.574 237.005 210.307C236.574 210.025 236.07 209.884 235.491 209.884ZM250.245 215.808L250.178 215.407C250.727 215.63 251.21 215.942 251.626 216.343C252.041 216.729 252.361 217.167 252.583 217.657C252.821 218.147 252.94 218.659 252.94 219.194C252.94 220.025 252.709 220.79 252.249 221.488C251.804 222.171 251.195 222.72 250.423 223.136C249.666 223.537 248.819 223.737 247.884 223.737C246.933 223.737 246.072 223.537 245.3 223.136C244.543 222.72 243.934 222.171 243.474 221.488C243.028 220.79 242.806 220.025 242.806 219.194C242.806 218.525 242.947 217.939 243.229 217.434C243.511 216.929 243.867 216.506 244.298 216.164C244.728 215.823 245.166 215.541 245.612 215.318L245.456 215.808C245.085 215.645 244.721 215.422 244.365 215.14C244.023 214.843 243.741 214.472 243.518 214.026C243.296 213.581 243.184 213.069 243.184 212.489C243.184 211.673 243.392 210.938 243.808 210.284C244.224 209.616 244.788 209.089 245.501 208.703C246.213 208.302 247.008 208.102 247.884 208.102C248.76 208.102 249.547 208.302 250.245 208.703C250.943 209.089 251.499 209.616 251.915 210.284C252.331 210.938 252.539 211.673 252.539 212.489C252.539 213.113 252.42 213.648 252.182 214.093C251.945 214.524 251.648 214.88 251.291 215.162C250.935 215.444 250.586 215.66 250.245 215.808ZM245.411 212.534C245.411 212.994 245.523 213.403 245.746 213.759C245.968 214.115 246.265 214.397 246.636 214.605C247.008 214.813 247.423 214.917 247.884 214.917C248.329 214.917 248.738 214.813 249.109 214.605C249.48 214.397 249.769 214.115 249.977 213.759C250.2 213.403 250.311 212.994 250.311 212.534C250.311 211.836 250.081 211.264 249.621 210.819C249.161 210.374 248.582 210.151 247.884 210.151C247.156 210.151 246.562 210.374 246.102 210.819C245.642 211.264 245.411 211.836 245.411 212.534ZM247.884 221.688C248.686 221.688 249.354 221.451 249.888 220.975C250.438 220.485 250.712 219.884 250.712 219.171C250.712 218.681 250.586 218.243 250.334 217.857C250.081 217.471 249.74 217.167 249.309 216.944C248.879 216.721 248.403 216.61 247.884 216.61C247.364 216.61 246.889 216.721 246.458 216.944C246.028 217.167 245.686 217.471 245.434 217.857C245.181 218.243 245.055 218.681 245.055 219.171C245.055 219.884 245.322 220.485 245.857 220.975C246.391 221.451 247.067 221.688 247.884 221.688Z" fill="#57D76A"/>
<rect x="128.276" y="22.5039" width="79.4469" height="23.4434" rx="11.7217" fill="black"/>
<circle cx="196.002" cy="34.2256" r="3.90723" fill="#0E101F"/>
<circle cx="196.002" cy="34.2256" r="3.19682" fill="#01031A"/>
<g filter="url(#filter0_f_51_429)">
<ellipse cx="196.002" cy="32.4494" rx="1.77601" ry="0.710405" fill="white" fill-opacity="0.1"/>
</g>
<g filter="url(#filter1_f_51_429)">
<ellipse cx="196.002" cy="35.6467" rx="1.77601" ry="1.06561" fill="white" fill-opacity="0.1"/>
</g>
<defs>
<filter id="filter0_f_51_429" x="193.574" y="31.0878" width="4.85465" height="2.72331" filterUnits="userSpaceOnUse" color-interpolation-filters="sRGB">
<feFlood flood-opacity="0" result="BackgroundImageFix"/>
<feBlend mode="normal" in="SourceGraphic" in2="BackgroundImageFix" result="shape"/>
<feGaussianBlur stdDeviation="0.325602" result="effect1_foregroundBlur_51_429"/>
</filter>
<filter id="filter1_f_51_429" x="193.574" y="33.9299" width="4.85465" height="3.43351" filterUnits="userSpaceOnUse" color-interpolation-filters="sRGB">
<feFlood flood-opacity="0" result="BackgroundImageFix"/>
<feBlend mode="normal" in="SourceGraphic" in2="BackgroundImageFix" result="shape"/>
<feGaussianBlur stdDeviation="0.325602" result="effect1_foregroundBlur_51_429"/>
</filter>
<clipPath id="clip0_51_429">
<rect width="59.9708" height="60" fill="white" transform="translate(52 507.504)"/>
</clipPath>
<clipPath id="clip1_51_429">
<rect width="59.9708" height="60" fill="white" transform="translate(224.029 507.504)"/>
</clipPath>
</defs>
</svg>
