<svg width="336" height="626" viewBox="0 0 336 626" fill="none" xmlns="http://www.w3.org/2000/svg">
<rect x="3" y="3.49609" width="330" height="619" rx="57" fill="#212121"/>
<rect x="3" y="3.49609" width="330" height="619" rx="57" stroke="black" stroke-width="6"/>
<g clip-path="url(#clip0_1653_2859)">
<path d="M81.9854 568C86.0815 568 89.9374 567.216 93.5532 565.648C97.1692 564.08 100.359 561.915 103.122 559.151C105.885 556.388 108.051 553.198 109.619 549.583C111.187 545.967 111.971 542.111 111.971 538.015C111.971 533.919 111.187 530.063 109.619 526.447C108.051 522.831 105.885 519.641 103.122 516.878C100.359 514.115 97.1643 511.949 93.5385 510.381C89.9129 508.813 86.052 508.029 81.956 508.029C77.8599 508.029 74.004 508.813 70.3881 510.381C66.7722 511.949 63.5875 514.115 60.8339 516.878C58.0804 519.641 55.9197 522.831 54.3518 526.447C52.7839 530.063 52 533.919 52 538.015C52 542.111 52.7839 545.967 54.3518 549.583C55.9197 553.198 58.0853 556.388 60.8486 559.151C63.612 561.915 66.8016 564.08 70.4175 565.648C74.0334 567.216 77.8893 568 81.9854 568Z" fill="#F35242"/>
<path d="M65.333 540.714V540.448C65.333 538.79 65.8154 537.345 66.7802 536.113C67.745 534.881 69.0341 533.862 70.6474 533.057C72.2606 532.252 74.0518 531.652 76.021 531.258C77.9901 530.863 79.9791 530.666 81.9878 530.666C83.9965 530.666 85.9894 530.863 87.9665 531.258C89.9435 531.652 91.7387 532.252 93.352 533.057C94.9653 533.862 96.2543 534.881 97.2191 536.113C98.1839 537.345 98.6663 538.79 98.6663 540.448V540.714C98.6663 541.326 98.5635 541.882 98.3578 542.381C98.1523 542.88 97.8478 543.275 97.4443 543.565C97.0411 543.854 96.5231 543.999 95.8905 543.999C95.2104 543.999 94.4275 543.955 93.5417 543.867C92.656 543.778 91.5251 543.516 90.1491 543.081C89.3582 542.84 88.7849 542.498 88.429 542.055C88.0732 541.612 87.8874 540.948 87.8715 540.062L87.8241 538.516C87.8241 538.242 87.658 538.041 87.3258 537.912C86.9146 537.784 86.2464 537.651 85.3211 537.514C84.3958 537.377 83.2847 537.309 81.9878 537.309C80.6908 537.309 79.5797 537.377 78.6545 537.514C77.7292 537.651 77.0688 537.784 76.6734 537.912C76.3255 538.041 76.1515 538.242 76.1515 538.516L76.1278 540.062C76.1119 540.948 75.9221 541.612 75.5584 542.055C75.1946 542.498 74.6173 542.84 73.8265 543.081C72.4504 543.516 71.3235 543.778 70.4457 543.867C69.5679 543.955 68.781 543.999 68.0851 543.999C67.4682 543.999 66.9581 543.854 66.5548 543.565C66.1515 543.275 65.847 542.88 65.6414 542.381C65.4358 541.882 65.333 541.326 65.333 540.714Z" fill="white"/>
</g>
<g clip-path="url(#clip1_1653_2859)">
<path d="M254.015 568C258.111 568 261.967 567.216 265.583 565.648C269.198 564.08 272.388 561.915 275.151 559.151C277.915 556.388 280.08 553.198 281.648 549.583C283.216 545.967 284 542.111 284 538.015C284 533.919 283.216 530.063 281.648 526.447C280.08 522.831 277.915 519.641 275.151 516.878C272.388 514.115 269.194 511.949 265.568 510.381C261.942 508.813 258.081 508.029 253.985 508.029C249.889 508.029 246.033 508.813 242.417 510.381C238.801 511.949 235.617 514.115 232.863 516.878C230.11 519.641 227.949 522.831 226.381 526.447C224.813 530.063 224.029 533.919 224.029 538.015C224.029 542.111 224.813 545.967 226.381 549.583C227.949 553.198 230.115 556.388 232.878 559.151C235.641 561.915 238.831 564.08 242.447 565.648C246.063 567.216 249.919 568 254.015 568Z" fill="#57D76A"/>
<path d="M247.614 544.389C246.057 542.827 244.676 541.188 243.474 539.471C242.271 537.753 241.363 536.045 240.748 534.344C240.134 532.644 239.913 531.031 240.086 529.505C240.259 527.978 240.934 526.616 242.111 525.419C242.146 525.385 242.193 525.337 242.254 525.276C242.314 525.215 242.388 525.168 242.474 525.133C243.063 524.682 243.634 524.361 244.188 524.17C244.741 523.979 245.256 523.949 245.732 524.079C246.208 524.209 246.636 524.534 247.017 525.055L250.314 529.739C250.867 530.519 251.097 531.192 251.001 531.755C250.906 532.319 250.556 532.922 249.95 533.564L248.912 534.657C248.739 534.848 248.665 535.047 248.691 535.255C248.717 535.463 248.773 535.646 248.86 535.802C249.119 536.253 249.552 536.851 250.158 537.597C250.763 538.343 251.43 539.08 252.156 539.809C252.918 540.572 253.658 541.249 254.376 541.839C255.094 542.428 255.687 542.862 256.154 543.14C256.344 543.244 256.556 543.3 256.79 543.309C257.024 543.317 257.218 543.252 257.374 543.114L258.412 542.047C259.018 541.44 259.606 541.088 260.177 540.993C260.748 540.898 261.432 541.127 262.228 541.683C262.955 542.186 263.595 542.637 264.149 543.036C264.703 543.435 265.209 543.794 265.667 544.115C266.126 544.436 266.563 544.744 266.978 545.039C267.757 545.629 268.103 546.332 268.016 547.147C267.93 547.962 267.584 548.717 266.978 549.411C266.909 549.498 266.84 549.584 266.77 549.671C266.701 549.758 266.623 549.844 266.537 549.931C265.36 551.111 264.01 551.783 262.488 551.948C260.965 552.113 259.355 551.887 257.66 551.271C255.964 550.655 254.259 549.745 252.546 548.539C250.833 547.333 249.189 545.95 247.614 544.389Z" fill="white"/>
</g>
<path d="M84.3862 127.265C84.6 127.265 84.8228 127.319 85.0545 127.425C85.2862 127.532 85.4644 127.684 85.5891 127.88L92.3793 138.226L91.2298 138.172L98.1536 127.88C98.4388 127.47 98.8041 127.265 99.2497 127.265C99.6061 127.265 99.918 127.399 100.185 127.666C100.47 127.916 100.613 128.236 100.613 128.628V144.642C100.613 145.034 100.488 145.363 100.239 145.631C99.9893 145.88 99.6596 146.005 99.2497 146.005C98.822 146.005 98.4744 145.88 98.2071 145.631C97.9576 145.363 97.8328 145.034 97.8328 144.642V131.088L98.6883 131.275L92.807 140.231C92.6823 140.391 92.5219 140.534 92.3258 140.658C92.1298 140.765 91.9248 140.81 91.711 140.792C91.5149 140.81 91.31 140.765 91.0961 140.658C90.9001 140.534 90.7397 140.391 90.6149 140.231L84.9475 131.409L85.5891 130.339V144.642C85.5891 145.034 85.4644 145.363 85.2149 145.631C84.9832 145.88 84.6713 146.005 84.2792 146.005C83.905 146.005 83.5931 145.88 83.3436 145.631C83.1119 145.363 82.996 145.034 82.996 144.642V128.628C82.996 128.254 83.1297 127.933 83.397 127.666C83.6822 127.399 84.0119 127.265 84.3862 127.265ZM112.864 127.292C114.165 127.292 115.314 127.541 116.312 128.04C117.31 128.522 118.139 129.199 118.799 130.072C119.476 130.927 119.984 131.926 120.322 133.066C120.661 134.189 120.83 135.383 120.83 136.648C120.83 138.377 120.527 139.954 119.921 141.38C119.315 142.788 118.424 143.911 117.248 144.748C116.072 145.586 114.61 146.005 112.864 146.005H106.341C105.967 146.005 105.646 145.88 105.379 145.631C105.111 145.363 104.978 145.034 104.978 144.642V128.655C104.978 128.263 105.111 127.942 105.379 127.693C105.646 127.425 105.967 127.292 106.341 127.292H112.864ZM112.597 143.439C113.862 143.439 114.887 143.127 115.671 142.503C116.455 141.879 117.025 141.059 117.382 140.043C117.756 139.01 117.943 137.878 117.943 136.648C117.943 135.739 117.836 134.884 117.622 134.082C117.426 133.262 117.106 132.54 116.66 131.917C116.232 131.275 115.68 130.776 115.003 130.42C114.343 130.045 113.541 129.858 112.597 129.858H107.544L107.785 129.618V143.706L107.624 143.439H112.597ZM125.53 146.005C125.103 146.005 124.755 145.88 124.488 145.631C124.238 145.363 124.114 145.034 124.114 144.642V128.655C124.114 128.263 124.247 127.942 124.515 127.693C124.782 127.425 125.103 127.292 125.477 127.292H134.513C134.905 127.292 135.226 127.417 135.475 127.666C135.742 127.916 135.876 128.227 135.876 128.602C135.876 128.94 135.742 129.234 135.475 129.484C135.226 129.733 134.905 129.858 134.513 129.858H126.707L126.894 129.591V135.552L126.733 135.231H133.31C133.702 135.231 134.023 135.356 134.272 135.606C134.54 135.855 134.673 136.167 134.673 136.541C134.673 136.88 134.54 137.174 134.272 137.424C134.023 137.673 133.702 137.798 133.31 137.798H126.68L126.894 137.584V144.642C126.894 145.034 126.76 145.363 126.493 145.631C126.226 145.88 125.905 146.005 125.53 146.005ZM152.228 128.361C152.62 128.557 152.843 128.86 152.897 129.27C152.968 129.68 152.87 130.054 152.603 130.393C152.407 130.66 152.148 130.812 151.827 130.847C151.524 130.883 151.221 130.821 150.918 130.66C150.402 130.393 149.858 130.179 149.288 130.019C148.717 129.858 148.112 129.778 147.47 129.778C146.454 129.778 145.536 129.947 144.716 130.286C143.914 130.607 143.219 131.079 142.631 131.703C142.043 132.309 141.589 133.03 141.268 133.868C140.965 134.706 140.813 135.632 140.813 136.648C140.813 137.771 140.983 138.769 141.321 139.642C141.66 140.498 142.123 141.229 142.711 141.835C143.317 142.423 144.021 142.868 144.823 143.171C145.643 143.456 146.525 143.599 147.47 143.599C148.076 143.599 148.664 143.528 149.234 143.385C149.822 143.242 150.375 143.029 150.892 142.743C151.213 142.583 151.524 142.53 151.827 142.583C152.148 142.619 152.407 142.77 152.603 143.038C152.906 143.412 153.013 143.795 152.923 144.187C152.852 144.561 152.629 144.846 152.255 145.042C151.81 145.292 151.319 145.506 150.785 145.684C150.25 145.862 149.707 146.005 149.154 146.112C148.602 146.219 148.04 146.272 147.47 146.272C146.187 146.272 144.975 146.058 143.834 145.631C142.694 145.203 141.678 144.579 140.787 143.759C139.896 142.94 139.192 141.933 138.675 140.738C138.176 139.544 137.926 138.181 137.926 136.648C137.926 135.276 138.158 134.011 138.621 132.852C139.102 131.676 139.771 130.669 140.626 129.831C141.5 128.976 142.515 128.317 143.674 127.853C144.832 127.372 146.098 127.131 147.47 127.131C148.325 127.131 149.154 127.238 149.956 127.452C150.776 127.666 151.533 127.969 152.228 128.361ZM169.125 146.272C167.842 146.272 166.702 146.094 165.703 145.738C164.705 145.381 163.752 144.793 162.843 143.973C162.647 143.831 162.496 143.661 162.389 143.465C162.299 143.251 162.255 143.038 162.255 142.824C162.255 142.485 162.38 142.182 162.629 141.915C162.879 141.647 163.191 141.514 163.565 141.514C163.85 141.514 164.117 141.612 164.367 141.808C165.044 142.432 165.748 142.904 166.479 143.225C167.227 143.545 168.101 143.706 169.099 143.706C169.811 143.706 170.462 143.59 171.05 143.358C171.656 143.127 172.137 142.815 172.494 142.423C172.85 142.031 173.028 141.576 173.028 141.059C173.028 140.418 172.841 139.892 172.467 139.482C172.11 139.054 171.585 138.707 170.89 138.439C170.212 138.154 169.393 137.914 168.43 137.718C167.539 137.557 166.737 137.334 166.024 137.049C165.329 136.764 164.732 136.408 164.233 135.98C163.734 135.534 163.351 135.009 163.084 134.403C162.816 133.797 162.683 133.093 162.683 132.291C162.683 131.204 162.968 130.268 163.538 129.484C164.108 128.7 164.884 128.094 165.864 127.666C166.844 127.238 167.949 127.024 169.179 127.024C170.302 127.024 171.353 127.203 172.333 127.559C173.313 127.898 174.107 128.361 174.712 128.949C175.14 129.324 175.354 129.725 175.354 130.152C175.354 130.473 175.22 130.776 174.953 131.061C174.704 131.328 174.41 131.462 174.071 131.462C173.821 131.462 173.608 131.391 173.429 131.248C173.144 130.945 172.761 130.678 172.28 130.446C171.799 130.197 171.282 129.992 170.729 129.831C170.195 129.671 169.678 129.591 169.179 129.591C168.377 129.591 167.691 129.707 167.12 129.938C166.55 130.152 166.113 130.455 165.81 130.847C165.507 131.222 165.356 131.667 165.356 132.184C165.356 132.79 165.525 133.289 165.864 133.681C166.22 134.073 166.71 134.394 167.334 134.643C167.958 134.875 168.671 135.089 169.473 135.285C170.453 135.499 171.326 135.739 172.093 136.007C172.877 136.274 173.536 136.622 174.071 137.049C174.606 137.459 175.015 137.976 175.301 138.6C175.586 139.224 175.728 139.999 175.728 140.926C175.728 141.995 175.425 142.931 174.819 143.733C174.213 144.535 173.411 145.158 172.413 145.604C171.433 146.049 170.337 146.272 169.125 146.272ZM185.271 146.272C183.792 146.272 182.509 145.969 181.421 145.363C180.334 144.74 179.488 143.893 178.882 142.824C178.294 141.737 178 140.498 178 139.108C178 137.539 178.311 136.203 178.935 135.098C179.577 133.975 180.406 133.12 181.421 132.531C182.437 131.926 183.515 131.623 184.656 131.623C185.529 131.623 186.358 131.801 187.142 132.157C187.926 132.496 188.621 132.977 189.227 133.601C189.851 134.207 190.341 134.929 190.698 135.766C191.054 136.586 191.241 137.486 191.259 138.466C191.241 138.823 191.099 139.117 190.831 139.348C190.564 139.58 190.252 139.696 189.896 139.696H179.497L178.855 137.424H188.907L188.399 137.905V137.236C188.363 136.613 188.158 136.069 187.784 135.606C187.41 135.125 186.946 134.759 186.394 134.51C185.841 134.242 185.262 134.109 184.656 134.109C184.121 134.109 183.605 134.198 183.106 134.376C182.624 134.536 182.188 134.804 181.796 135.178C181.421 135.552 181.118 136.051 180.887 136.675C180.673 137.281 180.566 138.038 180.566 138.947C180.566 139.928 180.771 140.783 181.181 141.514C181.591 142.244 182.143 142.815 182.838 143.225C183.533 143.617 184.3 143.813 185.137 143.813C185.797 143.813 186.34 143.75 186.768 143.626C187.196 143.483 187.552 143.314 187.837 143.118C188.122 142.922 188.372 142.735 188.586 142.556C188.853 142.396 189.121 142.316 189.388 142.316C189.709 142.316 189.976 142.432 190.19 142.663C190.404 142.877 190.511 143.136 190.511 143.439C190.511 143.831 190.315 144.187 189.922 144.508C189.441 144.971 188.773 145.381 187.918 145.738C187.08 146.094 186.198 146.272 185.271 146.272ZM195.617 146.005C195.225 146.005 194.905 145.88 194.655 145.631C194.406 145.363 194.281 145.034 194.281 144.642V133.307C194.281 132.915 194.406 132.594 194.655 132.344C194.905 132.077 195.225 131.943 195.617 131.943C195.992 131.943 196.304 132.077 196.553 132.344C196.82 132.594 196.954 132.915 196.954 133.307V136.301L196.687 135.151C196.829 134.652 197.043 134.189 197.328 133.761C197.631 133.333 197.988 132.959 198.398 132.638C198.808 132.318 199.262 132.068 199.761 131.89C200.278 131.712 200.813 131.623 201.365 131.623C201.828 131.623 202.229 131.747 202.568 131.997C202.907 132.246 203.076 132.558 203.076 132.932C203.076 133.414 202.951 133.77 202.702 134.002C202.452 134.216 202.176 134.323 201.873 134.323C201.606 134.323 201.347 134.269 201.098 134.162C200.848 134.037 200.554 133.975 200.216 133.975C199.841 133.975 199.458 134.073 199.066 134.269C198.674 134.465 198.317 134.759 197.997 135.151C197.676 135.526 197.417 135.971 197.221 136.488C197.043 137.005 196.954 137.584 196.954 138.226V144.642C196.954 145.034 196.82 145.363 196.553 145.631C196.304 145.88 195.992 146.005 195.617 146.005ZM207.107 131.81C207.374 131.81 207.623 131.881 207.855 132.024C208.105 132.166 208.283 132.38 208.39 132.665L212.587 142.369L212.079 142.61L216.329 132.692C216.579 132.104 216.98 131.819 217.532 131.836C217.889 131.836 218.183 131.952 218.415 132.184C218.664 132.398 218.789 132.683 218.789 133.039C218.789 133.146 218.771 133.262 218.735 133.387C218.7 133.494 218.655 133.601 218.602 133.708L213.522 145.149C213.291 145.684 212.908 145.969 212.373 146.005C212.106 146.041 211.838 145.987 211.571 145.844C211.321 145.684 211.125 145.452 210.983 145.149L205.93 133.708C205.895 133.636 205.859 133.547 205.823 133.44C205.788 133.316 205.77 133.173 205.77 133.013C205.77 132.745 205.886 132.478 206.117 132.211C206.367 131.943 206.697 131.81 207.107 131.81ZM224.023 144.642C224.023 145.034 223.898 145.363 223.648 145.631C223.399 145.88 223.078 146.005 222.686 146.005C222.312 146.005 221.991 145.88 221.724 145.631C221.474 145.363 221.349 145.034 221.349 144.642V133.2C221.349 132.808 221.474 132.487 221.724 132.237C221.991 131.97 222.312 131.836 222.686 131.836C223.078 131.836 223.399 131.97 223.648 132.237C223.898 132.487 224.023 132.808 224.023 133.2V144.642ZM222.659 130.072C222.142 130.072 221.768 129.983 221.537 129.805C221.305 129.609 221.189 129.288 221.189 128.842V128.415C221.189 127.969 221.314 127.657 221.563 127.479C221.813 127.301 222.187 127.212 222.686 127.212C223.221 127.212 223.604 127.31 223.836 127.506C224.067 127.684 224.183 127.987 224.183 128.415V128.842C224.183 129.306 224.058 129.626 223.809 129.805C223.577 129.983 223.194 130.072 222.659 130.072ZM233.847 131.623C234.81 131.623 235.665 131.729 236.414 131.943C237.162 132.139 237.742 132.425 238.152 132.799C238.579 133.155 238.793 133.574 238.793 134.055C238.793 134.358 238.704 134.643 238.526 134.911C238.348 135.16 238.08 135.285 237.724 135.285C237.474 135.285 237.26 135.24 237.082 135.151C236.922 135.062 236.77 134.955 236.628 134.83C236.485 134.706 236.307 134.581 236.093 134.456C235.897 134.349 235.603 134.26 235.211 134.189C234.837 134.118 234.498 134.082 234.195 134.082C233.25 134.082 232.431 134.296 231.736 134.724C231.058 135.151 230.524 135.731 230.132 136.461C229.757 137.192 229.57 138.021 229.57 138.947C229.57 139.874 229.757 140.703 230.132 141.434C230.524 142.164 231.049 142.743 231.709 143.171C232.386 143.599 233.17 143.813 234.061 143.813C234.596 143.813 235.033 143.777 235.371 143.706C235.71 143.617 236.004 143.51 236.253 143.385C236.521 143.225 236.744 143.064 236.922 142.904C237.118 142.726 237.385 142.637 237.724 142.637C238.116 142.637 238.41 142.761 238.606 143.011C238.82 143.242 238.927 143.537 238.927 143.893C238.927 144.285 238.686 144.668 238.205 145.042C237.742 145.399 237.118 145.693 236.334 145.925C235.549 146.156 234.685 146.272 233.741 146.272C232.35 146.272 231.139 145.951 230.105 145.31C229.089 144.668 228.296 143.795 227.726 142.69C227.173 141.585 226.897 140.337 226.897 138.947C226.897 137.539 227.191 136.292 227.779 135.205C228.367 134.1 229.187 133.227 230.239 132.585C231.29 131.943 232.493 131.623 233.847 131.623ZM248.031 146.272C246.552 146.272 245.268 145.969 244.181 145.363C243.094 144.74 242.248 143.893 241.642 142.824C241.053 141.737 240.759 140.498 240.759 139.108C240.759 137.539 241.071 136.203 241.695 135.098C242.337 133.975 243.165 133.12 244.181 132.531C245.197 131.926 246.275 131.623 247.416 131.623C248.289 131.623 249.118 131.801 249.902 132.157C250.686 132.496 251.381 132.977 251.987 133.601C252.611 134.207 253.101 134.929 253.458 135.766C253.814 136.586 254.001 137.486 254.019 138.466C254.001 138.823 253.859 139.117 253.591 139.348C253.324 139.58 253.012 139.696 252.656 139.696H242.256L241.615 137.424H251.666L251.159 137.905V137.236C251.123 136.613 250.918 136.069 250.544 135.606C250.169 135.125 249.706 134.759 249.154 134.51C248.601 134.242 248.022 134.109 247.416 134.109C246.881 134.109 246.364 134.198 245.865 134.376C245.384 134.536 244.948 134.804 244.555 135.178C244.181 135.552 243.878 136.051 243.647 136.675C243.433 137.281 243.326 138.038 243.326 138.947C243.326 139.928 243.531 140.783 243.941 141.514C244.351 142.244 244.903 142.815 245.598 143.225C246.293 143.617 247.059 143.813 247.897 143.813C248.557 143.813 249.1 143.75 249.528 143.626C249.956 143.483 250.312 143.314 250.597 143.118C250.882 142.922 251.132 142.735 251.346 142.556C251.613 142.396 251.88 142.316 252.148 142.316C252.468 142.316 252.736 142.432 252.95 142.663C253.164 142.877 253.27 143.136 253.27 143.439C253.27 143.831 253.074 144.187 252.682 144.508C252.201 144.971 251.533 145.381 250.677 145.738C249.84 146.094 248.958 146.272 248.031 146.272ZM139.08 160.292C140.024 160.292 140.897 160.55 141.699 161.067C142.501 161.566 143.143 162.252 143.624 163.125C144.105 163.999 144.346 164.979 144.346 166.066C144.346 167.153 144.105 168.142 143.624 169.033C143.143 169.907 142.501 170.611 141.699 171.145C140.897 171.662 140.024 171.921 139.08 171.921H133.92L134.134 171.493V177.642C134.134 178.034 134.009 178.363 133.76 178.631C133.528 178.88 133.216 179.005 132.824 179.005C132.45 179.005 132.138 178.88 131.888 178.631C131.657 178.363 131.541 178.034 131.541 177.642V161.655C131.541 161.263 131.675 160.942 131.942 160.693C132.209 160.425 132.53 160.292 132.904 160.292H139.08ZM139.08 169.354C139.543 169.354 139.962 169.203 140.336 168.9C140.728 168.597 141.04 168.196 141.272 167.697C141.521 167.198 141.646 166.654 141.646 166.066C141.646 165.478 141.521 164.943 141.272 164.462C141.04 163.981 140.728 163.598 140.336 163.313C139.962 163.01 139.543 162.858 139.08 162.858H133.867L134.134 162.457V169.702L133.893 169.354H139.08ZM160.515 171.974C160.515 173.4 160.203 174.665 159.579 175.77C158.955 176.857 158.109 177.713 157.039 178.337C155.97 178.96 154.767 179.272 153.43 179.272C152.094 179.272 150.891 178.96 149.821 178.337C148.752 177.713 147.897 176.857 147.255 175.77C146.631 174.665 146.319 173.4 146.319 171.974C146.319 170.531 146.631 169.265 147.255 168.178C147.897 167.073 148.752 166.209 149.821 165.585C150.891 164.943 152.094 164.623 153.43 164.623C154.767 164.623 155.97 164.943 157.039 165.585C158.109 166.209 158.955 167.073 159.579 168.178C160.203 169.265 160.515 170.531 160.515 171.974ZM157.841 171.974C157.841 170.994 157.645 170.147 157.253 169.434C156.861 168.704 156.326 168.133 155.649 167.724C154.99 167.296 154.25 167.082 153.43 167.082C152.611 167.082 151.862 167.296 151.185 167.724C150.508 168.133 149.973 168.704 149.581 169.434C149.189 170.147 148.993 170.994 148.993 171.974C148.993 172.919 149.189 173.756 149.581 174.487C149.973 175.218 150.508 175.788 151.185 176.198C151.862 176.608 152.611 176.813 153.43 176.813C154.25 176.813 154.99 176.608 155.649 176.198C156.326 175.788 156.861 175.218 157.253 174.487C157.645 173.756 157.841 172.919 157.841 171.974ZM164.877 179.005C164.485 179.005 164.164 178.88 163.915 178.631C163.665 178.363 163.54 178.034 163.54 177.642V166.307C163.54 165.915 163.665 165.594 163.915 165.344C164.164 165.077 164.485 164.943 164.877 164.943C165.251 164.943 165.563 165.077 165.813 165.344C166.08 165.594 166.214 165.915 166.214 166.307V169.301L165.946 168.151C166.089 167.652 166.303 167.189 166.588 166.761C166.891 166.333 167.247 165.959 167.657 165.638C168.067 165.318 168.522 165.068 169.021 164.89C169.538 164.712 170.072 164.623 170.625 164.623C171.088 164.623 171.489 164.747 171.828 164.997C172.166 165.246 172.336 165.558 172.336 165.932C172.336 166.414 172.211 166.77 171.961 167.002C171.712 167.216 171.436 167.323 171.133 167.323C170.865 167.323 170.607 167.269 170.357 167.162C170.108 167.037 169.814 166.975 169.475 166.975C169.101 166.975 168.718 167.073 168.326 167.269C167.934 167.465 167.577 167.759 167.256 168.151C166.936 168.526 166.677 168.971 166.481 169.488C166.303 170.005 166.214 170.584 166.214 171.226V177.642C166.214 178.034 166.08 178.363 165.813 178.631C165.563 178.88 165.251 179.005 164.877 179.005ZM174.527 165.104H180.809C181.166 165.104 181.46 165.228 181.691 165.478C181.941 165.71 182.066 166.004 182.066 166.36C182.066 166.699 181.941 166.984 181.691 167.216C181.46 167.447 181.166 167.563 180.809 167.563H174.527C174.17 167.563 173.868 167.447 173.618 167.216C173.386 166.966 173.27 166.672 173.27 166.333C173.27 165.977 173.386 165.683 173.618 165.451C173.868 165.22 174.17 165.104 174.527 165.104ZM177.334 161.628C177.726 161.628 178.047 161.762 178.296 162.029C178.546 162.279 178.671 162.6 178.671 162.992V175.396C178.671 175.717 178.724 175.975 178.831 176.171C178.938 176.367 179.08 176.501 179.259 176.572C179.455 176.643 179.651 176.679 179.847 176.679C180.043 176.679 180.212 176.643 180.355 176.572C180.515 176.501 180.702 176.465 180.916 176.465C181.13 176.465 181.326 176.563 181.504 176.759C181.682 176.955 181.772 177.223 181.772 177.561C181.772 177.989 181.54 178.337 181.076 178.604C180.613 178.871 180.114 179.005 179.579 179.005C179.276 179.005 178.92 178.978 178.51 178.925C178.1 178.871 177.699 178.738 177.307 178.524C176.933 178.31 176.621 177.971 176.371 177.508C176.122 177.027 175.997 176.358 175.997 175.503V162.992C175.997 162.6 176.122 162.279 176.371 162.029C176.639 161.762 176.96 161.628 177.334 161.628ZM196.548 164.729C196.94 164.729 197.261 164.863 197.51 165.13C197.76 165.38 197.885 165.701 197.885 166.093V177.642C197.885 178.034 197.76 178.363 197.51 178.631C197.261 178.88 196.94 179.005 196.548 179.005C196.174 179.005 195.853 178.88 195.586 178.631C195.336 178.363 195.211 178.034 195.211 177.642V175.717L195.773 175.797C195.773 176.118 195.639 176.474 195.372 176.866C195.122 177.258 194.775 177.642 194.329 178.016C193.884 178.372 193.358 178.675 192.752 178.925C192.146 179.156 191.495 179.272 190.8 179.272C189.571 179.272 188.466 178.96 187.486 178.337C186.505 177.695 185.73 176.822 185.16 175.717C184.589 174.612 184.304 173.355 184.304 171.947C184.304 170.504 184.589 169.238 185.16 168.151C185.73 167.046 186.496 166.182 187.459 165.558C188.439 164.934 189.526 164.623 190.72 164.623C191.487 164.623 192.191 164.747 192.832 164.997C193.492 165.246 194.062 165.567 194.543 165.959C195.024 166.351 195.39 166.77 195.639 167.216C195.906 167.643 196.04 168.053 196.04 168.445L195.211 168.526V166.093C195.211 165.719 195.336 165.398 195.586 165.13C195.853 164.863 196.174 164.729 196.548 164.729ZM191.094 176.813C191.932 176.813 192.672 176.599 193.313 176.171C193.955 175.743 194.454 175.164 194.81 174.434C195.167 173.685 195.345 172.856 195.345 171.947C195.345 171.021 195.167 170.192 194.81 169.461C194.454 168.731 193.955 168.151 193.313 167.724C192.672 167.296 191.932 167.082 191.094 167.082C190.275 167.082 189.544 167.296 188.902 167.724C188.279 168.151 187.78 168.731 187.405 169.461C187.049 170.192 186.871 171.021 186.871 171.947C186.871 172.856 187.049 173.685 187.405 174.434C187.78 175.164 188.279 175.743 188.902 176.171C189.544 176.599 190.275 176.813 191.094 176.813ZM204.517 177.642C204.517 178.034 204.383 178.363 204.116 178.631C203.866 178.88 203.555 179.005 203.18 179.005C202.806 179.005 202.485 178.88 202.218 178.631C201.968 178.363 201.844 178.034 201.844 177.642V160.586C201.844 160.194 201.977 159.873 202.245 159.623C202.512 159.356 202.833 159.222 203.207 159.222C203.599 159.222 203.911 159.356 204.143 159.623C204.392 159.873 204.517 160.194 204.517 160.586V177.642Z" fill="white"/>
<path d="M66.0045 217.841C65.7076 217.841 65.4552 217.744 65.2473 217.551C65.0542 217.343 64.9577 217.083 64.9577 216.772C64.9577 216.475 65.0542 216.237 65.2473 216.059C65.4552 215.866 65.7076 215.769 66.0045 215.769H75.1141C75.4111 215.769 75.6561 215.866 75.8491 216.059C76.057 216.252 76.1609 216.504 76.1609 216.816C76.1609 217.098 76.057 217.343 75.8491 217.551C75.6561 217.744 75.4111 217.841 75.1141 217.841H66.0045ZM70.5259 222.34C70.1844 222.34 69.8948 222.228 69.6573 222.006C69.4345 221.783 69.3232 221.493 69.3232 221.137V212.206C69.3232 211.864 69.442 211.582 69.6795 211.359C69.9171 211.137 70.2067 211.025 70.5482 211.025C70.9045 211.025 71.1867 211.137 71.3945 211.359C71.6173 211.582 71.7286 211.864 71.7286 212.206V221.137C71.7286 221.493 71.6173 221.783 71.3945 222.006C71.1718 222.228 70.8823 222.34 70.5259 222.34ZM83.0263 208.33C83.8578 208.33 84.5928 208.494 85.2313 208.82C85.8846 209.147 86.4266 209.592 86.8572 210.157C87.3027 210.706 87.6368 211.337 87.8595 212.05C88.0971 212.748 88.2158 213.475 88.2158 214.233C88.2158 214.812 88.149 215.48 88.0154 216.237C87.8818 216.98 87.659 217.759 87.3472 218.576C87.0354 219.392 86.6196 220.179 86.0999 220.937C85.5951 221.694 84.9566 222.377 84.1845 222.986C83.4272 223.58 82.5215 224.04 81.4672 224.367C81.3187 224.396 81.1777 224.411 81.044 224.411C80.7471 224.411 80.4798 224.33 80.2422 224.166C80.0195 224.003 79.9081 223.736 79.9081 223.364C79.9081 223.082 79.9972 222.845 80.1754 222.652C80.3536 222.459 80.5912 222.318 80.8881 222.228C81.6157 221.961 82.3284 221.553 83.0263 221.003C83.7242 220.439 84.3255 219.778 84.8304 219.021C85.3352 218.249 85.6768 217.425 85.8549 216.549L86.4118 216.46C86.189 216.772 85.9069 217.091 85.5654 217.418C85.2239 217.744 84.8155 218.019 84.3404 218.242C83.8652 218.45 83.3159 218.553 82.6922 218.553C81.7271 218.553 80.8881 218.338 80.1754 217.908C79.4627 217.462 78.9133 216.853 78.5272 216.081C78.1412 215.309 77.9481 214.426 77.9481 213.431C77.9481 212.51 78.1708 211.664 78.6163 210.892C79.0766 210.12 79.6854 209.503 80.4427 209.043C81.2148 208.568 82.076 208.33 83.0263 208.33ZM83.0486 210.379C82.4992 210.379 82.0092 210.513 81.5786 210.78C81.148 211.048 80.8065 211.411 80.554 211.872C80.3016 212.332 80.1754 212.852 80.1754 213.431C80.1754 214.01 80.2868 214.537 80.5095 215.012C80.7322 215.472 81.0589 215.836 81.4895 216.103C81.9201 216.371 82.4249 216.504 83.004 216.504C83.5831 216.504 84.0954 216.371 84.5408 216.103C84.9863 215.821 85.3352 215.443 85.5877 214.968C85.8401 214.492 85.9663 213.973 85.9663 213.408C85.9663 212.844 85.8401 212.339 85.5877 211.894C85.3352 211.434 84.9937 211.07 84.5631 210.803C84.1325 210.52 83.6277 210.379 83.0486 210.379ZM94.6166 224.188C94.2751 224.188 93.993 224.085 93.7703 223.877C93.5476 223.654 93.4362 223.379 93.4362 223.053V211.114L93.7257 211.515L91.6544 212.963C91.4762 213.112 91.2609 213.186 91.0085 213.186C90.7115 213.186 90.4442 213.074 90.2066 212.852C89.9839 212.614 89.8726 212.339 89.8726 212.028C89.8726 211.642 90.0656 211.322 90.4516 211.07L93.8371 208.82C93.9707 208.731 94.1118 208.672 94.2603 208.642C94.4236 208.612 94.5721 208.598 94.7057 208.598C95.0473 208.598 95.322 208.709 95.5298 208.932C95.7377 209.14 95.8416 209.407 95.8416 209.733V223.053C95.8416 223.379 95.7229 223.654 95.4853 223.877C95.2626 224.085 94.973 224.188 94.6166 224.188ZM112.571 216.304L112.505 215.903C113.054 216.126 113.537 216.438 113.952 216.838C114.368 217.225 114.687 217.663 114.91 218.153C115.148 218.643 115.266 219.155 115.266 219.689C115.266 220.521 115.036 221.286 114.576 221.983C114.131 222.667 113.522 223.216 112.75 223.632C111.992 224.033 111.146 224.233 110.211 224.233C109.26 224.233 108.399 224.033 107.627 223.632C106.87 223.216 106.261 222.667 105.801 221.983C105.355 221.286 105.132 220.521 105.132 219.689C105.132 219.021 105.273 218.435 105.556 217.93C105.838 217.425 106.194 217.002 106.625 216.66C107.055 216.319 107.493 216.037 107.939 215.814L107.783 216.304C107.412 216.141 107.048 215.918 106.691 215.636C106.35 215.339 106.068 214.968 105.845 214.522C105.622 214.077 105.511 213.564 105.511 212.985C105.511 212.169 105.719 211.434 106.135 210.78C106.55 210.112 107.115 209.585 107.827 209.199C108.54 208.798 109.334 208.598 110.211 208.598C111.087 208.598 111.874 208.798 112.571 209.199C113.269 209.585 113.826 210.112 114.242 210.78C114.658 211.434 114.866 212.169 114.866 212.985C114.866 213.609 114.747 214.143 114.509 214.589C114.272 215.02 113.975 215.376 113.618 215.658C113.262 215.94 112.913 216.155 112.571 216.304ZM107.738 213.03C107.738 213.49 107.85 213.898 108.072 214.255C108.295 214.611 108.592 214.893 108.963 215.101C109.334 215.309 109.75 215.413 110.211 215.413C110.656 215.413 111.064 215.309 111.436 215.101C111.807 214.893 112.096 214.611 112.304 214.255C112.527 213.898 112.638 213.49 112.638 213.03C112.638 212.332 112.408 211.76 111.948 211.315C111.487 210.869 110.908 210.647 110.211 210.647C109.483 210.647 108.889 210.869 108.429 211.315C107.968 211.76 107.738 212.332 107.738 213.03ZM110.211 222.184C111.012 222.184 111.681 221.946 112.215 221.471C112.764 220.981 113.039 220.38 113.039 219.667C113.039 219.177 112.913 218.739 112.661 218.353C112.408 217.967 112.067 217.663 111.636 217.44C111.205 217.217 110.73 217.106 110.211 217.106C109.691 217.106 109.216 217.217 108.785 217.44C108.354 217.663 108.013 217.967 107.761 218.353C107.508 218.739 107.382 219.177 107.382 219.667C107.382 220.38 107.649 220.981 108.184 221.471C108.718 221.946 109.394 222.184 110.211 222.184ZM123.038 224.411C121.791 224.411 120.736 224.07 119.875 223.387C119.014 222.689 118.361 221.738 117.915 220.536C117.485 219.318 117.269 217.937 117.269 216.393C117.269 214.834 117.485 213.453 117.915 212.25C118.361 211.033 119.014 210.082 119.875 209.399C120.736 208.716 121.791 208.375 123.038 208.375C124.285 208.375 125.332 208.716 126.178 209.399C127.04 210.082 127.693 211.033 128.138 212.25C128.584 213.453 128.807 214.834 128.807 216.393C128.807 217.937 128.584 219.318 128.138 220.536C127.693 221.738 127.04 222.689 126.178 223.387C125.332 224.07 124.285 224.411 123.038 224.411ZM123.038 222.162C123.736 222.162 124.33 221.939 124.82 221.493C125.325 221.048 125.711 220.395 125.978 219.533C126.26 218.672 126.401 217.625 126.401 216.393C126.401 215.146 126.26 214.092 125.978 213.23C125.711 212.369 125.325 211.716 124.82 211.27C124.33 210.825 123.736 210.602 123.038 210.602C122.34 210.602 121.739 210.825 121.234 211.27C120.729 211.716 120.343 212.369 120.076 213.23C119.808 214.092 119.675 215.146 119.675 216.393C119.675 217.625 119.808 218.672 120.076 219.533C120.343 220.395 120.729 221.048 121.234 221.493C121.739 221.939 122.34 222.162 123.038 222.162ZM138.259 216.304L138.192 215.903C138.742 216.126 139.224 216.438 139.64 216.838C140.056 217.225 140.375 217.663 140.598 218.153C140.835 218.643 140.954 219.155 140.954 219.689C140.954 220.521 140.724 221.286 140.264 221.983C139.818 222.667 139.209 223.216 138.437 223.632C137.68 224.033 136.834 224.233 135.898 224.233C134.948 224.233 134.087 224.033 133.314 223.632C132.557 223.216 131.948 222.667 131.488 221.983C131.043 221.286 130.82 220.521 130.82 219.689C130.82 219.021 130.961 218.435 131.243 217.93C131.525 217.425 131.882 217.002 132.312 216.66C132.743 216.319 133.181 216.037 133.626 215.814L133.47 216.304C133.099 216.141 132.735 215.918 132.379 215.636C132.037 215.339 131.755 214.968 131.533 214.522C131.31 214.077 131.199 213.564 131.199 212.985C131.199 212.169 131.406 211.434 131.822 210.78C132.238 210.112 132.802 209.585 133.515 209.199C134.228 208.798 135.022 208.598 135.898 208.598C136.774 208.598 137.561 208.798 138.259 209.199C138.957 209.585 139.514 210.112 139.929 210.78C140.345 211.434 140.553 212.169 140.553 212.985C140.553 213.609 140.434 214.143 140.197 214.589C139.959 215.02 139.662 215.376 139.306 215.658C138.949 215.94 138.601 216.155 138.259 216.304ZM133.426 213.03C133.426 213.49 133.537 213.898 133.76 214.255C133.983 214.611 134.28 214.893 134.651 215.101C135.022 215.309 135.438 215.413 135.898 215.413C136.344 215.413 136.752 215.309 137.123 215.101C137.494 214.893 137.784 214.611 137.992 214.255C138.214 213.898 138.326 213.49 138.326 213.03C138.326 212.332 138.096 211.76 137.635 211.315C137.175 210.869 136.596 210.647 135.898 210.647C135.171 210.647 134.577 210.869 134.116 211.315C133.656 211.76 133.426 212.332 133.426 213.03ZM135.898 222.184C136.7 222.184 137.368 221.946 137.903 221.471C138.452 220.981 138.727 220.38 138.727 219.667C138.727 219.177 138.601 218.739 138.348 218.353C138.096 217.967 137.754 217.663 137.324 217.44C136.893 217.217 136.418 217.106 135.898 217.106C135.378 217.106 134.903 217.217 134.473 217.44C134.042 217.663 133.701 217.967 133.448 218.353C133.196 218.739 133.069 219.177 133.069 219.667C133.069 220.38 133.337 220.981 133.871 221.471C134.406 221.946 135.081 222.184 135.898 222.184ZM148.725 224.411C147.478 224.411 146.424 224.07 145.563 223.387C144.702 222.689 144.048 221.738 143.603 220.536C143.172 219.318 142.957 217.937 142.957 216.393C142.957 214.834 143.172 213.453 143.603 212.25C144.048 211.033 144.702 210.082 145.563 209.399C146.424 208.716 147.478 208.375 148.725 208.375C149.973 208.375 151.02 208.716 151.866 209.399C152.727 210.082 153.38 211.033 153.826 212.25C154.271 213.453 154.494 214.834 154.494 216.393C154.494 217.937 154.271 219.318 153.826 220.536C153.38 221.738 152.727 222.689 151.866 223.387C151.02 224.07 149.973 224.411 148.725 224.411ZM148.725 222.162C149.423 222.162 150.017 221.939 150.507 221.493C151.012 221.048 151.398 220.395 151.665 219.533C151.948 218.672 152.089 217.625 152.089 216.393C152.089 215.146 151.948 214.092 151.665 213.23C151.398 212.369 151.012 211.716 150.507 211.27C150.017 210.825 149.423 210.602 148.725 210.602C148.028 210.602 147.426 210.825 146.921 211.27C146.417 211.716 146.03 212.369 145.763 213.23C145.496 214.092 145.362 215.146 145.362 216.393C145.362 217.625 145.496 218.672 145.763 219.533C146.03 220.395 146.417 221.048 146.921 221.493C147.426 221.939 148.028 222.162 148.725 222.162ZM157.799 218.42C157.488 218.42 157.22 218.316 156.998 218.108C156.79 217.885 156.686 217.618 156.686 217.306C156.686 216.98 156.79 216.72 156.998 216.527C157.22 216.319 157.488 216.215 157.799 216.215H161.987C162.298 216.215 162.566 216.326 162.788 216.549C163.011 216.757 163.123 217.024 163.123 217.351C163.123 217.648 163.011 217.9 162.788 218.108C162.566 218.316 162.298 218.42 161.987 218.42H157.799ZM169.594 224.344C169.015 224.344 168.414 224.255 167.79 224.077C167.181 223.899 166.661 223.632 166.231 223.275C166.067 223.142 165.941 222.971 165.852 222.763C165.763 222.555 165.719 222.355 165.719 222.162C165.719 221.954 165.808 221.753 165.986 221.56C166.179 221.352 166.439 221.248 166.765 221.248C167.003 221.248 167.278 221.367 167.589 221.605C167.886 221.798 168.198 221.961 168.525 222.095C168.866 222.228 169.215 222.295 169.572 222.295C170.344 222.295 171.012 222.154 171.576 221.872C172.14 221.59 172.571 221.197 172.868 220.692C173.18 220.172 173.336 219.571 173.336 218.888C173.336 218.249 173.195 217.707 172.913 217.262C172.63 216.801 172.244 216.445 171.754 216.193C171.279 215.94 170.745 215.814 170.151 215.814C169.661 215.814 169.23 215.896 168.859 216.059C168.488 216.207 168.154 216.363 167.857 216.527C167.56 216.675 167.285 216.749 167.033 216.749C166.647 216.749 166.357 216.668 166.164 216.504C165.971 216.326 165.845 216.118 165.785 215.881C165.741 215.628 165.733 215.398 165.763 215.19L166.543 209.6C166.587 209.347 166.706 209.14 166.899 208.976C167.107 208.798 167.359 208.709 167.656 208.709H174.182C174.479 208.709 174.724 208.813 174.917 209.021C175.125 209.214 175.229 209.459 175.229 209.756C175.229 210.053 175.125 210.298 174.917 210.491C174.724 210.684 174.479 210.78 174.182 210.78H168.213L168.458 210.58L167.745 215.368L167.411 214.7C167.545 214.552 167.768 214.411 168.079 214.277C168.406 214.129 168.77 214.01 169.171 213.921C169.587 213.817 170.002 213.765 170.418 213.765C171.398 213.765 172.274 213.988 173.046 214.433C173.833 214.864 174.449 215.465 174.895 216.237C175.34 217.009 175.563 217.885 175.563 218.865C175.563 219.964 175.318 220.929 174.828 221.761C174.338 222.577 173.648 223.216 172.757 223.676C171.866 224.122 170.812 224.344 169.594 224.344ZM183.256 224.411C182.425 224.411 181.682 224.248 181.029 223.921C180.39 223.595 179.848 223.149 179.403 222.585C178.972 222.021 178.638 221.39 178.401 220.692C178.178 219.979 178.067 219.251 178.067 218.509C178.067 217.93 178.133 217.269 178.267 216.527C178.401 215.769 178.623 214.99 178.935 214.188C179.247 213.371 179.655 212.592 180.16 211.849C180.68 211.107 181.318 210.439 182.076 209.845C182.848 209.236 183.761 208.776 184.815 208.464C184.964 208.419 185.105 208.397 185.238 208.397C185.535 208.397 185.795 208.479 186.018 208.642C186.256 208.791 186.374 209.065 186.374 209.466C186.374 209.733 186.285 209.971 186.107 210.179C185.929 210.372 185.691 210.513 185.394 210.602C184.86 210.78 184.325 211.048 183.791 211.404C183.256 211.76 182.759 212.183 182.298 212.673C181.838 213.163 181.445 213.713 181.118 214.322C180.806 214.916 180.576 215.539 180.428 216.193L179.871 216.282C180.093 215.94 180.376 215.613 180.717 215.302C181.073 214.975 181.489 214.708 181.964 214.5C182.44 214.277 182.981 214.166 183.59 214.166C184.199 214.166 184.786 214.299 185.35 214.567C185.914 214.834 186.419 215.205 186.864 215.68C187.325 216.155 187.681 216.705 187.933 217.328C188.201 217.952 188.334 218.613 188.334 219.311C188.334 220.231 188.104 221.085 187.644 221.872C187.198 222.644 186.59 223.26 185.818 223.721C185.06 224.181 184.206 224.411 183.256 224.411ZM183.234 222.34C183.783 222.34 184.273 222.214 184.704 221.961C185.135 221.694 185.476 221.33 185.728 220.87C185.981 220.41 186.107 219.89 186.107 219.311C186.107 218.732 185.988 218.212 185.751 217.752C185.513 217.291 185.179 216.92 184.748 216.638C184.333 216.356 183.843 216.215 183.278 216.215C182.699 216.215 182.187 216.356 181.742 216.638C181.296 216.92 180.947 217.299 180.695 217.774C180.442 218.234 180.316 218.754 180.316 219.333C180.316 219.868 180.442 220.372 180.695 220.848C180.947 221.308 181.289 221.672 181.719 221.939C182.165 222.206 182.67 222.34 183.234 222.34ZM193.387 224.278C193.075 224.278 192.8 224.181 192.563 223.988C192.34 223.78 192.229 223.52 192.229 223.208C192.229 223.045 192.266 222.874 192.34 222.696L197.953 210.29L198.198 210.78H191.382C191.085 210.78 190.833 210.684 190.625 210.491C190.432 210.283 190.336 210.03 190.336 209.733C190.336 209.451 190.432 209.214 190.625 209.021C190.833 208.828 191.085 208.731 191.382 208.731H199.289C199.616 208.731 199.891 208.835 200.113 209.043C200.351 209.236 200.47 209.488 200.47 209.8C200.47 209.978 200.433 210.149 200.358 210.313L194.412 223.565C194.322 223.788 194.181 223.966 193.988 224.099C193.795 224.218 193.595 224.278 193.387 224.278ZM203.345 218.42C203.033 218.42 202.766 218.316 202.543 218.108C202.336 217.885 202.232 217.618 202.232 217.306C202.232 216.98 202.336 216.72 202.543 216.527C202.766 216.319 203.033 216.215 203.345 216.215H207.533C207.844 216.215 208.112 216.326 208.334 216.549C208.557 216.757 208.668 217.024 208.668 217.351C208.668 217.648 208.557 217.9 208.334 218.108C208.112 218.316 207.844 218.42 207.533 218.42H203.345ZM216.588 224.411C215.34 224.411 214.286 224.07 213.425 223.387C212.564 222.689 211.91 221.738 211.465 220.536C211.034 219.318 210.819 217.937 210.819 216.393C210.819 214.834 211.034 213.453 211.465 212.25C211.91 211.033 212.564 210.082 213.425 209.399C214.286 208.716 215.34 208.375 216.588 208.375C217.835 208.375 218.882 208.716 219.728 209.399C220.589 210.082 221.243 211.033 221.688 212.25C222.134 213.453 222.356 214.834 222.356 216.393C222.356 217.937 222.134 219.318 221.688 220.536C221.243 221.738 220.589 222.689 219.728 223.387C218.882 224.07 217.835 224.411 216.588 224.411ZM216.588 222.162C217.286 222.162 217.88 221.939 218.37 221.493C218.874 221.048 219.26 220.395 219.528 219.533C219.81 218.672 219.951 217.625 219.951 216.393C219.951 215.146 219.81 214.092 219.528 213.23C219.26 212.369 218.874 211.716 218.37 211.27C217.88 210.825 217.286 210.602 216.588 210.602C215.89 210.602 215.288 210.825 214.784 211.27C214.279 211.716 213.893 212.369 213.625 213.23C213.358 214.092 213.225 215.146 213.225 216.393C213.225 217.625 213.358 218.672 213.625 219.533C213.893 220.395 214.279 221.048 214.784 221.493C215.288 221.939 215.89 222.162 216.588 222.162ZM225.684 221.338C225.803 221.338 225.929 221.36 226.062 221.404C226.196 221.434 226.345 221.508 226.508 221.627C226.775 221.865 227.094 222.065 227.466 222.228C227.852 222.377 228.29 222.451 228.78 222.451C229.329 222.451 229.841 222.325 230.317 222.073C230.792 221.805 231.178 221.434 231.475 220.959C231.772 220.484 231.92 219.92 231.92 219.266C231.92 218.598 231.779 218.056 231.497 217.64C231.215 217.21 230.851 216.89 230.406 216.683C229.96 216.46 229.492 216.348 229.002 216.348C228.72 216.348 228.483 216.378 228.29 216.438C228.097 216.482 227.911 216.534 227.733 216.593C227.555 216.638 227.362 216.66 227.154 216.66C226.872 216.66 226.649 216.564 226.486 216.371C226.322 216.163 226.241 215.918 226.241 215.636C226.241 215.458 226.278 215.302 226.352 215.168C226.426 215.034 226.53 214.886 226.664 214.723L230.784 210.313L231.274 210.758H225.372C225.075 210.758 224.823 210.662 224.615 210.468C224.422 210.261 224.325 210.008 224.325 209.711C224.325 209.429 224.422 209.192 224.615 208.998C224.823 208.805 225.075 208.709 225.372 208.709H232.41C232.796 208.709 233.078 208.82 233.257 209.043C233.45 209.266 233.546 209.526 233.546 209.823C233.546 209.986 233.502 210.142 233.412 210.29C233.338 210.439 233.242 210.58 233.123 210.713L228.98 215.168L228.423 214.567C228.542 214.507 228.743 214.448 229.025 214.388C229.307 214.329 229.537 214.299 229.715 214.299C230.562 214.299 231.319 214.515 231.987 214.945C232.67 215.376 233.197 215.955 233.568 216.683C233.954 217.395 234.147 218.205 234.147 219.11C234.147 220.194 233.902 221.137 233.412 221.939C232.922 222.726 232.239 223.335 231.363 223.765C230.502 224.196 229.507 224.411 228.379 224.411C227.815 224.411 227.25 224.337 226.686 224.188C226.137 224.025 225.662 223.795 225.261 223.498C225.008 223.35 224.837 223.194 224.748 223.03C224.659 222.852 224.615 222.681 224.615 222.518C224.615 222.236 224.711 221.969 224.904 221.716C225.112 221.464 225.372 221.338 225.684 221.338ZM237.56 221.338C237.678 221.338 237.805 221.36 237.938 221.404C238.072 221.434 238.22 221.508 238.384 221.627C238.651 221.865 238.97 222.065 239.342 222.228C239.728 222.377 240.166 222.451 240.656 222.451C241.205 222.451 241.717 222.325 242.192 222.073C242.668 221.805 243.054 221.434 243.351 220.959C243.648 220.484 243.796 219.92 243.796 219.266C243.796 218.598 243.655 218.056 243.373 217.64C243.091 217.21 242.727 216.89 242.282 216.683C241.836 216.46 241.368 216.348 240.878 216.348C240.596 216.348 240.359 216.378 240.166 216.438C239.973 216.482 239.787 216.534 239.609 216.593C239.431 216.638 239.238 216.66 239.03 216.66C238.748 216.66 238.525 216.564 238.362 216.371C238.198 216.163 238.117 215.918 238.117 215.636C238.117 215.458 238.154 215.302 238.228 215.168C238.302 215.034 238.406 214.886 238.54 214.723L242.66 210.313L243.15 210.758H237.248C236.951 210.758 236.698 210.662 236.491 210.468C236.298 210.261 236.201 210.008 236.201 209.711C236.201 209.429 236.298 209.192 236.491 208.998C236.698 208.805 236.951 208.709 237.248 208.709H244.286C244.672 208.709 244.954 208.82 245.132 209.043C245.325 209.266 245.422 209.526 245.422 209.823C245.422 209.986 245.377 210.142 245.288 210.29C245.214 210.439 245.118 210.58 244.999 210.713L240.856 215.168L240.299 214.567C240.418 214.507 240.618 214.448 240.901 214.388C241.183 214.329 241.413 214.299 241.591 214.299C242.437 214.299 243.195 214.515 243.863 214.945C244.546 215.376 245.073 215.955 245.444 216.683C245.83 217.395 246.023 218.205 246.023 219.11C246.023 220.194 245.778 221.137 245.288 221.939C244.798 222.726 244.115 223.335 243.239 223.765C242.378 224.196 241.383 224.411 240.255 224.411C239.69 224.411 239.126 224.337 238.562 224.188C238.013 224.025 237.537 223.795 237.137 223.498C236.884 223.35 236.713 223.194 236.624 223.03C236.535 222.852 236.491 222.681 236.491 222.518C236.491 222.236 236.587 221.969 236.78 221.716C236.988 221.464 237.248 221.338 237.56 221.338ZM253.378 208.33C254.209 208.33 254.944 208.494 255.583 208.82C256.236 209.147 256.778 209.592 257.209 210.157C257.654 210.706 257.988 211.337 258.211 212.05C258.449 212.748 258.567 213.475 258.567 214.233C258.567 214.812 258.501 215.48 258.367 216.237C258.233 216.98 258.011 217.759 257.699 218.576C257.387 219.392 256.971 220.179 256.452 220.937C255.947 221.694 255.308 222.377 254.536 222.986C253.779 223.58 252.873 224.04 251.819 224.367C251.67 224.396 251.529 224.411 251.396 224.411C251.099 224.411 250.831 224.33 250.594 224.166C250.371 224.003 250.26 223.736 250.26 223.364C250.26 223.082 250.349 222.845 250.527 222.652C250.705 222.459 250.943 222.318 251.24 222.228C251.967 221.961 252.68 221.553 253.378 221.003C254.076 220.439 254.677 219.778 255.182 219.021C255.687 218.249 256.028 217.425 256.207 216.549L256.763 216.46C256.541 216.772 256.258 217.091 255.917 217.418C255.575 217.744 255.167 218.019 254.692 218.242C254.217 218.45 253.667 218.553 253.044 218.553C252.079 218.553 251.24 218.338 250.527 217.908C249.814 217.462 249.265 216.853 248.879 216.081C248.493 215.309 248.3 214.426 248.3 213.431C248.3 212.51 248.522 211.664 248.968 210.892C249.428 210.12 250.037 209.503 250.794 209.043C251.566 208.568 252.428 208.33 253.378 208.33ZM253.4 210.379C252.851 210.379 252.361 210.513 251.93 210.78C251.5 211.048 251.158 211.411 250.906 211.872C250.653 212.332 250.527 212.852 250.527 213.431C250.527 214.01 250.638 214.537 250.861 215.012C251.084 215.472 251.41 215.836 251.841 216.103C252.272 216.371 252.777 216.504 253.356 216.504C253.935 216.504 254.447 216.371 254.892 216.103C255.338 215.821 255.687 215.443 255.939 214.968C256.192 214.492 256.318 213.973 256.318 213.408C256.318 212.844 256.192 212.339 255.939 211.894C255.687 211.434 255.345 211.07 254.915 210.803C254.484 210.52 253.979 210.379 253.4 210.379ZM268.154 216.304L268.087 215.903C268.637 216.126 269.119 216.438 269.535 216.838C269.951 217.225 270.27 217.663 270.493 218.153C270.73 218.643 270.849 219.155 270.849 219.689C270.849 220.521 270.619 221.286 270.159 221.983C269.713 222.667 269.105 223.216 268.332 223.632C267.575 224.033 266.729 224.233 265.793 224.233C264.843 224.233 263.982 224.033 263.21 223.632C262.452 223.216 261.844 222.667 261.383 221.983C260.938 221.286 260.715 220.521 260.715 219.689C260.715 219.021 260.856 218.435 261.138 217.93C261.42 217.425 261.777 217.002 262.207 216.66C262.638 216.319 263.076 216.037 263.522 215.814L263.366 216.304C262.994 216.141 262.631 215.918 262.274 215.636C261.933 215.339 261.651 214.968 261.428 214.522C261.205 214.077 261.094 213.564 261.094 212.985C261.094 212.169 261.302 211.434 261.717 210.78C262.133 210.112 262.697 209.585 263.41 209.199C264.123 208.798 264.917 208.598 265.793 208.598C266.669 208.598 267.456 208.798 268.154 209.199C268.852 209.585 269.409 210.112 269.825 210.78C270.24 211.434 270.448 212.169 270.448 212.985C270.448 213.609 270.33 214.143 270.092 214.589C269.854 215.02 269.557 215.376 269.201 215.658C268.845 215.94 268.496 216.155 268.154 216.304ZM263.321 213.03C263.321 213.49 263.432 213.898 263.655 214.255C263.878 214.611 264.175 214.893 264.546 215.101C264.917 215.309 265.333 215.413 265.793 215.413C266.239 215.413 266.647 215.309 267.018 215.101C267.39 214.893 267.679 214.611 267.887 214.255C268.11 213.898 268.221 213.49 268.221 213.03C268.221 212.332 267.991 211.76 267.531 211.315C267.07 210.869 266.491 210.647 265.793 210.647C265.066 210.647 264.472 210.869 264.012 211.315C263.551 211.76 263.321 212.332 263.321 213.03ZM265.793 222.184C266.595 222.184 267.263 221.946 267.798 221.471C268.347 220.981 268.622 220.38 268.622 219.667C268.622 219.177 268.496 218.739 268.243 218.353C267.991 217.967 267.649 217.663 267.219 217.44C266.788 217.217 266.313 217.106 265.793 217.106C265.274 217.106 264.798 217.217 264.368 217.44C263.937 217.663 263.596 217.967 263.343 218.353C263.091 218.739 262.965 219.177 262.965 219.667C262.965 220.38 263.232 220.981 263.767 221.471C264.301 221.946 264.977 222.184 265.793 222.184Z" fill="#57D76A"/>
<rect x="128.276" y="23" width="79.4469" height="23.4434" rx="11.7217" fill="black"/>
<circle cx="196.002" cy="34.7217" r="3.90723" fill="#0E101F"/>
<circle cx="196.002" cy="34.7212" r="3.19682" fill="#01031A"/>
<g filter="url(#filter0_f_1653_2859)">
<ellipse cx="196.002" cy="32.9458" rx="1.77601" ry="0.710405" fill="white" fill-opacity="0.1"/>
</g>
<g filter="url(#filter1_f_1653_2859)">
<ellipse cx="196.002" cy="36.1428" rx="1.77601" ry="1.06561" fill="white" fill-opacity="0.1"/>
</g>
<defs>
<filter id="filter0_f_1653_2859" x="193.574" y="31.5841" width="4.85417" height="2.72331" filterUnits="userSpaceOnUse" color-interpolation-filters="sRGB">
<feFlood flood-opacity="0" result="BackgroundImageFix"/>
<feBlend mode="normal" in="SourceGraphic" in2="BackgroundImageFix" result="shape"/>
<feGaussianBlur stdDeviation="0.325602" result="effect1_foregroundBlur_1653_2859"/>
</filter>
<filter id="filter1_f_1653_2859" x="193.574" y="34.4259" width="4.85417" height="3.43327" filterUnits="userSpaceOnUse" color-interpolation-filters="sRGB">
<feFlood flood-opacity="0" result="BackgroundImageFix"/>
<feBlend mode="normal" in="SourceGraphic" in2="BackgroundImageFix" result="shape"/>
<feGaussianBlur stdDeviation="0.325602" result="effect1_foregroundBlur_1653_2859"/>
</filter>
<clipPath id="clip0_1653_2859">
<rect width="59.9708" height="60" fill="white" transform="translate(52 508)"/>
</clipPath>
<clipPath id="clip1_1653_2859">
<rect width="59.9708" height="60" fill="white" transform="translate(224.029 508)"/>
</clipPath>
</defs>
</svg>
