<svg width="336" height="626" viewBox="0 0 336 626" fill="none" xmlns="http://www.w3.org/2000/svg">
<rect x="3" y="3.49609" width="330" height="619" rx="57" fill="#212121"/>
<rect x="3" y="3.49609" width="330" height="619" rx="57" stroke="black" stroke-width="6"/>
<g clip-path="url(#clip0_53_449)">
<path d="M168 568C172.096 568 175.952 567.216 179.568 565.648C183.184 564.08 186.373 561.915 189.137 559.152C191.9 556.388 194.066 553.198 195.634 549.583C197.201 545.967 197.985 542.111 197.985 538.015C197.985 533.919 197.201 530.063 195.634 526.447C194.066 522.831 191.9 519.641 189.137 516.878C186.373 514.115 183.179 511.949 179.553 510.381C175.928 508.813 172.067 508.029 167.971 508.029C163.875 508.029 160.019 508.813 156.403 510.381C152.787 511.949 149.602 514.115 146.849 516.878C144.095 519.641 141.934 522.831 140.366 526.447C138.799 530.063 138.015 533.919 138.015 538.015C138.015 542.111 138.799 545.967 140.366 549.583C141.934 553.198 144.1 556.388 146.863 559.152C149.627 561.915 152.816 564.08 156.432 565.648C160.048 567.216 163.904 568 168 568Z" fill="#57D76A"/>
<path d="M161.599 544.389C160.042 542.827 158.662 541.188 157.459 539.471C156.256 537.753 155.348 536.045 154.734 534.344C154.119 532.644 153.899 531.031 154.072 529.505C154.245 527.978 154.92 526.616 156.096 525.419C156.131 525.385 156.179 525.337 156.239 525.276C156.3 525.215 156.373 525.168 156.46 525.133C157.048 524.682 157.619 524.361 158.173 524.17C158.727 523.979 159.242 523.949 159.717 524.079C160.193 524.209 160.622 524.534 161.002 525.055L164.299 529.739C164.853 530.519 165.082 531.192 164.987 531.755C164.892 532.319 164.541 532.922 163.935 533.564L162.897 534.657C162.724 534.848 162.651 535.047 162.677 535.255C162.703 535.463 162.759 535.646 162.845 535.802C163.105 536.253 163.537 536.851 164.143 537.597C164.749 538.343 165.415 539.08 166.142 539.809C166.903 540.572 167.643 541.249 168.361 541.839C169.079 542.428 169.672 542.862 170.139 543.14C170.33 543.244 170.542 543.3 170.775 543.309C171.009 543.317 171.204 543.252 171.359 543.114L172.398 542.047C173.003 541.44 173.592 541.088 174.163 540.993C174.734 540.898 175.417 541.127 176.213 541.683C176.94 542.186 177.58 542.637 178.134 543.036C178.688 543.435 179.194 543.794 179.653 544.115C180.111 544.436 180.548 544.744 180.963 545.039C181.742 545.629 182.088 546.332 182.002 547.147C181.915 547.962 181.569 548.717 180.963 549.411C180.894 549.498 180.825 549.584 180.756 549.671C180.687 549.758 180.609 549.844 180.522 549.931C179.345 551.111 177.996 551.783 176.473 551.948C174.95 552.113 173.341 551.887 171.645 551.271C169.949 550.655 168.244 549.745 166.531 548.539C164.818 547.333 163.174 545.95 161.599 544.389Z" fill="white"/>
</g>
<g clip-path="url(#clip1_53_449)">
<path d="M168 568C172.096 568 175.952 567.216 179.568 565.648C183.184 564.08 186.373 561.915 189.137 559.152C191.9 556.388 194.066 553.198 195.634 549.583C197.201 545.967 197.985 542.111 197.985 538.015C197.985 533.919 197.201 530.063 195.634 526.447C194.066 522.831 191.9 519.641 189.137 516.878C186.373 514.115 183.179 511.949 179.553 510.381C175.928 508.813 172.067 508.029 167.971 508.029C163.875 508.029 160.019 508.813 156.403 510.381C152.787 511.949 149.602 514.115 146.849 516.878C144.095 519.641 141.934 522.831 140.366 526.447C138.799 530.063 138.015 533.919 138.015 538.015C138.015 542.111 138.799 545.967 140.366 549.583C141.934 553.198 144.1 556.388 146.863 559.152C149.627 561.915 152.816 564.08 156.432 565.648C160.048 567.216 163.904 568 168 568Z" fill="#F35242"/>
<path d="M151.348 540.715V540.449C151.348 538.791 151.831 537.345 152.795 536.113C153.76 534.882 155.049 533.863 156.662 533.058C158.276 532.253 160.067 531.653 162.036 531.258C164.005 530.864 165.994 530.667 168.003 530.667C170.012 530.667 172.005 530.864 173.982 531.258C175.959 531.653 177.754 532.253 179.367 533.058C180.98 533.863 182.269 534.882 183.234 536.113C184.199 537.345 184.681 538.791 184.681 540.449V540.715C184.681 541.327 184.579 541.882 184.373 542.382C184.167 542.881 183.863 543.275 183.459 543.565C183.056 543.855 182.538 544 181.906 544C181.226 544 180.443 543.956 179.557 543.867C178.671 543.779 177.54 543.517 176.164 543.082C175.373 542.84 174.8 542.498 174.444 542.056C174.088 541.613 173.902 540.948 173.887 540.063L173.839 538.517C173.839 538.243 173.673 538.042 173.341 537.913C172.93 537.784 172.262 537.651 171.336 537.514C170.411 537.378 169.3 537.309 168.003 537.309C166.706 537.309 165.595 537.378 164.67 537.514C163.744 537.651 163.084 537.784 162.689 537.913C162.341 538.042 162.167 538.243 162.167 538.517L162.143 540.063C162.127 540.948 161.937 541.613 161.573 542.056C161.21 542.498 160.632 542.84 159.842 543.082C158.466 543.517 157.339 543.779 156.461 543.867C155.583 543.956 154.796 544 154.1 544C153.483 544 152.973 543.855 152.57 543.565C152.167 543.275 151.862 542.881 151.657 542.382C151.451 541.882 151.348 541.327 151.348 540.715Z" fill="white"/>
</g>
<path d="M84.3862 127.265C84.6 127.265 84.8228 127.319 85.0545 127.425C85.2862 127.532 85.4644 127.684 85.5891 127.88L92.3793 138.226L91.2298 138.172L98.1536 127.88C98.4388 127.47 98.8041 127.265 99.2497 127.265C99.6061 127.265 99.918 127.399 100.185 127.666C100.47 127.916 100.613 128.236 100.613 128.628V144.642C100.613 145.034 100.488 145.363 100.239 145.631C99.9893 145.88 99.6596 146.005 99.2497 146.005C98.822 146.005 98.4744 145.88 98.2071 145.631C97.9576 145.363 97.8328 145.034 97.8328 144.642V131.088L98.6883 131.275L92.807 140.231C92.6823 140.391 92.5219 140.534 92.3258 140.658C92.1298 140.765 91.9248 140.81 91.711 140.792C91.5149 140.81 91.31 140.765 91.0961 140.658C90.9001 140.534 90.7397 140.391 90.6149 140.231L84.9475 131.409L85.5891 130.339V144.642C85.5891 145.034 85.4644 145.363 85.2149 145.631C84.9832 145.88 84.6713 146.005 84.2792 146.005C83.905 146.005 83.5931 145.88 83.3436 145.631C83.1119 145.363 82.996 145.034 82.996 144.642V128.628C82.996 128.254 83.1297 127.933 83.397 127.666C83.6822 127.399 84.0119 127.265 84.3862 127.265ZM112.864 127.292C114.165 127.292 115.314 127.541 116.312 128.04C117.31 128.522 118.139 129.199 118.799 130.072C119.476 130.927 119.984 131.926 120.322 133.066C120.661 134.189 120.83 135.383 120.83 136.648C120.83 138.377 120.527 139.954 119.921 141.38C119.315 142.788 118.424 143.911 117.248 144.748C116.072 145.586 114.61 146.005 112.864 146.005H106.341C105.967 146.005 105.646 145.88 105.379 145.631C105.111 145.363 104.978 145.034 104.978 144.642V128.655C104.978 128.263 105.111 127.942 105.379 127.693C105.646 127.425 105.967 127.292 106.341 127.292H112.864ZM112.597 143.439C113.862 143.439 114.887 143.127 115.671 142.503C116.455 141.879 117.025 141.059 117.382 140.043C117.756 139.01 117.943 137.878 117.943 136.648C117.943 135.739 117.836 134.884 117.622 134.082C117.426 133.262 117.106 132.54 116.66 131.917C116.232 131.275 115.68 130.776 115.003 130.42C114.343 130.045 113.541 129.858 112.597 129.858H107.544L107.785 129.618V143.706L107.624 143.439H112.597ZM125.53 146.005C125.103 146.005 124.755 145.88 124.488 145.631C124.238 145.363 124.114 145.034 124.114 144.642V128.655C124.114 128.263 124.247 127.942 124.515 127.693C124.782 127.425 125.103 127.292 125.477 127.292H134.513C134.905 127.292 135.226 127.417 135.475 127.666C135.742 127.916 135.876 128.227 135.876 128.602C135.876 128.94 135.742 129.234 135.475 129.484C135.226 129.733 134.905 129.858 134.513 129.858H126.707L126.894 129.591V135.552L126.733 135.231H133.31C133.702 135.231 134.023 135.356 134.272 135.606C134.54 135.855 134.673 136.167 134.673 136.541C134.673 136.88 134.54 137.174 134.272 137.424C134.023 137.673 133.702 137.798 133.31 137.798H126.68L126.894 137.584V144.642C126.894 145.034 126.76 145.363 126.493 145.631C126.226 145.88 125.905 146.005 125.53 146.005ZM152.228 128.361C152.62 128.557 152.843 128.86 152.897 129.27C152.968 129.68 152.87 130.054 152.603 130.393C152.407 130.66 152.148 130.812 151.827 130.847C151.524 130.883 151.221 130.821 150.918 130.66C150.402 130.393 149.858 130.179 149.288 130.019C148.717 129.858 148.112 129.778 147.47 129.778C146.454 129.778 145.536 129.947 144.716 130.286C143.914 130.607 143.219 131.079 142.631 131.703C142.043 132.309 141.589 133.03 141.268 133.868C140.965 134.706 140.813 135.632 140.813 136.648C140.813 137.771 140.983 138.769 141.321 139.642C141.66 140.498 142.123 141.229 142.711 141.835C143.317 142.423 144.021 142.868 144.823 143.171C145.643 143.456 146.525 143.599 147.47 143.599C148.076 143.599 148.664 143.528 149.234 143.385C149.822 143.242 150.375 143.029 150.892 142.743C151.213 142.583 151.524 142.53 151.827 142.583C152.148 142.619 152.407 142.77 152.603 143.038C152.906 143.412 153.013 143.795 152.923 144.187C152.852 144.561 152.629 144.846 152.255 145.042C151.81 145.292 151.319 145.506 150.785 145.684C150.25 145.862 149.707 146.005 149.154 146.112C148.602 146.219 148.04 146.272 147.47 146.272C146.187 146.272 144.975 146.058 143.834 145.631C142.694 145.203 141.678 144.579 140.787 143.759C139.896 142.94 139.192 141.933 138.675 140.738C138.176 139.544 137.926 138.181 137.926 136.648C137.926 135.276 138.158 134.011 138.621 132.852C139.102 131.676 139.771 130.669 140.626 129.831C141.5 128.976 142.515 128.317 143.674 127.853C144.832 127.372 146.098 127.131 147.47 127.131C148.325 127.131 149.154 127.238 149.956 127.452C150.776 127.666 151.533 127.969 152.228 128.361ZM169.125 146.272C167.842 146.272 166.702 146.094 165.703 145.738C164.705 145.381 163.752 144.793 162.843 143.973C162.647 143.831 162.496 143.661 162.389 143.465C162.299 143.251 162.255 143.038 162.255 142.824C162.255 142.485 162.38 142.182 162.629 141.915C162.879 141.647 163.191 141.514 163.565 141.514C163.85 141.514 164.117 141.612 164.367 141.808C165.044 142.432 165.748 142.904 166.479 143.225C167.227 143.545 168.101 143.706 169.099 143.706C169.811 143.706 170.462 143.59 171.05 143.358C171.656 143.127 172.137 142.815 172.494 142.423C172.85 142.031 173.028 141.576 173.028 141.059C173.028 140.418 172.841 139.892 172.467 139.482C172.11 139.054 171.585 138.707 170.89 138.439C170.212 138.154 169.393 137.914 168.43 137.718C167.539 137.557 166.737 137.334 166.024 137.049C165.329 136.764 164.732 136.408 164.233 135.98C163.734 135.534 163.351 135.009 163.084 134.403C162.816 133.797 162.683 133.093 162.683 132.291C162.683 131.204 162.968 130.268 163.538 129.484C164.108 128.7 164.884 128.094 165.864 127.666C166.844 127.238 167.949 127.024 169.179 127.024C170.302 127.024 171.353 127.203 172.333 127.559C173.313 127.898 174.107 128.361 174.712 128.949C175.14 129.324 175.354 129.725 175.354 130.152C175.354 130.473 175.22 130.776 174.953 131.061C174.704 131.328 174.41 131.462 174.071 131.462C173.821 131.462 173.608 131.391 173.429 131.248C173.144 130.945 172.761 130.678 172.28 130.446C171.799 130.197 171.282 129.992 170.729 129.831C170.195 129.671 169.678 129.591 169.179 129.591C168.377 129.591 167.691 129.707 167.12 129.938C166.55 130.152 166.113 130.455 165.81 130.847C165.507 131.222 165.356 131.667 165.356 132.184C165.356 132.79 165.525 133.289 165.864 133.681C166.22 134.073 166.71 134.394 167.334 134.643C167.958 134.875 168.671 135.089 169.473 135.285C170.453 135.499 171.326 135.739 172.093 136.007C172.877 136.274 173.536 136.622 174.071 137.049C174.606 137.459 175.015 137.976 175.301 138.6C175.586 139.224 175.728 139.999 175.728 140.926C175.728 141.995 175.425 142.931 174.819 143.733C174.213 144.535 173.411 145.158 172.413 145.604C171.433 146.049 170.337 146.272 169.125 146.272ZM185.271 146.272C183.792 146.272 182.509 145.969 181.421 145.363C180.334 144.74 179.488 143.893 178.882 142.824C178.294 141.737 178 140.498 178 139.108C178 137.539 178.311 136.203 178.935 135.098C179.577 133.975 180.406 133.12 181.421 132.531C182.437 131.926 183.515 131.623 184.656 131.623C185.529 131.623 186.358 131.801 187.142 132.157C187.926 132.496 188.621 132.977 189.227 133.601C189.851 134.207 190.341 134.929 190.698 135.766C191.054 136.586 191.241 137.486 191.259 138.466C191.241 138.823 191.099 139.117 190.831 139.348C190.564 139.58 190.252 139.696 189.896 139.696H179.497L178.855 137.424H188.907L188.399 137.905V137.236C188.363 136.613 188.158 136.069 187.784 135.606C187.41 135.125 186.946 134.759 186.394 134.51C185.841 134.242 185.262 134.109 184.656 134.109C184.121 134.109 183.605 134.198 183.106 134.376C182.624 134.536 182.188 134.804 181.796 135.178C181.421 135.552 181.118 136.051 180.887 136.675C180.673 137.281 180.566 138.038 180.566 138.947C180.566 139.928 180.771 140.783 181.181 141.514C181.591 142.244 182.143 142.815 182.838 143.225C183.533 143.617 184.3 143.813 185.137 143.813C185.797 143.813 186.34 143.75 186.768 143.626C187.196 143.483 187.552 143.314 187.837 143.118C188.122 142.922 188.372 142.735 188.586 142.556C188.853 142.396 189.121 142.316 189.388 142.316C189.709 142.316 189.976 142.432 190.19 142.663C190.404 142.877 190.511 143.136 190.511 143.439C190.511 143.831 190.315 144.187 189.922 144.508C189.441 144.971 188.773 145.381 187.918 145.738C187.08 146.094 186.198 146.272 185.271 146.272ZM195.617 146.005C195.225 146.005 194.905 145.88 194.655 145.631C194.406 145.363 194.281 145.034 194.281 144.642V133.307C194.281 132.915 194.406 132.594 194.655 132.344C194.905 132.077 195.225 131.943 195.617 131.943C195.992 131.943 196.304 132.077 196.553 132.344C196.82 132.594 196.954 132.915 196.954 133.307V136.301L196.687 135.151C196.829 134.652 197.043 134.189 197.328 133.761C197.631 133.333 197.988 132.959 198.398 132.638C198.808 132.318 199.262 132.068 199.761 131.89C200.278 131.712 200.813 131.623 201.365 131.623C201.828 131.623 202.229 131.747 202.568 131.997C202.907 132.246 203.076 132.558 203.076 132.932C203.076 133.414 202.951 133.77 202.702 134.002C202.452 134.216 202.176 134.323 201.873 134.323C201.606 134.323 201.347 134.269 201.098 134.162C200.848 134.037 200.554 133.975 200.216 133.975C199.841 133.975 199.458 134.073 199.066 134.269C198.674 134.465 198.317 134.759 197.997 135.151C197.676 135.526 197.417 135.971 197.221 136.488C197.043 137.005 196.954 137.584 196.954 138.226V144.642C196.954 145.034 196.82 145.363 196.553 145.631C196.304 145.88 195.992 146.005 195.617 146.005ZM207.107 131.81C207.374 131.81 207.623 131.881 207.855 132.024C208.105 132.166 208.283 132.38 208.39 132.665L212.587 142.369L212.079 142.61L216.329 132.692C216.579 132.104 216.98 131.819 217.532 131.836C217.889 131.836 218.183 131.952 218.415 132.184C218.664 132.398 218.789 132.683 218.789 133.039C218.789 133.146 218.771 133.262 218.735 133.387C218.7 133.494 218.655 133.601 218.602 133.708L213.522 145.149C213.291 145.684 212.908 145.969 212.373 146.005C212.106 146.041 211.838 145.987 211.571 145.844C211.321 145.684 211.125 145.452 210.983 145.149L205.93 133.708C205.895 133.636 205.859 133.547 205.823 133.44C205.788 133.316 205.77 133.173 205.77 133.013C205.77 132.745 205.886 132.478 206.117 132.211C206.367 131.943 206.697 131.81 207.107 131.81ZM224.023 144.642C224.023 145.034 223.898 145.363 223.648 145.631C223.399 145.88 223.078 146.005 222.686 146.005C222.312 146.005 221.991 145.88 221.724 145.631C221.474 145.363 221.349 145.034 221.349 144.642V133.2C221.349 132.808 221.474 132.487 221.724 132.237C221.991 131.97 222.312 131.836 222.686 131.836C223.078 131.836 223.399 131.97 223.648 132.237C223.898 132.487 224.023 132.808 224.023 133.2V144.642ZM222.659 130.072C222.142 130.072 221.768 129.983 221.537 129.805C221.305 129.609 221.189 129.288 221.189 128.842V128.415C221.189 127.969 221.314 127.657 221.563 127.479C221.813 127.301 222.187 127.212 222.686 127.212C223.221 127.212 223.604 127.31 223.836 127.506C224.067 127.684 224.183 127.987 224.183 128.415V128.842C224.183 129.306 224.058 129.626 223.809 129.805C223.577 129.983 223.194 130.072 222.659 130.072ZM233.847 131.623C234.81 131.623 235.665 131.729 236.414 131.943C237.162 132.139 237.742 132.425 238.152 132.799C238.579 133.155 238.793 133.574 238.793 134.055C238.793 134.358 238.704 134.643 238.526 134.911C238.348 135.16 238.08 135.285 237.724 135.285C237.474 135.285 237.26 135.24 237.082 135.151C236.922 135.062 236.77 134.955 236.628 134.83C236.485 134.706 236.307 134.581 236.093 134.456C235.897 134.349 235.603 134.26 235.211 134.189C234.837 134.118 234.498 134.082 234.195 134.082C233.25 134.082 232.431 134.296 231.736 134.724C231.058 135.151 230.524 135.731 230.132 136.461C229.757 137.192 229.57 138.021 229.57 138.947C229.57 139.874 229.757 140.703 230.132 141.434C230.524 142.164 231.049 142.743 231.709 143.171C232.386 143.599 233.17 143.813 234.061 143.813C234.596 143.813 235.033 143.777 235.371 143.706C235.71 143.617 236.004 143.51 236.253 143.385C236.521 143.225 236.744 143.064 236.922 142.904C237.118 142.726 237.385 142.637 237.724 142.637C238.116 142.637 238.41 142.761 238.606 143.011C238.82 143.242 238.927 143.537 238.927 143.893C238.927 144.285 238.686 144.668 238.205 145.042C237.742 145.399 237.118 145.693 236.334 145.925C235.549 146.156 234.685 146.272 233.741 146.272C232.35 146.272 231.139 145.951 230.105 145.31C229.089 144.668 228.296 143.795 227.726 142.69C227.173 141.585 226.897 140.337 226.897 138.947C226.897 137.539 227.191 136.292 227.779 135.205C228.367 134.1 229.187 133.227 230.239 132.585C231.29 131.943 232.493 131.623 233.847 131.623ZM248.031 146.272C246.552 146.272 245.268 145.969 244.181 145.363C243.094 144.74 242.248 143.893 241.642 142.824C241.053 141.737 240.759 140.498 240.759 139.108C240.759 137.539 241.071 136.203 241.695 135.098C242.337 133.975 243.165 133.12 244.181 132.531C245.197 131.926 246.275 131.623 247.416 131.623C248.289 131.623 249.118 131.801 249.902 132.157C250.686 132.496 251.381 132.977 251.987 133.601C252.611 134.207 253.101 134.929 253.458 135.766C253.814 136.586 254.001 137.486 254.019 138.466C254.001 138.823 253.859 139.117 253.591 139.348C253.324 139.58 253.012 139.696 252.656 139.696H242.256L241.615 137.424H251.666L251.159 137.905V137.236C251.123 136.613 250.918 136.069 250.544 135.606C250.169 135.125 249.706 134.759 249.154 134.51C248.601 134.242 248.022 134.109 247.416 134.109C246.881 134.109 246.364 134.198 245.865 134.376C245.384 134.536 244.948 134.804 244.555 135.178C244.181 135.552 243.878 136.051 243.647 136.675C243.433 137.281 243.326 138.038 243.326 138.947C243.326 139.928 243.531 140.783 243.941 141.514C244.351 142.244 244.903 142.815 245.598 143.225C246.293 143.617 247.059 143.813 247.897 143.813C248.557 143.813 249.1 143.75 249.528 143.626C249.956 143.483 250.312 143.314 250.597 143.118C250.882 142.922 251.132 142.735 251.346 142.556C251.613 142.396 251.88 142.316 252.148 142.316C252.468 142.316 252.736 142.432 252.95 142.663C253.164 142.877 253.27 143.136 253.27 143.439C253.27 143.831 253.074 144.187 252.682 144.508C252.201 144.971 251.533 145.381 250.677 145.738C249.84 146.094 248.958 146.272 248.031 146.272ZM139.08 160.292C140.024 160.292 140.897 160.55 141.699 161.067C142.501 161.566 143.143 162.252 143.624 163.125C144.105 163.999 144.346 164.979 144.346 166.066C144.346 167.153 144.105 168.142 143.624 169.033C143.143 169.907 142.501 170.611 141.699 171.145C140.897 171.662 140.024 171.921 139.08 171.921H133.92L134.134 171.493V177.642C134.134 178.034 134.009 178.363 133.76 178.631C133.528 178.88 133.216 179.005 132.824 179.005C132.45 179.005 132.138 178.88 131.888 178.631C131.657 178.363 131.541 178.034 131.541 177.642V161.655C131.541 161.263 131.675 160.942 131.942 160.693C132.209 160.425 132.53 160.292 132.904 160.292H139.08ZM139.08 169.354C139.543 169.354 139.962 169.203 140.336 168.9C140.728 168.597 141.04 168.196 141.272 167.697C141.521 167.198 141.646 166.654 141.646 166.066C141.646 165.478 141.521 164.943 141.272 164.462C141.04 163.981 140.728 163.598 140.336 163.313C139.962 163.01 139.543 162.858 139.08 162.858H133.867L134.134 162.457V169.702L133.893 169.354H139.08ZM160.515 171.974C160.515 173.4 160.203 174.665 159.579 175.77C158.955 176.857 158.109 177.713 157.039 178.337C155.97 178.96 154.767 179.272 153.43 179.272C152.094 179.272 150.891 178.96 149.821 178.337C148.752 177.713 147.897 176.857 147.255 175.77C146.631 174.665 146.319 173.4 146.319 171.974C146.319 170.531 146.631 169.265 147.255 168.178C147.897 167.073 148.752 166.209 149.821 165.585C150.891 164.943 152.094 164.623 153.43 164.623C154.767 164.623 155.97 164.943 157.039 165.585C158.109 166.209 158.955 167.073 159.579 168.178C160.203 169.265 160.515 170.531 160.515 171.974ZM157.841 171.974C157.841 170.994 157.645 170.147 157.253 169.434C156.861 168.704 156.326 168.133 155.649 167.724C154.99 167.296 154.25 167.082 153.43 167.082C152.611 167.082 151.862 167.296 151.185 167.724C150.508 168.133 149.973 168.704 149.581 169.434C149.189 170.147 148.993 170.994 148.993 171.974C148.993 172.919 149.189 173.756 149.581 174.487C149.973 175.218 150.508 175.788 151.185 176.198C151.862 176.608 152.611 176.813 153.43 176.813C154.25 176.813 154.99 176.608 155.649 176.198C156.326 175.788 156.861 175.218 157.253 174.487C157.645 173.756 157.841 172.919 157.841 171.974ZM164.877 179.005C164.485 179.005 164.164 178.88 163.915 178.631C163.665 178.363 163.54 178.034 163.54 177.642V166.307C163.54 165.915 163.665 165.594 163.915 165.344C164.164 165.077 164.485 164.943 164.877 164.943C165.251 164.943 165.563 165.077 165.813 165.344C166.08 165.594 166.214 165.915 166.214 166.307V169.301L165.946 168.151C166.089 167.652 166.303 167.189 166.588 166.761C166.891 166.333 167.247 165.959 167.657 165.638C168.067 165.318 168.522 165.068 169.021 164.89C169.538 164.712 170.072 164.623 170.625 164.623C171.088 164.623 171.489 164.747 171.828 164.997C172.166 165.246 172.336 165.558 172.336 165.932C172.336 166.414 172.211 166.77 171.961 167.002C171.712 167.216 171.436 167.323 171.133 167.323C170.865 167.323 170.607 167.269 170.357 167.162C170.108 167.037 169.814 166.975 169.475 166.975C169.101 166.975 168.718 167.073 168.326 167.269C167.934 167.465 167.577 167.759 167.256 168.151C166.936 168.526 166.677 168.971 166.481 169.488C166.303 170.005 166.214 170.584 166.214 171.226V177.642C166.214 178.034 166.08 178.363 165.813 178.631C165.563 178.88 165.251 179.005 164.877 179.005ZM174.527 165.104H180.809C181.166 165.104 181.46 165.228 181.691 165.478C181.941 165.71 182.066 166.004 182.066 166.36C182.066 166.699 181.941 166.984 181.691 167.216C181.46 167.447 181.166 167.563 180.809 167.563H174.527C174.17 167.563 173.868 167.447 173.618 167.216C173.386 166.966 173.27 166.672 173.27 166.333C173.27 165.977 173.386 165.683 173.618 165.451C173.868 165.22 174.17 165.104 174.527 165.104ZM177.334 161.628C177.726 161.628 178.047 161.762 178.296 162.029C178.546 162.279 178.671 162.6 178.671 162.992V175.396C178.671 175.717 178.724 175.975 178.831 176.171C178.938 176.367 179.08 176.501 179.259 176.572C179.455 176.643 179.651 176.679 179.847 176.679C180.043 176.679 180.212 176.643 180.355 176.572C180.515 176.501 180.702 176.465 180.916 176.465C181.13 176.465 181.326 176.563 181.504 176.759C181.682 176.955 181.772 177.223 181.772 177.561C181.772 177.989 181.54 178.337 181.076 178.604C180.613 178.871 180.114 179.005 179.579 179.005C179.276 179.005 178.92 178.978 178.51 178.925C178.1 178.871 177.699 178.738 177.307 178.524C176.933 178.31 176.621 177.971 176.371 177.508C176.122 177.027 175.997 176.358 175.997 175.503V162.992C175.997 162.6 176.122 162.279 176.371 162.029C176.639 161.762 176.96 161.628 177.334 161.628ZM196.548 164.729C196.94 164.729 197.261 164.863 197.51 165.13C197.76 165.38 197.885 165.701 197.885 166.093V177.642C197.885 178.034 197.76 178.363 197.51 178.631C197.261 178.88 196.94 179.005 196.548 179.005C196.174 179.005 195.853 178.88 195.586 178.631C195.336 178.363 195.211 178.034 195.211 177.642V175.717L195.773 175.797C195.773 176.118 195.639 176.474 195.372 176.866C195.122 177.258 194.775 177.642 194.329 178.016C193.884 178.372 193.358 178.675 192.752 178.925C192.146 179.156 191.495 179.272 190.8 179.272C189.571 179.272 188.466 178.96 187.486 178.337C186.505 177.695 185.73 176.822 185.16 175.717C184.589 174.612 184.304 173.355 184.304 171.947C184.304 170.504 184.589 169.238 185.16 168.151C185.73 167.046 186.496 166.182 187.459 165.558C188.439 164.934 189.526 164.623 190.72 164.623C191.487 164.623 192.191 164.747 192.832 164.997C193.492 165.246 194.062 165.567 194.543 165.959C195.024 166.351 195.39 166.77 195.639 167.216C195.906 167.643 196.04 168.053 196.04 168.445L195.211 168.526V166.093C195.211 165.719 195.336 165.398 195.586 165.13C195.853 164.863 196.174 164.729 196.548 164.729ZM191.094 176.813C191.932 176.813 192.672 176.599 193.313 176.171C193.955 175.743 194.454 175.164 194.81 174.434C195.167 173.685 195.345 172.856 195.345 171.947C195.345 171.021 195.167 170.192 194.81 169.461C194.454 168.731 193.955 168.151 193.313 167.724C192.672 167.296 191.932 167.082 191.094 167.082C190.275 167.082 189.544 167.296 188.902 167.724C188.279 168.151 187.78 168.731 187.405 169.461C187.049 170.192 186.871 171.021 186.871 171.947C186.871 172.856 187.049 173.685 187.405 174.434C187.78 175.164 188.279 175.743 188.902 176.171C189.544 176.599 190.275 176.813 191.094 176.813ZM204.517 177.642C204.517 178.034 204.383 178.363 204.116 178.631C203.866 178.88 203.555 179.005 203.18 179.005C202.806 179.005 202.485 178.88 202.218 178.631C201.968 178.363 201.844 178.034 201.844 177.642V160.586C201.844 160.194 201.977 159.873 202.245 159.623C202.512 159.356 202.833 159.222 203.207 159.222C203.599 159.222 203.911 159.356 204.143 159.623C204.392 159.873 204.517 160.194 204.517 160.586V177.642Z" fill="white"/>
<path d="M82.5045 217.841C82.2076 217.841 81.9552 217.744 81.7473 217.551C81.5542 217.344 81.4577 217.084 81.4577 216.772C81.4577 216.475 81.5542 216.237 81.7473 216.059C81.9552 215.866 82.2076 215.77 82.5045 215.77H91.6141C91.9111 215.77 92.1561 215.866 92.3491 216.059C92.557 216.252 92.6609 216.505 92.6609 216.816C92.6609 217.099 92.557 217.344 92.3491 217.551C92.1561 217.744 91.9111 217.841 91.6141 217.841H82.5045ZM87.0259 222.34C86.6844 222.34 86.3948 222.229 86.1573 222.006C85.9345 221.783 85.8232 221.494 85.8232 221.137V212.206C85.8232 211.864 85.942 211.582 86.1795 211.36C86.4171 211.137 86.7067 211.026 87.0482 211.026C87.4045 211.026 87.6867 211.137 87.8945 211.36C88.1173 211.582 88.2286 211.864 88.2286 212.206V221.137C88.2286 221.494 88.1173 221.783 87.8945 222.006C87.6718 222.229 87.3823 222.34 87.0259 222.34ZM99.5263 208.331C100.358 208.331 101.093 208.494 101.731 208.821C102.385 209.147 102.927 209.593 103.357 210.157C103.803 210.706 104.137 211.337 104.359 212.05C104.597 212.748 104.716 213.476 104.716 214.233C104.716 214.812 104.649 215.48 104.515 216.237C104.382 216.98 104.159 217.759 103.847 218.576C103.535 219.393 103.12 220.18 102.6 220.937C102.095 221.694 101.457 222.377 100.684 222.986C99.9272 223.58 99.0215 224.04 97.9672 224.367C97.8187 224.397 97.6777 224.411 97.544 224.411C97.2471 224.411 96.9798 224.33 96.7422 224.166C96.5195 224.003 96.4081 223.736 96.4081 223.365C96.4081 223.083 96.4972 222.845 96.6754 222.652C96.8536 222.459 97.0912 222.318 97.3881 222.229C98.1157 221.961 98.8284 221.553 99.5263 221.004C100.224 220.439 100.826 219.779 101.33 219.021C101.835 218.249 102.177 217.425 102.355 216.549L102.912 216.46C102.689 216.772 102.407 217.091 102.065 217.418C101.724 217.744 101.316 218.019 100.84 218.242C100.365 218.45 99.8159 218.554 99.1922 218.554C98.2271 218.554 97.3881 218.338 96.6754 217.908C95.9627 217.462 95.4133 216.854 95.0272 216.081C94.6412 215.309 94.4481 214.426 94.4481 213.431C94.4481 212.51 94.6708 211.664 95.1163 210.892C95.5766 210.12 96.1854 209.504 96.9427 209.043C97.7148 208.568 98.576 208.331 99.5263 208.331ZM99.5486 210.38C98.9992 210.38 98.5092 210.513 98.0786 210.781C97.648 211.048 97.3065 211.412 97.054 211.872C96.8016 212.332 96.6754 212.852 96.6754 213.431C96.6754 214.01 96.7868 214.537 97.0095 215.012C97.2322 215.473 97.5589 215.836 97.9895 216.104C98.4201 216.371 98.9249 216.505 99.504 216.505C100.083 216.505 100.595 216.371 101.041 216.104C101.486 215.822 101.835 215.443 102.088 214.968C102.34 214.493 102.466 213.973 102.466 213.409C102.466 212.844 102.34 212.34 102.088 211.894C101.835 211.434 101.494 211.07 101.063 210.803C100.633 210.521 100.128 210.38 99.5486 210.38ZM111.117 224.189C110.775 224.189 110.493 224.085 110.27 223.877C110.048 223.654 109.936 223.379 109.936 223.053V211.115L110.226 211.516L108.154 212.963C107.976 213.112 107.761 213.186 107.508 213.186C107.211 213.186 106.944 213.075 106.707 212.852C106.484 212.614 106.373 212.34 106.373 212.028C106.373 211.642 106.566 211.323 106.952 211.07L110.337 208.821C110.471 208.731 110.612 208.672 110.76 208.642C110.924 208.613 111.072 208.598 111.206 208.598C111.547 208.598 111.822 208.709 112.03 208.932C112.238 209.14 112.342 209.407 112.342 209.734V223.053C112.342 223.379 112.223 223.654 111.985 223.877C111.763 224.085 111.473 224.189 111.117 224.189ZM129.138 224.189C128.826 224.189 128.567 224.085 128.359 223.877C128.151 223.654 128.047 223.379 128.047 223.053V211.716L128.448 211.85L123.637 217.997L123.526 217.707H131.633C131.93 217.707 132.175 217.811 132.368 218.019C132.576 218.212 132.68 218.457 132.68 218.754C132.68 219.036 132.576 219.274 132.368 219.467C132.175 219.66 131.93 219.756 131.633 219.756H121.989C121.721 219.756 121.469 219.653 121.231 219.445C120.994 219.222 120.875 218.962 120.875 218.665C120.875 218.383 120.972 218.131 121.165 217.908L128.247 209.043C128.351 208.895 128.485 208.783 128.648 208.709C128.812 208.635 128.982 208.598 129.161 208.598C129.487 208.598 129.754 208.709 129.962 208.932C130.17 209.14 130.274 209.407 130.274 209.734V223.053C130.274 223.379 130.163 223.654 129.94 223.877C129.717 224.085 129.45 224.189 129.138 224.189ZM140.06 224.411C138.813 224.411 137.758 224.07 136.897 223.387C136.036 222.689 135.383 221.739 134.937 220.536C134.507 219.318 134.291 217.938 134.291 216.393C134.291 214.834 134.507 213.453 134.937 212.251C135.383 211.033 136.036 210.083 136.897 209.4C137.758 208.717 138.813 208.375 140.06 208.375C141.307 208.375 142.354 208.717 143.2 209.4C144.062 210.083 144.715 211.033 145.16 212.251C145.606 213.453 145.829 214.834 145.829 216.393C145.829 217.938 145.606 219.318 145.16 220.536C144.715 221.739 144.062 222.689 143.2 223.387C142.354 224.07 141.307 224.411 140.06 224.411ZM140.06 222.162C140.758 222.162 141.352 221.939 141.842 221.494C142.347 221.048 142.733 220.395 143 219.534C143.282 218.673 143.423 217.626 143.423 216.393C143.423 215.146 143.282 214.092 143 213.231C142.733 212.369 142.347 211.716 141.842 211.271C141.352 210.825 140.758 210.602 140.06 210.602C139.362 210.602 138.761 210.825 138.256 211.271C137.751 211.716 137.365 212.369 137.098 213.231C136.83 214.092 136.697 215.146 136.697 216.393C136.697 217.626 136.83 218.673 137.098 219.534C137.365 220.395 137.751 221.048 138.256 221.494C138.761 221.939 139.362 222.162 140.06 222.162ZM155.348 224.189C155.036 224.189 154.776 224.085 154.568 223.877C154.36 223.654 154.256 223.379 154.256 223.053V211.716L154.657 211.85L149.846 217.997L149.735 217.707H157.842C158.139 217.707 158.384 217.811 158.577 218.019C158.785 218.212 158.889 218.457 158.889 218.754C158.889 219.036 158.785 219.274 158.577 219.467C158.384 219.66 158.139 219.756 157.842 219.756H148.198C147.931 219.756 147.679 219.653 147.441 219.445C147.203 219.222 147.085 218.962 147.085 218.665C147.085 218.383 147.181 218.131 147.374 217.908L154.457 209.043C154.561 208.895 154.695 208.783 154.858 208.709C155.021 208.635 155.192 208.598 155.37 208.598C155.697 208.598 155.964 208.709 156.172 208.932C156.38 209.14 156.484 209.407 156.484 209.734V223.053C156.484 223.379 156.372 223.654 156.15 223.877C155.927 224.085 155.66 224.189 155.348 224.189ZM166.269 224.411C165.022 224.411 163.968 224.07 163.107 223.387C162.246 222.689 161.592 221.739 161.147 220.536C160.716 219.318 160.501 217.938 160.501 216.393C160.501 214.834 160.716 213.453 161.147 212.251C161.592 211.033 162.246 210.083 163.107 209.4C163.968 208.717 165.022 208.375 166.269 208.375C167.517 208.375 168.564 208.717 169.41 209.4C170.271 210.083 170.924 211.033 171.37 212.251C171.815 213.453 172.038 214.834 172.038 216.393C172.038 217.938 171.815 219.318 171.37 220.536C170.924 221.739 170.271 222.689 169.41 223.387C168.564 224.07 167.517 224.411 166.269 224.411ZM166.269 222.162C166.967 222.162 167.561 221.939 168.051 221.494C168.556 221.048 168.942 220.395 169.209 219.534C169.492 218.673 169.633 217.626 169.633 216.393C169.633 215.146 169.492 214.092 169.209 213.231C168.942 212.369 168.556 211.716 168.051 211.271C167.561 210.825 166.967 210.602 166.269 210.602C165.572 210.602 164.97 210.825 164.465 211.271C163.961 211.716 163.574 212.369 163.307 213.231C163.04 214.092 162.906 215.146 162.906 216.393C162.906 217.626 163.04 218.673 163.307 219.534C163.574 220.395 163.961 221.048 164.465 221.494C164.97 221.939 165.572 222.162 166.269 222.162ZM181.557 224.189C181.246 224.189 180.986 224.085 180.778 223.877C180.57 223.654 180.466 223.379 180.466 223.053V211.716L180.867 211.85L176.056 217.997L175.945 217.707H184.052C184.349 217.707 184.594 217.811 184.787 218.019C184.995 218.212 185.099 218.457 185.099 218.754C185.099 219.036 184.995 219.274 184.787 219.467C184.594 219.66 184.349 219.756 184.052 219.756H174.408C174.141 219.756 173.888 219.653 173.651 219.445C173.413 219.222 173.294 218.962 173.294 218.665C173.294 218.383 173.391 218.131 173.584 217.908L180.667 209.043C180.77 208.895 180.904 208.783 181.067 208.709C181.231 208.635 181.402 208.598 181.58 208.598C181.906 208.598 182.174 208.709 182.382 208.932C182.589 209.14 182.693 209.407 182.693 209.734V223.053C182.693 223.379 182.582 223.654 182.359 223.877C182.137 224.085 181.869 224.189 181.557 224.189ZM198.678 224.411C197.431 224.411 196.377 224.07 195.515 223.387C194.654 222.689 194.001 221.739 193.555 220.536C193.125 219.318 192.909 217.938 192.909 216.393C192.909 214.834 193.125 213.453 193.555 212.251C194.001 211.033 194.654 210.083 195.515 209.4C196.377 208.717 197.431 208.375 198.678 208.375C199.925 208.375 200.972 208.717 201.819 209.4C202.68 210.083 203.333 211.033 203.779 212.251C204.224 213.453 204.447 214.834 204.447 216.393C204.447 217.938 204.224 219.318 203.779 220.536C203.333 221.739 202.68 222.689 201.819 223.387C200.972 224.07 199.925 224.411 198.678 224.411ZM198.678 222.162C199.376 222.162 199.97 221.939 200.46 221.494C200.965 221.048 201.351 220.395 201.618 219.534C201.9 218.673 202.041 217.626 202.041 216.393C202.041 215.146 201.9 214.092 201.618 213.231C201.351 212.369 200.965 211.716 200.46 211.271C199.97 210.825 199.376 210.602 198.678 210.602C197.98 210.602 197.379 210.825 196.874 211.271C196.369 211.716 195.983 212.369 195.716 213.231C195.449 214.092 195.315 215.146 195.315 216.393C195.315 217.626 195.449 218.673 195.716 219.534C195.983 220.395 196.369 221.048 196.874 221.494C197.379 221.939 197.98 222.162 198.678 222.162ZM207.774 221.338C207.893 221.338 208.019 221.36 208.153 221.405C208.286 221.434 208.435 221.509 208.598 221.627C208.866 221.865 209.185 222.065 209.556 222.229C209.942 222.377 210.38 222.451 210.87 222.451C211.419 222.451 211.932 222.325 212.407 222.073C212.882 221.806 213.268 221.434 213.565 220.959C213.862 220.484 214.011 219.92 214.011 219.266C214.011 218.598 213.869 218.056 213.587 217.641C213.305 217.21 212.941 216.891 212.496 216.683C212.051 216.46 211.583 216.349 211.093 216.349C210.811 216.349 210.573 216.378 210.38 216.438C210.187 216.482 210.001 216.534 209.823 216.594C209.645 216.638 209.452 216.661 209.244 216.661C208.962 216.661 208.739 216.564 208.576 216.371C208.413 216.163 208.331 215.918 208.331 215.636C208.331 215.458 208.368 215.302 208.442 215.168C208.517 215.035 208.621 214.886 208.754 214.723L212.875 210.313L213.365 210.758H207.462C207.165 210.758 206.913 210.662 206.705 210.469C206.512 210.261 206.416 210.008 206.416 209.711C206.416 209.429 206.512 209.192 206.705 208.999C206.913 208.806 207.165 208.709 207.462 208.709H214.501C214.887 208.709 215.169 208.821 215.347 209.043C215.54 209.266 215.636 209.526 215.636 209.823C215.636 209.986 215.592 210.142 215.503 210.291C215.429 210.439 215.332 210.58 215.213 210.714L211.071 215.168L210.514 214.567C210.633 214.508 210.833 214.448 211.115 214.389C211.397 214.329 211.627 214.3 211.806 214.3C212.652 214.3 213.409 214.515 214.077 214.946C214.76 215.376 215.288 215.955 215.659 216.683C216.045 217.396 216.238 218.205 216.238 219.111C216.238 220.194 215.993 221.137 215.503 221.939C215.013 222.726 214.33 223.335 213.454 223.766C212.593 224.196 211.598 224.411 210.469 224.411C209.905 224.411 209.341 224.337 208.776 224.189C208.227 224.025 207.752 223.795 207.351 223.498C207.099 223.35 206.928 223.194 206.839 223.031C206.75 222.852 206.705 222.682 206.705 222.518C206.705 222.236 206.802 221.969 206.995 221.716C207.203 221.464 207.462 221.338 207.774 221.338ZM219.65 221.338C219.769 221.338 219.895 221.36 220.029 221.405C220.162 221.434 220.311 221.509 220.474 221.627C220.741 221.865 221.061 222.065 221.432 222.229C221.818 222.377 222.256 222.451 222.746 222.451C223.295 222.451 223.808 222.325 224.283 222.073C224.758 221.806 225.144 221.434 225.441 220.959C225.738 220.484 225.886 219.92 225.886 219.266C225.886 218.598 225.745 218.056 225.463 217.641C225.181 217.21 224.817 216.891 224.372 216.683C223.926 216.46 223.459 216.349 222.969 216.349C222.687 216.349 222.449 216.378 222.256 216.438C222.063 216.482 221.877 216.534 221.699 216.594C221.521 216.638 221.328 216.661 221.12 216.661C220.838 216.661 220.615 216.564 220.452 216.371C220.289 216.163 220.207 215.918 220.207 215.636C220.207 215.458 220.244 215.302 220.318 215.168C220.393 215.035 220.496 214.886 220.63 214.723L224.751 210.313L225.241 210.758H219.338C219.041 210.758 218.789 210.662 218.581 210.469C218.388 210.261 218.291 210.008 218.291 209.711C218.291 209.429 218.388 209.192 218.581 208.999C218.789 208.806 219.041 208.709 219.338 208.709H226.376C226.763 208.709 227.045 208.821 227.223 209.043C227.416 209.266 227.512 209.526 227.512 209.823C227.512 209.986 227.468 210.142 227.379 210.291C227.304 210.439 227.208 210.58 227.089 210.714L222.946 215.168L222.39 214.567C222.508 214.508 222.709 214.448 222.991 214.389C223.273 214.329 223.503 214.3 223.681 214.3C224.528 214.3 225.285 214.515 225.953 214.946C226.636 215.376 227.163 215.955 227.535 216.683C227.921 217.396 228.114 218.205 228.114 219.111C228.114 220.194 227.869 221.137 227.379 221.939C226.889 222.726 226.206 223.335 225.33 223.766C224.468 224.196 223.474 224.411 222.345 224.411C221.781 224.411 221.217 224.337 220.652 224.189C220.103 224.025 219.628 223.795 219.227 223.498C218.974 223.35 218.804 223.194 218.715 223.031C218.626 222.852 218.581 222.682 218.581 222.518C218.581 222.236 218.678 221.969 218.871 221.716C219.078 221.464 219.338 221.338 219.65 221.338ZM235.468 208.331C236.3 208.331 237.035 208.494 237.673 208.821C238.327 209.147 238.869 209.593 239.299 210.157C239.745 210.706 240.079 211.337 240.301 212.05C240.539 212.748 240.658 213.476 240.658 214.233C240.658 214.812 240.591 215.48 240.457 216.237C240.324 216.98 240.101 217.759 239.789 218.576C239.477 219.393 239.062 220.18 238.542 220.937C238.037 221.694 237.399 222.377 236.626 222.986C235.869 223.58 234.963 224.04 233.909 224.367C233.761 224.397 233.62 224.411 233.486 224.411C233.189 224.411 232.922 224.33 232.684 224.166C232.461 224.003 232.35 223.736 232.35 223.365C232.35 223.083 232.439 222.845 232.617 222.652C232.796 222.459 233.033 222.318 233.33 222.229C234.058 221.961 234.77 221.553 235.468 221.004C236.166 220.439 236.767 219.779 237.272 219.021C237.777 218.249 238.119 217.425 238.297 216.549L238.854 216.46C238.631 216.772 238.349 217.091 238.007 217.418C237.666 217.744 237.257 218.019 236.782 218.242C236.307 218.45 235.758 218.554 235.134 218.554C234.169 218.554 233.33 218.338 232.617 217.908C231.905 217.462 231.355 216.854 230.969 216.081C230.583 215.309 230.39 214.426 230.39 213.431C230.39 212.51 230.613 211.664 231.058 210.892C231.519 210.12 232.127 209.504 232.885 209.043C233.657 208.568 234.518 208.331 235.468 208.331ZM235.491 210.38C234.941 210.38 234.451 210.513 234.021 210.781C233.59 211.048 233.248 211.412 232.996 211.872C232.744 212.332 232.617 212.852 232.617 213.431C232.617 214.01 232.729 214.537 232.951 215.012C233.174 215.473 233.501 215.836 233.931 216.104C234.362 216.371 234.867 216.505 235.446 216.505C236.025 216.505 236.537 216.371 236.983 216.104C237.428 215.822 237.777 215.443 238.03 214.968C238.282 214.493 238.408 213.973 238.408 213.409C238.408 212.844 238.282 212.34 238.03 211.894C237.777 211.434 237.436 211.07 237.005 210.803C236.574 210.521 236.07 210.38 235.491 210.38ZM250.245 216.304L250.178 215.903C250.727 216.126 251.21 216.438 251.626 216.839C252.041 217.225 252.361 217.663 252.583 218.153C252.821 218.643 252.94 219.155 252.94 219.69C252.94 220.521 252.709 221.286 252.249 221.984C251.804 222.667 251.195 223.216 250.423 223.632C249.666 224.033 248.819 224.233 247.884 224.233C246.933 224.233 246.072 224.033 245.3 223.632C244.543 223.216 243.934 222.667 243.474 221.984C243.028 221.286 242.806 220.521 242.806 219.69C242.806 219.021 242.947 218.435 243.229 217.93C243.511 217.425 243.867 217.002 244.298 216.661C244.728 216.319 245.166 216.037 245.612 215.814L245.456 216.304C245.085 216.141 244.721 215.918 244.365 215.636C244.023 215.339 243.741 214.968 243.518 214.522C243.296 214.077 243.184 213.565 243.184 212.986C243.184 212.169 243.392 211.434 243.808 210.781C244.224 210.112 244.788 209.585 245.501 209.199C246.213 208.798 247.008 208.598 247.884 208.598C248.76 208.598 249.547 208.798 250.245 209.199C250.943 209.585 251.499 210.112 251.915 210.781C252.331 211.434 252.539 212.169 252.539 212.986C252.539 213.609 252.42 214.144 252.182 214.589C251.945 215.02 251.648 215.376 251.291 215.658C250.935 215.94 250.586 216.156 250.245 216.304ZM245.411 213.03C245.411 213.49 245.523 213.899 245.746 214.255C245.968 214.611 246.265 214.894 246.636 215.101C247.008 215.309 247.423 215.413 247.884 215.413C248.329 215.413 248.738 215.309 249.109 215.101C249.48 214.894 249.769 214.611 249.977 214.255C250.2 213.899 250.311 213.49 250.311 213.03C250.311 212.332 250.081 211.761 249.621 211.315C249.161 210.87 248.582 210.647 247.884 210.647C247.156 210.647 246.562 210.87 246.102 211.315C245.642 211.761 245.411 212.332 245.411 213.03ZM247.884 222.184C248.686 222.184 249.354 221.947 249.888 221.471C250.438 220.981 250.712 220.38 250.712 219.667C250.712 219.177 250.586 218.739 250.334 218.353C250.081 217.967 249.74 217.663 249.309 217.44C248.879 217.217 248.403 217.106 247.884 217.106C247.364 217.106 246.889 217.217 246.458 217.44C246.028 217.663 245.686 217.967 245.434 218.353C245.181 218.739 245.055 219.177 245.055 219.667C245.055 220.38 245.322 220.981 245.857 221.471C246.391 221.947 247.067 222.184 247.884 222.184Z" fill="#57D76A"/>
<rect x="128.276" y="23" width="79.4469" height="23.4434" rx="11.7217" fill="black"/>
<circle cx="196.002" cy="34.7217" r="3.90723" fill="#0E101F"/>
<circle cx="196.002" cy="34.7217" r="3.19682" fill="#01031A"/>
<g filter="url(#filter0_f_53_449)">
<ellipse cx="196.002" cy="32.9455" rx="1.77601" ry="0.710405" fill="white" fill-opacity="0.1"/>
</g>
<g filter="url(#filter1_f_53_449)">
<ellipse cx="196.002" cy="36.1428" rx="1.77601" ry="1.06561" fill="white" fill-opacity="0.1"/>
</g>
<defs>
<filter id="filter0_f_53_449" x="193.574" y="31.5839" width="4.85465" height="2.72331" filterUnits="userSpaceOnUse" color-interpolation-filters="sRGB">
<feFlood flood-opacity="0" result="BackgroundImageFix"/>
<feBlend mode="normal" in="SourceGraphic" in2="BackgroundImageFix" result="shape"/>
<feGaussianBlur stdDeviation="0.325602" result="effect1_foregroundBlur_53_449"/>
</filter>
<filter id="filter1_f_53_449" x="193.574" y="34.4259" width="4.85465" height="3.43351" filterUnits="userSpaceOnUse" color-interpolation-filters="sRGB">
<feFlood flood-opacity="0" result="BackgroundImageFix"/>
<feBlend mode="normal" in="SourceGraphic" in2="BackgroundImageFix" result="shape"/>
<feGaussianBlur stdDeviation="0.325602" result="effect1_foregroundBlur_53_449"/>
</filter>
<clipPath id="clip0_53_449">
<rect width="59.9708" height="60" fill="white" transform="translate(138.015 508)"/>
</clipPath>
<clipPath id="clip1_53_449">
<rect width="59.9708" height="60" fill="white" transform="translate(138.015 508)"/>
</clipPath>
</defs>
</svg>
