<svg width="41" height="41" viewBox="0 0 41 41" fill="none" xmlns="http://www.w3.org/2000/svg">
<rect x="0.873047" y="0.366211" width="40" height="40" rx="12" fill="#261C41"/>
<path d="M28.213 22.8562L27.213 21.1962C27.003 20.8262 26.813 20.1262 26.813 19.7162V17.1862C26.813 14.8362 25.433 12.8062 23.443 11.8562C22.923 10.9362 21.963 10.3662 20.863 10.3662C19.773 10.3662 18.793 10.9562 18.273 11.8862C16.323 12.8562 14.973 14.8662 14.973 17.1862V19.7162C14.973 20.1262 14.783 20.8262 14.573 21.1862L13.563 22.8562C13.163 23.5262 13.073 24.2662 13.323 24.9462C13.563 25.6162 14.133 26.1362 14.873 26.3862C16.813 27.0462 18.853 27.3662 20.893 27.3662C22.933 27.3662 24.973 27.0462 26.913 26.3962C27.613 26.1662 28.153 25.6362 28.413 24.9462C28.673 24.2562 28.603 23.4962 28.213 22.8562Z" fill="white"/>
<path d="M23.7027 28.3762C23.2827 29.5362 22.1727 30.3662 20.8727 30.3662C20.0827 30.3662 19.3027 30.0462 18.7527 29.4762C18.4327 29.1762 18.1927 28.7762 18.0527 28.3662C18.1827 28.3862 18.3127 28.3962 18.4527 28.4162C18.6827 28.4462 18.9227 28.4762 19.1627 28.4962C19.7327 28.5462 20.3127 28.5762 20.8927 28.5762C21.4627 28.5762 22.0327 28.5462 22.5927 28.4962C22.8027 28.4762 23.0127 28.4662 23.2127 28.4362C23.3727 28.4162 23.5327 28.3962 23.7027 28.3762Z" fill="white"/>
</svg>
