<svg width="41" height="41" viewBox="0 0 41 41" fill="none" xmlns="http://www.w3.org/2000/svg">
<rect x="0.849609" y="0.366211" width="40" height="40" rx="12" fill="#261C41"/>
<path d="M28.9496 17.5863C27.1396 17.5863 26.3996 16.3063 27.2996 14.7363C27.8196 13.8263 27.5096 12.6663 26.5996 12.1463L24.8696 11.1563C24.0796 10.6863 23.0596 10.9663 22.5896 11.7563L22.4796 11.9463C21.5796 13.5163 20.0996 13.5163 19.1896 11.9463L19.0796 11.7563C18.6296 10.9663 17.6096 10.6863 16.8196 11.1563L15.0896 12.1463C14.1796 12.6663 13.8696 13.8363 14.3896 14.7463C15.2996 16.3063 14.5596 17.5863 12.7496 17.5863C11.7096 17.5863 10.8496 18.4363 10.8496 19.4863V21.2463C10.8496 22.2863 11.6996 23.1463 12.7496 23.1463C14.5596 23.1463 15.2996 24.4263 14.3896 25.9963C13.8696 26.9063 14.1796 28.0663 15.0896 28.5863L16.8196 29.5763C17.6096 30.0463 18.6296 29.7663 19.0996 28.9763L19.2096 28.7863C20.1096 27.2163 21.5896 27.2163 22.4996 28.7863L22.6096 28.9763C23.0796 29.7663 24.0996 30.0463 24.8896 29.5763L26.6196 28.5863C27.5296 28.0663 27.8396 26.8963 27.3196 25.9963C26.4096 24.4263 27.1496 23.1463 28.9596 23.1463C29.9996 23.1463 30.8596 22.2963 30.8596 21.2463V19.4863C30.8496 18.4463 29.9996 17.5863 28.9496 17.5863ZM20.8496 23.6163C19.0596 23.6163 17.5996 22.1563 17.5996 20.3663C17.5996 18.5763 19.0596 17.1163 20.8496 17.1163C22.6396 17.1163 24.0996 18.5763 24.0996 20.3663C24.0996 22.1563 22.6396 23.6163 20.8496 23.6163Z" fill="white"/>
</svg>
