<svg width="360" height="721" viewBox="0 0 360 721" fill="none" xmlns="http://www.w3.org/2000/svg">
<rect y="0.503906" width="328" height="720" fill="#F6F4F5"/>
<rect x="48" y="48.5039" width="79.4961" height="79.4961" rx="12" fill="#261C41"/>
<path d="M71.3369 84.7278C71.3369 95.379 71.3369 106.031 71.3369 110.026M71.3369 84.7278C71.3369 71.5682 94.2571 64.7336 101.9 82.0782C104.72 88.4783 106.856 110.026 97.0034 110.026C84.5978 110.026 89.5209 71.9193 115.066 110.026M71.3369 84.7278V64.7472" stroke="#F9F9F9" stroke-width="6.46264" stroke-linecap="round" stroke-linejoin="round"/>
<path d="M149.952 53.1831C150.695 53.1831 151.346 53.4618 151.903 54.0191C152.491 54.5455 152.786 55.2113 152.786 56.0164V82.863C152.786 83.6681 152.491 84.3493 151.903 84.9067C151.315 85.4331 150.634 85.6963 149.859 85.6963C148.992 85.6963 148.296 85.4331 147.769 84.9067C147.243 84.3493 146.98 83.6681 146.98 82.863V56.0164C146.98 55.2113 147.258 54.5455 147.816 54.0191C148.373 53.4618 149.085 53.1831 149.952 53.1831ZM170.529 53.1831C171.396 53.1831 172.092 53.4618 172.619 54.0191C173.145 54.5455 173.408 55.2113 173.408 56.0164V82.863C173.408 83.6681 173.13 84.3493 172.572 84.9067C172.046 85.4331 171.334 85.6963 170.436 85.6963C169.692 85.6963 169.027 85.4331 168.438 84.9067C167.881 84.3493 167.602 83.6681 167.602 82.863V56.0164C167.602 55.2113 167.896 54.5455 168.485 54.0191C169.073 53.4618 169.754 53.1831 170.529 53.1831ZM149.813 66.6993H170.529V72.0407H149.813V66.6993ZM203.448 53.1366C204.253 53.1366 204.903 53.4153 205.399 53.9727C205.894 54.4991 206.142 55.1648 206.142 55.9699V72.7839C206.142 75.354 205.585 77.6299 204.47 79.6117C203.386 81.5934 201.884 83.1417 199.965 84.2564C198.045 85.3712 195.815 85.9285 193.276 85.9285C190.737 85.9285 188.492 85.3712 186.541 84.2564C184.621 83.1417 183.104 81.5934 181.989 79.6117C180.906 77.6299 180.364 75.354 180.364 72.7839V55.9699C180.364 55.1648 180.642 54.4991 181.2 53.9727C181.757 53.4153 182.469 53.1366 183.336 53.1366C184.049 53.1366 184.683 53.4153 185.241 53.9727C185.829 54.4991 186.123 55.1648 186.123 55.9699V72.7839C186.123 74.3321 186.448 75.6791 187.099 76.8248C187.78 77.9396 188.662 78.8066 189.746 79.4259C190.861 80.0452 192.038 80.3548 193.276 80.3548C194.608 80.3548 195.846 80.0452 196.992 79.4259C198.138 78.8066 199.067 77.9396 199.779 76.8248C200.491 75.6791 200.847 74.3321 200.847 72.7839V55.9699C200.847 55.1648 201.079 54.4991 201.544 53.9727C202.008 53.4153 202.643 53.1366 203.448 53.1366ZM224.121 85.6963C223.254 85.6963 222.542 85.4331 221.984 84.9067C221.427 84.3493 221.148 83.6681 221.148 82.863V55.9235H227.186V82.863C227.186 83.6681 226.892 84.3493 226.304 84.9067C225.747 85.4331 225.019 85.6963 224.121 85.6963ZM213.856 58.5245C213.051 58.5245 212.37 58.2768 211.812 57.7814C211.286 57.2859 211.023 56.6357 211.023 55.8306C211.023 55.0255 211.286 54.3907 211.812 53.9262C212.37 53.4308 213.051 53.1831 213.856 53.1831H234.479C235.284 53.1831 235.95 53.4308 236.476 53.9262C237.033 54.4217 237.312 55.0719 237.312 55.877C237.312 56.6821 237.033 57.3324 236.476 57.8278C235.95 58.2923 235.284 58.5245 234.479 58.5245H213.856ZM161.518 92.1831C164.49 92.1831 166.704 92.8798 168.16 94.2732C169.615 95.6666 170.343 97.7258 170.343 100.451C170.343 101.906 169.987 103.191 169.274 104.306C168.562 105.39 167.509 106.241 166.116 106.86C164.723 107.449 163.004 107.743 160.96 107.743L161.146 105.653C162.106 105.653 163.205 105.792 164.444 106.071C165.682 106.319 166.875 106.783 168.02 107.464C169.197 108.115 170.157 109.043 170.9 110.251C171.674 111.428 172.061 112.945 172.061 114.803C172.061 116.847 171.721 118.519 171.039 119.819C170.389 121.12 169.522 122.126 168.438 122.838C167.355 123.551 166.193 124.046 164.955 124.325C163.716 124.572 162.524 124.696 161.378 124.696H149.813C149.008 124.696 148.327 124.433 147.769 123.907C147.243 123.349 146.98 122.668 146.98 121.863V95.0164C146.98 94.2113 147.243 93.5455 147.769 93.0191C148.327 92.4618 149.008 92.1831 149.813 92.1831H161.518ZM160.682 97.6639H152.414L153.018 96.9207V105.328L152.46 104.91H160.821C161.719 104.91 162.524 104.616 163.236 104.027C163.948 103.439 164.305 102.587 164.305 101.473C164.305 100.141 163.964 99.1812 163.283 98.5928C162.632 97.9735 161.765 97.6639 160.682 97.6639ZM161.053 110.39H152.6L153.018 110.019V119.819L152.553 119.355H161.378C162.803 119.355 163.933 118.983 164.769 118.24C165.605 117.466 166.023 116.32 166.023 114.803C166.023 113.41 165.744 112.403 165.187 111.784C164.63 111.165 163.964 110.778 163.19 110.623C162.416 110.468 161.703 110.39 161.053 110.39ZM207.328 108.44C207.328 110.762 206.941 112.93 206.166 114.942C205.392 116.955 204.293 118.736 202.869 120.284C201.475 121.801 199.803 122.993 197.852 123.86C195.932 124.727 193.827 125.161 191.535 125.161C189.244 125.161 187.138 124.727 185.219 123.86C183.299 122.993 181.627 121.801 180.202 120.284C178.809 118.736 177.725 116.955 176.951 114.942C176.177 112.93 175.79 110.762 175.79 108.44C175.79 106.117 176.177 103.95 176.951 101.937C177.725 99.9243 178.809 98.1593 180.202 96.642C181.627 95.0938 183.299 93.8861 185.219 93.0191C187.138 92.1521 189.244 91.7186 191.535 91.7186C193.827 91.7186 195.932 92.1521 197.852 93.0191C199.803 93.8861 201.475 95.0938 202.869 96.642C204.293 98.1593 205.392 99.9243 206.166 101.937C206.941 103.95 207.328 106.117 207.328 108.44ZM201.289 108.44C201.289 106.365 200.871 104.492 200.035 102.82C199.199 101.116 198.054 99.7695 196.598 98.7786C195.143 97.7877 193.455 97.2923 191.535 97.2923C189.616 97.2923 187.928 97.7877 186.473 98.7786C185.017 99.7695 183.872 101.101 183.036 102.773C182.23 104.445 181.828 106.334 181.828 108.44C181.828 110.514 182.23 112.403 183.036 114.106C183.872 115.778 185.017 117.11 186.473 118.101C187.928 119.092 189.616 119.587 191.535 119.587C193.455 119.587 195.143 119.092 196.598 118.101C198.054 117.11 199.199 115.778 200.035 114.106C200.871 112.403 201.289 110.514 201.289 108.44ZM222.76 124.696C221.893 124.696 221.181 124.433 220.624 123.907C220.066 123.349 219.787 122.668 219.787 121.863V94.9235H225.826V121.863C225.826 122.668 225.531 123.349 224.943 123.907C224.386 124.433 223.658 124.696 222.76 124.696ZM212.495 97.5245C211.69 97.5245 211.009 97.2768 210.452 96.7814C209.925 96.2859 209.662 95.6357 209.662 94.8306C209.662 94.0255 209.925 93.3907 210.452 92.9262C211.009 92.4308 211.69 92.1831 212.495 92.1831H233.118C233.923 92.1831 234.589 92.4308 235.115 92.9262C235.673 93.4217 235.951 94.0719 235.951 94.877C235.951 95.6821 235.673 96.3324 235.115 96.8278C234.589 97.2923 233.923 97.5245 233.118 97.5245H212.495Z" fill="#0D0D0D"/>
<rect x="0.5" y="176.004" width="327" height="279" stroke="#F6F4F5"/>
<path d="M0 175.504H328V231.504H0V175.504Z" fill="#F6F4F5"/>
<path d="M0 176.004H328V175.004H0V176.004ZM328 231.004H0V232.004H328V231.004Z" fill="#DCDCDC"/>
<path d="M68.04 198.324L62.28 194.294C60.71 193.194 58.3 193.254 56.79 194.424L51.78 198.334C50.78 199.114 49.99 200.714 49.99 201.974V208.874C49.99 211.424 52.06 213.504 54.61 213.504H65.39C67.94 213.504 70.01 211.434 70.01 208.884V202.104C70.01 200.754 69.14 199.094 68.04 198.324ZM60.75 209.504C60.75 209.914 60.41 210.254 60 210.254C59.59 210.254 59.25 209.914 59.25 209.504V206.504C59.25 206.094 59.59 205.754 60 205.754C60.41 205.754 60.75 206.094 60.75 206.504V209.504Z" fill="#4A4A4A"/>
<path d="M90.502 197.404C90.79 197.404 91.042 197.512 91.258 197.728C91.486 197.932 91.6 198.19 91.6 198.502V208.906C91.6 209.218 91.486 209.482 91.258 209.698C91.03 209.902 90.766 210.004 90.466 210.004C90.13 210.004 89.86 209.902 89.656 209.698C89.452 209.482 89.35 209.218 89.35 208.906V198.502C89.35 198.19 89.458 197.932 89.674 197.728C89.89 197.512 90.166 197.404 90.502 197.404ZM98.476 197.404C98.812 197.404 99.082 197.512 99.286 197.728C99.49 197.932 99.592 198.19 99.592 198.502V208.906C99.592 209.218 99.484 209.482 99.268 209.698C99.064 209.902 98.788 210.004 98.44 210.004C98.152 210.004 97.894 209.902 97.666 209.698C97.45 209.482 97.342 209.218 97.342 208.906V198.502C97.342 198.19 97.456 197.932 97.684 197.728C97.912 197.512 98.176 197.404 98.476 197.404ZM90.448 202.642H98.476V204.712H90.448V202.642ZM111.45 205.198C111.45 206.182 111.228 207.052 110.784 207.808C110.352 208.552 109.764 209.134 109.02 209.554C108.288 209.974 107.466 210.184 106.554 210.184C105.642 210.184 104.814 209.974 104.07 209.554C103.338 209.134 102.75 208.552 102.306 207.808C101.874 207.052 101.658 206.182 101.658 205.198C101.658 204.214 101.874 203.35 102.306 202.606C102.75 201.85 103.338 201.262 104.07 200.842C104.814 200.41 105.642 200.194 106.554 200.194C107.466 200.194 108.288 200.41 109.02 200.842C109.764 201.262 110.352 201.85 110.784 202.606C111.228 203.35 111.45 204.214 111.45 205.198ZM109.29 205.198C109.29 204.586 109.164 204.058 108.912 203.614C108.672 203.158 108.342 202.804 107.922 202.552C107.514 202.3 107.058 202.174 106.554 202.174C106.05 202.174 105.588 202.3 105.168 202.552C104.76 202.804 104.43 203.158 104.178 203.614C103.938 204.058 103.818 204.586 103.818 205.198C103.818 205.798 103.938 206.326 104.178 206.782C104.43 207.226 104.76 207.574 105.168 207.826C105.588 208.078 106.05 208.204 106.554 208.204C107.058 208.204 107.514 208.078 107.922 207.826C108.342 207.574 108.672 207.226 108.912 206.782C109.164 206.326 109.29 205.798 109.29 205.198ZM118.398 200.194C119.358 200.194 120.066 200.428 120.522 200.896C120.978 201.352 121.278 201.946 121.422 202.678L121.116 202.516L121.26 202.228C121.404 201.952 121.626 201.658 121.926 201.346C122.226 201.022 122.586 200.752 123.006 200.536C123.438 200.308 123.918 200.194 124.446 200.194C125.31 200.194 125.964 200.38 126.408 200.752C126.864 201.124 127.176 201.622 127.344 202.246C127.512 202.858 127.596 203.542 127.596 204.298V208.906C127.596 209.218 127.494 209.482 127.29 209.698C127.086 209.902 126.828 210.004 126.516 210.004C126.204 210.004 125.946 209.902 125.742 209.698C125.538 209.482 125.436 209.218 125.436 208.906V204.298C125.436 203.902 125.388 203.548 125.292 203.236C125.196 202.912 125.022 202.654 124.77 202.462C124.518 202.27 124.158 202.174 123.69 202.174C123.234 202.174 122.844 202.27 122.52 202.462C122.196 202.654 121.95 202.912 121.782 203.236C121.626 203.548 121.548 203.902 121.548 204.298V208.906C121.548 209.218 121.446 209.482 121.242 209.698C121.038 209.902 120.78 210.004 120.468 210.004C120.156 210.004 119.898 209.902 119.694 209.698C119.49 209.482 119.388 209.218 119.388 208.906V204.298C119.388 203.902 119.34 203.548 119.244 203.236C119.148 202.912 118.974 202.654 118.722 202.462C118.47 202.27 118.11 202.174 117.642 202.174C117.186 202.174 116.796 202.27 116.472 202.462C116.148 202.654 115.902 202.912 115.734 203.236C115.578 203.548 115.5 203.902 115.5 204.298V208.906C115.5 209.218 115.398 209.482 115.194 209.698C114.99 209.902 114.732 210.004 114.42 210.004C114.108 210.004 113.85 209.902 113.646 209.698C113.442 209.482 113.34 209.218 113.34 208.906V201.472C113.34 201.16 113.442 200.902 113.646 200.698C113.85 200.482 114.108 200.374 114.42 200.374C114.732 200.374 114.99 200.482 115.194 200.698C115.398 200.902 115.5 201.16 115.5 201.472V202.246L115.23 202.192C115.338 201.988 115.488 201.772 115.68 201.544C115.872 201.304 116.106 201.082 116.382 200.878C116.658 200.674 116.964 200.512 117.3 200.392C117.636 200.26 118.002 200.194 118.398 200.194ZM134.47 210.184C133.45 210.184 132.562 209.974 131.806 209.554C131.062 209.122 130.486 208.54 130.078 207.808C129.682 207.076 129.484 206.248 129.484 205.324C129.484 204.244 129.7 203.326 130.132 202.57C130.576 201.802 131.152 201.214 131.86 200.806C132.568 200.398 133.318 200.194 134.11 200.194C134.722 200.194 135.298 200.32 135.838 200.572C136.39 200.824 136.876 201.172 137.296 201.616C137.716 202.048 138.046 202.552 138.286 203.128C138.538 203.704 138.664 204.316 138.664 204.964C138.652 205.252 138.538 205.486 138.322 205.666C138.106 205.846 137.854 205.936 137.566 205.936H130.69L130.15 204.136H136.756L136.36 204.496V204.01C136.336 203.662 136.21 203.35 135.982 203.074C135.766 202.798 135.49 202.582 135.154 202.426C134.83 202.258 134.482 202.174 134.11 202.174C133.75 202.174 133.414 202.222 133.102 202.318C132.79 202.414 132.52 202.576 132.292 202.804C132.064 203.032 131.884 203.338 131.752 203.722C131.62 204.106 131.554 204.592 131.554 205.18C131.554 205.828 131.686 206.38 131.95 206.836C132.226 207.28 132.574 207.622 132.994 207.862C133.426 208.09 133.882 208.204 134.362 208.204C134.806 208.204 135.16 208.168 135.424 208.096C135.688 208.024 135.898 207.94 136.054 207.844C136.222 207.736 136.372 207.646 136.504 207.574C136.72 207.466 136.924 207.412 137.116 207.412C137.38 207.412 137.596 207.502 137.764 207.682C137.944 207.862 138.034 208.072 138.034 208.312C138.034 208.636 137.866 208.93 137.53 209.194C137.218 209.458 136.78 209.692 136.216 209.896C135.652 210.088 135.07 210.184 134.47 210.184Z" fill="#4A4A4A"/>
<path d="M0 231.504H328V287.504H0V231.504Z" fill="#261C41"/>
<path d="M0 232.004H328V231.004H0V232.004ZM328 287.004H0V288.004H328V287.004Z" fill="#DCDCDC"/>
<path d="M67 262.504C64.79 262.504 63 264.294 63 266.504C63 267.254 63.21 267.964 63.58 268.564C64.27 269.724 65.54 270.504 67 270.504C68.46 270.504 69.73 269.724 70.42 268.564C70.79 267.964 71 267.254 71 266.504C71 264.294 69.21 262.504 67 262.504ZM69.07 266.074L66.94 268.044C66.8 268.174 66.61 268.244 66.43 268.244C66.24 268.244 66.05 268.174 65.9 268.024L64.91 267.034C64.62 266.744 64.62 266.264 64.91 265.974C65.2 265.684 65.68 265.684 65.97 265.974L66.45 266.454L68.05 264.974C68.35 264.694 68.83 264.714 69.11 265.014C69.39 265.314 69.37 265.784 69.07 266.074Z" fill="white"/>
<path d="M70 255.054V255.504C70 256.054 69.55 256.504 69 256.504H51C50.45 256.504 50 256.054 50 255.504V255.044C50 252.754 51.85 250.904 54.14 250.904H65.85C68.14 250.904 70 252.764 70 255.054Z" fill="white"/>
<path d="M50 259.004V263.964C50 266.254 51.85 268.104 54.14 268.104H60.4C60.98 268.104 61.48 267.614 61.43 267.034C61.29 265.504 61.78 263.844 63.14 262.524C63.7 261.974 64.39 261.554 65.14 261.314C66.39 260.914 67.6 260.964 68.67 261.324C69.32 261.544 70 261.074 70 260.384V258.994C70 258.444 69.55 257.994 69 257.994H51C50.45 258.004 50 258.454 50 259.004ZM56 264.754H54C53.59 264.754 53.25 264.414 53.25 264.004C53.25 263.594 53.59 263.254 54 263.254H56C56.41 263.254 56.75 263.594 56.75 264.004C56.75 264.414 56.41 264.754 56 264.754Z" fill="white"/>
<path d="M94.75 253.404C95.614 253.404 96.382 253.566 97.054 253.89C97.726 254.214 98.29 254.67 98.746 255.258C99.214 255.834 99.562 256.506 99.79 257.274C100.03 258.03 100.15 258.84 100.15 259.704C100.15 260.868 99.94 261.93 99.52 262.89C99.1 263.838 98.488 264.594 97.684 265.158C96.892 265.722 95.914 266.004 94.75 266.004H90.448C90.136 266.004 89.872 265.902 89.656 265.698C89.452 265.482 89.35 265.218 89.35 264.906V254.502C89.35 254.19 89.452 253.932 89.656 253.728C89.872 253.512 90.136 253.404 90.448 253.404H94.75ZM94.57 263.934C95.326 263.934 95.944 263.742 96.424 263.358C96.904 262.962 97.252 262.446 97.468 261.81C97.696 261.162 97.81 260.46 97.81 259.704C97.81 259.14 97.744 258.606 97.612 258.102C97.492 257.586 97.3 257.136 97.036 256.752C96.772 256.356 96.436 256.044 96.028 255.816C95.62 255.588 95.134 255.474 94.57 255.474H91.42L91.6 255.312V264.132L91.492 263.934H94.57ZM106.714 266.184C105.694 266.184 104.806 265.974 104.05 265.554C103.306 265.122 102.73 264.54 102.322 263.808C101.926 263.076 101.728 262.248 101.728 261.324C101.728 260.244 101.944 259.326 102.376 258.57C102.82 257.802 103.396 257.214 104.104 256.806C104.812 256.398 105.562 256.194 106.354 256.194C106.966 256.194 107.542 256.32 108.082 256.572C108.634 256.824 109.12 257.172 109.54 257.616C109.96 258.048 110.29 258.552 110.53 259.128C110.782 259.704 110.908 260.316 110.908 260.964C110.896 261.252 110.782 261.486 110.566 261.666C110.35 261.846 110.098 261.936 109.81 261.936H102.934L102.394 260.136H109L108.604 260.496V260.01C108.58 259.662 108.454 259.35 108.226 259.074C108.01 258.798 107.734 258.582 107.398 258.426C107.074 258.258 106.726 258.174 106.354 258.174C105.994 258.174 105.658 258.222 105.346 258.318C105.034 258.414 104.764 258.576 104.536 258.804C104.308 259.032 104.128 259.338 103.996 259.722C103.864 260.106 103.798 260.592 103.798 261.18C103.798 261.828 103.93 262.38 104.194 262.836C104.47 263.28 104.818 263.622 105.238 263.862C105.67 264.09 106.126 264.204 106.606 264.204C107.05 264.204 107.404 264.168 107.668 264.096C107.932 264.024 108.142 263.94 108.298 263.844C108.466 263.736 108.616 263.646 108.748 263.574C108.964 263.466 109.168 263.412 109.36 263.412C109.624 263.412 109.84 263.502 110.008 263.682C110.188 263.862 110.278 264.072 110.278 264.312C110.278 264.636 110.11 264.93 109.774 265.194C109.462 265.458 109.024 265.692 108.46 265.896C107.896 266.088 107.314 266.184 106.714 266.184ZM113.139 256.374C113.367 256.374 113.577 256.434 113.769 256.554C113.961 256.662 114.105 256.83 114.201 257.058L116.847 263.106L116.451 263.286L119.151 257.076C119.355 256.596 119.673 256.368 120.105 256.392C120.405 256.392 120.645 256.488 120.825 256.68C121.017 256.86 121.113 257.088 121.113 257.364C121.113 257.448 121.095 257.538 121.059 257.634C121.035 257.73 121.005 257.82 120.969 257.904L117.603 265.32C117.411 265.752 117.105 265.98 116.685 266.004C116.457 266.04 116.235 265.998 116.019 265.878C115.815 265.758 115.659 265.572 115.551 265.32L112.203 257.904C112.179 257.844 112.149 257.766 112.113 257.67C112.089 257.574 112.077 257.46 112.077 257.328C112.077 257.112 112.173 256.902 112.365 256.698C112.557 256.482 112.815 256.374 113.139 256.374ZM124.849 264.906C124.849 265.218 124.747 265.482 124.543 265.698C124.339 265.902 124.081 266.004 123.769 266.004C123.457 266.004 123.199 265.902 122.995 265.698C122.791 265.482 122.689 265.218 122.689 264.906V257.472C122.689 257.16 122.791 256.902 122.995 256.698C123.199 256.482 123.457 256.374 123.769 256.374C124.081 256.374 124.339 256.482 124.543 256.698C124.747 256.902 124.849 257.16 124.849 257.472V264.906ZM123.751 255.204C123.343 255.204 123.055 255.138 122.887 255.006C122.719 254.874 122.635 254.64 122.635 254.304V253.962C122.635 253.614 122.725 253.38 122.905 253.26C123.097 253.128 123.385 253.062 123.769 253.062C124.189 253.062 124.483 253.128 124.651 253.26C124.819 253.392 124.903 253.626 124.903 253.962V254.304C124.903 254.652 124.813 254.892 124.633 255.024C124.453 255.144 124.159 255.204 123.751 255.204ZM131.352 256.194C132.036 256.194 132.63 256.266 133.134 256.41C133.65 256.554 134.046 256.758 134.322 257.022C134.61 257.274 134.754 257.58 134.754 257.94C134.754 258.18 134.682 258.408 134.538 258.624C134.394 258.828 134.184 258.93 133.908 258.93C133.716 258.93 133.554 258.906 133.422 258.858C133.302 258.798 133.194 258.726 133.098 258.642C133.002 258.558 132.888 258.48 132.756 258.408C132.636 258.336 132.45 258.282 132.198 258.246C131.958 258.198 131.778 258.174 131.658 258.174C131.046 258.174 130.524 258.306 130.092 258.57C129.672 258.834 129.348 259.194 129.12 259.65C128.892 260.094 128.778 260.61 128.778 261.198C128.778 261.774 128.892 262.29 129.12 262.746C129.36 263.19 129.684 263.544 130.092 263.808C130.512 264.072 130.992 264.204 131.532 264.204C131.832 264.204 132.09 264.186 132.306 264.15C132.522 264.114 132.702 264.06 132.846 263.988C133.014 263.892 133.164 263.79 133.296 263.682C133.428 263.574 133.626 263.52 133.89 263.52C134.202 263.52 134.442 263.622 134.61 263.826C134.778 264.018 134.862 264.258 134.862 264.546C134.862 264.846 134.694 265.122 134.358 265.374C134.022 265.614 133.578 265.812 133.026 265.968C132.486 266.112 131.898 266.184 131.262 266.184C130.314 266.184 129.492 265.968 128.796 265.536C128.1 265.092 127.56 264.492 127.176 263.736C126.804 262.98 126.618 262.134 126.618 261.198C126.618 260.214 126.816 259.35 127.212 258.606C127.62 257.85 128.178 257.262 128.886 256.842C129.606 256.41 130.428 256.194 131.352 256.194ZM140.956 266.184C139.936 266.184 139.048 265.974 138.292 265.554C137.548 265.122 136.972 264.54 136.564 263.808C136.168 263.076 135.97 262.248 135.97 261.324C135.97 260.244 136.186 259.326 136.618 258.57C137.062 257.802 137.638 257.214 138.346 256.806C139.054 256.398 139.804 256.194 140.596 256.194C141.208 256.194 141.784 256.32 142.324 256.572C142.876 256.824 143.362 257.172 143.782 257.616C144.202 258.048 144.532 258.552 144.772 259.128C145.024 259.704 145.15 260.316 145.15 260.964C145.138 261.252 145.024 261.486 144.808 261.666C144.592 261.846 144.34 261.936 144.052 261.936H137.176L136.636 260.136H143.242L142.846 260.496V260.01C142.822 259.662 142.696 259.35 142.468 259.074C142.252 258.798 141.976 258.582 141.64 258.426C141.316 258.258 140.968 258.174 140.596 258.174C140.236 258.174 139.9 258.222 139.588 258.318C139.276 258.414 139.006 258.576 138.778 258.804C138.55 259.032 138.37 259.338 138.238 259.722C138.106 260.106 138.04 260.592 138.04 261.18C138.04 261.828 138.172 262.38 138.436 262.836C138.712 263.28 139.06 263.622 139.48 263.862C139.912 264.09 140.368 264.204 140.848 264.204C141.292 264.204 141.646 264.168 141.91 264.096C142.174 264.024 142.384 263.94 142.54 263.844C142.708 263.736 142.858 263.646 142.99 263.574C143.206 263.466 143.41 263.412 143.602 263.412C143.866 263.412 144.082 263.502 144.25 263.682C144.43 263.862 144.52 264.072 144.52 264.312C144.52 264.636 144.352 264.93 144.016 265.194C143.704 265.458 143.266 265.692 142.702 265.896C142.138 266.088 141.556 266.184 140.956 266.184ZM154.512 264.906C154.512 265.218 154.398 265.482 154.17 265.698C153.942 265.902 153.678 266.004 153.378 266.004C153.042 266.004 152.772 265.902 152.568 265.698C152.364 265.482 152.262 265.218 152.262 264.906V254.502C152.262 254.19 152.37 253.932 152.586 253.728C152.802 253.512 153.078 253.404 153.414 253.404C153.702 253.404 153.954 253.512 154.17 253.728C154.398 253.932 154.512 254.19 154.512 254.502V264.906ZM162.187 256.194C163.075 256.194 163.747 256.38 164.203 256.752C164.671 257.124 164.989 257.622 165.157 258.246C165.337 258.858 165.427 259.542 165.427 260.298V264.906C165.427 265.218 165.325 265.482 165.121 265.698C164.917 265.902 164.659 266.004 164.347 266.004C164.035 266.004 163.777 265.902 163.573 265.698C163.369 265.482 163.267 265.218 163.267 264.906V260.298C163.267 259.902 163.213 259.548 163.105 259.236C163.009 258.912 162.829 258.654 162.565 258.462C162.301 258.27 161.923 258.174 161.431 258.174C160.951 258.174 160.543 258.27 160.207 258.462C159.883 258.654 159.631 258.912 159.451 259.236C159.283 259.548 159.199 259.902 159.199 260.298V264.906C159.199 265.218 159.097 265.482 158.893 265.698C158.689 265.902 158.431 266.004 158.119 266.004C157.807 266.004 157.549 265.902 157.345 265.698C157.141 265.482 157.039 265.218 157.039 264.906V257.472C157.039 257.16 157.141 256.902 157.345 256.698C157.549 256.482 157.807 256.374 158.119 256.374C158.431 256.374 158.689 256.482 158.893 256.698C159.097 256.902 159.199 257.16 159.199 257.472V258.246L158.929 258.192C159.037 257.988 159.193 257.772 159.397 257.544C159.601 257.304 159.841 257.082 160.117 256.878C160.393 256.674 160.705 256.512 161.053 256.392C161.401 256.26 161.779 256.194 162.187 256.194ZM172.712 252.684C172.976 252.684 173.234 252.72 173.486 252.792C173.738 252.864 173.948 252.984 174.116 253.152C174.284 253.308 174.368 253.518 174.368 253.782C174.368 254.082 174.278 254.322 174.098 254.502C173.93 254.67 173.732 254.754 173.504 254.754C173.396 254.754 173.234 254.73 173.018 254.682C172.802 254.622 172.592 254.592 172.388 254.592C172.088 254.592 171.854 254.658 171.686 254.79C171.53 254.922 171.422 255.078 171.362 255.258C171.302 255.426 171.272 255.576 171.272 255.708V264.906C171.272 265.218 171.17 265.482 170.966 265.698C170.762 265.902 170.504 266.004 170.192 266.004C169.88 266.004 169.622 265.902 169.418 265.698C169.214 265.482 169.112 265.218 169.112 264.906V255.726C169.112 254.874 169.412 254.154 170.012 253.566C170.612 252.978 171.512 252.684 172.712 252.684ZM172.91 256.554C173.198 256.554 173.438 256.65 173.63 256.842C173.822 257.022 173.918 257.256 173.918 257.544C173.918 257.832 173.822 258.072 173.63 258.264C173.438 258.444 173.198 258.534 172.91 258.534H168.14C167.852 258.534 167.612 258.444 167.42 258.264C167.228 258.072 167.132 257.832 167.132 257.544C167.132 257.256 167.228 257.022 167.42 256.842C167.612 256.65 167.852 256.554 168.14 256.554H172.91ZM184.416 261.198C184.416 262.182 184.194 263.052 183.75 263.808C183.318 264.552 182.73 265.134 181.986 265.554C181.254 265.974 180.432 266.184 179.52 266.184C178.608 266.184 177.78 265.974 177.036 265.554C176.304 265.134 175.716 264.552 175.272 263.808C174.84 263.052 174.624 262.182 174.624 261.198C174.624 260.214 174.84 259.35 175.272 258.606C175.716 257.85 176.304 257.262 177.036 256.842C177.78 256.41 178.608 256.194 179.52 256.194C180.432 256.194 181.254 256.41 181.986 256.842C182.73 257.262 183.318 257.85 183.75 258.606C184.194 259.35 184.416 260.214 184.416 261.198ZM182.256 261.198C182.256 260.586 182.13 260.058 181.878 259.614C181.638 259.158 181.308 258.804 180.888 258.552C180.48 258.3 180.024 258.174 179.52 258.174C179.016 258.174 178.554 258.3 178.134 258.552C177.726 258.804 177.396 259.158 177.144 259.614C176.904 260.058 176.784 260.586 176.784 261.198C176.784 261.798 176.904 262.326 177.144 262.782C177.396 263.226 177.726 263.574 178.134 263.826C178.554 264.078 179.016 264.204 179.52 264.204C180.024 264.204 180.48 264.078 180.888 263.826C181.308 263.574 181.638 263.226 181.878 262.782C182.13 262.326 182.256 261.798 182.256 261.198Z" fill="white"/>
<path d="M0 287.504H328V343.504H0V287.504Z" fill="#F6F4F5"/>
<path d="M0 288.004H328V287.004H0V288.004ZM328 343.004H0V344.004H328V343.004Z" fill="#DCDCDC"/>
<path d="M53 318.504C52.06 318.504 51.19 318.834 50.5 319.384C49.58 320.114 49 321.244 49 322.504C49 323.254 49.21 323.964 49.58 324.564C50.27 325.724 51.54 326.504 53 326.504C54.01 326.504 54.93 326.134 55.63 325.504C55.94 325.244 56.21 324.924 56.42 324.564C56.79 323.964 57 323.254 57 322.504C57 320.294 55.21 318.504 53 318.504ZM55.07 322.074L52.94 324.044C52.8 324.174 52.61 324.244 52.43 324.244C52.24 324.244 52.05 324.174 51.9 324.024L50.91 323.034C50.62 322.744 50.62 322.264 50.91 321.974C51.2 321.684 51.68 321.684 51.97 321.974L52.45 322.454L54.05 320.974C54.35 320.694 54.83 320.714 55.11 321.014C55.39 321.314 55.37 321.794 55.07 322.074Z" fill="#4A4A4A"/>
<path d="M62.85 307.454V311.254H61.35V307.454C61.35 307.184 61.11 307.054 60.95 307.054C60.9 307.054 60.85 307.064 60.8 307.084L52.87 310.074C52.34 310.274 52 310.774 52 311.344V312.014C51.09 312.694 50.5 313.784 50.5 315.014V311.344C50.5 310.154 51.23 309.094 52.34 308.674L60.28 305.674C60.5 305.594 60.73 305.554 60.95 305.554C61.95 305.554 62.85 306.364 62.85 307.454Z" fill="#4A4A4A"/>
<path d="M69.4999 318.004V319.004C69.4999 319.274 69.2899 319.494 69.0099 319.504H67.5499C67.0199 319.504 66.5399 319.114 66.4999 318.594C66.4699 318.284 66.5899 317.994 66.7899 317.794C66.9699 317.604 67.2199 317.504 67.4899 317.504H68.9999C69.2899 317.514 69.4999 317.734 69.4999 318.004Z" fill="#4A4A4A"/>
<path d="M67.48 316.454H68.5C69.05 316.454 69.5 316.004 69.5 315.454V315.014C69.5 312.944 67.81 311.254 65.74 311.254H54.26C53.41 311.254 52.63 311.534 52 312.014C51.09 312.694 50.5 313.784 50.5 315.014V316.794C50.5 317.174 50.9 317.414 51.26 317.294C51.82 317.104 52.41 317.004 53 317.004C56.03 317.004 58.5 319.474 58.5 322.504C58.5 323.224 58.31 324.014 58.01 324.714C57.85 325.074 58.1 325.504 58.49 325.504H65.74C67.81 325.504 69.5 323.814 69.5 321.744V321.554C69.5 321.004 69.05 320.554 68.5 320.554H67.63C66.67 320.554 65.75 319.964 65.5 319.034C65.3 318.274 65.54 317.534 66.04 317.054C66.41 316.674 66.92 316.454 67.48 316.454ZM62 316.254H57C56.59 316.254 56.25 315.914 56.25 315.504C56.25 315.094 56.59 314.754 57 314.754H62C62.41 314.754 62.75 315.094 62.75 315.504C62.75 315.914 62.41 316.254 62 316.254Z" fill="#4A4A4A"/>
<path d="M93.256 322.184C92.368 322.184 91.588 322.052 90.916 321.788C90.244 321.524 89.596 321.104 88.972 320.528C88.888 320.444 88.816 320.354 88.756 320.258C88.708 320.15 88.684 320.036 88.684 319.916C88.684 319.724 88.75 319.556 88.882 319.412C89.026 319.256 89.2 319.178 89.404 319.178C89.572 319.178 89.722 319.244 89.854 319.376C90.322 319.832 90.826 320.18 91.366 320.42C91.918 320.66 92.536 320.78 93.22 320.78C93.748 320.78 94.222 320.696 94.642 320.528C95.074 320.36 95.416 320.126 95.668 319.826C95.92 319.526 96.046 319.178 96.046 318.782C96.034 318.302 95.89 317.906 95.614 317.594C95.35 317.282 94.978 317.024 94.498 316.82C94.03 316.604 93.484 316.424 92.86 316.28C92.308 316.148 91.798 315.986 91.33 315.794C90.874 315.602 90.478 315.368 90.142 315.092C89.806 314.804 89.542 314.462 89.35 314.066C89.17 313.658 89.08 313.184 89.08 312.644C89.08 311.96 89.26 311.36 89.62 310.844C89.98 310.328 90.478 309.932 91.114 309.656C91.75 309.368 92.482 309.224 93.31 309.224C94.042 309.224 94.732 309.344 95.38 309.584C96.04 309.824 96.568 310.154 96.964 310.574C97.204 310.802 97.324 311.024 97.324 311.24C97.324 311.42 97.246 311.588 97.09 311.744C96.946 311.888 96.778 311.96 96.586 311.96C96.454 311.96 96.334 311.912 96.226 311.816C96.022 311.588 95.764 311.384 95.452 311.204C95.14 311.024 94.798 310.88 94.426 310.772C94.054 310.664 93.682 310.61 93.31 310.61C92.758 310.61 92.272 310.694 91.852 310.862C91.432 311.018 91.102 311.246 90.862 311.546C90.634 311.834 90.52 312.182 90.52 312.59C90.52 313.046 90.652 313.424 90.916 313.724C91.18 314.012 91.534 314.252 91.978 314.444C92.422 314.624 92.914 314.786 93.454 314.93C94.042 315.074 94.582 315.242 95.074 315.434C95.578 315.614 96.01 315.842 96.37 316.118C96.73 316.394 97.006 316.748 97.198 317.18C97.402 317.6 97.504 318.122 97.504 318.746C97.504 319.406 97.318 319.994 96.946 320.51C96.574 321.026 96.064 321.434 95.416 321.734C94.78 322.022 94.06 322.172 93.256 322.184ZM107.336 312.608C107.54 312.608 107.708 312.68 107.84 312.824C107.984 312.956 108.056 313.124 108.056 313.328V321.266C108.056 321.47 107.984 321.644 107.84 321.788C107.708 321.932 107.54 322.004 107.336 322.004C107.12 322.004 106.946 321.932 106.814 321.788C106.682 321.644 106.616 321.47 106.616 321.266V319.556L106.958 319.52C106.958 319.784 106.868 320.072 106.688 320.384C106.508 320.696 106.262 320.99 105.95 321.266C105.638 321.53 105.266 321.752 104.834 321.932C104.414 322.1 103.958 322.184 103.466 322.184C102.65 322.184 101.918 321.974 101.27 321.554C100.622 321.122 100.106 320.54 99.7219 319.808C99.3499 319.076 99.1639 318.242 99.1639 317.306C99.1639 316.358 99.3499 315.524 99.7219 314.804C100.106 314.072 100.622 313.502 101.27 313.094C101.918 312.674 102.638 312.464 103.43 312.464C103.946 312.464 104.426 312.548 104.87 312.716C105.314 312.884 105.698 313.112 106.022 313.4C106.358 313.688 106.616 314.006 106.796 314.354C106.988 314.702 107.084 315.05 107.084 315.398L106.616 315.29V313.328C106.616 313.124 106.682 312.956 106.814 312.824C106.946 312.68 107.12 312.608 107.336 312.608ZM103.628 320.852C104.228 320.852 104.756 320.696 105.212 320.384C105.68 320.072 106.04 319.652 106.292 319.124C106.556 318.584 106.688 317.978 106.688 317.306C106.688 316.646 106.556 316.052 106.292 315.524C106.04 314.984 105.68 314.564 105.212 314.264C104.756 313.952 104.228 313.796 103.628 313.796C103.04 313.796 102.512 313.946 102.044 314.246C101.588 314.546 101.228 314.96 100.964 315.488C100.7 316.016 100.568 316.622 100.568 317.306C100.568 317.978 100.694 318.584 100.946 319.124C101.21 319.652 101.57 320.072 102.026 320.384C102.494 320.696 103.028 320.852 103.628 320.852ZM110.514 312.536C110.658 312.536 110.796 312.578 110.928 312.662C111.06 312.734 111.156 312.842 111.216 312.986L114.204 320.006L113.916 320.15L116.958 313.004C117.09 312.68 117.312 312.524 117.624 312.536C117.804 312.536 117.96 312.596 118.092 312.716C118.224 312.836 118.29 312.986 118.29 313.166C118.29 313.238 118.278 313.31 118.254 313.382C118.242 313.442 118.224 313.496 118.2 313.544L114.726 321.536C114.594 321.836 114.384 321.992 114.096 322.004C113.94 322.016 113.79 321.986 113.646 321.914C113.514 321.83 113.418 321.704 113.358 321.536L109.884 313.562C109.86 313.514 109.836 313.46 109.812 313.4C109.8 313.34 109.794 313.268 109.794 313.184C109.794 313.028 109.854 312.884 109.974 312.752C110.106 312.608 110.286 312.536 110.514 312.536ZM124.448 322.184C123.488 322.184 122.648 321.98 121.928 321.572C121.208 321.164 120.644 320.606 120.236 319.898C119.84 319.178 119.642 318.35 119.642 317.414C119.642 316.37 119.846 315.482 120.254 314.75C120.674 314.006 121.214 313.442 121.874 313.058C122.546 312.662 123.254 312.464 123.998 312.464C124.55 312.464 125.084 312.566 125.6 312.77C126.116 312.974 126.572 313.274 126.968 313.67C127.364 314.054 127.682 314.522 127.922 315.074C128.162 315.614 128.288 316.22 128.3 316.892C128.3 317.084 128.228 317.246 128.084 317.378C127.94 317.51 127.772 317.576 127.58 317.576H120.47L120.146 316.334H127.076L126.788 316.586V316.19C126.74 315.698 126.572 315.278 126.284 314.93C126.008 314.57 125.666 314.294 125.258 314.102C124.862 313.91 124.442 313.814 123.998 313.814C123.638 313.814 123.278 313.88 122.918 314.012C122.57 314.132 122.252 314.336 121.964 314.624C121.688 314.9 121.46 315.26 121.28 315.704C121.112 316.148 121.028 316.682 121.028 317.306C121.028 318.002 121.166 318.614 121.442 319.142C121.73 319.67 122.126 320.09 122.63 320.402C123.134 320.702 123.722 320.852 124.394 320.852C124.814 320.852 125.18 320.798 125.492 320.69C125.804 320.582 126.074 320.45 126.302 320.294C126.53 320.126 126.722 319.958 126.878 319.79C127.034 319.682 127.184 319.628 127.328 319.628C127.508 319.628 127.652 319.688 127.76 319.808C127.88 319.928 127.94 320.072 127.94 320.24C127.94 320.444 127.844 320.624 127.652 320.78C127.316 321.152 126.86 321.482 126.284 321.77C125.708 322.046 125.096 322.184 124.448 322.184Z" fill="#4A4A4A"/>
<path d="M0 343.504H328V399.504H0V343.504Z" fill="#F6F4F5"/>
<path d="M0 344.004H328V343.004H0V344.004ZM328 399.004H0V400.004H328V399.004Z" fill="#DCDCDC"/>
<path d="M65.91 370.224H62.82V363.024C62.82 361.344 61.91 361.004 60.8 362.264L60 363.174L53.23 370.874C52.3 371.924 52.69 372.784 54.09 372.784H57.18V379.984C57.18 381.664 58.09 382.004 59.2 380.744L60 379.834L66.77 372.134C67.7 371.084 67.31 370.224 65.91 370.224Z" fill="#4A4A4A"/>
<path d="M91.078 377.266C91.078 377.47 91 377.644 90.844 377.788C90.7 377.932 90.526 378.004 90.322 378.004C90.094 378.004 89.914 377.932 89.782 377.788C89.65 377.644 89.584 377.47 89.584 377.266V366.142C89.584 365.926 89.656 365.752 89.8 365.62C89.944 365.476 90.124 365.404 90.34 365.404C90.544 365.404 90.718 365.476 90.862 365.62C91.006 365.752 91.078 365.926 91.078 366.142V377.266ZM98.6162 368.464C99.4322 368.464 100.074 368.632 100.542 368.968C101.01 369.304 101.34 369.754 101.532 370.318C101.736 370.882 101.838 371.512 101.838 372.208V377.266C101.838 377.47 101.766 377.644 101.622 377.788C101.49 377.932 101.322 378.004 101.118 378.004C100.914 378.004 100.74 377.932 100.596 377.788C100.464 377.644 100.398 377.47 100.398 377.266V372.244C100.398 371.788 100.326 371.38 100.182 371.02C100.05 370.648 99.8222 370.354 99.4982 370.138C99.1862 369.91 98.7542 369.796 98.2022 369.796C97.6982 369.796 97.2362 369.91 96.8162 370.138C96.3962 370.354 96.0602 370.648 95.8082 371.02C95.5562 371.38 95.4302 371.788 95.4302 372.244V377.266C95.4302 377.47 95.3582 377.644 95.2142 377.788C95.0822 377.932 94.9142 378.004 94.7102 378.004C94.5062 378.004 94.3322 377.932 94.1882 377.788C94.0562 377.644 93.9902 377.47 93.9902 377.266V369.418C93.9902 369.214 94.0562 369.046 94.1882 368.914C94.3322 368.77 94.5062 368.698 94.7102 368.698C94.9262 368.698 95.1002 368.77 95.2322 368.914C95.3642 369.046 95.4302 369.214 95.4302 369.418V370.696L95.0702 371.092C95.1302 370.78 95.2682 370.468 95.4842 370.156C95.7002 369.832 95.9702 369.544 96.2942 369.292C96.6182 369.04 96.9782 368.842 97.3742 368.698C97.7702 368.542 98.1842 368.464 98.6162 368.464ZM104.414 368.536C104.558 368.536 104.696 368.578 104.828 368.662C104.96 368.734 105.056 368.842 105.116 368.986L108.104 376.006L107.816 376.15L110.858 369.004C110.99 368.68 111.212 368.524 111.524 368.536C111.704 368.536 111.86 368.596 111.992 368.716C112.124 368.836 112.19 368.986 112.19 369.166C112.19 369.238 112.178 369.31 112.154 369.382C112.142 369.442 112.124 369.496 112.1 369.544L108.626 377.536C108.494 377.836 108.284 377.992 107.996 378.004C107.84 378.016 107.69 377.986 107.546 377.914C107.414 377.83 107.318 377.704 107.258 377.536L103.784 369.562C103.76 369.514 103.736 369.46 103.712 369.4C103.7 369.34 103.694 369.268 103.694 369.184C103.694 369.028 103.754 368.884 103.874 368.752C104.006 368.608 104.186 368.536 104.414 368.536ZM118.349 378.184C117.389 378.184 116.549 377.98 115.829 377.572C115.109 377.164 114.545 376.606 114.137 375.898C113.741 375.178 113.543 374.35 113.543 373.414C113.543 372.37 113.747 371.482 114.155 370.75C114.575 370.006 115.115 369.442 115.775 369.058C116.447 368.662 117.155 368.464 117.899 368.464C118.451 368.464 118.985 368.566 119.501 368.77C120.017 368.974 120.473 369.274 120.869 369.67C121.265 370.054 121.583 370.522 121.823 371.074C122.063 371.614 122.189 372.22 122.201 372.892C122.201 373.084 122.129 373.246 121.985 373.378C121.841 373.51 121.673 373.576 121.481 373.576H114.371L114.047 372.334H120.977L120.689 372.586V372.19C120.641 371.698 120.473 371.278 120.185 370.93C119.909 370.57 119.567 370.294 119.159 370.102C118.763 369.91 118.343 369.814 117.899 369.814C117.539 369.814 117.179 369.88 116.819 370.012C116.471 370.132 116.153 370.336 115.865 370.624C115.589 370.9 115.361 371.26 115.181 371.704C115.013 372.148 114.929 372.682 114.929 373.306C114.929 374.002 115.067 374.614 115.343 375.142C115.631 375.67 116.027 376.09 116.531 376.402C117.035 376.702 117.623 376.852 118.295 376.852C118.715 376.852 119.081 376.798 119.393 376.69C119.705 376.582 119.975 376.45 120.203 376.294C120.431 376.126 120.623 375.958 120.779 375.79C120.935 375.682 121.085 375.628 121.229 375.628C121.409 375.628 121.553 375.688 121.661 375.808C121.781 375.928 121.841 376.072 121.841 376.24C121.841 376.444 121.745 376.624 121.553 376.78C121.217 377.152 120.761 377.482 120.185 377.77C119.609 378.046 118.997 378.184 118.349 378.184ZM123.843 376.528C123.735 376.372 123.687 376.21 123.699 376.042C123.711 375.862 123.813 375.706 124.005 375.574C124.125 375.49 124.263 375.454 124.419 375.466C124.587 375.478 124.737 375.556 124.869 375.7C125.205 376.096 125.589 376.414 126.021 376.654C126.453 376.882 126.981 376.996 127.605 376.996C127.893 376.984 128.181 376.936 128.469 376.852C128.757 376.768 128.997 376.624 129.189 376.42C129.393 376.204 129.495 375.922 129.495 375.574C129.495 375.238 129.393 374.974 129.189 374.782C128.985 374.578 128.721 374.416 128.397 374.296C128.073 374.164 127.719 374.05 127.335 373.954C126.939 373.846 126.549 373.726 126.165 373.594C125.781 373.45 125.433 373.276 125.121 373.072C124.821 372.856 124.575 372.592 124.383 372.28C124.203 371.956 124.113 371.566 124.113 371.11C124.113 370.57 124.257 370.102 124.545 369.706C124.845 369.31 125.241 369.004 125.733 368.788C126.237 368.572 126.783 368.464 127.371 368.464C127.707 368.464 128.055 368.506 128.415 368.59C128.787 368.662 129.147 368.794 129.495 368.986C129.843 369.166 130.149 369.418 130.413 369.742C130.521 369.862 130.581 370.012 130.593 370.192C130.605 370.372 130.527 370.534 130.359 370.678C130.227 370.774 130.077 370.816 129.909 370.804C129.753 370.792 129.621 370.732 129.513 370.624C129.261 370.324 128.943 370.096 128.559 369.94C128.187 369.772 127.773 369.688 127.317 369.688C127.029 369.688 126.747 369.73 126.471 369.814C126.195 369.898 125.961 370.042 125.769 370.246C125.589 370.438 125.499 370.708 125.499 371.056C125.511 371.38 125.619 371.644 125.823 371.848C126.027 372.052 126.303 372.22 126.651 372.352C126.999 372.472 127.383 372.592 127.803 372.712C128.187 372.808 128.553 372.922 128.901 373.054C129.261 373.174 129.585 373.336 129.873 373.54C130.161 373.744 130.389 374.008 130.557 374.332C130.725 374.644 130.809 375.04 130.809 375.52C130.809 376.072 130.653 376.552 130.341 376.96C130.029 377.356 129.615 377.662 129.099 377.878C128.595 378.082 128.049 378.184 127.461 378.184C126.801 378.184 126.147 378.058 125.499 377.806C124.863 377.554 124.311 377.128 123.843 376.528ZM132.531 368.752H136.761C136.953 368.752 137.109 368.818 137.229 368.95C137.361 369.082 137.427 369.238 137.427 369.418C137.427 369.61 137.361 369.772 137.229 369.904C137.109 370.024 136.953 370.084 136.761 370.084H132.531C132.351 370.084 132.195 370.018 132.063 369.886C131.931 369.754 131.865 369.592 131.865 369.4C131.865 369.22 131.931 369.07 132.063 368.95C132.195 368.818 132.351 368.752 132.531 368.752ZM134.421 366.304C134.625 366.304 134.793 366.376 134.925 366.52C135.057 366.652 135.123 366.82 135.123 367.024V375.718C135.123 376.006 135.165 376.222 135.249 376.366C135.333 376.51 135.441 376.612 135.573 376.672C135.717 376.72 135.855 376.744 135.987 376.744C136.107 376.744 136.209 376.726 136.293 376.69C136.389 376.642 136.497 376.618 136.617 376.618C136.737 376.618 136.845 376.678 136.941 376.798C137.049 376.906 137.103 377.05 137.103 377.23C137.103 377.446 136.977 377.632 136.725 377.788C136.473 377.932 136.191 378.004 135.879 378.004C135.711 378.004 135.501 377.992 135.249 377.968C135.009 377.944 134.769 377.866 134.529 377.734C134.289 377.602 134.085 377.386 133.917 377.086C133.761 376.774 133.683 376.342 133.683 375.79V367.024C133.683 366.82 133.755 366.652 133.899 366.52C134.043 366.376 134.217 366.304 134.421 366.304Z" fill="#4A4A4A"/>
<path d="M0 399.504H328V455.504H0V399.504Z" fill="#F6F4F5"/>
<path d="M0 400.004H328V399.004H0V400.004ZM328 455.004H0V456.004H328V455.004Z" fill="#DCDCDC"/>
<path d="M70 427.504C70 421.994 65.51 417.504 60 417.504C54.49 417.504 50 421.994 50 427.504C50 430.404 51.25 433.014 53.23 434.844C53.23 434.854 53.23 434.854 53.22 434.864C53.32 434.964 53.44 435.044 53.54 435.134C53.6 435.184 53.65 435.234 53.71 435.274C53.89 435.424 54.09 435.564 54.28 435.704C54.35 435.754 54.41 435.794 54.48 435.844C54.67 435.974 54.87 436.094 55.08 436.204C55.15 436.244 55.23 436.294 55.3 436.334C55.5 436.444 55.71 436.544 55.93 436.634C56.01 436.674 56.09 436.714 56.17 436.744C56.39 436.834 56.61 436.914 56.83 436.984C56.91 437.014 56.99 437.044 57.07 437.064C57.31 437.134 57.55 437.194 57.79 437.254C57.86 437.274 57.93 437.294 58.01 437.304C58.29 437.364 58.57 437.404 58.86 437.434C58.9 437.434 58.94 437.444 58.98 437.454C59.32 437.484 59.66 437.504 60 437.504C60.34 437.504 60.68 437.484 61.01 437.454C61.05 437.454 61.09 437.444 61.13 437.434C61.42 437.404 61.7 437.364 61.98 437.304C62.05 437.294 62.12 437.264 62.2 437.254C62.44 437.194 62.69 437.144 62.92 437.064C63 437.034 63.08 437.004 63.16 436.984C63.38 436.904 63.61 436.834 63.82 436.744C63.9 436.714 63.98 436.674 64.06 436.634C64.27 436.544 64.48 436.444 64.69 436.334C64.77 436.294 64.84 436.244 64.91 436.204C65.11 436.084 65.31 435.974 65.51 435.844C65.58 435.804 65.64 435.754 65.71 435.704C65.91 435.564 66.1 435.424 66.28 435.274C66.34 435.224 66.39 435.174 66.45 435.134C66.56 435.044 66.67 434.954 66.77 434.864C66.77 434.854 66.77 434.854 66.76 434.844C68.75 433.014 70 430.404 70 427.504ZM64.94 432.474C62.23 430.654 57.79 430.654 55.06 432.474C54.62 432.764 54.26 433.104 53.96 433.474C52.44 431.934 51.5 429.824 51.5 427.504C51.5 422.814 55.31 419.004 60 419.004C64.69 419.004 68.5 422.814 68.5 427.504C68.5 429.824 67.56 431.934 66.04 433.474C65.75 433.104 65.38 432.764 64.94 432.474Z" fill="#4A4A4A"/>
<path d="M60 422.434C57.93 422.434 56.25 424.114 56.25 426.184C56.25 428.214 57.84 429.864 59.95 429.924C59.98 429.924 60.02 429.924 60.04 429.924C60.06 429.924 60.09 429.924 60.11 429.924C60.12 429.924 60.13 429.924 60.13 429.924C62.15 429.854 63.74 428.214 63.75 426.184C63.75 424.114 62.07 422.434 60 422.434Z" fill="#4A4A4A"/>
<path d="M97.252 421.332C97.456 421.332 97.624 421.41 97.756 421.566C97.9 421.71 97.972 421.878 97.972 422.07C97.972 422.142 97.96 422.22 97.936 422.304C97.924 422.376 97.894 422.448 97.846 422.52L93.67 428.334L93.904 427.452V433.266C93.904 433.47 93.832 433.644 93.688 433.788C93.556 433.932 93.394 434.004 93.202 434.004C92.986 434.004 92.806 433.932 92.662 433.788C92.53 433.644 92.464 433.47 92.464 433.266V427.596L92.59 428.064L88.54 422.592C88.468 422.496 88.414 422.406 88.378 422.322C88.354 422.226 88.342 422.136 88.342 422.052C88.342 421.848 88.426 421.68 88.594 421.548C88.762 421.404 88.93 421.332 89.098 421.332C89.338 421.332 89.536 421.446 89.692 421.674L93.418 426.786L93.076 426.732L96.658 421.692C96.814 421.452 97.012 421.332 97.252 421.332ZM107.732 429.324C107.732 430.26 107.523 431.094 107.103 431.826C106.695 432.558 106.137 433.134 105.429 433.554C104.733 433.974 103.947 434.184 103.071 434.184C102.195 434.184 101.403 433.974 100.695 433.554C99.9865 433.134 99.4225 432.558 99.0025 431.826C98.5945 431.094 98.3905 430.26 98.3905 429.324C98.3905 428.388 98.5945 427.554 99.0025 426.822C99.4225 426.09 99.9865 425.514 100.695 425.094C101.403 424.674 102.195 424.464 103.071 424.464C103.947 424.464 104.733 424.674 105.429 425.094C106.137 425.514 106.695 426.09 107.103 426.822C107.523 427.554 107.732 428.388 107.732 429.324ZM106.293 429.324C106.293 428.628 106.149 428.016 105.861 427.488C105.585 426.96 105.201 426.546 104.709 426.246C104.229 425.946 103.683 425.796 103.071 425.796C102.459 425.796 101.907 425.946 101.415 426.246C100.935 426.546 100.551 426.96 100.263 427.488C99.9745 428.016 99.8305 428.628 99.8305 429.324C99.8305 430.008 99.9745 430.614 100.263 431.142C100.551 431.67 100.935 432.09 101.415 432.402C101.907 432.702 102.459 432.852 103.071 432.852C103.683 432.852 104.229 432.702 104.709 432.402C105.201 432.09 105.585 431.67 105.861 431.142C106.149 430.614 106.293 430.008 106.293 429.324ZM116.864 424.698C117.08 424.698 117.254 424.77 117.386 424.914C117.518 425.046 117.584 425.214 117.584 425.418V430.332C117.584 431.544 117.242 432.486 116.558 433.158C115.886 433.818 114.944 434.148 113.732 434.148C112.532 434.148 111.59 433.818 110.906 433.158C110.234 432.486 109.898 431.544 109.898 430.332V425.418C109.898 425.214 109.964 425.046 110.096 424.914C110.24 424.77 110.414 424.698 110.618 424.698C110.834 424.698 111.008 424.77 111.14 424.914C111.272 425.046 111.338 425.214 111.338 425.418V430.332C111.338 431.148 111.548 431.766 111.968 432.186C112.388 432.606 112.976 432.816 113.732 432.816C114.512 432.816 115.106 432.606 115.514 432.186C115.934 431.766 116.144 431.148 116.144 430.332V425.418C116.144 425.214 116.21 425.046 116.342 424.914C116.486 424.77 116.66 424.698 116.864 424.698ZM120.972 434.004C120.768 434.004 120.594 433.932 120.45 433.788C120.318 433.644 120.252 433.47 120.252 433.266V425.418C120.252 425.214 120.318 425.046 120.45 424.914C120.594 424.77 120.768 424.698 120.972 424.698C121.188 424.698 121.362 424.77 121.494 424.914C121.626 425.046 121.692 425.214 121.692 425.418V427.794L121.476 427.416C121.548 427.044 121.674 426.684 121.854 426.336C122.046 425.976 122.286 425.658 122.574 425.382C122.862 425.094 123.192 424.872 123.564 424.716C123.936 424.548 124.344 424.464 124.788 424.464C125.052 424.464 125.292 424.53 125.508 424.662C125.736 424.782 125.85 424.956 125.85 425.184C125.85 425.436 125.784 425.622 125.652 425.742C125.52 425.862 125.37 425.922 125.202 425.922C125.046 425.922 124.896 425.892 124.752 425.832C124.608 425.76 124.428 425.724 124.212 425.724C123.912 425.724 123.612 425.808 123.312 425.976C123.024 426.132 122.754 426.36 122.502 426.66C122.262 426.96 122.064 427.302 121.908 427.686C121.764 428.058 121.692 428.46 121.692 428.892V433.266C121.692 433.47 121.62 433.644 121.476 433.788C121.344 433.932 121.176 434.004 120.972 434.004ZM137.618 421.404C138.278 421.404 138.872 421.566 139.4 421.89C139.928 422.214 140.342 422.658 140.642 423.222C140.954 423.786 141.11 424.428 141.11 425.148C141.11 425.856 140.954 426.498 140.642 427.074C140.342 427.65 139.928 428.106 139.4 428.442C138.872 428.778 138.278 428.946 137.618 428.946H133.964L134.09 428.73V433.266C134.09 433.47 134.024 433.644 133.892 433.788C133.76 433.932 133.592 434.004 133.388 434.004C133.172 434.004 132.998 433.932 132.866 433.788C132.746 433.644 132.686 433.47 132.686 433.266V422.124C132.686 421.92 132.752 421.752 132.884 421.62C133.028 421.476 133.202 421.404 133.406 421.404H137.618ZM137.618 427.56C138.014 427.56 138.362 427.452 138.662 427.236C138.962 427.02 139.202 426.726 139.382 426.354C139.562 425.982 139.652 425.58 139.652 425.148C139.652 424.692 139.562 424.29 139.382 423.942C139.202 423.594 138.962 423.318 138.662 423.114C138.362 422.898 138.014 422.79 137.618 422.79H133.964L134.09 422.592V427.74L133.964 427.56H137.618ZM143.929 434.004C143.725 434.004 143.551 433.932 143.407 433.788C143.275 433.644 143.209 433.47 143.209 433.266V425.418C143.209 425.214 143.275 425.046 143.407 424.914C143.551 424.77 143.725 424.698 143.929 424.698C144.145 424.698 144.319 424.77 144.451 424.914C144.583 425.046 144.649 425.214 144.649 425.418V427.794L144.433 427.416C144.505 427.044 144.631 426.684 144.811 426.336C145.003 425.976 145.243 425.658 145.531 425.382C145.819 425.094 146.149 424.872 146.521 424.716C146.893 424.548 147.301 424.464 147.745 424.464C148.009 424.464 148.249 424.53 148.465 424.662C148.693 424.782 148.807 424.956 148.807 425.184C148.807 425.436 148.741 425.622 148.609 425.742C148.477 425.862 148.327 425.922 148.159 425.922C148.003 425.922 147.853 425.892 147.709 425.832C147.565 425.76 147.385 425.724 147.169 425.724C146.869 425.724 146.569 425.808 146.269 425.976C145.981 426.132 145.711 426.36 145.459 426.66C145.219 426.96 145.021 427.302 144.865 427.686C144.721 428.058 144.649 428.46 144.649 428.892V433.266C144.649 433.47 144.577 433.644 144.433 433.788C144.301 433.932 144.133 434.004 143.929 434.004ZM158.867 429.324C158.867 430.26 158.657 431.094 158.237 431.826C157.829 432.558 157.271 433.134 156.563 433.554C155.867 433.974 155.081 434.184 154.205 434.184C153.329 434.184 152.537 433.974 151.829 433.554C151.121 433.134 150.557 432.558 150.137 431.826C149.729 431.094 149.525 430.26 149.525 429.324C149.525 428.388 149.729 427.554 150.137 426.822C150.557 426.09 151.121 425.514 151.829 425.094C152.537 424.674 153.329 424.464 154.205 424.464C155.081 424.464 155.867 424.674 156.563 425.094C157.271 425.514 157.829 426.09 158.237 426.822C158.657 427.554 158.867 428.388 158.867 429.324ZM157.427 429.324C157.427 428.628 157.283 428.016 156.995 427.488C156.719 426.96 156.335 426.546 155.843 426.246C155.363 425.946 154.817 425.796 154.205 425.796C153.593 425.796 153.041 425.946 152.549 426.246C152.069 426.546 151.685 426.96 151.397 427.488C151.109 428.016 150.965 428.628 150.965 429.324C150.965 430.008 151.109 430.614 151.397 431.142C151.685 431.67 152.069 432.09 152.549 432.402C153.041 432.702 153.593 432.852 154.205 432.852C154.817 432.852 155.363 432.702 155.843 432.402C156.335 432.09 156.719 431.67 156.995 431.142C157.283 430.614 157.427 430.008 157.427 429.324ZM164.921 420.72C165.125 420.72 165.335 420.744 165.551 420.792C165.779 420.84 165.971 420.924 166.127 421.044C166.295 421.164 166.379 421.326 166.379 421.53C166.379 421.722 166.319 421.884 166.199 422.016C166.079 422.136 165.935 422.196 165.767 422.196C165.659 422.196 165.509 422.166 165.317 422.106C165.125 422.034 164.927 421.998 164.723 421.998C164.447 421.998 164.219 422.058 164.039 422.178C163.871 422.298 163.745 422.46 163.661 422.664C163.589 422.856 163.553 423.072 163.553 423.312V433.266C163.553 433.47 163.481 433.644 163.337 433.788C163.205 433.932 163.037 434.004 162.833 434.004C162.617 434.004 162.443 433.932 162.311 433.788C162.179 433.644 162.113 433.47 162.113 433.266V423.33C162.113 422.526 162.359 421.89 162.851 421.422C163.355 420.954 164.045 420.72 164.921 420.72ZM165.425 424.842C165.617 424.842 165.779 424.908 165.911 425.04C166.043 425.16 166.109 425.316 166.109 425.508C166.109 425.7 166.043 425.862 165.911 425.994C165.779 426.114 165.617 426.174 165.425 426.174H160.907C160.715 426.174 160.553 426.108 160.421 425.976C160.289 425.844 160.223 425.688 160.223 425.508C160.223 425.304 160.289 425.142 160.421 425.022C160.553 424.902 160.715 424.842 160.907 424.842H165.425ZM169.367 433.266C169.367 433.47 169.295 433.644 169.151 433.788C169.019 433.932 168.851 434.004 168.647 434.004C168.431 434.004 168.257 433.932 168.125 433.788C167.993 433.644 167.927 433.47 167.927 433.266V425.274C167.927 425.07 167.993 424.902 168.125 424.77C168.269 424.626 168.443 424.554 168.647 424.554C168.851 424.554 169.019 424.626 169.151 424.77C169.295 424.902 169.367 425.07 169.367 425.274V433.266ZM168.629 423.348C168.329 423.348 168.107 423.288 167.963 423.168C167.819 423.048 167.747 422.862 167.747 422.61V422.358C167.747 422.106 167.825 421.92 167.981 421.8C168.137 421.68 168.359 421.62 168.647 421.62C168.935 421.62 169.151 421.68 169.295 421.8C169.439 421.92 169.511 422.106 169.511 422.358V422.61C169.511 422.862 169.433 423.048 169.277 423.168C169.133 423.288 168.917 423.348 168.629 423.348ZM173.551 433.266C173.551 433.47 173.479 433.644 173.335 433.788C173.191 433.932 173.017 434.004 172.813 434.004C172.609 434.004 172.441 433.932 172.309 433.788C172.177 433.644 172.111 433.47 172.111 433.266V421.404C172.111 421.2 172.177 421.032 172.309 420.9C172.453 420.756 172.627 420.684 172.831 420.684C173.047 420.684 173.221 420.756 173.353 420.9C173.485 421.032 173.551 421.2 173.551 421.404V433.266ZM180.47 434.184C179.51 434.184 178.67 433.98 177.95 433.572C177.23 433.164 176.666 432.606 176.258 431.898C175.862 431.178 175.664 430.35 175.664 429.414C175.664 428.37 175.868 427.482 176.276 426.75C176.696 426.006 177.236 425.442 177.896 425.058C178.568 424.662 179.276 424.464 180.02 424.464C180.572 424.464 181.106 424.566 181.622 424.77C182.138 424.974 182.594 425.274 182.99 425.67C183.386 426.054 183.704 426.522 183.944 427.074C184.184 427.614 184.31 428.22 184.322 428.892C184.322 429.084 184.25 429.246 184.106 429.378C183.962 429.51 183.794 429.576 183.602 429.576H176.492L176.168 428.334H183.098L182.81 428.586V428.19C182.762 427.698 182.594 427.278 182.306 426.93C182.03 426.57 181.688 426.294 181.28 426.102C180.884 425.91 180.464 425.814 180.02 425.814C179.66 425.814 179.3 425.88 178.94 426.012C178.592 426.132 178.274 426.336 177.986 426.624C177.71 426.9 177.482 427.26 177.302 427.704C177.134 428.148 177.05 428.682 177.05 429.306C177.05 430.002 177.188 430.614 177.464 431.142C177.752 431.67 178.148 432.09 178.652 432.402C179.156 432.702 179.744 432.852 180.416 432.852C180.836 432.852 181.202 432.798 181.514 432.69C181.826 432.582 182.096 432.45 182.324 432.294C182.552 432.126 182.744 431.958 182.9 431.79C183.056 431.682 183.206 431.628 183.35 431.628C183.53 431.628 183.674 431.688 183.782 431.808C183.902 431.928 183.962 432.072 183.962 432.24C183.962 432.444 183.866 432.624 183.674 432.78C183.338 433.152 182.882 433.482 182.306 433.77C181.73 434.046 181.118 434.184 180.47 434.184Z" fill="#4A4A4A"/>
</svg>
