<svg width="36" height="36" viewBox="0 0 36 36" fill="none" xmlns="http://www.w3.org/2000/svg">
<rect width="36" height="36" rx="8" fill="#261C41"/>
<path d="M26 12.75C27.5188 12.75 28.75 11.5188 28.75 10C28.75 8.48122 27.5188 7.25 26 7.25C24.4812 7.25 23.25 8.48122 23.25 10C23.25 11.5188 24.4812 12.75 26 12.75Z" fill="white"/>
<path d="M25.04 14.15C23.47 13.81 22.19 12.53 21.85 10.96C21.72 10.35 21.71 9.76 21.82 9.2C21.95 8.58 21.49 8 20.85 8H13C10.24 8 8 10.24 8 13V19.95C8 22.71 10.24 24.95 13 24.95H14.5C14.78 24.95 15.14 25.13 15.3 25.35L16.8 27.34C17.46 28.22 18.54 28.22 19.2 27.34L20.7 25.35C20.89 25.1 21.18 24.95 21.5 24.95H23.01C25.77 24.95 28 22.72 28 19.96V15.15C28 14.52 27.42 14.06 26.8 14.18C26.24 14.28 25.65 14.28 25.04 14.15ZM14 18C13.44 18 13 17.55 13 17C13 16.45 13.44 16 14 16C14.55 16 15 16.45 15 17C15 17.55 14.56 18 14 18ZM18 18C17.44 18 17 17.55 17 17C17 16.45 17.44 16 18 16C18.55 16 19 16.45 19 17C19 17.55 18.56 18 18 18ZM22 18C21.44 18 21 17.55 21 17C21 16.45 21.44 16 22 16C22.55 16 23 16.45 23 17C23 17.55 22.56 18 22 18Z" fill="white"/>
</svg>
