<svg width="163" height="52" viewBox="0 0 163 52" fill="none" xmlns="http://www.w3.org/2000/svg">
<rect x="-0.0078125" width="162.992" height="52" rx="12" fill="#E8E8E8"/>
<rect x="7.99219" y="8" width="36" height="36" rx="8" fill="#261C41"/>
<path d="M33.9922 20.75C35.511 20.75 36.7422 19.5188 36.7422 18C36.7422 16.4812 35.511 15.25 33.9922 15.25C32.4734 15.25 31.2422 16.4812 31.2422 18C31.2422 19.5188 32.4734 20.75 33.9922 20.75Z" fill="white"/>
<path d="M33.0322 22.15C31.4622 21.81 30.1822 20.53 29.8422 18.96C29.7122 18.35 29.7022 17.76 29.8122 17.2C29.9422 16.58 29.4822 16 28.8422 16H20.9922C18.2322 16 15.9922 18.24 15.9922 21V27.95C15.9922 30.71 18.2322 32.95 20.9922 32.95H22.4922C22.7722 32.95 23.1322 33.13 23.2922 33.35L24.7922 35.34C25.4522 36.22 26.5322 36.22 27.1922 35.34L28.6922 33.35C28.8822 33.1 29.1722 32.95 29.4922 32.95H31.0022C33.7622 32.95 35.9922 30.72 35.9922 27.96V23.15C35.9922 22.52 35.4122 22.06 34.7922 22.18C34.2322 22.28 33.6422 22.28 33.0322 22.15ZM21.9922 26C21.4322 26 20.9922 25.55 20.9922 25C20.9922 24.45 21.4322 24 21.9922 24C22.5422 24 22.9922 24.45 22.9922 25C22.9922 25.55 22.5522 26 21.9922 26ZM25.9922 26C25.4322 26 24.9922 25.55 24.9922 25C24.9922 24.45 25.4322 24 25.9922 24C26.5422 24 26.9922 24.45 26.9922 25C26.9922 25.55 26.5522 26 25.9922 26ZM29.9922 26C29.4322 26 28.9922 25.55 28.9922 25C28.9922 24.45 29.4322 24 29.9922 24C30.5422 24 30.9922 24.45 30.9922 25C30.9922 25.55 30.5522 26 29.9922 26Z" fill="white"/>
<path d="M59.5194 32.68C58.6554 32.68 57.8874 32.56 57.2154 32.32C56.5434 32.08 55.9014 31.684 55.2894 31.132C55.1574 31.036 55.0554 30.922 54.9834 30.79C54.9234 30.646 54.8934 30.502 54.8934 30.358C54.8934 30.13 54.9774 29.926 55.1454 29.746C55.3134 29.566 55.5234 29.476 55.7754 29.476C55.9674 29.476 56.1474 29.542 56.3154 29.674C56.7714 30.094 57.2454 30.412 57.7374 30.628C58.2414 30.844 58.8294 30.952 59.5014 30.952C59.9814 30.952 60.4194 30.874 60.8154 30.718C61.2234 30.562 61.5474 30.352 61.7874 30.088C62.0274 29.824 62.1474 29.518 62.1474 29.17C62.1474 28.738 62.0214 28.384 61.7694 28.108C61.5294 27.82 61.1754 27.586 60.7074 27.406C60.2514 27.214 59.6994 27.052 59.0514 26.92C58.4514 26.812 57.9114 26.662 57.4314 26.47C56.9634 26.278 56.5614 26.038 56.2254 25.75C55.8894 25.45 55.6314 25.096 55.4514 24.688C55.2714 24.28 55.1814 23.806 55.1814 23.266C55.1814 22.534 55.3734 21.904 55.7574 21.376C56.1414 20.848 56.6634 20.44 57.3234 20.152C57.9834 19.864 58.7274 19.72 59.5554 19.72C60.3114 19.72 61.0194 19.84 61.6794 20.08C62.3394 20.308 62.8734 20.62 63.2814 21.016C63.5694 21.268 63.7134 21.538 63.7134 21.826C63.7134 22.042 63.6234 22.246 63.4434 22.438C63.2754 22.618 63.0774 22.708 62.8494 22.708C62.6814 22.708 62.5374 22.66 62.4174 22.564C62.2254 22.36 61.9674 22.18 61.6434 22.024C61.3194 21.856 60.9714 21.718 60.5994 21.61C60.2394 21.502 59.8914 21.448 59.5554 21.448C59.0154 21.448 58.5534 21.526 58.1694 21.682C57.7854 21.826 57.4914 22.03 57.2874 22.294C57.0834 22.546 56.9814 22.846 56.9814 23.194C56.9814 23.602 57.0954 23.938 57.3234 24.202C57.5634 24.466 57.8934 24.682 58.3134 24.85C58.7334 25.006 59.2134 25.15 59.7534 25.282C60.4134 25.426 61.0014 25.588 61.5174 25.768C62.0454 25.948 62.4894 26.182 62.8494 26.47C63.2094 26.746 63.4854 27.094 63.6774 27.514C63.8694 27.934 63.9654 28.456 63.9654 29.08C63.9654 29.8 63.7614 30.43 63.3534 30.97C62.9454 31.51 62.4054 31.93 61.7334 32.23C61.0734 32.53 60.3354 32.68 59.5194 32.68ZM67.1147 19.882C67.2587 19.882 67.4087 19.918 67.5647 19.99C67.7207 20.062 67.8407 20.164 67.9247 20.296L72.4967 27.262L71.7227 27.226L76.3847 20.296C76.5767 20.02 76.8227 19.882 77.1227 19.882C77.3627 19.882 77.5727 19.972 77.7527 20.152C77.9447 20.32 78.0407 20.536 78.0407 20.8V31.582C78.0407 31.846 77.9567 32.068 77.7887 32.248C77.6207 32.416 77.3987 32.5 77.1227 32.5C76.8347 32.5 76.6007 32.416 76.4207 32.248C76.2527 32.068 76.1687 31.846 76.1687 31.582V22.456L76.7447 22.582L72.7847 28.612C72.7007 28.72 72.5927 28.816 72.4607 28.9C72.3287 28.972 72.1907 29.002 72.0467 28.99C71.9147 29.002 71.7767 28.972 71.6327 28.9C71.5007 28.816 71.3927 28.72 71.3087 28.612L67.4927 22.672L67.9247 21.952V31.582C67.9247 31.846 67.8407 32.068 67.6727 32.248C67.5167 32.416 67.3067 32.5 67.0427 32.5C66.7907 32.5 66.5807 32.416 66.4127 32.248C66.2567 32.068 66.1787 31.846 66.1787 31.582V20.8C66.1787 20.548 66.2687 20.332 66.4487 20.152C66.6407 19.972 66.8627 19.882 67.1147 19.882ZM84.8495 32.68C83.9855 32.68 83.2175 32.56 82.5455 32.32C81.8735 32.08 81.2315 31.684 80.6195 31.132C80.4875 31.036 80.3855 30.922 80.3135 30.79C80.2535 30.646 80.2235 30.502 80.2235 30.358C80.2235 30.13 80.3075 29.926 80.4755 29.746C80.6435 29.566 80.8535 29.476 81.1055 29.476C81.2975 29.476 81.4775 29.542 81.6455 29.674C82.1015 30.094 82.5755 30.412 83.0675 30.628C83.5715 30.844 84.1595 30.952 84.8315 30.952C85.3115 30.952 85.7495 30.874 86.1455 30.718C86.5535 30.562 86.8775 30.352 87.1175 30.088C87.3575 29.824 87.4775 29.518 87.4775 29.17C87.4775 28.738 87.3515 28.384 87.0995 28.108C86.8595 27.82 86.5055 27.586 86.0375 27.406C85.5815 27.214 85.0295 27.052 84.3815 26.92C83.7815 26.812 83.2415 26.662 82.7615 26.47C82.2935 26.278 81.8915 26.038 81.5555 25.75C81.2195 25.45 80.9615 25.096 80.7815 24.688C80.6015 24.28 80.5115 23.806 80.5115 23.266C80.5115 22.534 80.7035 21.904 81.0875 21.376C81.4715 20.848 81.9935 20.44 82.6535 20.152C83.3135 19.864 84.0575 19.72 84.8855 19.72C85.6415 19.72 86.3495 19.84 87.0095 20.08C87.6695 20.308 88.2035 20.62 88.6115 21.016C88.8995 21.268 89.0435 21.538 89.0435 21.826C89.0435 22.042 88.9535 22.246 88.7735 22.438C88.6055 22.618 88.4075 22.708 88.1795 22.708C88.0115 22.708 87.8675 22.66 87.7475 22.564C87.5555 22.36 87.2975 22.18 86.9735 22.024C86.6495 21.856 86.3015 21.718 85.9295 21.61C85.5695 21.502 85.2215 21.448 84.8855 21.448C84.3455 21.448 83.8835 21.526 83.4995 21.682C83.1155 21.826 82.8215 22.03 82.6175 22.294C82.4135 22.546 82.3115 22.846 82.3115 23.194C82.3115 23.602 82.4255 23.938 82.6535 24.202C82.8935 24.466 83.2235 24.682 83.6435 24.85C84.0635 25.006 84.5435 25.15 85.0835 25.282C85.7435 25.426 86.3315 25.588 86.8475 25.768C87.3755 25.948 87.8195 26.182 88.1795 26.47C88.5395 26.746 88.8155 27.094 89.0075 27.514C89.1995 27.934 89.2955 28.456 89.2955 29.08C89.2955 29.8 89.0915 30.43 88.6835 30.97C88.2755 31.51 87.7355 31.93 87.0635 32.23C86.4035 32.53 85.6655 32.68 84.8495 32.68ZM101.595 19.9C102.231 19.9 102.819 20.074 103.359 20.422C103.899 20.758 104.331 21.22 104.655 21.808C104.979 22.396 105.141 23.056 105.141 23.788C105.141 24.52 104.979 25.186 104.655 25.786C104.331 26.374 103.899 26.848 103.359 27.208C102.819 27.556 102.231 27.73 101.595 27.73H98.1205L98.2645 27.442V31.582C98.2645 31.846 98.1805 32.068 98.0125 32.248C97.8565 32.416 97.6465 32.5 97.3825 32.5C97.1305 32.5 96.9205 32.416 96.7525 32.248C96.5965 32.068 96.5185 31.846 96.5185 31.582V20.818C96.5185 20.554 96.6085 20.338 96.7885 20.17C96.9685 19.99 97.1845 19.9 97.4365 19.9H101.595ZM101.595 26.002C101.907 26.002 102.189 25.9 102.441 25.696C102.705 25.492 102.915 25.222 103.071 24.886C103.239 24.55 103.323 24.184 103.323 23.788C103.323 23.392 103.239 23.032 103.071 22.708C102.915 22.384 102.705 22.126 102.441 21.934C102.189 21.73 101.907 21.628 101.595 21.628H98.0845L98.2645 21.358V26.236L98.1025 26.002H101.595ZM108.823 31.582C108.823 31.846 108.739 32.068 108.571 32.248C108.403 32.416 108.187 32.5 107.923 32.5C107.671 32.5 107.455 32.416 107.275 32.248C107.107 32.068 107.023 31.846 107.023 31.582V23.878C107.023 23.614 107.107 23.398 107.275 23.23C107.455 23.05 107.671 22.96 107.923 22.96C108.187 22.96 108.403 23.05 108.571 23.23C108.739 23.398 108.823 23.614 108.823 23.878V31.582ZM107.905 21.772C107.557 21.772 107.305 21.712 107.149 21.592C106.993 21.46 106.915 21.244 106.915 20.944V20.656C106.915 20.356 106.999 20.146 107.167 20.026C107.335 19.906 107.587 19.846 107.923 19.846C108.283 19.846 108.541 19.912 108.697 20.044C108.853 20.164 108.931 20.368 108.931 20.656V20.944C108.931 21.256 108.847 21.472 108.679 21.592C108.523 21.712 108.265 21.772 107.905 21.772ZM116.122 22.816C116.974 22.816 117.634 22.996 118.102 23.356C118.57 23.704 118.894 24.178 119.074 24.778C119.266 25.366 119.362 26.026 119.362 26.758V31.582C119.362 31.846 119.272 32.068 119.092 32.248C118.924 32.416 118.714 32.5 118.462 32.5C118.198 32.5 117.982 32.416 117.814 32.248C117.646 32.068 117.562 31.846 117.562 31.582V26.776C117.562 26.344 117.502 25.96 117.382 25.624C117.262 25.276 117.052 25 116.752 24.796C116.464 24.58 116.056 24.472 115.528 24.472C115.036 24.472 114.604 24.58 114.232 24.796C113.86 25 113.566 25.276 113.35 25.624C113.146 25.96 113.044 26.344 113.044 26.776V31.582C113.044 31.846 112.954 32.068 112.774 32.248C112.606 32.416 112.396 32.5 112.144 32.5C111.88 32.5 111.664 32.416 111.496 32.248C111.328 32.068 111.244 31.846 111.244 31.582V23.95C111.244 23.686 111.328 23.47 111.496 23.302C111.664 23.122 111.88 23.032 112.144 23.032C112.396 23.032 112.606 23.122 112.774 23.302C112.954 23.47 113.044 23.686 113.044 23.95V24.958L112.72 25.138C112.804 24.874 112.948 24.61 113.152 24.346C113.368 24.07 113.626 23.818 113.926 23.59C114.226 23.35 114.562 23.164 114.934 23.032C115.306 22.888 115.702 22.816 116.122 22.816ZM125.804 22.816C126.32 22.816 126.794 22.9 127.226 23.068C127.658 23.236 128.03 23.452 128.342 23.716C128.666 23.968 128.918 24.232 129.098 24.508C129.278 24.784 129.368 25.024 129.368 25.228L128.954 25.246V23.806C128.954 23.554 129.038 23.338 129.206 23.158C129.374 22.978 129.59 22.888 129.854 22.888C130.118 22.888 130.334 22.978 130.502 23.158C130.67 23.326 130.754 23.542 130.754 23.806V31.744C130.754 32.764 130.538 33.592 130.106 34.228C129.674 34.876 129.098 35.35 128.378 35.65C127.67 35.95 126.89 36.1 126.038 36.1C125.738 36.1 125.384 36.058 124.976 35.974C124.568 35.902 124.19 35.812 123.842 35.704C123.506 35.596 123.272 35.488 123.14 35.38C122.864 35.236 122.678 35.068 122.582 34.876C122.498 34.684 122.498 34.492 122.582 34.3C122.702 34.036 122.864 33.874 123.068 33.814C123.272 33.754 123.506 33.772 123.77 33.868C123.89 33.904 124.076 33.97 124.328 34.066C124.58 34.162 124.862 34.246 125.174 34.318C125.486 34.402 125.78 34.444 126.056 34.444C127.016 34.444 127.736 34.222 128.216 33.778C128.708 33.334 128.954 32.728 128.954 31.96V30.34L129.152 30.466C129.116 30.718 129.002 30.976 128.81 31.24C128.63 31.492 128.39 31.726 128.09 31.942C127.79 32.158 127.442 32.338 127.046 32.482C126.662 32.614 126.266 32.68 125.858 32.68C125.006 32.68 124.244 32.47 123.572 32.05C122.9 31.618 122.366 31.036 121.97 30.304C121.574 29.56 121.376 28.708 121.376 27.748C121.376 26.788 121.574 25.942 121.97 25.21C122.366 24.466 122.894 23.884 123.554 23.464C124.226 23.032 124.976 22.816 125.804 22.816ZM126.074 24.472C125.486 24.472 124.97 24.616 124.526 24.904C124.082 25.192 123.734 25.582 123.482 26.074C123.23 26.566 123.104 27.124 123.104 27.748C123.104 28.372 123.23 28.93 123.482 29.422C123.734 29.914 124.082 30.304 124.526 30.592C124.97 30.88 125.486 31.024 126.074 31.024C126.662 31.024 127.178 30.886 127.622 30.61C128.066 30.322 128.414 29.932 128.666 29.44C128.918 28.936 129.044 28.372 129.044 27.748C129.044 27.124 128.918 26.566 128.666 26.074C128.414 25.57 128.066 25.18 127.622 24.904C127.178 24.616 126.662 24.472 126.074 24.472Z" fill="black"/>
</svg>
